<?xml version="1.0" encoding="UTF-8" standalone="no"?>
<svg
   viewBox="0 0 793.7007874015749 1122.5196850393702"
   width="793.7007874015749"
   height="1122.5196850393702"
   version="1.1"
   id="svg266"
   sodipodi:docname="bottom_cuts.svg"
   inkscape:version="1.1.1 (3bf5ae0d25, 2021-09-20)"
   xmlns:inkscape="http://www.inkscape.org/namespaces/inkscape"
   xmlns:sodipodi="http://sodipodi.sourceforge.net/DTD/sodipodi-0.dtd"
   xmlns="http://www.w3.org/2000/svg"
   xmlns:svg="http://www.w3.org/2000/svg">
  <sodipodi:namedview
     id="namedview268"
     pagecolor="#ffffff"
     bordercolor="#666666"
     borderopacity="1.0"
     inkscape:pageshadow="2"
     inkscape:pageopacity="0.0"
     inkscape:pagecheckerboard="0"
     showgrid="false"
     inkscape:snap-to-guides="false"
     inkscape:snap-grids="false"
     inkscape:zoom="1.5554293"
     inkscape:cx="273.72574"
     inkscape:cy="526.75425"
     inkscape:window-width="2560"
     inkscape:window-height="1377"
     inkscape:window-x="-8"
     inkscape:window-y="-8"
     inkscape:window-maximized="1"
     inkscape:current-layer="g264" />
  <desc
     id="desc2">top_panel.dxf - scale = 1.0, origin = (0.0, 0.0), method = manual</desc>
  <defs
     id="defs16">
    <marker
       id="DistanceX"
       orient="auto"
       refX="0.0"
       refY="0.0"
       style="overflow:visible">
      <path
         d="M 3,-3 L -3,3 M 0,-5 L  0,5"
         style="stroke:#000000; stroke-width:0.5"
         id="path4" />
    </marker>
    <pattern
       id="Hatch"
       patternUnits="userSpaceOnUse"
       width="8"
       height="8"
       x="0"
       y="0">
      <path
         d="M8 4 l-4,4"
         stroke="#000000"
         stroke-width="0.25"
         linecap="square"
         id="path7" />
      <path
         d="M6 2 l-4,4"
         stroke="#000000"
         stroke-width="0.25"
         linecap="square"
         id="path9" />
      <path
         d="M4 0 l-4,4"
         stroke="#000000"
         stroke-width="0.25"
         linecap="square"
         id="path11" />
    </pattern>
    <symbol
       id="*MODEL_SPACE" />
    <symbol
       id="*PAPER_SPACE" />
    <marker
       id="DistanceX-0"
       orient="auto"
       refX="0.0"
       refY="0.0"
       style="overflow:visible">
      <path
         d="M 3,-3 L -3,3 M 0,-5 L  0,5"
         style="stroke:#000000; stroke-width:0.5"
         id="path2373" />
    </marker>
    <pattern
       id="Hatch-4"
       patternUnits="userSpaceOnUse"
       width="8"
       height="8"
       x="0"
       y="0">
      <path
         d="M8 4 l-4,4"
         stroke="#000000"
         stroke-width="0.25"
         linecap="square"
         id="path2376" />
      <path
         d="M6 2 l-4,4"
         stroke="#000000"
         stroke-width="0.25"
         linecap="square"
         id="path2378" />
      <path
         d="M4 0 l-4,4"
         stroke="#000000"
         stroke-width="0.25"
         linecap="square"
         id="path2380" />
    </pattern>
    <symbol
       id="*MODEL_SPACE-2" />
    <symbol
       id="*PAPER_SPACE-4" />
    <marker
       id="DistanceX-8"
       orient="auto"
       refX="0.0"
       refY="0.0"
       style="overflow:visible">
      <path
         d="M 3,-3 L -3,3 M 0,-5 L  0,5"
         style="stroke:#000000; stroke-width:0.5"
         id="path826" />
    </marker>
    <pattern
       id="Hatch-46"
       patternUnits="userSpaceOnUse"
       width="8"
       height="8"
       x="0"
       y="0">
      <path
         d="M8 4 l-4,4"
         stroke="#000000"
         stroke-width="0.25"
         linecap="square"
         id="path829" />
      <path
         d="M6 2 l-4,4"
         stroke="#000000"
         stroke-width="0.25"
         linecap="square"
         id="path831" />
      <path
         d="M4 0 l-4,4"
         stroke="#000000"
         stroke-width="0.25"
         linecap="square"
         id="path833" />
    </pattern>
    <symbol
       id="*MODEL_SPACE-5" />
    <symbol
       id="*PAPER_SPACE-9" />
  </defs>
  <g
     inkscape:groupmode="layer"
     inkscape:label="0"
     id="g264">
    <path
       d="m 285.55015,808.66019 a 20.787402,20.787402 0 0 1 -20.7874,-20.7874 V 591.48096 a 20.787402,20.787402 0 0 1 20.7874,-20.7874 H 518.4144 a 20.787402,20.787402 0 0 1 20.7874,20.7874 v 196.39183 a 20.787402,20.787402 0 0 1 -20.7874,20.7874 z"
       style="fill:none;stroke:#000000"
       id="path2389" />
    <path
       d="m 379.30511,736.84919 a 22.677165,22.677165 0 1 0 45.35433,0 22.677165,22.677165 0 1 0 -45.35433,0 z"
       style="fill:none;stroke:#000000"
       id="path9067" />
    <path
       d="m 285.55015,808.66019 a 20.787402,20.787402 0 0 1 -20.7874,-20.7874 V 591.48096 a 20.787402,20.787402 0 0 1 20.7874,-20.7874 H 518.4144 a 20.787402,20.787402 0 0 1 20.7874,20.7874 v 196.39183 a 20.787402,20.787402 0 0 1 -20.7874,20.7874 z"
       style="fill:none;stroke:#000000"
       id="path9069" />
    <path
       d="m 379.30511,736.84919 a 22.677165,22.677165 0 1 0 45.35433,0 22.677165,22.677165 0 1 0 -45.35433,0 z"
       style="fill:none;stroke:#000000"
       id="path9071" />
    <circle
       style="fill:none;fill-opacity:1;stroke:#000000;stroke-width:0.649757;stroke-opacity:1"
       id="path26874"
       cx="405.13083"
       cy="621.37128"
       r="1.4719216" />
  </g>
</svg>
