<?xml version="1.0" encoding="UTF-8" standalone="no"?>
<svg
   viewBox="0 0 793.7007874015749 1122.5196850393702"
   width="793.7007874015749"
   height="1122.5196850393702"
   version="1.1"
   id="svg266"
   sodipodi:docname="sticker_125x80_hammond.svg"
   inkscape:version="1.1.1 (3bf5ae0d25, 2021-09-20)"
   xmlns:inkscape="http://www.inkscape.org/namespaces/inkscape"
   xmlns:sodipodi="http://sodipodi.sourceforge.net/DTD/sodipodi-0.dtd"
   xmlns="http://www.w3.org/2000/svg"
   xmlns:svg="http://www.w3.org/2000/svg">
  <sodipodi:namedview
     id="namedview67"
     pagecolor="#ffffff"
     bordercolor="#666666"
     borderopacity="1.0"
     inkscape:pageshadow="2"
     inkscape:pageopacity="0.0"
     inkscape:pagecheckerboard="0"
     showgrid="false"
     inkscape:zoom="0.98"
     inkscape:cx="301.53061"
     inkscape:cy="549.4898"
     inkscape:window-width="2560"
     inkscape:window-height="1377"
     inkscape:window-x="-8"
     inkscape:window-y="-8"
     inkscape:window-maximized="1"
     inkscape:current-layer="svg266" />
  <desc
     id="desc2">top_panel.dxf - scale = 1.0, origin = (0.0, 0.0), method = manual</desc>
  <defs
     id="defs16">
    <marker
       id="DistanceX"
       orient="auto"
       refX="0.0"
       refY="0.0"
       style="overflow:visible">
      <path
         d="M 3,-3 L -3,3 M 0,-5 L  0,5"
         style="stroke:#000000; stroke-width:0.5"
         id="path4" />
    </marker>
    <pattern
       id="Hatch"
       patternUnits="userSpaceOnUse"
       width="8"
       height="8"
       x="0"
       y="0">
      <path
         d="M8 4 l-4,4"
         stroke="#000000"
         stroke-width="0.25"
         linecap="square"
         id="path7" />
      <path
         d="M6 2 l-4,4"
         stroke="#000000"
         stroke-width="0.25"
         linecap="square"
         id="path9" />
      <path
         d="M4 0 l-4,4"
         stroke="#000000"
         stroke-width="0.25"
         linecap="square"
         id="path11" />
    </pattern>
    <symbol
       id="*MODEL_SPACE" />
    <symbol
       id="*PAPER_SPACE" />
    <marker
       id="DistanceX-0"
       orient="auto"
       refX="0.0"
       refY="0.0"
       style="overflow:visible">
      <path
         d="M 3,-3 L -3,3 M 0,-5 L  0,5"
         style="stroke:#000000; stroke-width:0.5"
         id="path2373" />
    </marker>
    <pattern
       id="Hatch-4"
       patternUnits="userSpaceOnUse"
       width="8"
       height="8"
       x="0"
       y="0">
      <path
         d="M8 4 l-4,4"
         stroke="#000000"
         stroke-width="0.25"
         linecap="square"
         id="path2376" />
      <path
         d="M6 2 l-4,4"
         stroke="#000000"
         stroke-width="0.25"
         linecap="square"
         id="path2378" />
      <path
         d="M4 0 l-4,4"
         stroke="#000000"
         stroke-width="0.25"
         linecap="square"
         id="path2380" />
    </pattern>
    <symbol
       id="*MODEL_SPACE-2" />
    <symbol
       id="*PAPER_SPACE-4" />
    <marker
       id="DistanceX-8"
       orient="auto"
       refX="0.0"
       refY="0.0"
       style="overflow:visible">
      <path
         d="M 3,-3 L -3,3 M 0,-5 L  0,5"
         style="stroke:#000000; stroke-width:0.5"
         id="path826" />
    </marker>
    <pattern
       id="Hatch-46"
       patternUnits="userSpaceOnUse"
       width="8"
       height="8"
       x="0"
       y="0">
      <path
         d="M8 4 l-4,4"
         stroke="#000000"
         stroke-width="0.25"
         linecap="square"
         id="path829" />
      <path
         d="M6 2 l-4,4"
         stroke="#000000"
         stroke-width="0.25"
         linecap="square"
         id="path831" />
      <path
         d="M4 0 l-4,4"
         stroke="#000000"
         stroke-width="0.25"
         linecap="square"
         id="path833" />
    </pattern>
    <symbol
       id="*MODEL_SPACE-5" />
    <symbol
       id="*PAPER_SPACE-9" />
  </defs>
  <g
     id="g4614"
     transform="translate(-20.408163,-30.612245)">
    <path
       id="rect924"
       style="fill:#000000;stroke:#000000;stroke-width:0.403518;stroke-miterlimit:4;stroke-dasharray:none;stroke-opacity:1"
       d="m 250.81445,354.39844 v 453.51758 h 359.0293 V 354.39844 Z m 280.82617,63.43359 c 0.89347,0 1.65985,0.31208 2.30079,0.93359 0.62154,0.62156 0.93359,1.37804 0.93359,2.27149 0,0.89344 -0.31207,1.66179 -0.93359,2.30273 -0.64094,0.64093 -1.40728,0.96094 -2.30079,0.96094 -0.91286,0 -1.68914,-0.31997 -2.33007,-0.96094 -0.64096,-0.64094 -0.96289,-1.40929 -0.96289,-2.30273 0,-0.89345 0.32193,-1.64993 0.96289,-2.27149 0.64093,-0.62151 1.4172,-0.93359 2.33007,-0.93359 z m -199.48242,0.0879 c 0.30687,-0.0154 0.60367,0.19794 0.57813,0.4961 -0.22591,2.6385 -0.0197,10.19849 7.82031,19.23242 7.10864,8.37997 4.35244,14.81743 3.375,16.56054 -1.86877,3.3393 -4.47383,5.29997 -7.01953,6.44532 -0.49397,0.22221 -0.68522,-0.39862 -0.38281,-0.79688 1.64155,-2.16186 4.75964,-9.32988 2.20898,-13.98633 -3.55084,-6.48234 -9.16601,-8.21875 -9.16601,-8.21875 -3.33579,1.70048 -8.20722,5.88332 -8.96094,8.95704 -1.20139,4.89933 0.15311,9.64429 4.14062,13.66796 0.35423,0.35744 -0.22215,0.86679 -0.71289,0.6543 -3.80928,-1.64885 -9.8363,-5.30313 -10.31836,-11.88476 -0.17775,-2.01117 0.0889,-4.82774 1.42188,-8.38086 1.71384,-4.50326 3.82,-6.60347 5.03906,-7.50586 0.36465,-0.26996 0.93225,-0.0322 0.90234,0.37695 -0.35523,4.85901 1.80553,6.09328 3.03516,3.31445 0.49107,-1.10991 0.77734,-3.02941 0.77734,-5.36718 0,-3.89209 1.33528,-7.90043 4.27735,-11.15626 0.76508,-0.84665 1.65844,-1.63588 2.68555,-2.31054 0.093,-0.0611 0.19653,-0.0925 0.29882,-0.0977 z m 99.88086,4.89453 c 1.74805,0 3.42697,0.25283 5.03906,0.75782 1.61208,0.50498 3.04016,1.27139 4.28321,2.30078 1.22364,1.01001 2.20334,2.30177 2.9414,3.875 0.71864,1.57323 1.07813,3.41805 1.07813,5.53515 0,1.59265 -0.23307,3.01087 -0.69922,4.25391 -0.46614,1.22363 -1.0587,2.25273 -1.77734,3.08789 -0.73806,0.8352 -1.55383,1.46726 -2.44727,1.89453 -0.89345,0.42739 -1.77637,0.64063 -2.65039,0.64063 -0.58268,0 -1.14561,-0.0968 -1.68945,-0.29102 -0.54383,-0.21366 -1.02973,-0.51584 -1.45703,-0.9043 -0.4273,-0.38846 -0.76697,-0.85459 -1.01954,-1.39843 -0.27192,-0.56326 -0.4082,-1.18345 -0.4082,-1.86329 0,-0.56325 0.0968,-1.1084 0.29102,-1.63281 0.19422,-0.54384 0.47667,-1.01988 0.8457,-1.42773 0.34961,-0.40788 0.78613,-0.72775 1.31055,-0.96094 0.50499,-0.25251 1.08767,-0.37891 1.74804,-0.37891 0.44673,0 0.84571,0.0494 1.19532,0.14649 0.33019,0.0779 0.61067,0.16462 0.84375,0.26172 0.27193,0.11649 0.50499,0.25286 0.69922,0.4082 0.0583,-0.15514 0.10758,-0.32918 0.14648,-0.52344 0.0389,-0.15538 0.0686,-0.34114 0.0879,-0.55468 0.0191,-0.23309 0.0293,-0.48569 0.0293,-0.75782 0,-1.57323 -0.23308,-2.90255 -0.69922,-3.99023 -0.48557,-1.08767 -1.11762,-1.96266 -1.89453,-2.62305 -0.79634,-0.66036 -1.69901,-1.13633 -2.70899,-1.42773 -1.00999,-0.29151 -2.03906,-0.43555 -3.08789,-0.43555 -1.16537,0 -2.27343,0.18378 -3.32226,0.55274 -1.06825,0.36902 -2.00055,0.98134 -2.79688,1.83593 -0.81576,0.85459 -1.45573,1.98044 -1.92187,3.37891 -0.48556,1.39842 -0.72852,3.11685 -0.72852,5.15625 0,2.09767 0.23307,3.98197 0.69922,5.65234 0.44672,1.65093 1.06695,3.12641 1.86328,4.42774 0.79634,1.30133 1.71876,2.42914 2.76758,3.38086 1.04883,0.95173 2.16677,1.76743 3.35156,2.44726 1.18478,0.67978 2.39757,1.23285 3.64063,1.66016 1.24305,0.42728 2.4578,0.76706 3.64258,1.01953 1.18477,0.25266 2.31065,0.42829 3.3789,0.52539 1.04883,0.0775 1.97125,0.11523 2.76758,0.11523 v 4.02149 c -1.08767,0 -2.30046,-0.079 -3.64063,-0.23438 -1.35959,-0.15537 -2.77777,-0.40625 -4.2539,-0.75586 -1.47613,-0.3496 -2.97135,-0.81574 -4.48633,-1.39843 -1.51497,-0.60212 -2.98253,-1.34084 -4.40039,-2.21485 -1.41786,-0.87402 -2.74718,-1.90312 -3.99023,-3.08789 -1.26248,-1.18476 -2.36068,-2.55553 -3.29297,-4.10937 -0.93229,-1.5538 -1.66113,-3.30188 -2.18555,-5.24414 -0.54385,-1.94226 -0.81445,-4.1071 -0.81445,-6.4961 0,-2.44729 0.33973,-4.58441 1.01953,-6.41015 0.66037,-1.82573 1.60253,-3.34072 2.82617,-4.54492 1.20421,-1.22364 2.65006,-2.13619 4.33984,-2.73829 1.67036,-0.62154 3.51714,-0.93164 5.53711,-0.93164 z m 99.37696,6.37891 h 0.43554 l 16.86914,31.29102 v 0.58203 h -34.43554 v -0.58203 z m -118.86914,0.72852 c 0.89345,-10e-6 1.66179,0.31205 2.30273,0.93359 0.62153,0.62154 0.93164,1.37804 0.93164,2.27148 0,0.89344 -0.31014,1.66177 -0.93164,2.30274 -0.64094,0.64093 -1.40932,0.96099 -2.30273,0.96093 -0.91286,10e-6 -1.68914,-0.31996 -2.33008,-0.96093 -0.64093,-0.64097 -0.96094,-1.4093 -0.96094,-2.30274 0,-0.89344 0.31997,-1.64994 0.96094,-2.27148 0.64094,-0.62162 1.4172,-0.93363 2.33008,-0.93359 z m 118.98437,7.63281 -10.69141,19.66601 h 21.5 l -10.63281,-19.66601 z m -118.98437,5.21679 c 0.89345,0 1.66179,0.32988 2.30273,0.99024 0.62153,0.64097 0.93164,1.40733 0.93164,2.30078 0,0.89344 -0.31014,1.66176 -0.93164,2.30273 -0.64094,0.64093 -1.40932,0.96094 -2.30273,0.96094 -0.91286,0 -1.68914,-0.31997 -2.33008,-0.96094 -0.64093,-0.64097 -0.96094,-1.40929 -0.96094,-2.30273 0,-0.89345 0.31997,-1.65981 0.96094,-2.30078 0.64094,-0.66021 1.4172,-0.99024 2.33008,-0.99024 z m -82.51563,4.76758 c 0.89346,0 1.66179,0.3101 2.30273,0.93164 0.62152,0.62153 0.93164,1.37999 0.93164,2.27344 0,0.89343 -0.31013,1.65981 -0.93164,2.30078 -0.64094,0.64095 -1.40927,0.96094 -2.30273,0.96094 -0.91288,0 -1.68915,-0.31999 -2.33008,-0.96094 -0.64096,-0.64097 -0.96094,-1.40735 -0.96094,-2.30078 0,-0.89345 0.31998,-1.65191 0.96094,-2.27344 0.64092,-0.62154 1.4172,-0.93164 2.33008,-0.93164 z m -0.55469,61.3125 a 1.8184221,1.8184221 0 0 1 1.81836,1.81836 1.8184221,1.8184221 0 0 1 -1.81836,1.81836 1.8184221,1.8184221 0 0 1 -1.81836,-1.81836 1.8184221,1.8184221 0 0 1 1.81836,-1.81836 z m 100.85156,0 a 1.8184221,1.8184221 0 0 1 1.81836,1.81836 1.8184221,1.8184221 0 0 1 -1.81836,1.81836 1.8184221,1.8184221 0 0 1 -1.81835,-1.81836 1.8184221,1.8184221 0 0 1 1.81835,-1.81836 z m 100.85352,0 a 1.8184221,1.8184221 0 0 1 1.81836,1.81836 1.8184221,1.8184221 0 0 1 -1.81836,1.81836 1.8184221,1.8184221 0 0 1 -1.81836,-1.81836 1.8184221,1.8184221 0 0 1 1.81836,-1.81836 z m -101.90625,89.26563 0.4668,0.0156 c 0.25629,0.009 0.48168,0.0438 0.50195,0.0762 v -0.002 c 0.0203,0.0327 0.16174,0.043 0.31445,0.0234 0.16315,-0.0209 0.25804,-0.005 0.23047,0.0391 -0.0257,0.0415 0.0101,0.0553 0.0781,0.0293 0.0681,-0.0263 0.12304,-0.0185 0.12304,0.0195 0,0.14733 0.46514,0.26557 0.94922,0.24023 0.3754,-0.0196 0.51319,0.003 0.54493,0.0859 0.0234,0.0615 0.0892,0.0936 0.14453,0.0723 0.10866,-0.0418 1.01234,0.29856 1.27148,0.47851 0.0868,0.0602 0.21583,0.10938 0.28711,0.10938 0.0712,0 0.21338,0.0724 0.31445,0.16015 0.19387,0.1679 0.47852,0.2157 0.47852,0.0801 0,-0.044 0.0393,-0.0801 0.0859,-0.0801 0.0463,0 0.0635,0.031 0.0391,0.0703 -0.0589,0.0954 0.1591,0.17493 0.33398,0.12109 0.077,-0.0234 0.0495,0.011 -0.0605,0.0781 -0.19166,0.11783 -0.19162,0.12246 -0.0254,0.125 0.0951,0.002 0.19309,0.0487 0.21875,0.10351 0.0371,0.0798 0.0564,0.0798 0.0937,0 0.0703,-0.15111 0.25557,-0.11877 0.35156,0.0606 0.0473,0.0878 0.12299,0.1582 0.16797,0.1582 0.045,0 0.0585,-0.0345 0.0312,-0.0781 -0.0272,-0.044 0.007,-0.0801 0.0762,-0.0801 0.0684,0 0.125,0.0532 0.125,0.11914 0,0.0823 0.0824,0.11914 0.26562,0.11914 0.14637,0 0.29323,0.0276 0.32618,0.0606 0.0691,0.069 0.10671,0.0762 0.48437,0.0898 0.15366,0.005 0.2793,0.0454 0.2793,0.0879 0,0.0427 -0.0532,0.0566 -0.11914,0.0312 -0.0659,-0.025 -0.1211,-0.01 -0.1211,0.0371 0,0.0526 0.1982,0.0726 0.53907,0.0527 0.29654,-0.0171 0.67754,0.003 0.84765,0.0488 0.21385,0.0566 0.4234,0.0556 0.67969,-0.004 0.20307,-0.0473 0.7043,-0.0995 1.11328,-0.11719 0.40932,-0.0174 0.75595,-0.045 0.77149,-0.0605 0.16187,-0.16189 4.2446,0.11413 4.94726,0.33399 0.13147,0.0412 0.38309,0.0974 0.55859,0.125 0.17552,0.0278 0.37826,0.0811 0.44922,0.11914 0.0712,0.038 0.15213,0.0452 0.17969,0.0176 0.0278,-0.0278 0.0488,-0.0121 0.0488,0.0352 0,0.0472 0.20648,0.15026 0.45898,0.22852 0.25217,0.0782 0.47813,0.16647 0.5,0.19531 0.0219,0.0291 0.0801,0.0665 0.12891,0.084 0.51006,0.18342 1.74164,1.50782 1.40234,1.50782 -0.0893,0 -0.17656,-0.0398 -0.19336,-0.0898 -0.0517,-0.15461 -1.55748,0.19564 -2.41601,0.5625 -0.0878,0.0378 -0.59066,0.2024 -1.11719,0.36524 -0.52683,0.16252 -1.02945,0.32388 -1.11719,0.35937 -0.0878,0.0358 -0.33904,0.11127 -0.55859,0.16797 -0.21954,0.0563 -0.48804,0.15001 -0.59766,0.20703 -0.10961,0.057 -0.29078,0.10319 -0.40039,0.10352 -0.10993,6.2e-4 -0.30291,0.0549 -0.42969,0.12109 -0.127,0.0659 -0.41944,0.17534 -0.65039,0.24219 -0.23095,0.0671 -0.51426,0.21033 -0.63085,0.31836 -0.11627,0.10803 -0.29548,0.19726 -0.39844,0.19726 -0.10271,0 -0.20739,0.0519 -0.23242,0.11719 -0.025,0.0649 -0.0931,0.10093 -0.15235,0.0781 -0.0593,-0.0229 -0.17476,0.0317 -0.25586,0.12109 -0.0808,0.0893 -0.22257,0.16409 -0.31445,0.16602 -0.0919,0.002 -0.2913,0.10839 -0.44336,0.23828 -0.15207,0.12989 -0.35591,0.23632 -0.45312,0.23632 -0.0972,0 -0.23468,0.0569 -0.30469,0.12696 -0.07,0.07 -0.18252,0.10769 -0.25,0.082 -0.0957,-0.0368 -0.11084,-0.0108 -0.0684,0.12305 0.0434,0.13717 0.0274,0.16165 -0.0781,0.12109 -0.0785,-0.0301 -0.14785,-0.005 -0.17382,0.0625 -0.0241,0.0625 -0.0898,0.0957 -0.14649,0.0742 -0.14983,-0.0576 -0.20594,0.16034 -0.11914,0.46289 0.10045,0.35007 0.0996,0.35024 -0.084,0.18359 -0.15682,-0.1416 -0.16016,-0.13866 -0.16016,0.13281 0,0.26011 -0.0205,0.28093 -0.33984,0.35157 -0.18627,0.0415 -0.32707,0.10746 -0.3125,0.14648 0.0149,0.0389 -0.0148,0.0969 -0.0664,0.12891 -0.0517,0.0319 -0.10044,0.20413 -0.10742,0.38281 -0.009,0.20465 -0.0403,0.2972 -0.0879,0.25 -0.14604,-0.14414 -0.21471,-0.0735 -0.16211,0.16602 0.0389,0.1771 0.0237,0.23685 -0.0527,0.2207 -0.0715,-0.0152 -0.0953,0.0555 -0.0801,0.22656 0.0155,0.17362 -0.0181,0.26304 -0.11132,0.29883 -0.0913,0.0349 -0.12302,0.11367 -0.0977,0.24609 0.0225,0.11785 -0.004,0.2113 -0.0684,0.23633 -0.0808,0.0308 -0.0889,0.0916 -0.0293,0.24805 0.10713,0.28194 0.10578,0.28343 -0.12109,0.19726 -0.19229,-0.0732 -0.19922,-0.0633 -0.19922,0.24805 0,0.27941 -0.0204,0.31493 -0.15039,0.27344 -0.12768,-0.0402 -0.15687,0.008 -0.20312,0.31445 -0.0352,0.23476 -0.13727,0.45114 -0.28711,0.61524 -0.12736,0.13939 -0.25236,0.35527 -0.2793,0.47851 -0.0272,0.12324 -0.0827,0.2445 -0.12305,0.26953 -0.0406,0.025 -0.0742,0.13254 -0.0742,0.24024 0,0.10746 -0.0663,0.25357 -0.14843,0.32422 -0.0823,0.0703 -0.13456,0.18891 -0.11524,0.26367 0.0197,0.0748 -0.0207,0.18289 -0.0898,0.24023 -0.0687,0.057 -0.125,0.14964 -0.125,0.20508 0,0.0555 -0.0516,0.20162 -0.11524,0.32422 -0.0637,0.12229 -0.0951,0.25802 -0.0684,0.30078 0.0266,0.043 0.009,0.0512 -0.043,0.0195 -0.0542,-0.0337 -0.0918,-0.007 -0.0918,0.0645 0,0.0666 -0.0511,0.14842 -0.11133,0.18359 -0.11911,0.0694 -0.30481,1.20451 -0.28516,1.74023 0.0108,0.28701 -0.13464,1.01812 -0.15429,0.77735 -0.004,-0.0548 -0.0503,-0.0996 -0.10156,-0.0996 -0.0514,0 -0.0711,0.0225 -0.0449,0.0488 0.0267,0.0267 0.0159,0.13274 -0.0234,0.23632 -0.044,0.11596 -0.0432,0.20719 0.004,0.23633 0.10735,0.0666 0.0978,0.43555 -0.0117,0.43555 -0.16441,0 0.2073,2.59061 0.40625,2.83203 0.0374,0.045 0.0946,0.22489 0.12696,0.40039 0.0532,0.28639 0.2867,0.82612 0.44922,1.03711 0.52494,0.68081 1.34179,1.91922 1.34179,2.03516 0,0.0986 0.24153,0.49523 0.34766,0.57031 0.0396,0.0282 0.1643,0.21617 0.2793,0.41797 0.30158,0.52969 1.0741,1.64652 1.31835,1.9082 0.1147,0.12292 0.26124,0.32604 0.32618,0.45117 0.0646,0.12514 0.16462,0.27702 0.2207,0.33594 0.0561,0.0589 0.1939,0.25027 0.30859,0.42578 0.28385,0.43466 0.83869,1.03737 2.34571,2.54883 0.70299,0.70489 1.43967,1.47861 1.63672,1.71875 0.19704,0.24013 0.41261,0.49481 0.47851,0.56641 0.17836,0.19356 0.35583,0.4185 0.85352,1.07617 0.24742,0.32726 0.4765,0.59375 0.50976,0.59375 0.0337,0 0.10805,0.047 0.16602,0.10351 0.1752,0.17046 0.85931,0.61031 1.1289,0.72657 0.38904,0.16759 3.10836,2.89968 3.34375,3.35937 0.0452,0.0881 0.16933,0.24976 0.27735,0.35938 0.25787,0.262 1.03739,1.38116 1.20117,1.72461 0.0709,0.14855 0.15689,0.26953 0.19141,0.26953 0.0349,0 0.12176,0.11351 0.19336,0.25195 0.0715,0.13876 0.1632,0.29168 0.20312,0.33984 0.17234,0.20782 0.44402,0.67159 0.58594,1.00391 0.0843,0.1977 0.19778,0.41491 0.25195,0.48047 0.0542,0.0659 0.12393,0.22564 0.15625,0.35742 0.0324,0.13179 0.14377,0.37396 0.24609,0.53711 0.10241,0.16315 0.28829,0.50404 0.41407,0.75781 0.12545,0.25375 0.38245,0.74827 0.57031,1.09961 0.18755,0.351 0.43311,0.81758 0.54688,1.03711 0.11403,0.21954 0.24876,0.42503 0.29882,0.45703 0.0504,0.0316 0.13897,0.17679 0.19727,0.32031 0.0579,0.14382 0.12636,0.2786 0.15234,0.30079 0.11944,0.10109 0.65091,0.88391 0.74024,1.08984 0.0548,0.12672 0.23633,0.42752 0.40234,0.66797 0.51512,0.74543 0.93359,1.42296 0.93359,1.50976 0,0.046 0.0276,0.0837 0.0605,0.084 0.033,3.1e-4 0.18616,0.19904 0.33985,0.4414 0.15331,0.24268 0.36015,0.56642 0.45898,0.72071 0.0989,0.15397 0.17874,0.32405 0.17969,0.37695 9.5e-4,0.0529 0.0722,0.18727 0.1582,0.29688 0.0859,0.10993 0.15693,0.26459 0.1582,0.3457 9.6e-4,0.0811 0.0699,0.24279 0.15235,0.35937 0.082,0.11627 0.1743,0.32846 0.20508,0.47071 0.0306,0.14224 0.086,0.276 0.12304,0.29883 0.077,0.0479 0.82579,1.57789 0.91797,1.87695 0.034,0.1096 0.11004,0.26898 0.16992,0.35547 0.06,0.0868 0.1081,0.2313 0.10742,0.32031 -0.002,0.22556 0.26824,1.09483 0.71875,2.31641 0.4451,1.2067 0.71875,2.07845 0.71875,2.29101 0,0.0826 0.0498,0.24675 0.10938,0.36524 0.0593,0.11879 0.15154,0.39436 0.20508,0.61328 0.0535,0.2189 0.12563,0.43417 0.16015,0.47851 0.0345,0.0444 0.0884,0.18616 0.11914,0.31446 0.0306,0.12863 0.17397,0.41596 0.32032,0.63867 0.14605,0.22271 0.29085,0.52044 0.32031,0.66015 0.0295,0.13939 0.1029,0.29502 0.16406,0.34571 0.17012,0.1413 0.51723,0.76653 0.51563,0.92968 -0.002,0.21004 -0.49286,-0.3846 -0.75391,-0.91211 -0.19452,-0.39314 -0.42352,-0.58691 -0.33008,-0.27929 0.10454,0.34468 0.22824,1.31129 0.24219,1.89453 0.009,0.35133 0.0735,0.92601 0.14453,1.27734 0.0709,0.35101 0.14848,0.80069 0.17383,0.99805 0.0254,0.1977 0.0795,0.51975 0.11914,0.7168 0.0399,0.19706 0.0574,0.38265 0.0391,0.41211 -0.0183,0.0298 0.005,0.15304 0.0508,0.27343 0.0928,0.24393 0.21859,0.9816 0.27149,1.58985 0.0191,0.21955 0.0766,0.68577 0.12695,1.03711 0.0504,0.35102 0.1205,0.85392 0.1582,1.11718 0.0374,0.26327 0.10541,0.83794 0.1504,1.27539 0.0913,0.88325 0.14524,1.20088 0.24218,1.4375 0.21035,0.51482 0.24547,0.61927 0.2461,0.74219 0,0.0748 0.0558,0.24321 0.125,0.375 0.37224,0.71059 0.004,1.35363 -0.60352,1.05078 -0.31649,-0.15778 -0.36625,-0.0657 -0.32031,0.60157 0.0361,0.52113 0.011,0.81646 -0.1211,1.39843 -0.0517,0.2281 0.18172,0.35784 0.7168,0.39649 0.63676,0.0466 0.74468,0.20105 0.33985,0.49219 -0.20784,0.14921 -0.014,0.74754 0.33984,1.04882 0.0257,0.0219 0.22443,0.27347 0.4414,0.5586 0.21701,0.28543 0.48952,0.6314 0.60547,0.76953 0.23601,0.28068 0.6469,1.09923 0.67579,1.3457 0.0108,0.0881 0.11284,0.37136 0.22656,0.62891 0.11373,0.25757 0.20703,0.50216 0.20703,0.54492 0,0.0424 0.69901,0.77576 1.55469,1.62891 0.85599,0.85345 1.55664,1.58709 1.55664,1.6289 0,0.0421 0.03,0.0762 0.0664,0.0762 0.0646,0 0.59691,0.50742 1.10157,1.04883 0.13781,0.14794 0.58547,0.57242 0.99414,0.94532 0.40899,0.37318 0.89274,0.82252 1.07617,0.99804 0.18344,0.1755 0.91572,0.87614 1.62695,1.55664 1.66985,1.59698 2.95508,2.88797 2.95508,2.96875 0,0.0349 0.0433,0.0625 0.0957,0.0625 0.0523,0 0.40162,0.32163 0.77735,0.71289 0.37573,0.39092 0.98812,0.96936 1.36132,1.28711 1.62773,1.38696 2.07275,2.04024 2.08985,3.06446 0.0152,0.90636 -0.22659,1.18544 -0.9961,1.1582 -0.65008,-0.0234 -0.86552,-0.008 -0.95898,0.0684 -0.052,0.0418 -0.31096,0.11927 -0.57422,0.17187 -0.26358,0.0525 -0.64426,0.15233 -0.84765,0.22266 -0.32219,0.11183 -0.38364,0.11438 -0.48438,0.0137 -0.1356,-0.13528 -2.07656,-0.14483 -3.0957,-0.0156 -0.38111,0.0485 -0.6718,0.0466 -0.79883,-0.002 -0.10962,-0.0421 -0.41448,-0.10415 -0.67774,-0.13867 -0.26327,-0.0346 -0.69377,-0.1218 -0.95703,-0.19531 -0.26326,-0.0731 -0.64022,-0.16544 -0.83789,-0.20313 -0.51481,-0.0975 -1.03906,-0.26318 -1.03906,-0.32812 0,-0.0659 -0.32128,0.005 -0.43945,0.0957 -0.045,0.0349 -0.27939,0.0888 -0.51953,0.11914 -0.24044,0.0308 -0.47697,0.0875 -0.52735,0.12696 -0.0507,0.0396 -0.29185,0.079 -0.53515,0.0859 -0.49074,0.0139 -0.52211,0.055 -0.56836,0.74024 -0.0222,0.32535 -0.4813,0.91601 -0.71289,0.91601 -0.0529,0 -0.16673,0.0542 -0.25196,0.11914 -0.14223,0.10865 -0.68296,0.30568 -0.87304,0.31836 -0.044,0.003 -0.11749,0.0294 -0.16407,0.0586 -0.0463,0.0291 -0.30832,0.0626 -0.58203,0.0723 -0.27339,0.0108 -0.51795,0.0496 -0.54297,0.0899 -0.0247,0.0402 -0.14022,0.0481 -0.25586,0.0176 -0.11595,-0.0304 -0.65354,-0.0494 -1.19336,-0.043 -0.53984,0.006 -1.02357,-0.0173 -1.07617,-0.0508 -0.0525,-0.0332 -0.11455,-0.0626 -0.13672,-0.0664 -0.0219,-0.004 -0.21796,-0.0373 -0.4375,-0.0723 -0.21954,-0.0355 -0.47083,-0.078 -0.55859,-0.0937 -0.0878,-0.0161 -0.2858,-0.0502 -0.43945,-0.0762 -0.15333,-0.026 -0.48547,-0.11527 -0.73828,-0.19922 -0.25249,-0.0843 -0.51149,-0.15234 -0.57422,-0.15234 -0.0631,0 -0.31435,-0.11013 -0.5586,-0.24414 -0.24426,-0.13401 -0.47534,-0.22494 -0.51367,-0.20117 -0.0386,0.0237 -0.15586,-0.0208 -0.25976,-0.0996 -0.1039,-0.0792 -0.32459,-0.20786 -0.49219,-0.28516 -0.95229,-0.44035 -2.70971,-1.83008 -4.22656,-3.34375 -0.75652,-0.75526 -1.65965,-1.62435 -2.00782,-1.93164 -0.6694,-0.5902 -0.87812,-0.79683 -1.31054,-1.29102 -0.14701,-0.16823 -0.38107,-0.43032 -0.51954,-0.58398 -0.13843,-0.15365 -0.34229,-0.39213 -0.45507,-0.5293 -0.1131,-0.13686 -0.28419,-0.29078 -0.37891,-0.34179 -0.095,-0.0507 -0.16682,-0.11707 -0.16016,-0.14844 0.0241,-0.11689 -0.11366,-0.33789 -0.21093,-0.33789 -0.0555,0 -0.19493,-0.0728 -0.31055,-0.16407 -0.18089,-0.14224 -0.21094,-0.14765 -0.21094,-0.0352 0,0.0947 -0.0428,0.11648 -0.1582,0.0801 -0.11087,-0.0352 -0.16016,-0.0139 -0.16016,0.0684 0,0.0923 -0.0952,0.11417 -0.41992,0.10156 -0.38302,-0.0146 -0.41539,-0.0295 -0.39258,-0.19141 0.0352,-0.24964 -0.11389,-0.22188 -0.21875,0.041 -0.0872,0.21923 -0.0619,0.0415 0.043,-0.29883 0.0798,-0.25947 -0.0993,-0.18277 -0.27734,0.11914 -0.23317,0.39537 -0.57031,0.33535 -0.57031,-0.10156 0,-0.1039 -0.0351,-0.25353 -0.0781,-0.33399 -0.0597,-0.11119 -0.0474,-0.15892 0.0527,-0.19726 0.0975,-0.0374 0.1096,-0.0742 0.043,-0.14063 -0.0666,-0.0666 -0.11944,-0.065 -0.20117,0.004 -0.0608,0.0504 -0.13998,0.0655 -0.17578,0.0332 -0.0361,-0.0327 -0.0423,0.003 -0.0156,0.0762 0.0327,0.0909 -0.002,0.15034 -0.10743,0.1836 -0.0854,0.027 -0.15625,0.0774 -0.15625,0.11133 0,0.034 -0.091,0.10304 -0.20312,0.15429 -0.11215,0.051 -0.18318,0.13011 -0.15625,0.17383 0.0272,0.0437 -0.007,0.0781 -0.0762,0.0781 -0.0764,0 -0.14468,0.0951 -0.17383,0.24023 -0.034,0.16981 -0.0956,0.23828 -0.20899,0.23828 -0.1283,0 -0.13953,0.0227 -0.0645,0.11328 0.0681,0.082 0.0693,0.12773 0.004,0.16797 -0.0491,0.0301 -0.0687,0.10894 -0.043,0.17578 0.0257,0.0668 0.0134,0.16379 -0.0273,0.21289 -0.14795,0.17836 -0.1963,1.9592 -0.0547,2.01368 0.0694,0.0267 0.125,0.11759 0.125,0.20312 0,0.0856 -0.0344,0.13462 -0.0781,0.10742 -0.044,-0.0273 -0.0801,-0.0114 -0.0801,0.0352 0,0.0465 0.0293,0.084 0.0645,0.084 0.0352,0 0.0608,0.48374 0.0586,1.07618 -0.002,0.66147 -0.0353,1.07911 -0.084,1.08007 -0.044,0 -0.0362,0.0285 0.0176,0.0625 0.0538,0.0345 0.12221,0.32905 0.1504,0.65821 0.0282,0.32725 0.0993,0.69882 0.16015,0.82617 0.0608,0.12768 0.11133,0.31634 0.11133,0.41992 0,0.19611 0.14206,0.50493 0.27734,0.60156 0.043,0.0308 0.0991,0.33559 0.125,0.67774 0.0782,1.03974 0.62264,1.85937 1.23438,1.85937 0.12323,0 0.19922,0.0446 0.19922,0.11914 0,0.0656 0.0364,0.11914 0.0801,0.11914 0.044,0 0.0781,0.0473 0.0781,0.10352 0,0.14795 0.46479,0.53571 0.50977,0.42578 0.0202,-0.0494 0.0395,-0.0337 0.043,0.0352 0.003,0.0687 0.13246,0.18495 0.28515,0.25781 0.1527,0.0728 0.38753,0.23184 0.52344,0.35351 0.13622,0.12196 0.36288,0.28235 0.50195,0.35743 1.1709,1.22421 0.577,3.52395 1.23438,5.05468 1.6699,3.88841 3.47029,6.90658 3.75195,12.70703 0.3519,7.2469 -2.63763,14.60549 -7.7168,19.33204 -4.59683,4.2777 -9.91085,6.20959 -17.95312,5.70898 -6.42946,-0.40021 -12.56931,-4.41308 -16.48438,-9.37695 -3.28965,-4.17091 -4.39933,-9.99467 -4.43554,-15.30664 -0.0317,-4.65222 3.56527,-13.18807 3.70117,-13.45703 0.44574,-0.88261 0.5407,-1.03469 0.76562,-1.21875 0.12229,-0.10012 0.33249,-0.18396 0.4668,-0.18555 0.54299,-0.006 1.23093,-2.78276 1.33008,-3.25195 0.0304,-0.14257 0.11595,-0.30457 0.18945,-0.35938 0.0736,-0.0548 0.21868,-0.22626 0.32227,-0.38086 0.2094,-0.31268 0.72662,-0.7168 0.91797,-0.7168 0.2566,0 0.69167,-0.27764 0.8789,-0.56054 0.11056,-0.16664 0.36524,-0.38246 0.58985,-0.5 0.21733,-0.11372 0.53062,-0.29902 0.69726,-0.41211 l 0.30469,-0.20508 0.16992,0.16016 c 0.18342,0.17202 0.55067,0.2401 0.38086,0.0703 -0.0687,-0.0687 -0.0366,-0.14925 0.125,-0.32031 1.19951,-0.65456 0.51356,-0.90758 1.89453,-1.20508 0.0424,-0.10993 0.67946,-0.0935 0.75391,0.0195 0.0219,0.0337 0.21147,0.0791 0.41992,0.0996 0.39315,0.0386 0.51109,-0.0924 0.28711,-0.31641 -0.0535,-0.0535 -0.063,-0.15017 -0.0254,-0.23633 0.0349,-0.0798 0.0678,-0.16336 0.0742,-0.18554 0.006,-0.0219 0.0754,-0.18191 0.15234,-0.35742 0.077,-0.17551 0.1599,-0.42713 0.18555,-0.5586 0.0257,-0.13179 0.11421,-0.33653 0.19531,-0.45312 0.0813,-0.11626 0.14648,-0.26888 0.14648,-0.33985 0,-0.0709 0.0916,-0.27138 0.20118,-0.44531 0.10994,-0.1736 0.19926,-0.38787 0.19921,-0.47656 10e-6,-0.0887 0.031,-0.16211 0.0703,-0.16211 0.0764,0 0.20809,-0.38673 0.17578,-0.51758 -0.0108,-0.0434 0.0246,-0.21622 0.0801,-0.38477 0.0668,-0.2018 0.0747,-0.32389 0.0215,-0.35937 -0.10681,-0.0712 -0.21168,-0.35728 -0.10742,-0.29297 0.0455,0.0282 0.0781,-0.058 0.0781,-0.20508 0,-0.1942 0.0233,-0.23492 0.0996,-0.17187 0.0779,0.065 0.10317,-0.0479 0.11329,-0.51953 0.008,-0.37383 0.0495,-0.62505 0.10937,-0.66211 0.0586,-0.0361 0.0828,-0.17374 0.0625,-0.34766 -0.0187,-0.15871 -0.002,-0.28906 0.0371,-0.28906 0.0389,0 0.0595,-0.23246 0.0449,-0.51758 -0.0149,-0.28544 2e-4,-0.51953 0.0332,-0.51953 0.0329,3.2e-4 0.0586,-0.095 0.0586,-0.21094 0,-0.11595 0.0535,-0.25005 0.11914,-0.29883 0.0979,-0.0726 0.1045,-0.14473 0.0332,-0.40039 -0.0628,-0.22556 -0.0616,-0.36418 0.002,-0.5039 0.19709,-0.78309 -0.26391,-0.98999 -0.54102,-0.95313 -0.14451,0.01 -0.15572,0.11843 -0.23242,0.19922 -0.077,0.0808 -0.17703,0.21182 -0.22266,0.29102 -0.0795,0.13781 -0.0886,0.13767 -0.23437,-0.008 -0.1321,-0.13115 -0.14491,-0.13251 -0.0996,-0.0137 0.0285,0.0754 0.0203,0.15657 -0.0176,0.17969 -0.0378,0.0234 -0.0506,0.11343 -0.0273,0.20117 0.0368,0.1413 0.006,0.15789 -0.28516,0.14649 -0.24774,-0.01 -0.30718,-0.0356 -0.2461,-0.10938 0.057,-0.0687 0.0425,-0.11196 -0.0469,-0.14648 -0.0722,-0.0275 -0.10172,-0.089 -0.0684,-0.14258 0.0396,-0.064 0.0139,-0.0771 -0.0801,-0.041 -0.10735,0.0412 -0.12788,0.0197 -0.0918,-0.0937 0.0272,-0.0862 -0.0199,-0.22046 -0.11524,-0.33008 -0.0885,-0.10206 -0.16012,-0.23405 -0.16016,-0.29296 0,-0.0593 -0.0337,-0.10743 -0.0762,-0.10743 -0.0424,0 -0.0566,0.0535 -0.0312,0.11914 0.0291,0.0761 -0.003,0.1211 -0.084,0.1211 -0.1131,0 -0.16994,0.14644 -0.13477,0.3457 0.006,0.0368 -0.0584,0.0848 -0.14453,0.10742 -0.0931,0.0244 -0.13893,0.0855 -0.11328,0.15235 0.0237,0.0615 0.007,0.11137 -0.0371,0.11132 -0.0447,10e-6 -0.0638,0.0725 -0.041,0.16016 0.0323,0.12292 0.003,0.16016 -0.12891,0.16016 -0.19578,0 -0.30119,0.19348 -0.18555,0.33984 0.0427,0.0545 0.0991,0.20609 0.12696,0.33789 0.0501,0.23823 0.0501,0.23931 -0.0781,0.0605 -0.14447,-0.20147 -0.31024,-0.24491 -0.24023,-0.0625 0.0374,0.0972 0.0182,0.1034 -0.10352,0.0273 -0.0813,-0.051 -0.18953,-0.23122 -0.24023,-0.40039 -0.0507,-0.16917 -0.12616,-0.28738 -0.16797,-0.26172 -0.0417,0.026 -0.0762,-0.0111 -0.0762,-0.0801 0,-0.0697 -0.14285,-0.40088 -0.31836,-0.73829 -0.1755,-0.33708 -0.32032,-0.65234 -0.32032,-0.69921 0,-0.0466 -0.10309,-0.19852 -0.23047,-0.3379 -0.12702,-0.1394 -0.19575,-0.26504 -0.15234,-0.27929 0.0859,-0.0288 -0.16578,-0.61914 -0.26367,-0.61914 -0.0323,0 -0.0818,-0.11077 -0.11133,-0.24414 -0.0437,-0.19896 -0.0834,-0.2316 -0.2168,-0.18946 -0.0951,0.0301 -0.14246,0.0189 -0.11523,-0.0254 0.026,-0.0418 -0.0593,-0.17822 -0.18945,-0.30273 -0.1299,-0.1245 -0.23633,-0.27437 -0.23633,-0.33203 0,-0.17298 -0.13649,-0.1168 -0.1875,0.0762 l -0.0469,0.17969 -0.12695,-0.17969 c -0.13053,-0.18597 -0.40175,-0.24329 -0.45117,-0.0957 -0.057,0.1714 -0.28404,-0.0224 -0.38477,-0.32813 -0.0573,-0.17328 -0.12674,-0.31445 -0.15429,-0.31445 -0.11468,0 -0.33603,-0.50514 -0.375,-0.85742 -0.0558,-0.50561 -0.26317,-1.0586 -0.39844,-1.0586 -0.12577,0 -0.14586,0.12825 -0.0312,0.19922 0.0497,0.0306 0.0436,0.10283 -0.0156,0.19727 -0.12007,0.1923 -0.30082,-0.11113 -0.30273,-0.50586 -0.002,-0.31902 -0.18969,-0.95181 -0.29297,-0.98633 -0.0443,-0.0149 -0.0781,0.13866 -0.0781,0.35156 0,0.20718 -0.0374,0.38877 -0.084,0.4043 -0.0465,0.0155 -0.0685,0.10852 -0.0469,0.20508 0.0779,0.35355 -0.35133,-0.47138 -0.44922,-0.86329 -0.0922,-0.36842 -0.30926,-0.90169 -0.4043,-0.99609 -0.0222,-0.0219 -0.0528,-0.14783 -0.0684,-0.2793 -0.0152,-0.1318 -0.061,-0.30286 -0.10156,-0.3789 -0.0742,-0.13844 -0.11342,-0.29855 -0.34375,-1.41211 -0.0674,-0.32662 -0.15879,-0.62916 -0.20313,-0.67383 -0.0447,-0.0443 -0.082,-0.17907 -0.082,-0.29883 0,-0.12006 -0.0401,-0.31982 -0.0898,-0.44336 -0.091,-0.22684 -0.30318,-1.02002 -0.50781,-1.90039 -0.0615,-0.26328 -0.18812,-0.74897 -0.28125,-1.07812 -0.0931,-0.32917 -0.20332,-0.75966 -0.2461,-0.95703 -0.0427,-0.19768 -0.13131,-0.45405 -0.19531,-0.57032 -0.0636,-0.11658 -0.11523,-0.317 -0.11523,-0.44531 0,-0.24647 -0.23662,-0.52611 -0.51954,-0.61133 -0.18658,-0.0563 -0.54923,-0.38631 -0.83593,-0.76172 -0.10962,-0.1435 -0.23889,-0.30314 -0.28516,-0.35351 -0.0463,-0.0504 -0.14831,-0.25185 -0.22656,-0.44922 -0.13084,-0.32851 -0.24518,-0.47536 -0.37695,-0.47852 -0.0275,0 -0.15052,0.1971 -0.27344,0.43946 -0.3564,0.70488 -0.35513,0.70542 -0.9336,-0.29883 -0.2848,-0.49485 -0.7601,-1.31174 -1.05664,-1.81641 -0.2962,-0.50467 -0.68592,-1.18843 -0.86523,-1.51757 -0.1793,-0.32918 -0.40396,-0.71218 -0.49805,-0.85157 -0.0937,-0.13908 -0.30264,-0.72689 -0.46484,-1.30664 -0.22493,-0.80372 -0.38986,-1.2108 -0.69336,-1.71484 -0.55566,-0.92378 -0.79434,-1.55263 -0.84375,-2.22266 -0.0263,-0.35735 -0.12639,-0.77747 -0.27149,-1.13672 -0.12671,-0.313 -0.28904,-0.90519 -0.35937,-1.3164 -0.0702,-0.41122 -0.17878,-0.96332 -0.24023,-1.22657 -0.0615,-0.26328 -0.11069,-0.72036 -0.11133,-1.01562 -9.4e-4,-0.4071 -0.0661,-0.71402 -0.26953,-1.27539 -0.14762,-0.4071 -0.30664,-1.0289 -0.35352,-1.38086 -0.0586,-0.44163 -0.21218,-0.94669 -0.49414,-1.63477 l -0.4082,-0.99609 -0.1543,-1.94141 c -0.11722,-1.46965 -0.19097,-2.02009 -0.30469,-2.27734 -0.15904,-0.35956 -0.1739,-1.18335 -0.043,-2.4043 0.033,-0.3073 0.0519,-0.58919 0.043,-0.625 -0.01,-0.0355 0.0416,-0.25074 0.11133,-0.47851 0.0694,-0.22779 0.13945,-0.50942 0.15625,-0.62696 0.0164,-0.11753 0.0994,-0.35195 0.18359,-0.51953 0.0839,-0.16791 0.21134,-0.57317 0.28516,-0.90234 0.0736,-0.32915 0.20854,-0.83913 0.29883,-1.13281 0.0903,-0.29367 0.14215,-0.56988 0.11523,-0.61328 -0.027,-0.0434 -0.0112,-0.1014 0.0332,-0.12891 0.0447,-0.0275 0.0801,-0.10775 0.0801,-0.17774 0,-0.07 0.0896,-0.24484 0.19922,-0.38867 0.10962,-0.14383 0.20117,-0.31322 0.20117,-0.375 0,-0.13527 0.29813,-0.42258 0.36719,-0.35351 0.0266,0.0266 -0.0254,0.17142 -0.11719,0.32031 l -0.16796,0.26953 0.20507,0.17774 c 0.18343,0.15966 0.19271,0.19275 0.0879,0.3125 -0.0646,0.0739 -0.14509,0.22405 -0.17773,0.33398 -0.0542,0.1809 -0.036,0.17477 0.18164,-0.0723 0.21986,-0.24965 0.44812,-0.90325 0.44336,-1.26757 -0.003,-0.22145 0.30325,-0.61047 0.38086,-0.48438 0.0358,0.0573 0.0888,0.0792 0.11914,0.0488 0.0308,-0.0308 0.0208,-0.10217 -0.0234,-0.1582 -0.0437,-0.0558 -0.1,-0.22721 -0.125,-0.38086 -0.0254,-0.15365 -0.0281,-0.2345 -0.006,-0.17969 0.0646,0.15619 0.1875,0.11615 0.1875,-0.0606 0,-0.0878 0.0296,-0.1582 0.0664,-0.1582 0.0371,0 0.1142,-0.14317 0.17187,-0.31836 0.0579,-0.17487 0.17117,-0.378 0.25196,-0.45117 0.0811,-0.0733 0.1484,-0.17694 0.14844,-0.23047 -10e-6,-0.0538 0.0532,-0.14279 0.11914,-0.19727 0.0659,-0.0545 0.12109,-0.17707 0.12109,-0.27148 0,-0.0947 0.0621,-0.23145 0.13867,-0.30274 0.077,-0.0712 0.22485,-0.22189 0.32813,-0.33593 0.10357,-0.11405 0.27372,-0.20703 0.3789,-0.20703 0.134,0 0.19141,-0.0449 0.19141,-0.15039 0,-0.0826 0.062,-0.16722 0.13867,-0.1875 0.0767,-0.0203 0.19187,-0.13992 0.25586,-0.26758 0.1885,-0.37763 0.47964,-0.65738 0.64063,-0.61524 0.10991,0.0288 0.15767,-0.0209 0.19726,-0.20117 0.0288,-0.13083 0.12181,-0.29966 0.20703,-0.37695 0.0855,-0.0774 0.15625,-0.18204 0.15625,-0.23242 0,-0.11531 0.49574,-0.60157 0.61328,-0.60157 0.10357,0 0.18365,-0.18437 0.18555,-0.42578 9.5e-4,-0.13115 0.0188,-0.14704 0.0723,-0.0625 0.0872,0.13748 0.32617,0.0572 0.32617,-0.10937 0,-0.0671 0.0532,-0.1211 0.11914,-0.1211 0.0659,0 0.11914,-0.0582 0.11914,-0.1289 0,-0.0875 -0.0433,-0.11336 -0.13867,-0.0801 -0.13305,0.0462 -0.13305,0.045 0,-0.0586 0.077,-0.0597 0.13867,-0.14711 0.13867,-0.19336 0,-0.0463 0.12564,-0.27433 0.2793,-0.50782 0.15364,-0.23317 0.27929,-0.45242 0.27929,-0.48632 0,-0.034 0.0367,-0.0606 0.082,-0.0606 0.0561,0 0.0562,0.0502 -0.002,0.1582 -0.0995,0.18628 0.0151,0.21592 0.16016,0.041 0.0792,-0.0957 0.078,-0.14593 -0.004,-0.24414 -0.0774,-0.0934 -0.0795,-0.14515 -0.01,-0.21485 0.07,-0.07 0.0918,-0.0597 0.0918,0.043 0,0.0748 0.0551,0.13672 0.1211,0.13672 0.14224,0 0.15963,-0.13407 0.0234,-0.17969 -0.0666,-0.0222 -0.0377,-0.13892 0.0918,-0.38476 0.10271,-0.19484 0.2037,-0.49633 0.22461,-0.66992 0.0209,-0.17362 0.086,-0.45689 0.14648,-0.62891 0.0609,-0.17203 0.11266,-0.42337 0.11328,-0.56055 9.6e-4,-0.29335 0.17211,-0.9775 0.31055,-1.23633 0.0535,-0.0998 0.15085,-0.38544 0.21485,-0.63476 0.064,-0.24901 0.1681,-0.56664 0.23242,-0.70508 0.0646,-0.13812 0.11914,-0.30013 0.11914,-0.35937 0,-0.0593 0.0691,-0.29166 0.1543,-0.51563 0.1131,-0.29748 0.14402,-0.52362 0.11328,-0.83789 -0.0234,-0.23664 -0.0341,-0.89624 -0.0234,-1.4668 0.0108,-0.57055 0.0165,-1.16308 0.0117,-1.3164 -0.0219,-0.70236 -0.01,-2.14203 0.0215,-2.39453 0.0187,-0.15364 0.0546,-0.60301 0.0781,-0.99805 0.0589,-0.99476 0.11791,-1.64267 0.15625,-1.70508 0.0381,-0.0612 0.0916,-0.4171 0.20508,-1.36719 0.0447,-0.37318 0.12894,-1.055 0.18945,-1.51562 0.12576,-0.96118 0.1427,-2.47461 0.0273,-2.47461 -0.0424,0 -0.0312,-0.0532 0.0234,-0.11914 0.0548,-0.0659 0.0761,-0.12353 0.0488,-0.12891 -0.0272,-0.005 -0.0848,-0.0185 -0.12891,-0.0293 -0.0437,-0.0111 -0.17812,-0.0263 -0.29883,-0.0332 -0.18913,-0.0108 -0.20046,-0.0234 -0.0801,-0.0937 0.16731,-0.0972 0.16978,-0.14542 0.0195,-0.34375 -0.0951,-0.12545 -0.13528,-0.13468 -0.23633,-0.0508 -0.16316,0.13527 -0.15801,0.0241 0.008,-0.14062 0.0736,-0.0738 0.095,-0.14073 0.0488,-0.15625 -0.0452,-0.0152 -0.0612,-0.10411 -0.0371,-0.19727 0.0352,-0.13337 0.0166,-0.15938 -0.0879,-0.11914 -0.0728,0.0278 -0.13281,0.0195 -0.13281,-0.0195 0,-0.0386 0.042,-0.0841 0.0937,-0.10156 0.0517,-0.017 0.0673,-0.0747 0.0351,-0.12696 -0.0424,-0.0687 -0.10338,-0.0715 -0.21484,-0.0117 -0.22145,0.11848 -0.19105,0.0464 0.10547,-0.2539 0.29336,-0.29684 0.18428,-0.39416 -0.26367,-0.23828 -0.28607,0.0998 -0.31428,-0.008 -0.0352,-0.13477 0.23031,-0.10487 0.26259,-0.25181 0.0586,-0.25977 -0.1112,-0.004 -0.10213,-0.0227 0.041,-0.0918 0.24964,-0.12038 0.22417,-0.2496 -0.0391,-0.19922 -0.19863,0.038 -0.20379,0.0331 -0.0703,-0.0644 0.0805,-0.0589 0.13034,-0.15391 0.11133,-0.21094 -0.0232,-0.0694 -0.11029,-0.0249 -0.26172,0.13476 -0.13273,0.14002 -0.20365,0.17963 -0.17382,0.0977 0.0332,-0.0925 0.01,-0.13867 -0.0684,-0.13867 -0.0643,0 -0.11719,-0.0361 -0.11719,-0.0801 0,-0.0437 0.0393,-0.0801 0.0859,-0.0801 0.0469,0 0.0743,-0.062 0.0625,-0.13867 -0.0121,-0.077 0.021,-0.2174 0.0723,-0.31055 0.10866,-0.19705 0.0578,-0.279 -0.12891,-0.20898 -0.11306,0.0421 -0.11598,0.0312 -0.0254,-0.0801 0.0579,-0.0715 0.15603,-0.10999 0.21875,-0.0859 0.0625,0.0237 0.11329,0.004 0.11329,-0.0449 0,-0.0489 -0.0337,-0.0879 -0.0762,-0.0879 -0.0424,0 -0.0565,-0.0551 -0.0312,-0.12109 0.0254,-0.0659 0.11533,-0.11914 0.20118,-0.11914 0.0913,0 0.13482,-0.0352 0.10351,-0.0859 -0.0291,-0.0476 -0.13928,-0.0654 -0.24414,-0.0391 -0.2566,0.0643 -0.24844,-0.0939 0.0195,-0.38282 0.19578,-0.21131 0.14415,-0.45179 -0.0684,-0.32031 -0.0349,0.0216 -0.0625,0.005 -0.0625,-0.0391 0,-0.0434 0.0687,-0.10037 0.15235,-0.12695 0.0839,-0.0266 0.20428,-0.18289 0.26953,-0.34571 0.0653,-0.16315 0.19931,-0.3673 0.29687,-0.45508 0.2563,-0.23032 0.9004,-1.24098 0.91407,-1.43359 0.0183,-0.25471 0.12597,-0.52148 0.20898,-0.52148 0.0412,0 0.0298,-0.0721 -0.0254,-0.16016 -0.0551,-0.0885 -0.14638,-0.14428 -0.20117,-0.12305 -0.1622,0.0621 -0.11646,-0.3056 0.0508,-0.41015 0.0925,-0.0576 0.16953,-0.23237 0.20312,-0.45508 0.0386,-0.25787 0.0978,-0.37467 0.20899,-0.41016 0.0854,-0.0269 0.16132,-0.0994 0.16797,-0.16211 0.006,-0.063 0.015,-0.15771 0.0195,-0.21093 0.0127,-0.15333 0.69633,-0.7453 0.82812,-0.7168 0.0751,0.0164 0.10372,-0.0146 0.0762,-0.0859 -0.0237,-0.0621 -0.0115,-0.16479 0.0274,-0.22656 0.0612,-0.0966 0.0713,-0.0953 0.0723,0.002 6.3e-4,0.0622 0.0246,0.0888 0.0527,0.0606 0.0282,-0.0282 0.006,-0.10507 -0.0488,-0.17188 -0.0691,-0.0833 -0.0731,-0.12109 -0.0117,-0.12109 0.0491,0 0.0896,-0.0468 0.0898,-0.10156 6.4e-4,-0.0548 0.12596,-0.22024 0.2793,-0.36914 0.153,-0.1489 0.2793,-0.31629 0.2793,-0.3711 0,-0.0551 0.0532,-0.12114 0.11914,-0.14648 0.16188,-0.0621 0.15148,-0.18973 -0.0195,-0.23438 -0.077,-0.0201 -0.0215,-0.04 0.12305,-0.0449 0.33104,-0.0118 0.65333,-0.27731 0.46484,-0.38281 -0.0931,-0.0523 -0.006,-0.11451 0.35351,-0.25391 0.262,-0.10141 0.581,-0.29001 0.70899,-0.41796 0.12797,-0.12799 0.27084,-0.23243 0.31836,-0.23243 0.0473,0 0.0859,-0.0364 0.0859,-0.0801 0,-0.044 0.0893,-0.0781 0.19921,-0.0781 0.24774,0 0.2666,-0.15905 0.0195,-0.16602 l -0.17969,-0.004 0.1875,-0.0762 c 0.10271,-0.0415 0.21715,-0.0558 0.2539,-0.0332 0.0368,0.0225 0.0896,0.006 0.11719,-0.0391 0.0275,-0.0447 0.0115,-0.082 -0.0351,-0.082 -0.0466,0 -0.084,-0.0404 -0.084,-0.0898 0,-0.06 0.10505,-0.0724 0.31445,-0.0391 0.40804,0.0653 0.7065,-0.0535 0.76954,-0.30468 0.0275,-0.10994 0.073,-0.19684 0.10156,-0.19336 0.19135,0.0219 0.43452,-0.11956 0.29101,-0.16993 -0.12007,-0.0421 -0.0569,-0.0996 0.31055,-0.27343 0.25406,-0.12007 0.4821,-0.19759 0.50586,-0.17383 0.0241,0.0241 -0.052,0.079 -0.16797,0.12305 -0.11562,0.044 -0.21094,0.1185 -0.21094,0.16601 0,0.0476 -0.0333,0.0663 -0.0742,0.041 -0.0409,-0.025 -0.0985,-0.006 -0.12891,0.043 -0.0393,0.0637 0.0241,0.0737 0.21484,0.0332 0.26897,-0.057 0.5839,-0.26962 0.50977,-0.34375 -0.0605,-0.0605 0.36357,-0.25935 0.44531,-0.20899 0.0396,0.0247 0.0947,-0.0113 0.12109,-0.0801 0.0263,-0.0684 0.11089,-0.125 0.18946,-0.125 0.0782,0 0.1641,-0.0535 0.18945,-0.11914 0.0278,-0.0733 0.14829,-0.1211 0.30859,-0.1211 0.14446,0 0.388,-0.0651 0.54102,-0.14648 0.153,-0.0813 0.46295,-0.19224 0.68945,-0.2461 0.22683,-0.0538 0.47639,-0.16769 0.55274,-0.25195 0.10617,-0.11722 0.24574,-0.15234 0.59961,-0.15234 0.25376,0 0.48447,-0.0364 0.51172,-0.0801 0.0748,-0.1207 0.49163,-0.0964 0.625,0.0371 0.0944,0.0947 0.12559,0.0985 0.1582,0.0137 0.0222,-0.0576 0.1408,-0.10852 0.26562,-0.11328 0.1245,-0.005 0.40742,-0.0501 0.62696,-0.0996 0.21922,-0.0494 0.63088,-0.11913 0.91601,-0.1543 0.28543,-0.0352 0.58155,-0.0891 0.65821,-0.12109 0.0839,-0.0349 0.14062,-0.024 0.14062,0.0293 0,0.0485 0.12565,0.0898 0.2793,0.0898 0.15365,0 0.27929,-0.0316 0.27929,-0.0684 0,-0.17552 1.03895,-0.14078 1.94532,0.0644 0.53254,0.1207 0.86313,0.0174 0.4082,-0.12695 z m -10.54687,2.55664 c -0.008,-0.006 -0.0712,0.0108 -0.14063,0.0371 -0.38081,0.14604 0.142,0.26138 0.59375,0.13086 0.1809,-0.0523 0.16815,-0.0605 -0.12109,-0.10547 -0.17551,-0.0275 -0.32475,-0.0561 -0.33203,-0.0625 z m -1.16407,0.1582 c 0.0145,-3.6e-4 0.0191,0.0181 0.0195,0.0508 v 0.002 c -0.002,0.0967 -0.24546,0.25781 -0.39257,0.25781 -0.0469,0 -0.0859,-0.0364 -0.0859,-0.0801 0,-0.044 0.0656,-0.0801 0.14453,-0.0801 0.0789,0 0.18537,-0.0428 0.23828,-0.0957 0.0356,-0.0354 0.0611,-0.0543 0.0762,-0.0547 z m 9.4961,2.82031 c -0.17714,-4.5e-4 -0.32399,0.0158 -0.4043,0.0566 v 0.002 c -0.0637,0.0326 -0.20187,0.0746 -0.30664,0.0957 -0.40906,0.0811 -1.19727,1.04355 -1.19727,1.46094 0,0.052 -0.0336,0.0937 -0.0762,0.0937 -0.17534,0 -0.14928,0.22165 0.0508,0.41992 0.11696,0.11627 0.30756,0.31236 0.42188,0.4375 0.11467,0.1252 0.23944,0.20926 0.27929,0.18555 0.0395,-0.0234 0.14748,0.0245 0.23829,0.10547 0.43103,0.0371 0.2705,0.24046 1.25976,0.30078 0.21435,0.0465 0.3439,0.0466 0.35938,0.002 0.0134,-0.0383 0.0819,-0.0544 0.15234,-0.0371 0.1557,0.0392 0.68945,-0.16482 0.68945,-0.26367 0,-0.0387 0.0466,-0.0723 0.10352,-0.0723 0.0572,0 0.15821,-0.0787 0.22461,-0.17578 0.26942,-0.39484 0.64648,-0.6064 0.64648,-0.36328 0,0.0898 0.025,0.0855 0.15039,-0.0176 0.0825,-0.0677 0.15039,-0.16099 0.15039,-0.20898 0,-0.0479 -0.0679,-0.10764 -0.15039,-0.13281 -0.0825,-0.025 -0.15039,-0.10249 -0.15039,-0.17188 0,-0.0697 -0.0842,-0.20402 -0.1875,-0.29687 -0.10303,-0.0929 -0.1875,-0.23742 -0.1875,-0.32227 0,-0.0848 -0.11024,-0.25414 -0.24414,-0.375 -0.13398,-0.12079 -0.29453,-0.29235 -0.35742,-0.38086 -0.12699,-0.17874 -0.93345,-0.34044 -1.46484,-0.3418 z m -16.22266,9.59571 c -0.0617,0.0291 -0.11523,0.087 -0.11523,0.15429 0,0.09 0.0348,0.0955 0.16211,0.0274 0.089,-0.0479 0.1419,-0.11829 0.11718,-0.15821 -0.0322,-0.0521 -0.10232,-0.0525 -0.16406,-0.0234 z m -8.00586,29.94726 c 0.0386,0 0.0703,0.0122 0.0703,0.0274 0,0.0928 -0.26429,0.53484 -0.29882,0.5 -0.0596,-0.0597 0.14329,-0.52735 0.22851,-0.52735 z m 24.47461,50.35938 c -0.0288,-0.003 -0.0144,0.12079 0.0332,0.27539 h 0.002 c 0.1207,0.39283 0.003,0.47984 -0.34375,0.25586 -0.15206,-0.0982 -0.34748,-0.19019 -0.43555,-0.20508 -0.0878,-0.0149 -0.21578,-0.0788 -0.28516,-0.14063 -0.16093,-0.14383 -0.24068,-0.14383 -0.18554,0 0.0507,0.13179 -0.17534,0.60743 -0.28907,0.60743 -0.0427,0 -0.0781,0.12669 -0.0781,0.2832 0,0.15649 -0.0339,0.34647 -0.0742,0.42187 -0.0406,0.0757 -0.0924,0.40485 -0.11523,0.73243 -0.11183,1.58717 -0.14493,1.96169 -0.1836,2.07226 -0.0231,0.0659 -0.041,0.3448 -0.041,0.61914 0,0.27435 -0.0356,0.49805 -0.0781,0.49805 -0.0421,0 -0.0546,0.0361 -0.0273,0.0801 0.0272,0.044 0.0522,0.53817 0.0547,1.09765 0.003,0.55947 0.0364,1.0762 0.0742,1.14844 0.0378,0.0726 0.0788,0.29287 0.0918,0.49024 0.019,0.29399 0.0851,0.42494 0.36133,0.7246 0.18533,0.20117 0.33594,0.40562 0.33594,0.45313 0,0.0476 0.10507,0.21899 0.23242,0.38086 0.13021,0.16538 0.25574,0.44511 0.28711,0.63867 0.0304,0.19008 0.10488,0.44168 0.16601,0.5586 0.0612,0.11721 0.11324,0.29505 0.11329,0.39453 0.002,0.75747 0.4792,1.02286 1.0371,0.57617 0.51384,-0.41216 0.6629,-0.43924 1.12891,-0.20703 0.24172,0.12039 0.43792,0.17742 0.45313,0.13086 0.0368,-0.10994 0.19983,-0.10462 0.3164,0.0117 0.15176,0.15208 0.33656,0.14397 0.50196,-0.0215 0.17866,-0.17868 0.43086,-0.20641 0.36718,-0.041 -0.0298,0.0777 0.003,0.0985 0.11133,0.0703 0.0846,-0.0222 0.1543,-0.0719 0.1543,-0.10938 0,-0.0374 0.0536,-0.0455 0.12109,-0.0195 0.0671,0.026 0.27397,0.007 0.45899,-0.043 0.18501,-0.0489 0.48174,-0.0997 0.6582,-0.11328 0.17678,-0.0136 0.36242,-0.05 0.41406,-0.082 0.12355,-0.0764 0.48933,0.0138 0.74024,0.18359 0.29462,0.19927 0.46145,0.24403 0.5039,0.13282 0.12356,-0.32218 0.61175,-0.28836 1.01758,0.0723 0.39283,0.3488 0.87305,0.64916 0.87305,0.54492 0,-0.0298 0.0621,-0.001 0.13867,0.0645 0.25122,0.21575 0.38594,0.2426 0.15625,0.0312 -0.35133,-0.32313 -0.22083,-0.3833 0.73242,-0.3418 0.60033,0.0263 0.9079,0.007 1.05078,-0.0664 0.36242,-0.18469 1.26203,-0.0781 1.5332,0.18164 0.27374,0.26232 0.40985,0.27557 0.77735,0.0703 0.43534,-0.11226 0.18731,-0.31463 0.21875,-0.36719 0.0548,0 0.10156,-0.0677 0.10156,-0.15039 0,-0.0823 0.0532,-0.19551 0.11914,-0.25 0.0659,-0.0545 0.11914,-0.13264 0.11914,-0.17383 0,-0.0412 0.12634,-0.2406 0.28125,-0.44336 0.21416,-0.28037 0.25732,-0.38464 0.17969,-0.43945 -0.0761,-0.0538 -0.0777,-0.0823 -0.008,-0.11133 0.29936,-0.12261 0.61157,-0.49706 0.51367,-0.61523 -0.0814,-0.0982 -0.076,-0.16585 0.0254,-0.36133 0.0684,-0.13273 0.125,-0.31432 0.125,-0.4043 0,-0.09 0.0714,-0.23747 0.16016,-0.32617 0.13656,-0.13654 0.14399,-0.16774 0.041,-0.20703 -0.0669,-0.0257 -0.12308,-0.11658 -0.12304,-0.20117 -10e-6,-0.12925 -0.0242,-0.1403 -0.15821,-0.0684 -0.11689,0.0625 -0.16015,0.0607 -0.16015,-0.008 0,-0.0633 -0.0422,-0.057 -0.13282,0.0176 -0.10357,0.0851 -0.13971,0.0873 -0.16601,0.01 -0.0183,-0.0551 -0.12043,-0.0996 -0.22657,-0.0996 -0.10617,0 -0.19335,-0.0327 -0.19335,-0.0723 0,-0.0393 -0.17318,-0.13427 -0.38672,-0.21093 -0.65798,-0.23636 -2.0168,-1.83584 -2.65039,-3.1211 -0.17646,-0.3583 -0.3735,-0.69483 -0.4375,-0.74805 -0.0637,-0.0529 -0.11524,-0.14384 -0.11524,-0.20117 0,-0.0576 -0.0751,-0.12937 -0.16601,-0.1582 -0.0913,-0.0288 -0.14656,-0.0976 -0.125,-0.1543 0.0219,-0.0563 -0.002,-0.14198 -0.0508,-0.1914 -0.0662,-0.0662 -0.0647,-0.0899 0.006,-0.0899 0.0525,0 0.0957,-0.0551 0.0957,-0.12109 0,-0.0659 -0.0361,-0.11914 -0.0801,-0.11914 -0.044,0 -0.0801,0.0361 -0.0801,0.0801 0,0.0437 -0.0361,0.0801 -0.082,0.0801 -0.0455,0 -0.0734,-0.064 -0.0605,-0.14062 0.0174,-0.10422 -0.0226,-0.13199 -0.15625,-0.11328 -0.0989,0.0136 -0.17968,-0.0138 -0.17968,-0.0605 0,-0.0465 -0.0768,-0.0859 -0.16993,-0.0859 -0.14604,0 -0.15349,-0.0173 -0.0625,-0.12695 0.0893,-0.10804 0.0805,-0.14566 -0.0586,-0.25781 -0.0903,-0.0726 -0.18595,-0.19645 -0.21289,-0.27344 -0.0269,-0.0767 -0.12229,-0.13867 -0.21289,-0.13867 -0.0906,0 -0.18561,-0.0535 -0.21094,-0.11914 -0.0254,-0.0659 -0.13617,-0.1211 -0.24609,-0.1211 -0.14447,0 -0.18561,0.0343 -0.15235,0.1211 0.0555,0.14447 -0.1281,0.15754 -0.37109,0.0273 -0.1264,-0.0674 -0.17705,-0.0678 -0.19922,0 -0.0213,0.0628 -0.10086,0.053 -0.26367,-0.0312 -0.20909,-0.10803 -0.23242,-0.10676 -0.23242,0.004 0,0.0681 -0.0926,0.16551 -0.20508,0.21679 -0.16063,0.0731 -0.19463,0.13294 -0.1582,0.2793 0.0316,0.12515 0.008,0.20138 -0.0742,0.23242 -0.0666,0.0257 -0.10293,0.0735 -0.082,0.10743 0.0209,0.034 -0.0184,0.17331 -0.0859,0.30859 -0.0934,0.18754 -0.10142,0.28432 -0.0352,0.4082 0.0586,0.10929 0.0598,0.16408 0.004,0.16406 -0.0455,10e-6 -0.082,0.0738 -0.082,0.16407 0,0.0903 -0.0351,0.14283 -0.0762,0.11719 -0.0982,-0.0608 -0.72113,0.21153 -0.72461,0.3164 -0.003,0.10897 -0.36017,0.36048 -0.56641,0.40039 -0.0913,0.0174 -0.20745,0.0659 -0.25781,0.10547 -0.21638,0.16948 -0.74173,0.17612 -0.89063,0.0117 -0.0789,-0.0875 -0.21097,-0.1582 -0.29492,-0.1582 -0.22492,0 -1.02916,-0.39883 -0.97656,-0.48438 0.025,-0.0406 0.003,-0.0742 -0.0488,-0.0742 -0.051,0 -0.0722,-0.0532 -0.0469,-0.11914 0.025,-0.0659 0.003,-0.12077 -0.0508,-0.12109 -0.13115,0 -0.45703,-0.48945 -0.45703,-0.68555 0,-0.0862 -0.0484,-0.22764 -0.10742,-0.31445 -0.11563,-0.16886 -0.17919,-0.38956 -0.25586,-0.88281 -0.0267,-0.17108 -0.12599,-0.43621 -0.2207,-0.58985 -0.0947,-0.15334 -0.17156,-0.30727 -0.17188,-0.34179 -3.1e-4,-0.0346 -0.0489,-0.0928 -0.10742,-0.12891 -0.0586,-0.0365 -0.11185,-0.095 -0.11914,-0.12891 -0.0174,-0.0823 -0.55816,-0.66333 -0.625,-0.67187 z m -6.83203,2.39648 c 0.0118,0.005 0.0852,0.0271 0.16211,0.0469 0.0767,0.0203 0.1393,0.0792 0.13867,0.13086 -0.002,0.12071 -0.1405,0.34011 -0.18359,0.29101 -0.0389,-0.0443 -0.14856,-0.48239 -0.11719,-0.46875 z m 9.85351,32.49219 a 1.4030613,1.4030613 0 0 0 -1.40234,1.40234 1.4030613,1.4030613 0 0 0 1.40234,1.4043 1.4030613,1.4030613 0 0 0 1.4043,-1.4043 1.4030613,1.4030613 0 0 0 -1.4043,-1.40234 z" />
    <circle
       style="fill:none;fill-opacity:1;stroke:none;stroke-width:0.377953;stroke-miterlimit:4;stroke-dasharray:none;stroke-opacity:1"
       id="path1798-6"
       cx="-430.32874"
       cy="729.84625"
       r="1.8184221"
       transform="scale(-1,1)" />
  </g>
  <rect
     style="fill:none;stroke:#000000;stroke-width:0.403518;stroke-miterlimit:4;stroke-dasharray:none;stroke-opacity:1"
     id="rect924-0"
     width="359.02954"
     height="453.51776"
     x="261.30154"
     y="243.64928"
     transform="scale(-1,1)" />
  <path
     id="path0"
     style="fill:#ff00ff;stroke-width:0.316801"
     d="m -441.86967,487.36736 0.31836,0.10156 c 0.45493,0.14434 0.12434,0.24765 -0.4082,0.12695 -0.90637,-0.20523 -1.94532,-0.23997 -1.94532,-0.0644 0,0.0368 -0.12564,0.0684 -0.27929,0.0684 -0.15365,0 -0.2793,-0.0413 -0.2793,-0.0898 0,-0.0533 -0.0567,-0.0642 -0.14062,-0.0293 -0.0767,0.032 -0.37278,0.0859 -0.65821,0.12109 -0.28513,0.0352 -0.69679,0.1049 -0.91601,0.1543 -0.21954,0.0495 -0.50246,0.0946 -0.62696,0.0996 -0.12482,0.005 -0.24342,0.0557 -0.26562,0.11328 -0.0326,0.0848 -0.0638,0.081 -0.1582,-0.0137 -0.13337,-0.1335 -0.5502,-0.15781 -0.625,-0.0371 -0.0272,0.0437 -0.25796,0.0801 -0.51172,0.0801 -0.35387,0 -0.49344,0.0351 -0.59961,0.15234 -0.0763,0.0843 -0.32591,0.19815 -0.55274,0.25195 -0.2265,0.0539 -0.53645,0.1648 -0.68945,0.2461 -0.15302,0.0813 -0.39656,0.14648 -0.54102,0.14648 -0.1603,0 -0.28079,0.0478 -0.30859,0.1211 -0.0254,0.0656 -0.11125,0.11914 -0.18945,0.11914 -0.0786,0 -0.16316,0.0566 -0.18946,0.125 -0.0264,0.0688 -0.0815,0.10477 -0.12109,0.0801 -0.0817,-0.0504 -0.50581,0.14849 -0.44531,0.20899 0.0741,0.0741 -0.2408,0.28675 -0.50977,0.34375 -0.19074,0.0405 -0.25414,0.0305 -0.21484,-0.0332 0.0304,-0.0487 0.088,-0.068 0.12891,-0.043 0.041,0.0253 0.0742,0.007 0.0742,-0.041 0,-0.0475 0.0953,-0.12201 0.21094,-0.16601 0.11596,-0.0441 0.19207,-0.099 0.16797,-0.12305 -0.0238,-0.0238 -0.2518,0.0538 -0.50586,0.17383 -0.3675,0.17382 -0.43062,0.23133 -0.31055,0.27343 0.14351,0.0504 -0.0997,0.19183 -0.29101,0.16993 -0.0286,-0.003 -0.0741,0.0834 -0.10156,0.19336 -0.063,0.2512 -0.3615,0.36998 -0.76954,0.30468 -0.2094,-0.0333 -0.31445,-0.0209 -0.31445,0.0391 0,0.0494 0.0374,0.0898 0.084,0.0898 0.0467,0 0.0627,0.0373 0.0351,0.082 -0.0276,0.0449 -0.0804,0.0616 -0.11719,0.0391 -0.0367,-0.0226 -0.15119,-0.008 -0.2539,0.0332 l -0.1875,0.0762 0.17969,0.004 c 0.24706,0.007 0.2282,0.16602 -0.0195,0.16602 -0.10988,0 -0.19921,0.0341 -0.19921,0.0781 0,0.0437 -0.0386,0.0801 -0.0859,0.0801 -0.0475,0 -0.19039,0.10444 -0.31836,0.23243 -0.12799,0.12799 -0.44699,0.31655 -0.70899,0.41796 -0.35923,0.1394 -0.44661,0.20161 -0.35351,0.25391 0.18849,0.1055 -0.13379,0.37101 -0.46484,0.38281 -0.14452,0.005 -0.20005,0.0248 -0.12305,0.0449 0.17101,0.0447 0.18141,0.17228 0.0195,0.23438 -0.0659,0.0253 -0.11914,0.0914 -0.11914,0.14648 0,0.0548 -0.1263,0.2222 -0.2793,0.3711 -0.15334,0.1489 -0.27866,0.31434 -0.2793,0.36914 -3e-4,0.0548 -0.0407,0.10156 -0.0898,0.10156 -0.0614,0 -0.0574,0.0378 0.0117,0.12109 0.0547,0.0668 0.077,0.14368 0.0488,0.17188 -0.0281,0.0282 -0.0521,0.002 -0.0527,-0.0606 -0.001,-0.0972 -0.0111,-0.0985 -0.0723,-0.002 -0.0389,0.0618 -0.0511,0.16446 -0.0274,0.22656 0.0276,0.0713 -10e-4,0.10234 -0.0762,0.0859 -0.13179,-0.0285 -0.81542,0.56347 -0.82812,0.7168 -0.005,0.0532 -0.0135,0.14793 -0.0195,0.21093 -0.007,0.0627 -0.0826,0.13521 -0.16797,0.16211 -0.11119,0.0355 -0.17039,0.15229 -0.20899,0.41016 -0.0336,0.22271 -0.11062,0.39748 -0.20312,0.45508 -0.16724,0.10455 -0.21298,0.47225 -0.0508,0.41015 0.0548,-0.0212 0.14607,0.0345 0.20117,0.12305 0.0552,0.0881 0.0666,0.16016 0.0254,0.16016 -0.083,0 -0.19068,0.26677 -0.20898,0.52148 -0.0136,0.19261 -0.65777,1.20327 -0.91407,1.43359 -0.0976,0.0878 -0.23157,0.29193 -0.29687,0.45508 -0.0652,0.16282 -0.18563,0.31911 -0.26953,0.34571 -0.0837,0.0266 -0.15235,0.0835 -0.15235,0.12695 0,0.0439 0.0276,0.0607 0.0625,0.0391 0.21251,-0.13148 0.26414,0.109 0.0684,0.32031 -0.26797,0.28893 -0.27613,0.44712 -0.0195,0.38282 0.10486,-0.0263 0.21504,-0.009 0.24414,0.0391 0.0313,0.0507 -0.0122,0.0859 -0.10351,0.0859 -0.0858,0 -0.17578,0.0532 -0.20118,0.11914 -0.0253,0.0659 -0.0111,0.12109 0.0312,0.12109 0.0425,0 0.0762,0.039 0.0762,0.0879 0,0.0487 -0.0508,0.0686 -0.11329,0.0449 -0.0627,-0.024 -0.16085,0.0144 -0.21875,0.0859 -0.0906,0.1113 -0.0877,0.12218 0.0254,0.0801 0.18671,-0.07 0.23757,0.0119 0.12891,0.20898 -0.0513,0.0932 -0.0844,0.23355 -0.0723,0.31055 0.0118,0.0767 -0.0156,0.13867 -0.0625,0.13867 -0.0466,0 -0.0859,0.0364 -0.0859,0.0801 0,0.044 0.0529,0.0801 0.11719,0.0801 0.0779,0 0.10156,0.0462 0.0684,0.13867 -0.0298,0.082 0.0411,0.0424 0.17382,-0.0977 0.15143,-0.15965 0.23852,-0.20416 0.26172,-0.13476 0.019,0.057 -0.0308,0.15204 -0.11133,0.21094 -0.13347,0.0976 -0.12831,0.10245 0.0703,0.0644 0.26323,-0.0504 0.2887,0.0788 0.0391,0.19922 -0.14315,0.0691 -0.15222,0.0878 -0.041,0.0918 0.204,0.008 0.17172,0.1549 -0.0586,0.25977 -0.27912,0.12632 -0.25091,0.23457 0.0352,0.13477 0.44795,-0.15588 0.55703,-0.0586 0.26367,0.23828 -0.29652,0.30032 -0.32692,0.37238 -0.10547,0.2539 0.11146,-0.0598 0.17244,-0.057 0.21484,0.0117 0.0322,0.0523 0.0165,0.10996 -0.0351,0.12696 -0.0517,0.0175 -0.0937,0.063 -0.0937,0.10156 0,0.039 0.06,0.0473 0.13281,0.0195 0.1045,-0.0402 0.12309,-0.0142 0.0879,0.11914 -0.0241,0.0932 -0.008,0.18207 0.0371,0.19727 0.0462,0.0155 0.0248,0.0824 -0.0488,0.15625 -0.16582,0.16472 -0.17097,0.27589 -0.008,0.14062 0.10105,-0.0839 0.14123,-0.0747 0.23633,0.0508 0.15024,0.19833 0.14775,0.24655 -0.0195,0.34375 -0.12041,0.0704 -0.10905,0.0829 0.0801,0.0937 0.12071,0.007 0.25513,0.0221 0.29883,0.0332 0.0441,0.0108 0.10171,0.0243 0.12891,0.0293 0.0273,0.005 0.006,0.063 -0.0488,0.12891 -0.0546,0.0659 -0.0658,0.11914 -0.0234,0.11914 0.11536,0 0.0984,1.51343 -0.0273,2.47461 -0.0605,0.46062 -0.14476,1.14244 -0.18945,1.51562 -0.11344,0.95009 -0.16698,1.30599 -0.20508,1.36719 -0.0383,0.0624 -0.0974,0.71032 -0.15625,1.70508 -0.0235,0.39504 -0.0594,0.84441 -0.0781,0.99805 -0.0315,0.2525 -0.0434,1.69217 -0.0215,2.39453 0.005,0.15332 -9.2e-4,0.74585 -0.0117,1.3164 -0.0107,0.57056 4e-5,1.23016 0.0234,1.4668 0.0307,0.31427 -1.7e-4,0.54041 -0.11328,0.83789 -0.0852,0.22397 -0.1543,0.45633 -0.1543,0.51563 0,0.0592 -0.0545,0.22125 -0.11914,0.35937 -0.0643,0.13844 -0.16842,0.45607 -0.23242,0.70508 -0.064,0.24932 -0.16135,0.53496 -0.21485,0.63476 -0.13844,0.25883 -0.3096,0.94298 -0.31055,1.23633 -6.4e-4,0.13718 -0.0524,0.38852 -0.11328,0.56055 -0.0605,0.17202 -0.12558,0.45529 -0.14648,0.62891 -0.0209,0.17359 -0.1219,0.47508 -0.22461,0.66992 -0.1295,0.24584 -0.1584,0.36256 -0.0918,0.38476 0.1362,0.0456 0.11881,0.17969 -0.0234,0.17969 -0.066,0 -0.1211,-0.0619 -0.1211,-0.13672 0,-0.1027 -0.0218,-0.11297 -0.0918,-0.043 -0.0698,0.0697 -0.0676,0.12145 0.01,0.21485 0.0819,0.0982 0.0831,0.14844 0.004,0.24414 -0.14506,0.1749 -0.25966,0.14526 -0.16016,-0.041 0.0581,-0.10797 0.058,-0.1582 0.002,-0.1582 -0.0453,0 -0.082,0.0266 -0.082,0.0606 0,0.0339 -0.12565,0.25315 -0.27929,0.48632 -0.15366,0.23349 -0.2793,0.46152 -0.2793,0.50782 0,0.0462 -0.0617,0.13366 -0.13867,0.19336 -0.13305,0.1036 -0.13305,0.10479 0,0.0586 0.0954,-0.0333 0.13867,-0.007 0.13867,0.0801 0,0.0707 -0.0532,0.1289 -0.11914,0.1289 -0.0659,0 -0.11914,0.054 -0.11914,0.1211 0,0.16659 -0.23897,0.24685 -0.32617,0.10937 -0.0535,-0.0845 -0.0713,-0.0686 -0.0723,0.0625 -0.002,0.24141 -0.082,0.42578 -0.18555,0.42578 -0.11754,0 -0.61328,0.48626 -0.61328,0.60157 0,0.0504 -0.0707,0.15502 -0.15625,0.23242 -0.0852,0.0773 -0.17823,0.24612 -0.20703,0.37695 -0.0396,0.18024 -0.0874,0.22997 -0.19726,0.20117 -0.16095,-0.0421 -0.45213,0.23761 -0.64063,0.61524 -0.064,0.12766 -0.17916,0.24728 -0.25586,0.26758 -0.0767,0.0203 -0.13867,0.1049 -0.13867,0.1875 0,0.10548 -0.0574,0.15039 -0.19141,0.15039 -0.10518,0 -0.27533,0.093 -0.3789,0.20703 -0.10328,0.11404 -0.25113,0.26474 -0.32813,0.33593 -0.0766,0.0713 -0.13867,0.20804 -0.13867,0.30274 0,0.0944 -0.0552,0.21698 -0.12109,0.27148 -0.0659,0.0545 -0.11914,0.14347 -0.11914,0.19727 0,0.0535 -0.0673,0.15717 -0.14844,0.23047 -0.0808,0.0732 -0.19406,0.2763 -0.25196,0.45117 -0.0577,0.17519 -0.13477,0.31836 -0.17187,0.31836 -0.0368,0 -0.0664,0.0704 -0.0664,0.1582 0,0.1767 -0.1229,0.21674 -0.1875,0.0606 -0.0222,-0.0548 -0.0195,0.026 0.006,0.17969 0.025,0.15365 0.0813,0.32506 0.125,0.38086 0.0442,0.056 0.0542,0.1274 0.0234,0.1582 -0.0304,0.0304 -0.0833,0.008 -0.11914,-0.0488 -0.0776,-0.12609 -0.38386,0.26293 -0.38086,0.48438 0.005,0.36432 -0.2235,1.01792 -0.44336,1.26757 -0.21766,0.24704 -0.23584,0.25317 -0.18164,0.0723 0.0326,-0.10993 0.11313,-0.26008 0.17773,-0.33398 0.10482,-0.11975 0.0955,-0.15284 -0.0879,-0.3125 l -0.20507,-0.17774 0.16796,-0.26953 c 0.0918,-0.14889 0.14379,-0.29371 0.11719,-0.32031 -0.0691,-0.0691 -0.36719,0.21824 -0.36719,0.35351 0,0.0618 -0.0915,0.23117 -0.20117,0.375 -0.10958,0.14383 -0.19922,0.31867 -0.19922,0.38867 0,0.0699 -0.0354,0.15024 -0.0801,0.17774 -0.0444,0.0275 -0.0602,0.0855 -0.0332,0.12891 0.0269,0.0434 -0.0249,0.31961 -0.11523,0.61328 -0.0903,0.29368 -0.22523,0.80366 -0.29883,1.13281 -0.0738,0.32917 -0.20126,0.73443 -0.28516,0.90234 -0.0842,0.16758 -0.16719,0.402 -0.18359,0.51953 -0.0168,0.11754 -0.0869,0.39917 -0.15625,0.62696 -0.0697,0.22777 -0.12133,0.44301 -0.11133,0.47851 0.009,0.0358 -0.01,0.3177 -0.043,0.625 -0.13093,1.22095 -0.11607,2.04474 0.043,2.4043 0.11372,0.25725 0.18747,0.80769 0.30469,2.27734 l 0.1543,1.94141 0.4082,0.99609 c 0.28196,0.68808 0.43554,1.19314 0.49414,1.63477 0.0469,0.35196 0.2059,0.97376 0.35352,1.38086 0.20338,0.56137 0.26859,0.86829 0.26953,1.27539 6.4e-4,0.29526 0.0498,0.75234 0.11133,1.01562 0.0615,0.26325 0.17003,0.81535 0.24023,1.22657 0.0703,0.41121 0.23266,1.0034 0.35937,1.3164 0.1451,0.35925 0.24519,0.77937 0.27149,1.13672 0.0494,0.67003 0.28809,1.29888 0.84375,2.22266 0.3035,0.50404 0.46843,0.91112 0.69336,1.71484 0.1622,0.57975 0.37114,1.16756 0.46484,1.30664 0.0941,0.13939 0.31875,0.5224 0.49805,0.85157 0.17931,0.32914 0.56903,1.0129 0.86523,1.51757 0.29654,0.50467 0.77184,1.32156 1.05664,1.81641 0.57847,1.00425 0.5772,1.00371 0.9336,0.29883 0.12292,-0.24236 0.24594,-0.43946 0.27344,-0.43946 0.13179,0.003 0.24611,0.15001 0.37695,0.47852 0.0782,0.19737 0.18026,0.39882 0.22656,0.44922 0.0463,0.0504 0.17554,0.21001 0.28516,0.35351 0.2867,0.37541 0.64935,0.70542 0.83593,0.76172 0.28292,0.0852 0.51954,0.36486 0.51954,0.61133 0,0.12831 0.0516,0.32873 0.11523,0.44531 0.064,0.11627 0.15261,0.37264 0.19531,0.57032 0.0428,0.19737 0.153,0.62786 0.2461,0.95703 0.0931,0.32915 0.21975,0.81484 0.28125,1.07812 0.20463,0.88037 0.41681,1.67355 0.50781,1.90039 0.0497,0.12354 0.0898,0.3233 0.0898,0.44336 0,0.11976 0.0373,0.25453 0.082,0.29883 0.0443,0.0447 0.13573,0.34721 0.20313,0.67383 0.23033,1.11356 0.26955,1.27367 0.34375,1.41211 0.0405,0.076 0.0864,0.2471 0.10156,0.3789 0.0156,0.13147 0.0462,0.2574 0.0684,0.2793 0.095,0.0944 0.3121,0.62764 0.4043,0.99609 0.0979,0.39189 0.52712,1.21684 0.44922,0.86329 -0.0216,-0.0966 3.7e-4,-0.18958 0.0469,-0.20508 0.0466,-0.0155 0.084,-0.19712 0.084,-0.4043 0,-0.2129 0.0338,-0.36646 0.0781,-0.35156 0.10328,0.0345 0.29097,0.66731 0.29297,0.98633 0.002,0.39473 0.18266,0.69816 0.30273,0.50586 0.0592,-0.0944 0.0653,-0.16667 0.0156,-0.19727 -0.11461,-0.071 -0.0945,-0.19922 0.0312,-0.19922 0.13527,0 0.34264,0.55299 0.39844,1.0586 0.039,0.35228 0.26032,0.85742 0.375,0.85742 0.0275,0 0.097,0.14117 0.15429,0.31445 0.10073,0.30569 0.32777,0.49953 0.38477,0.32813 0.0494,-0.14759 0.32064,-0.0903 0.45117,0.0957 l 0.12695,0.17969 0.0469,-0.17969 c 0.051,-0.19297 0.1875,-0.24915 0.1875,-0.0762 0,0.0577 0.10643,0.20753 0.23633,0.33203 0.13013,0.12451 0.21545,0.26093 0.18945,0.30273 -0.0272,0.0443 0.0201,0.0555 0.11523,0.0254 0.13343,-0.0421 0.1731,-0.01 0.2168,0.18946 0.0296,0.13337 0.079,0.24414 0.11133,0.24414 0.0979,0 0.34957,0.59034 0.26367,0.61914 -0.0434,0.0142 0.0253,0.13989 0.15234,0.27929 0.12738,0.13938 0.23047,0.29129 0.23047,0.3379 0,0.0469 0.14482,0.36213 0.32032,0.69921 0.17551,0.33741 0.31836,0.66858 0.31836,0.73829 0,0.069 0.0345,0.10607 0.0762,0.0801 0.0418,-0.0257 0.11727,0.0926 0.16797,0.26172 0.0507,0.16917 0.15893,0.34939 0.24023,0.40039 0.12171,0.0761 0.14092,0.0699 0.10352,-0.0273 -0.07,-0.18241 0.0958,-0.13897 0.24023,0.0625 0.1282,0.17876 0.12823,0.17768 0.0781,-0.0605 -0.0279,-0.1318 -0.0843,-0.28339 -0.12696,-0.33789 -0.11564,-0.14636 -0.0102,-0.33984 0.18555,-0.33984 0.13158,0 0.16121,-0.0372 0.12891,-0.16016 -0.0228,-0.0877 -0.004,-0.16016 0.041,-0.16016 0.0438,10e-6 0.0608,-0.0498 0.0371,-0.11132 -0.0257,-0.0668 0.0202,-0.12795 0.11328,-0.15235 0.0862,-0.0226 0.15053,-0.0706 0.14453,-0.10742 -0.0352,-0.19926 0.0217,-0.3457 0.13477,-0.3457 0.0813,0 0.11308,-0.045 0.084,-0.1211 -0.0253,-0.0656 -0.0112,-0.11914 0.0312,-0.11914 0.0425,0 0.0762,0.0481 0.0762,0.10743 10e-6,0.0589 0.0717,0.1909 0.16016,0.29296 0.0954,0.10962 0.14244,0.24388 0.11524,0.33008 -0.0361,0.1134 -0.0156,0.13495 0.0918,0.0937 0.094,-0.0361 0.11968,-0.023 0.0801,0.041 -0.0334,0.0536 -0.004,0.11508 0.0684,0.14258 0.0894,0.0345 0.10388,0.0778 0.0469,0.14648 -0.0611,0.0737 -0.002,0.0994 0.2461,0.10938 0.29075,0.0114 0.32196,-0.005 0.28516,-0.14649 -0.0232,-0.0877 -0.0105,-0.17777 0.0273,-0.20117 0.0379,-0.0231 0.0461,-0.10429 0.0176,-0.17969 -0.0453,-0.11884 -0.0325,-0.11748 0.0996,0.0137 0.14574,0.14549 0.15487,0.14563 0.23437,0.008 0.0456,-0.0792 0.14566,-0.21022 0.22266,-0.29102 0.0767,-0.0808 0.0879,-0.18922 0.23242,-0.19922 0.27711,-0.0369 0.73811,0.17004 0.54102,0.95313 -0.0635,0.13972 -0.0648,0.27834 -0.002,0.5039 0.0713,0.25566 0.0647,0.32779 -0.0332,0.40039 -0.0656,0.0488 -0.11914,0.18288 -0.11914,0.29883 0,0.11595 -0.0257,0.21126 -0.0586,0.21094 -0.033,0 -0.0481,0.23409 -0.0332,0.51953 0.0146,0.28512 -0.006,0.51758 -0.0449,0.51758 -0.0388,0 -0.0558,0.13035 -0.0371,0.28906 0.0203,0.17392 -0.004,0.31156 -0.0625,0.34766 -0.0599,0.0371 -0.10138,0.28828 -0.10937,0.66211 -0.0101,0.47166 -0.0354,0.58453 -0.11329,0.51953 -0.0763,-0.063 -0.0996,-0.0223 -0.0996,0.17187 0,0.14708 -0.0326,0.23328 -0.0781,0.20508 -0.10426,-0.0643 6.1e-4,0.22177 0.10742,0.29297 0.0532,0.0355 0.0453,0.15756 -0.0215,0.35937 -0.0555,0.16854 -0.0909,0.34137 -0.0801,0.38477 0.0323,0.13085 -0.0994,0.51758 -0.17578,0.51758 -0.0393,0 -0.0703,0.0734 -0.0703,0.16211 10e-6,0.0887 -0.0893,0.30296 -0.19921,0.47656 -0.10956,0.17393 -0.20118,0.37441 -0.20118,0.44531 0,0.071 -0.0652,0.22359 -0.14648,0.33985 -0.0811,0.11659 -0.16961,0.32133 -0.19531,0.45312 -0.0256,0.13147 -0.10855,0.38309 -0.18555,0.5586 -0.077,0.17551 -0.14634,0.33552 -0.15234,0.35742 -0.006,0.0222 -0.0393,0.10574 -0.0742,0.18554 -0.0376,0.0862 -0.0281,0.18283 0.0254,0.23633 0.22398,0.224 0.10604,0.35501 -0.28711,0.31641 -0.20845,-0.0205 -0.39802,-0.0659 -0.41992,-0.0996 -0.0745,-0.113 -0.71151,-0.12946 -0.75391,-0.0195 -1.38097,0.2975 -0.69502,0.55052 -1.89453,1.20508 -0.16156,0.17106 -0.1937,0.25161 -0.125,0.32031 0.16981,0.16979 -0.19744,0.10171 -0.38086,-0.0703 l -0.16992,-0.16016 -0.30469,0.20508 c -0.16664,0.11309 -0.47993,0.29839 -0.69726,0.41211 -0.22461,0.11754 -0.47929,0.33336 -0.58985,0.5 -0.18723,0.2829 -0.6223,0.56054 -0.8789,0.56054 -0.19135,0 -0.70857,0.40412 -0.91797,0.7168 -0.10359,0.1546 -0.24867,0.32606 -0.32227,0.38086 -0.0735,0.0548 -0.15905,0.21681 -0.18945,0.35938 -0.0992,0.46919 -0.78709,3.24595 -1.33008,3.25195 -0.13431,0.002 -0.34451,0.0854 -0.4668,0.18555 -0.22492,0.18406 -0.31988,0.33614 -0.76562,1.21875 -0.1359,0.26896 -3.73287,8.80481 -3.70117,13.45703 0.0362,5.31197 1.14589,11.13573 4.43554,15.30664 3.91507,4.96387 10.05492,8.97674 16.48438,9.37695 8.04227,0.50061 13.35629,-1.43128 17.95312,-5.70898 5.07917,-4.72655 8.0687,-12.08517 7.7168,-19.33204 -0.28166,-5.80046 -2.08205,-8.81862 -3.75195,-12.70703 -0.65738,-1.53073 -0.0635,-3.83047 -1.23438,-5.05468 -0.13907,-0.0751 -0.36573,-0.23547 -0.50195,-0.35743 -0.13591,-0.12167 -0.37074,-0.28071 -0.52344,-0.35351 -0.15269,-0.0729 -0.28216,-0.18911 -0.28515,-0.25781 -0.003,-0.0689 -0.0228,-0.0846 -0.043,-0.0352 -0.045,0.10993 -0.50977,-0.27783 -0.50977,-0.42578 0,-0.0563 -0.0341,-0.10352 -0.0781,-0.10352 -0.0437,0 -0.0801,-0.0535 -0.0801,-0.11914 0,-0.0745 -0.076,-0.11914 -0.19922,-0.11914 -0.61174,0 -1.15618,-0.81963 -1.23438,-1.85937 -0.0259,-0.34215 -0.082,-0.64694 -0.125,-0.67774 -0.13528,-0.0966 -0.27734,-0.40545 -0.27734,-0.60156 0,-0.10358 -0.0505,-0.29224 -0.11133,-0.41992 -0.0608,-0.12735 -0.13195,-0.49892 -0.16015,-0.82617 -0.0282,-0.32916 -0.0966,-0.62371 -0.1504,-0.65821 -0.0538,-0.034 -0.0616,-0.0625 -0.0176,-0.0625 0.0487,-9.6e-4 0.082,-0.4186 0.084,-1.08007 0.002,-0.59243 -0.0234,-1.07618 -0.0586,-1.07618 -0.0352,0 -0.0645,-0.0375 -0.0645,-0.084 0,-0.0466 0.0361,-0.0625 0.0801,-0.0352 0.0437,0.0272 0.0781,-0.0218 0.0781,-0.10742 0,-0.0855 -0.0556,-0.17642 -0.125,-0.20312 -0.14161,-0.0545 -0.0933,-1.83532 0.0547,-2.01368 0.0408,-0.0491 0.053,-0.14609 0.0273,-0.21289 -0.0257,-0.0668 -0.006,-0.14568 0.043,-0.17578 0.0654,-0.0402 0.0642,-0.086 -0.004,-0.16797 -0.0751,-0.0906 -0.0639,-0.11328 0.0645,-0.11328 0.11339,0 0.17499,-0.0685 0.20899,-0.23828 0.0291,-0.1451 0.0974,-0.24023 0.17383,-0.24023 0.0694,0 0.10337,-0.0344 0.0762,-0.0781 -0.0269,-0.0437 0.0441,-0.12283 0.15625,-0.17383 0.11212,-0.0512 0.20312,-0.12029 0.20312,-0.15429 0,-0.0339 0.0709,-0.0843 0.15625,-0.11133 0.10513,-0.0333 0.14013,-0.0927 0.10743,-0.1836 -0.0267,-0.0734 -0.0205,-0.10887 0.0156,-0.0762 0.0358,0.0323 0.11498,0.0172 0.17578,-0.0332 0.0817,-0.0689 0.13457,-0.0705 0.20117,-0.004 0.0666,0.0664 0.0545,0.10323 -0.043,0.14063 -0.10011,0.0383 -0.11244,0.0861 -0.0527,0.19726 0.043,0.0805 0.0781,0.23009 0.0781,0.33399 0,0.43691 0.33714,0.49693 0.57031,0.10156 0.17803,-0.30191 0.35714,-0.37861 0.27734,-0.11914 -0.1049,0.34028 -0.13017,0.51806 -0.043,0.29883 0.10486,-0.2629 0.25395,-0.29066 0.21875,-0.041 -0.0228,0.16193 0.01,0.17681 0.39258,0.19141 0.32473,0.0126 0.41992,-0.009 0.41992,-0.10156 0,-0.0823 0.0493,-0.10356 0.16016,-0.0684 0.11536,0.0364 0.1582,0.0146 0.1582,-0.0801 0,-0.1125 0.0301,-0.10709 0.21094,0.0352 0.11562,0.0913 0.25505,0.16407 0.31055,0.16407 0.0973,0 0.23503,0.221 0.21093,0.33789 -0.007,0.0314 0.0652,0.0977 0.16016,0.14844 0.0947,0.051 0.26581,0.20493 0.37891,0.34179 0.11278,0.13717 0.31663,0.37565 0.45507,0.5293 0.13843,0.15366 0.37253,0.41575 0.51954,0.58398 0.43242,0.49419 0.64114,0.70082 1.31054,1.29102 0.34817,0.30729 1.2513,1.17638 2.00782,1.93164 1.51685,1.51367 3.27427,2.9034 4.22656,3.34375 0.1676,0.0773 0.38829,0.20596 0.49219,0.28516 0.1039,0.0788 0.22116,0.12331 0.25976,0.0996 0.0383,-0.0238 0.26941,0.0672 0.51367,0.20117 0.24425,0.13401 0.4955,0.24414 0.5586,0.24414 0.0627,0 0.32173,0.068 0.57422,0.15234 0.25281,0.0839 0.58495,0.17322 0.73828,0.19922 0.15365,0.026 0.35165,0.0601 0.43945,0.0762 0.0878,0.0157 0.33905,0.0583 0.55859,0.0937 0.21954,0.035 0.4156,0.0683 0.4375,0.0723 0.0222,0.004 0.0842,0.0332 0.13672,0.0664 0.0526,0.0335 0.53633,0.0568 1.07617,0.0508 0.53982,-0.006 1.07741,0.0126 1.19336,0.043 0.11564,0.0305 0.23116,0.0226 0.25586,-0.0176 0.025,-0.0403 0.26958,-0.0791 0.54297,-0.0899 0.27371,-0.01 0.53573,-0.0432 0.58203,-0.0723 0.0466,-0.0292 0.12007,-0.0556 0.16407,-0.0586 0.19008,-0.0127 0.73081,-0.20971 0.87304,-0.31836 0.0852,-0.065 0.19906,-0.11914 0.25196,-0.11914 0.23159,0 0.69069,-0.59066 0.71289,-0.91601 0.0462,-0.68523 0.0776,-0.72634 0.56836,-0.74024 0.2433,-0.007 0.48445,-0.0463 0.53515,-0.0859 0.0504,-0.0395 0.28691,-0.0962 0.52735,-0.12696 0.24014,-0.0303 0.47453,-0.0842 0.51953,-0.11914 0.11817,-0.0911 0.43945,-0.1616 0.43945,-0.0957 0,0.0649 0.52425,0.23062 1.03906,0.32812 0.19767,0.0377 0.57463,0.13003 0.83789,0.20313 0.26326,0.0735 0.69376,0.16071 0.95703,0.19531 0.26326,0.0345 0.56812,0.0966 0.67774,0.13867 0.12703,0.0485 0.41772,0.0505 0.79883,0.002 1.01914,-0.12921 2.9601,-0.11966 3.0957,0.0156 0.10074,0.10071 0.16219,0.0982 0.48438,-0.0137 0.20339,-0.0703 0.58407,-0.17016 0.84765,-0.22266 0.26326,-0.0526 0.52222,-0.13007 0.57422,-0.17187 0.0935,-0.0767 0.3089,-0.0918 0.95898,-0.0684 0.76951,0.0272 1.0113,-0.25184 0.9961,-1.1582 -0.0171,-1.02422 -0.46212,-1.6775 -2.08985,-3.06446 -0.3732,-0.31775 -0.98559,-0.89619 -1.36132,-1.28711 -0.37573,-0.39126 -0.72505,-0.71289 -0.77735,-0.71289 -0.0524,0 -0.0957,-0.0276 -0.0957,-0.0625 0,-0.0808 -1.28523,-1.37177 -2.95508,-2.96875 -0.71123,-0.6805 -1.44351,-1.38114 -1.62695,-1.55664 -0.18343,-0.17552 -0.66718,-0.62485 -1.07617,-0.99804 -0.40867,-0.37288 -0.85633,-0.79738 -0.99414,-0.94532 -0.50466,-0.54141 -1.03697,-1.04883 -1.10157,-1.04883 -0.0364,0 -0.0664,-0.0341 -0.0664,-0.0762 0,-0.0418 -0.70065,-0.77545 -1.55664,-1.6289 -0.85568,-0.85315 -1.55469,-1.58651 -1.55469,-1.62891 0,-0.0428 -0.0933,-0.28735 -0.20703,-0.54492 -0.11372,-0.25755 -0.21576,-0.54081 -0.22656,-0.62891 -0.0288,-0.24647 -0.43978,-1.06502 -0.67579,-1.3457 -0.11595,-0.13813 -0.38847,-0.4841 -0.60547,-0.76953 -0.21702,-0.28513 -0.4157,-0.5367 -0.4414,-0.5586 -0.35381,-0.30128 -0.54767,-0.89961 -0.33984,-1.04882 0.40487,-0.29114 0.29691,-0.44559 -0.33985,-0.49219 -0.53508,-0.0386 -0.7685,-0.16839 -0.7168,-0.39649 0.13214,-0.58197 0.1572,-0.8773 0.1211,-1.39843 -0.0459,-0.66722 0.004,-0.75935 0.32031,-0.60157 0.60746,0.30285 0.97576,-0.34019 0.60352,-1.05078 -0.0692,-0.13179 -0.125,-0.3002 -0.125,-0.375 -6.3e-4,-0.12292 -0.0358,-0.22737 -0.2461,-0.74219 -0.0969,-0.23663 -0.15089,-0.55425 -0.24218,-1.4375 -0.045,-0.43749 -0.113,-1.01212 -0.1504,-1.27539 -0.0377,-0.26326 -0.1078,-0.76616 -0.1582,-1.11718 -0.0503,-0.35134 -0.10785,-0.81756 -0.12695,-1.03711 -0.0529,-0.60825 -0.17869,-1.34592 -0.27149,-1.58985 -0.0461,-0.12039 -0.0691,-0.24363 -0.0508,-0.27343 0.0183,-0.0295 8.4e-4,-0.21505 -0.0391,-0.41211 -0.0397,-0.19705 -0.0937,-0.5191 -0.11914,-0.7168 -0.0254,-0.19736 -0.10293,-0.64704 -0.17383,-0.99805 -0.071,-0.35133 -0.13553,-0.92601 -0.14453,-1.27734 -0.014,-0.58324 -0.13765,-1.54985 -0.24219,-1.89453 -0.0934,-0.30762 0.13556,-0.11385 0.33008,0.27929 0.26105,0.52747 0.75191,1.12215 0.75391,0.91211 0.002,-0.16315 -0.34551,-0.78838 -0.51563,-0.92968 -0.0612,-0.0507 -0.13456,-0.20632 -0.16406,-0.34571 -0.0295,-0.13971 -0.17426,-0.43744 -0.32031,-0.66015 -0.14635,-0.22271 -0.28972,-0.51004 -0.32032,-0.63867 -0.0307,-0.1283 -0.0846,-0.27006 -0.11914,-0.31446 -0.0345,-0.0443 -0.10665,-0.25961 -0.16015,-0.47851 -0.0535,-0.21892 -0.14578,-0.49449 -0.20508,-0.61328 -0.0595,-0.11849 -0.10938,-0.28264 -0.10938,-0.36524 0,-0.21256 -0.27365,-1.08431 -0.71875,-2.29101 -0.45051,-1.22158 -0.72075,-2.09085 -0.71875,-2.31641 6.8e-4,-0.089 -0.0474,-0.23351 -0.10742,-0.32031 -0.0599,-0.0865 -0.13592,-0.24587 -0.16992,-0.35547 -0.0922,-0.29906 -0.84097,-1.82905 -0.91797,-1.87695 -0.037,-0.0228 -0.0924,-0.15659 -0.12304,-0.29883 -0.0307,-0.14225 -0.12308,-0.35444 -0.20508,-0.47071 -0.0824,-0.11658 -0.15139,-0.27827 -0.15235,-0.35937 -0.001,-0.0811 -0.0723,-0.23577 -0.1582,-0.3457 -0.086,-0.10961 -0.15725,-0.24398 -0.1582,-0.29688 -9.5e-4,-0.0529 -0.0808,-0.22298 -0.17969,-0.37695 -0.0988,-0.15429 -0.30566,-0.47803 -0.45898,-0.72071 -0.15365,-0.24236 -0.30685,-0.44109 -0.33985,-0.4414 -0.0329,-3e-4 -0.0605,-0.038 -0.0605,-0.084 0,-0.0868 -0.41847,-0.76433 -0.93359,-1.50976 -0.16601,-0.24045 -0.34754,-0.54125 -0.40234,-0.66797 -0.0893,-0.20593 -0.6208,-0.98875 -0.74024,-1.08984 -0.026,-0.0222 -0.0944,-0.15697 -0.15234,-0.30079 -0.0583,-0.14352 -0.14687,-0.28871 -0.19727,-0.32031 -0.0501,-0.032 -0.18477,-0.23749 -0.29882,-0.45703 -0.11373,-0.21953 -0.35933,-0.68611 -0.54688,-1.03711 -0.18786,-0.35134 -0.44486,-0.84586 -0.57031,-1.09961 -0.12578,-0.25377 -0.31167,-0.59466 -0.41407,-0.75781 -0.10232,-0.16315 -0.21369,-0.40532 -0.24609,-0.53711 -0.0323,-0.13178 -0.10205,-0.29152 -0.15625,-0.35742 -0.0542,-0.0656 -0.16765,-0.28277 -0.25195,-0.48047 -0.14192,-0.33232 -0.4136,-0.79609 -0.58594,-1.00391 -0.0399,-0.0482 -0.13162,-0.20108 -0.20312,-0.33984 -0.0716,-0.13844 -0.15846,-0.25195 -0.19336,-0.25195 -0.0345,0 -0.12051,-0.12097 -0.19141,-0.26953 -0.16378,-0.34342 -0.9433,-1.46261 -1.20117,-1.72461 -0.10802,-0.10962 -0.23215,-0.27128 -0.27735,-0.35938 -0.23539,-0.45969 -2.95471,-3.19178 -3.34375,-3.35937 -0.26959,-0.11626 -0.9537,-0.55611 -1.1289,-0.72657 -0.058,-0.0565 -0.13232,-0.10351 -0.16602,-0.10351 -0.0333,0 -0.26234,-0.26649 -0.50976,-0.59375 -0.49769,-0.65767 -0.67516,-0.88261 -0.85352,-1.07617 -0.0659,-0.0716 -0.28147,-0.32628 -0.47851,-0.56641 -0.19705,-0.24014 -0.93373,-1.01386 -1.63672,-1.71875 -1.50702,-1.51146 -2.06186,-2.11417 -2.34571,-2.54883 -0.11469,-0.17551 -0.25249,-0.36688 -0.30859,-0.42578 -0.0561,-0.0589 -0.1561,-0.2108 -0.2207,-0.33594 -0.0649,-0.12513 -0.21149,-0.32825 -0.32618,-0.45117 -0.24425,-0.26168 -1.01677,-1.37851 -1.31835,-1.9082 -0.115,-0.2018 -0.2397,-0.38977 -0.2793,-0.41797 -0.10613,-0.0751 -0.34766,-0.47171 -0.34766,-0.57031 0,-0.11594 -0.81685,-1.35435 -1.34179,-2.03516 -0.16252,-0.21099 -0.39602,-0.75072 -0.44922,-1.03711 -0.0323,-0.1755 -0.0896,-0.35539 -0.12696,-0.40039 -0.19895,-0.24142 -0.57066,-2.83203 -0.40625,-2.83203 0.1095,0 0.11907,-0.36895 0.0117,-0.43555 -0.0471,-0.0291 -0.0479,-0.12037 -0.004,-0.23633 0.0393,-0.10358 0.0501,-0.20962 0.0234,-0.23632 -0.0262,-0.0263 -0.006,-0.0488 0.0449,-0.0488 0.0513,0 0.0976,0.0448 0.10156,0.0996 0.0197,0.24077 0.1651,-0.49034 0.15429,-0.77735 -0.0197,-0.53572 0.16605,-1.67083 0.28516,-1.74023 0.0602,-0.0352 0.11133,-0.117 0.11133,-0.18359 0,-0.0713 0.0376,-0.0982 0.0918,-0.0645 0.052,0.0317 0.0696,0.0235 0.043,-0.0195 -0.0267,-0.0428 0.005,-0.17849 0.0684,-0.30078 0.0636,-0.1226 0.11524,-0.26872 0.11524,-0.32422 0,-0.0554 0.0563,-0.14808 0.125,-0.20508 0.0691,-0.0573 0.10954,-0.16543 0.0898,-0.24023 -0.0193,-0.0748 0.0329,-0.19337 0.11524,-0.26367 0.0821,-0.0707 0.14843,-0.21676 0.14843,-0.32422 0,-0.1077 0.0336,-0.21524 0.0742,-0.24024 0.0403,-0.025 0.0958,-0.14629 0.12305,-0.26953 0.0269,-0.12324 0.15194,-0.33912 0.2793,-0.47851 0.14984,-0.1641 0.25191,-0.38048 0.28711,-0.61524 0.0462,-0.30657 0.0754,-0.35465 0.20312,-0.31445 0.12995,0.0415 0.15039,0.006 0.15039,-0.27344 0,-0.31139 0.007,-0.32125 0.19922,-0.24805 0.22687,0.0862 0.22822,0.0847 0.12109,-0.19726 -0.0596,-0.15649 -0.0515,-0.21725 0.0293,-0.24805 0.0647,-0.025 0.0909,-0.11848 0.0684,-0.23633 -0.0254,-0.13242 0.006,-0.21119 0.0977,-0.24609 0.0932,-0.0358 0.12682,-0.12521 0.11132,-0.29883 -0.0152,-0.1711 0.009,-0.24176 0.0801,-0.22656 0.0764,0.0162 0.0916,-0.0436 0.0527,-0.2207 -0.0526,-0.23954 0.0161,-0.31016 0.16211,-0.16602 0.0476,0.0472 0.0789,-0.0453 0.0879,-0.25 0.007,-0.17868 0.0557,-0.35091 0.10742,-0.38281 0.0516,-0.032 0.0813,-0.09 0.0664,-0.12891 -0.0146,-0.039 0.12623,-0.10498 0.3125,-0.14648 0.3193,-0.0706 0.33984,-0.0915 0.33984,-0.35157 0,-0.27149 0.003,-0.27441 0.16016,-0.13281 0.1836,0.16665 0.18443,0.16648 0.084,-0.18359 -0.0868,-0.30255 -0.0307,-0.52049 0.11914,-0.46289 0.0567,0.0215 0.12239,-0.0117 0.14649,-0.0742 0.026,-0.0675 0.0953,-0.0926 0.17382,-0.0625 0.1055,0.0406 0.12153,0.0161 0.0781,-0.12109 -0.0425,-0.13387 -0.0273,-0.15985 0.0684,-0.12305 0.0675,0.0257 0.18,-0.012 0.25,-0.082 0.07,-0.0701 0.20749,-0.12696 0.30469,-0.12696 0.0973,0 0.30105,-0.10643 0.45312,-0.23632 0.15206,-0.12989 0.35146,-0.23629 0.44336,-0.23828 0.0919,-0.002 0.23365,-0.0767 0.31445,-0.16602 0.0811,-0.0894 0.19656,-0.14399 0.25586,-0.12109 0.0592,0.0228 0.12735,-0.0132 0.15235,-0.0781 0.025,-0.0653 0.12971,-0.11719 0.23242,-0.11719 0.10296,0 0.28217,-0.0892 0.39844,-0.19726 0.11659,-0.10803 0.3999,-0.25126 0.63085,-0.31836 0.23095,-0.0668 0.52337,-0.17629 0.65039,-0.24219 0.12674,-0.0662 0.31976,-0.12047 0.42969,-0.12109 0.10961,-3.3e-4 0.29078,-0.0465 0.40039,-0.10352 0.10962,-0.057 0.37812,-0.15073 0.59766,-0.20703 0.21955,-0.0567 0.47079,-0.13217 0.55859,-0.16797 0.0877,-0.0355 0.59036,-0.19685 1.11719,-0.35937 0.52653,-0.16284 1.02939,-0.32744 1.11719,-0.36524 0.85853,-0.36686 2.36431,-0.71711 2.41601,-0.5625 0.0168,0.0501 0.10406,0.0898 0.19336,0.0898 0.3393,0 -0.89228,-1.3244 -1.40234,-1.50782 -0.0488,-0.0175 -0.10701,-0.0549 -0.12891,-0.084 -0.0219,-0.0288 -0.24783,-0.11711 -0.5,-0.19531 -0.2525,-0.0783 -0.45898,-0.18132 -0.45898,-0.22852 0,-0.0473 -0.021,-0.063 -0.0488,-0.0352 -0.0276,0.0276 -0.10849,0.0204 -0.17969,-0.0176 -0.071,-0.038 -0.2737,-0.0913 -0.44922,-0.11914 -0.1755,-0.0276 -0.42712,-0.0838 -0.55859,-0.125 -0.70266,-0.21986 -4.78537,-0.49588 -4.94726,-0.33399 -0.0155,0.0155 -0.36217,0.0431 -0.77149,0.0605 -0.40898,0.0177 -0.91021,0.0699 -1.11328,0.11719 -0.25629,0.0595 -0.46584,0.0605 -0.67969,0.004 -0.17011,-0.0457 -0.55111,-0.0659 -0.84765,-0.0488 -0.34087,0.0199 -0.53907,-1.3e-4 -0.53907,-0.0527 0,-0.0467 0.0552,-0.0621 0.1211,-0.0371 0.066,0.0253 0.11914,0.0114 0.11914,-0.0312 0,-0.0425 -0.12564,-0.0829 -0.2793,-0.0879 -0.37766,-0.0136 -0.41527,-0.0208 -0.48437,-0.0898 -0.033,-0.0329 -0.17981,-0.0606 -0.32618,-0.0606 -0.18319,0 -0.26562,-0.0368 -0.26562,-0.11914 0,-0.0659 -0.0566,-0.11914 -0.125,-0.11914 -0.0691,0 -0.10337,0.0361 -0.0762,0.0801 0.0272,0.0436 0.0138,0.0781 -0.0312,0.0781 -0.045,0 -0.12067,-0.0704 -0.16797,-0.1582 -0.096,-0.17932 -0.28126,-0.21166 -0.35156,-0.0606 -0.0373,0.0798 -0.0566,0.0798 -0.0937,0 -0.0257,-0.0548 -0.12365,-0.10152 -0.21875,-0.10351 -0.16623,-0.003 -0.16627,-0.007 0.0254,-0.125 0.11,-0.0671 0.13754,-0.10153 0.0605,-0.0781 -0.17488,0.0538 -0.39288,-0.0257 -0.33398,-0.12109 0.0244,-0.0393 0.007,-0.0703 -0.0391,-0.0703 -0.0466,0 -0.0859,0.0361 -0.0859,0.0801 0,0.13562 -0.28465,0.0878 -0.47852,-0.0801 -0.10107,-0.0878 -0.24325,-0.16015 -0.31445,-0.16015 -0.0713,0 -0.20031,-0.0492 -0.28711,-0.10938 -0.25914,-0.17995 -1.16282,-0.52031 -1.27148,-0.47851 -0.0553,0.0213 -0.12114,-0.0108 -0.14453,-0.0723 -0.0317,-0.0831 -0.16953,-0.10554 -0.54493,-0.0859 -0.48408,0.0253 -0.94922,-0.0929 -0.94922,-0.24023 0,-0.038 -0.0549,-0.0458 -0.12304,-0.0195 -0.068,0.026 -0.10383,0.0122 -0.0781,-0.0293 0.0276,-0.0439 -0.0673,-0.06 -0.23047,-0.0391 -0.15271,0.0196 -0.29415,0.009 -0.31445,-0.0234 v 0.002 c -0.0203,-0.0324 -0.24566,-0.0672 -0.50195,-0.0762 z m -10.54687,2.55664 c 0.007,0.006 0.15652,0.035 0.33203,0.0625 0.28924,0.0449 0.30199,0.0532 0.12109,0.10547 -0.45175,0.13052 -0.97456,0.0152 -0.59375,-0.13086 0.0694,-0.0263 0.13263,-0.0431 0.14063,-0.0371 z m -1.16407,0.1582 c -0.015,3.8e-4 -0.0406,0.0192 -0.0762,0.0547 -0.0529,0.0529 -0.15938,0.0957 -0.23828,0.0957 -0.0789,0 -0.14453,0.0361 -0.14453,0.0801 0,0.0437 0.039,0.0801 0.0859,0.0801 0.14711,0 0.3909,-0.1611 0.39257,-0.25781 0,0 0,-0.002 0,-0.002 -3.8e-4,-0.0327 -0.005,-0.0511 -0.0195,-0.0508 z m 9.4961,2.82031 c 0.53139,10e-4 1.33785,0.16306 1.46484,0.3418 0.0629,0.0885 0.22344,0.26007 0.35742,0.38086 0.1339,0.12086 0.24414,0.2902 0.24414,0.375 0,0.0848 0.0845,0.22937 0.1875,0.32227 0.10326,0.0928 0.1875,0.22717 0.1875,0.29687 0,0.0694 0.0679,0.14688 0.15039,0.17188 0.0825,0.0252 0.15039,0.0849 0.15039,0.13281 0,0.048 -0.0679,0.14128 -0.15039,0.20898 -0.12536,0.1031 -0.15039,0.10738 -0.15039,0.0176 0,-0.24312 -0.37706,-0.0316 -0.64648,0.36328 -0.0664,0.097 -0.16741,0.17578 -0.22461,0.17578 -0.0569,0 -0.10352,0.0336 -0.10352,0.0723 0,0.0989 -0.53375,0.30287 -0.68945,0.26367 -0.0704,-0.0173 -0.13894,-10e-4 -0.15234,0.0371 -0.0155,0.0447 -0.14503,0.0445 -0.35938,-0.002 -0.98926,-0.0603 -0.82873,-0.26368 -1.25976,-0.30078 -0.0908,-0.081 -0.19879,-0.12887 -0.23829,-0.10547 -0.0399,0.0237 -0.16462,-0.0604 -0.27929,-0.18555 -0.11432,-0.12514 -0.30492,-0.32123 -0.42188,-0.4375 -0.20006,-0.19827 -0.22612,-0.41992 -0.0508,-0.41992 0.0426,0 0.0762,-0.0417 0.0762,-0.0937 0,-0.41739 0.78821,-1.37984 1.19727,-1.46094 0.10477,-0.0211 0.24294,-0.0631 0.30664,-0.0957 v -0.002 c 0.0803,-0.0408 0.22716,-0.0571 0.4043,-0.0566 z m -16.22266,9.59571 c 0.0617,-0.0291 0.13191,-0.0287 0.16406,0.0234 0.0247,0.0399 -0.0282,0.11031 -0.11718,0.15821 -0.12729,0.0681 -0.16211,0.0626 -0.16211,-0.0274 0,-0.0672 0.0535,-0.12521 0.11523,-0.15429 z m -8.00586,29.94726 c -0.0852,0 -0.28811,0.46765 -0.22851,0.52735 0.0345,0.0348 0.29882,-0.4072 0.29882,-0.5 0,-0.0152 -0.0317,-0.0274 -0.0703,-0.0274 z m 24.47461,50.35938 c 0.0668,0.009 0.6076,0.58957 0.625,0.67187 0.007,0.0339 0.0605,0.0924 0.11914,0.12891 0.0585,0.0361 0.10711,0.0943 0.10742,0.12891 3.2e-4,0.0345 0.0772,0.18845 0.17188,0.34179 0.0947,0.15364 0.194,0.41877 0.2207,0.58985 0.0767,0.49325 0.14023,0.71395 0.25586,0.88281 0.0591,0.0868 0.10742,0.22825 0.10742,0.31445 0,0.1961 0.32588,0.68555 0.45703,0.68555 0.0534,3.2e-4 0.0758,0.0552 0.0508,0.12109 -0.0253,0.0659 -0.004,0.11914 0.0469,0.11914 0.0516,0 0.0738,0.0336 0.0488,0.0742 -0.0526,0.0856 0.75164,0.48438 0.97656,0.48438 0.0839,0 0.21602,0.0707 0.29492,0.1582 0.1489,0.1644 0.67425,0.15776 0.89063,-0.0117 0.0504,-0.0396 0.16651,-0.0881 0.25781,-0.10547 0.20624,-0.0399 0.56341,-0.29142 0.56641,-0.40039 0.003,-0.10487 0.62641,-0.3772 0.72461,-0.3164 0.0411,0.0256 0.0762,-0.0269 0.0762,-0.11719 0,-0.0902 0.0365,-0.16407 0.082,-0.16407 0.0559,10e-6 0.0547,-0.0548 -0.004,-0.16406 -0.0663,-0.12388 -0.0582,-0.22066 0.0352,-0.4082 0.0675,-0.13528 0.10684,-0.27459 0.0859,-0.30859 -0.0209,-0.0339 0.0154,-0.0817 0.082,-0.10743 0.0824,-0.031 0.10582,-0.10727 0.0742,-0.23242 -0.0364,-0.14636 -0.002,-0.2062 0.1582,-0.2793 0.11243,-0.0513 0.20508,-0.14869 0.20508,-0.21679 0,-0.11067 0.0233,-0.11194 0.23242,-0.004 0.16281,0.0843 0.24237,0.094 0.26367,0.0312 0.0222,-0.0678 0.0728,-0.0674 0.19922,0 0.24299,0.1302 0.42659,0.11713 0.37109,-0.0273 -0.0333,-0.0868 0.008,-0.1211 0.15235,-0.1211 0.10992,0 0.22069,0.0552 0.24609,0.1211 0.0253,0.0656 0.12034,0.11914 0.21094,0.11914 0.0906,0 0.18599,0.062 0.21289,0.13867 0.0269,0.077 0.12259,0.20084 0.21289,0.27344 0.1391,0.11215 0.14789,0.14977 0.0586,0.25781 -0.091,0.10963 -0.0835,0.12695 0.0625,0.12695 0.0931,0 0.16993,0.0394 0.16993,0.0859 0,0.0467 0.0808,0.0741 0.17968,0.0605 0.13367,-0.0187 0.17365,0.009 0.15625,0.11328 -0.0128,0.0766 0.015,0.14062 0.0605,0.14062 0.0459,0 0.082,-0.0364 0.082,-0.0801 0,-0.044 0.0361,-0.0801 0.0801,-0.0801 0.044,0 0.0801,0.0532 0.0801,0.11914 0,0.066 -0.0432,0.12109 -0.0957,0.12109 -0.0706,0 -0.072,0.0237 -0.006,0.0899 0.0492,0.0494 0.0727,0.1351 0.0508,0.1914 -0.0216,0.0567 0.0337,0.1255 0.125,0.1543 0.0909,0.0288 0.16601,0.1006 0.16601,0.1582 0,0.0573 0.0515,0.14827 0.11524,0.20117 0.064,0.0532 0.26104,0.38975 0.4375,0.74805 0.63359,1.28526 1.99241,2.88477 2.65039,3.1211 0.21354,0.0767 0.38672,0.17163 0.38672,0.21093 0,0.0396 0.0872,0.0723 0.19335,0.0723 0.10612,0 0.20827,0.0445 0.22657,0.0996 0.0263,0.0775 0.0624,0.0753 0.16601,-0.01 0.0906,-0.0746 0.13282,-0.0809 0.13282,-0.0176 0,0.0685 0.0433,0.0703 0.16015,0.008 0.13397,-0.0719 0.15821,-0.0609 0.15821,0.0684 -1e-5,0.0846 0.0561,0.17547 0.12304,0.20117 0.10298,0.0393 0.0956,0.0705 -0.041,0.20703 -0.0888,0.0887 -0.16016,0.23617 -0.16016,0.32617 0,0.09 -0.0566,0.27157 -0.125,0.4043 -0.1014,0.19548 -0.10679,0.26313 -0.0254,0.36133 0.0979,0.11817 -0.21431,0.49262 -0.51367,0.61523 -0.0699,0.029 -0.0683,0.0575 0.008,0.11133 0.0776,0.0548 0.0345,0.15908 -0.17969,0.43945 -0.15491,0.20276 -0.28125,0.40216 -0.28125,0.44336 0,0.0412 -0.0532,0.11933 -0.11914,0.17383 -0.0659,0.0545 -0.11914,0.1677 -0.11914,0.25 0,0.0827 -0.0468,0.15039 -0.10156,0.15039 -0.0314,0.0526 0.21659,0.25493 -0.21875,0.36719 -0.3675,0.20525 -0.50362,0.192 -0.77735,-0.0703 -0.27118,-0.25974 -1.17078,-0.36633 -1.5332,-0.18164 -0.14288,0.0739 -0.45045,0.0927 -1.05078,0.0664 -0.95325,-0.0415 -1.08375,0.0187 -0.73242,0.3418 0.22969,0.21135 0.095,0.1845 -0.15625,-0.0312 -0.0766,-0.0656 -0.13867,-0.0943 -0.13867,-0.0645 0,0.10424 -0.48022,-0.19612 -0.87305,-0.54492 -0.40583,-0.36062 -0.89402,-0.39444 -1.01758,-0.0723 -0.0424,0.11121 -0.20928,0.0665 -0.5039,-0.13282 -0.25091,-0.16979 -0.61669,-0.25999 -0.74024,-0.18359 -0.0516,0.032 -0.23728,0.0684 -0.41406,0.082 -0.17646,0.0136 -0.47319,0.0644 -0.6582,0.11328 -0.18502,0.0495 -0.39189,0.069 -0.45899,0.043 -0.0675,-0.026 -0.12109,-0.0179 -0.12109,0.0195 0,0.0374 -0.0697,0.0872 -0.1543,0.10938 -0.10821,0.0282 -0.14113,0.007 -0.11133,-0.0703 0.0637,-0.16544 -0.18851,-0.13766 -0.36718,0.041 -0.16537,0.16545 -0.3502,0.17355 -0.50196,0.0215 -0.11657,-0.11634 -0.2796,-0.12165 -0.3164,-0.0117 -0.0152,0.0466 -0.21141,-0.0105 -0.45313,-0.13086 -0.46601,-0.23221 -0.61507,-0.20513 -1.12891,0.20703 -0.5579,0.44669 -1.0351,0.1813 -1.0371,-0.57617 -10e-6,-0.0995 -0.0521,-0.27732 -0.11329,-0.39453 -0.0611,-0.11689 -0.13561,-0.36852 -0.16601,-0.5586 -0.0314,-0.19356 -0.1569,-0.47329 -0.28711,-0.63867 -0.12735,-0.16187 -0.23242,-0.33326 -0.23242,-0.38086 0,-0.0475 -0.15061,-0.25197 -0.33594,-0.45313 -0.27623,-0.29968 -0.34233,-0.43061 -0.36133,-0.7246 -0.013,-0.19737 -0.054,-0.41764 -0.0918,-0.49024 -0.0378,-0.0722 -0.0712,-0.58897 -0.0742,-1.14844 -0.002,-0.55948 -0.0275,-1.05365 -0.0547,-1.09765 -0.0273,-0.044 -0.0148,-0.0801 0.0273,-0.0801 0.0425,0 0.0781,-0.2237 0.0781,-0.49805 0,-0.27434 0.0179,-0.55324 0.041,-0.61914 0.0387,-0.11057 0.0718,-0.48509 0.1836,-2.07226 0.0228,-0.32758 0.0746,-0.65673 0.11523,-0.73243 0.0403,-0.0754 0.0742,-0.26538 0.0742,-0.42187 0,-0.15651 0.0354,-0.2832 0.0781,-0.2832 0.11373,0 0.33977,-0.47564 0.28907,-0.60743 -0.0551,-0.14383 0.0246,-0.14383 0.18554,0 0.0694,0.0618 0.19736,0.12573 0.28516,0.14063 0.0881,0.0149 0.28349,0.10688 0.43555,0.20508 0.34642,0.22398 0.46445,0.13697 0.34375,-0.25586 h -0.002 c -0.0476,-0.1546 -0.062,-0.27839 -0.0332,-0.27539 z m -6.83203,2.39648 c -0.0314,-0.0136 0.0783,0.42445 0.11719,0.46875 0.0431,0.0491 0.18159,-0.1703 0.18359,-0.29101 6.3e-4,-0.0516 -0.062,-0.11056 -0.13867,-0.13086 -0.077,-0.0198 -0.15031,-0.0419 -0.16211,-0.0469 z m 9.85351,32.49219 a 1.4030613,1.4030613 0 0 1 1.4043,1.40234 1.4030613,1.4030613 0 0 1 -1.4043,1.4043 1.4030613,1.4030613 0 0 1 -1.40234,-1.4043 1.4030613,1.4030613 0 0 1 1.40234,-1.40234 z" />
  <circle
     style="fill:none;fill-opacity:1;stroke:none;stroke-width:0.377953;stroke-miterlimit:4;stroke-dasharray:none;stroke-opacity:1"
     id="path1798-6-8"
     cx="440.81631"
     cy="619.09644"
     r="1.8184221"
     transform="scale(-1,1)" />
  <path
     d="m -534.23367,349.90407 c -0.49397,0.22221 -0.68405,-0.39901 -0.38164,-0.79727 1.64155,-2.16186 4.75944,-9.32896 2.20878,-13.98541 -3.55084,-6.48234 -9.16565,-8.21824 -9.16565,-8.21824 -3.33579,1.70048 -8.20833,5.88305 -8.96205,8.95677 -1.20139,4.89934 0.15271,9.64358 4.14022,13.66725 0.35423,0.35744 -0.22046,0.86617 -0.7112,0.65368 -3.80928,-1.64885 -9.83705,-5.30283 -10.31911,-11.88453 -0.17775,-2.01117 0.0888,-4.82685 1.42174,-8.37997 1.71384,-4.50326 3.82076,-6.60456 5.03982,-7.50695 0.36465,-0.26996 0.93174,-0.0307 0.90183,0.37848 -0.35523,4.85901 1.80507,6.09205 3.0347,3.31322 0.49107,-1.10991 0.77747,-3.02963 0.77747,-5.36747 0,-3.89209 1.33449,-7.89864 4.27656,-11.15439 0.76508,-0.84666 1.6603,-1.6378 2.6874,-2.31246 0.37184,-0.2443 0.91084,0.001 0.87679,0.39854 -0.22591,2.6385 -0.0212,10.20027 7.81886,19.2342 7.10864,8.37997 4.35406,14.81574 3.37662,16.55885 -1.86877,3.3393 -4.47544,5.30035 -7.02114,6.4457 z"
     id="path9841"
     style="fill:#ff00ff;stroke:none;stroke-width:0.0760101" />
  <path
     d="m -541.1129,343.25654 c 0.89346,0 1.66066,-0.32049 2.3016,-0.96144 0.62151,-0.64097 0.93229,-1.40815 0.93229,-2.30158 0,-0.89345 -0.31077,-1.65095 -0.93229,-2.27248 -0.64094,-0.62154 -1.40814,-0.9323 -2.3016,-0.9323 -0.91288,0 -1.6898,0.31076 -2.33072,0.9323 -0.64096,0.62153 -0.96143,1.37903 -0.96143,2.27248 0,0.89343 0.32047,1.66061 0.96143,2.30158 0.64093,0.64095 1.41784,0.96144 2.33072,0.96144 z"
     style="font-family:'Yu Gothic UI';-inkscape-font-specification:'Yu Gothic UI';fill:#ff00ff;stroke:none;stroke-width:0.999997"
     id="path36056" />
  <circle
     style="fill:#ff00ff;fill-opacity:1;stroke:none;stroke-width:0.377953;stroke-miterlimit:4;stroke-dasharray:none;stroke-opacity:1"
     id="path1798-7"
     cx="541.6687"
     cy="399.91992"
     r="1.8184221"
     transform="scale(-1,1)" />
  <circle
     style="fill:none;stroke:#b70000;stroke-width:0.377953;stroke-opacity:1"
     id="path916"
     cx="-541.6687"
     cy="399.91992"
     r="30.236221" />
  <path
     d="m -430.97842,326.36905 c -0.19423,-0.15534 -0.42729,-0.2914 -0.69922,-0.40789 -0.23308,-0.0971 -0.5147,-0.18444 -0.84489,-0.2623 -0.34961,-0.0971 -0.74777,-0.14551 -1.1945,-0.14551 -0.66037,0 -1.24305,0.12624 -1.74804,0.37875 -0.52442,0.23319 -0.96143,0.55355 -1.31104,0.96143 -0.36903,0.40785 -0.65066,0.88373 -0.84488,1.42757 -0.19423,0.52441 -0.29133,1.06825 -0.29133,1.63151 0,0.67978 0.13595,1.30133 0.40787,1.86459 0.25251,0.54384 0.5924,1.00997 1.0197,1.39843 0.4273,0.38846 0.91287,0.68949 1.4567,0.90315 0.54384,0.19427 1.1071,0.2914 1.68978,0.2914 0.87402,0 1.75776,-0.21354 2.65121,-0.64093 0.89344,-0.42727 1.7092,-1.05853 2.44726,-1.89373 0.71864,-0.83516 1.31104,-1.86459 1.77718,-3.08822 0.46615,-1.24304 0.69922,-2.6609 0.69922,-4.25355 0,-2.1171 -0.35932,-3.96227 -1.07796,-5.5355 -0.73806,-1.57323 -1.71891,-2.86484 -2.94255,-3.87485 -1.24305,-1.02939 -2.67063,-1.79659 -4.28271,-2.30157 -1.61209,-0.50499 -3.29215,-0.75748 -5.0402,-0.75748 -2.01997,0 -3.86512,0.31075 -5.53548,0.93229 -1.68978,0.6021 -3.13677,1.51497 -4.34098,2.73859 -1.22364,1.2042 -2.16564,2.71919 -2.82601,4.54492 -0.6798,1.82574 -1.01969,3.96223 -1.01969,6.40952 0,2.389 0.2719,4.55463 0.81575,6.49689 0.52442,1.94226 1.25277,3.69033 2.18506,5.24413 0.93229,1.55384 2.02967,2.92317 3.29215,4.10793 1.24306,1.18477 2.57351,2.2142 3.99137,3.08822 1.41786,0.87401 2.88428,1.61208 4.39925,2.2142 1.51498,0.58269 3.01053,1.04882 4.48666,1.39842 1.47613,0.34961 2.89399,0.60212 4.25358,0.75749 1.34017,0.15534 2.55409,0.2332 3.64176,0.2332 v -4.02051 c -0.79633,0 -1.71891,-0.0389 -2.76774,-0.11641 -1.06825,-0.0971 -2.19477,-0.27175 -3.37956,-0.52441 -1.18478,-0.25247 -2.39871,-0.5924 -3.64176,-1.01968 -1.24306,-0.42731 -2.45698,-0.98086 -3.64176,-1.66064 -1.18479,-0.67983 -2.3016,-1.49556 -3.35043,-2.44729 -1.04882,-0.95172 -1.9714,-2.07821 -2.76774,-3.37954 -0.79633,-1.30133 -1.41786,-2.77746 -1.86458,-4.42839 -0.46615,-1.67037 -0.69922,-3.55435 -0.69922,-5.65202 0,-2.0394 0.2428,-3.75829 0.72836,-5.15671 0.46614,-1.39847 1.10709,-2.52499 1.92285,-3.37958 0.79633,-0.85459 1.72862,-1.46642 2.79687,-1.83545 1.04883,-0.36889 2.15592,-0.55355 3.32129,-0.55355 1.04883,0 2.07823,0.14551 3.08822,0.43702 1.00998,0.2914 1.91313,0.76721 2.70947,1.42757 0.77691,0.66039 1.40815,1.53441 1.89372,2.62208 0.46614,1.08768 0.69921,2.41814 0.69921,3.99137 0,0.27213 -0.01,0.52441 -0.0291,0.7575 -0.0193,0.21354 -0.0485,0.39817 -0.0874,0.55355 -0.0389,0.19426 -0.0874,0.36926 -0.14567,0.5244 z m -27.61912,-0.72835 c 0.89345,0 1.66065,-0.32051 2.30159,-0.96144 0.6215,-0.64097 0.93228,-1.40814 0.93228,-2.30158 0,-0.89344 -0.31075,-1.65094 -0.93228,-2.27248 -0.64094,-0.62154 -1.40814,-0.9323 -2.30159,-0.9323 -0.91286,0 -1.68978,0.31068 -2.33072,0.9323 -0.64097,0.62154 -0.96143,1.37904 -0.96143,2.27248 0,0.89344 0.3205,1.66061 0.96143,2.30158 0.64094,0.64097 1.41786,0.96144 2.33072,0.96144 z m 0,12.93554 c 0.89345,0 1.66065,-0.3205 2.30159,-0.96143 0.6215,-0.64097 0.93228,-1.40814 0.93228,-2.30158 0,-0.89345 -0.31075,-1.66065 -0.93228,-2.30162 -0.64094,-0.66036 -1.40814,-0.99054 -2.30159,-0.99054 -0.91286,0 -1.68978,0.33033 -2.33072,0.99054 -0.64097,0.64097 -0.96143,1.40817 -0.96143,2.30162 0,0.89344 0.3205,1.66061 0.96143,2.30158 0.64094,0.64097 1.41786,0.96143 2.33072,0.96143 z"
     style="font-size:15.7868px;line-height:1.25;font-family:'Yu Gothic UI';-inkscape-font-specification:'Yu Gothic UI';fill:#ff00ff;stroke:none;stroke-width:1.49167"
     id="path36010" />
  <circle
     style="fill:#ff00ff;fill-opacity:1;stroke:none;stroke-width:0.377953;stroke-miterlimit:4;stroke-dasharray:none;stroke-opacity:1"
     id="path1798-4"
     cx="440.81631"
     cy="399.91992"
     r="1.8184221"
     transform="scale(-1,1)" />
  <circle
     style="fill:none;stroke:#b70000;stroke-width:0.377953;stroke-opacity:1"
     id="path916-3"
     cx="-440.81631"
     cy="399.91992"
     r="30.236221" />
  <path
     d="m -356.86074,349.73458 v 0.58269 h 34.43651 v -0.58269 l -16.86864,-31.2909 h -0.43702 z m 6.55517,-3.26302 10.69222,-19.66639 h 0.17481 l 10.63395,19.66639 z m 10.80094,-32.92067 c 0.89346,0 1.66066,-0.3205 2.3016,-0.96143 0.62152,-0.64094 0.93229,-1.40814 0.93229,-2.30158 0,-0.89345 -0.31075,-1.65095 -0.93229,-2.27249 -0.64094,-0.62152 -1.40814,-0.93228 -2.3016,-0.93228 -0.91288,0 -1.68979,0.31076 -2.33072,0.93228 -0.64096,0.62154 -0.96143,1.37904 -0.96143,2.27249 0,0.89344 0.32047,1.66064 0.96143,2.30158 0.64093,0.64097 1.41784,0.96143 2.33072,0.96143 z"
     style="font-size:15.7868px;line-height:1.25;font-family:Corbel;-inkscape-font-specification:Corbel;fill:#ff00ff;stroke:none;stroke-width:1.49167"
     id="path37616" />
  <circle
     style="fill:#ff00ff;fill-opacity:1;stroke:none;stroke-width:0.377953;stroke-miterlimit:4;stroke-dasharray:none;stroke-opacity:1"
     id="path1798"
     cx="339.9639"
     cy="399.91992"
     r="1.8184221"
     transform="scale(-1,1)" />
  <circle
     style="fill:none;stroke:#b70000;stroke-width:0.377953;stroke-opacity:1"
     id="path916-30"
     cx="-339.9639"
     cy="399.91992"
     r="30.236221" />
</svg>
