<?xml version="1.0" encoding="UTF-8" standalone="no"?>
<svg
   viewBox="0 0 793.7007874015749 1122.5196850393702"
   width="793.7007874015749"
   height="1122.5196850393702"
   version="1.1"
   id="svg266"
   sodipodi:docname="sticker_120x95_hammond.svg"
   inkscape:version="1.1.1 (3bf5ae0d25, 2021-09-20)"
   xmlns:inkscape="http://www.inkscape.org/namespaces/inkscape"
   xmlns:sodipodi="http://sodipodi.sourceforge.net/DTD/sodipodi-0.dtd"
   xmlns="http://www.w3.org/2000/svg"
   xmlns:svg="http://www.w3.org/2000/svg">
  <sodipodi:namedview
     id="namedview67"
     pagecolor="#ffffff"
     bordercolor="#666666"
     borderopacity="1.0"
     inkscape:pageshadow="2"
     inkscape:pageopacity="0.0"
     inkscape:pagecheckerboard="0"
     showgrid="false"
     inkscape:zoom="0.94236332"
     inkscape:cx="228.68038"
     inkscape:cy="539.6008"
     inkscape:window-width="2560"
     inkscape:window-height="1377"
     inkscape:window-x="-8"
     inkscape:window-y="-8"
     inkscape:window-maximized="1"
     inkscape:current-layer="svg266" />
  <desc
     id="desc2">top_panel.dxf - scale = 1.0, origin = (0.0, 0.0), method = manual</desc>
  <defs
     id="defs16">
    <marker
       id="DistanceX"
       orient="auto"
       refX="0.0"
       refY="0.0"
       style="overflow:visible">
      <path
         d="M 3,-3 L -3,3 M 0,-5 L  0,5"
         style="stroke:#000000; stroke-width:0.5"
         id="path4" />
    </marker>
    <pattern
       id="Hatch"
       patternUnits="userSpaceOnUse"
       width="8"
       height="8"
       x="0"
       y="0">
      <path
         d="M8 4 l-4,4"
         stroke="#000000"
         stroke-width="0.25"
         linecap="square"
         id="path7" />
      <path
         d="M6 2 l-4,4"
         stroke="#000000"
         stroke-width="0.25"
         linecap="square"
         id="path9" />
      <path
         d="M4 0 l-4,4"
         stroke="#000000"
         stroke-width="0.25"
         linecap="square"
         id="path11" />
    </pattern>
    <symbol
       id="*MODEL_SPACE" />
    <symbol
       id="*PAPER_SPACE" />
    <marker
       id="DistanceX-0"
       orient="auto"
       refX="0.0"
       refY="0.0"
       style="overflow:visible">
      <path
         d="M 3,-3 L -3,3 M 0,-5 L  0,5"
         style="stroke:#000000; stroke-width:0.5"
         id="path2373" />
    </marker>
    <pattern
       id="Hatch-4"
       patternUnits="userSpaceOnUse"
       width="8"
       height="8"
       x="0"
       y="0">
      <path
         d="M8 4 l-4,4"
         stroke="#000000"
         stroke-width="0.25"
         linecap="square"
         id="path2376" />
      <path
         d="M6 2 l-4,4"
         stroke="#000000"
         stroke-width="0.25"
         linecap="square"
         id="path2378" />
      <path
         d="M4 0 l-4,4"
         stroke="#000000"
         stroke-width="0.25"
         linecap="square"
         id="path2380" />
    </pattern>
    <symbol
       id="*MODEL_SPACE-2" />
    <symbol
       id="*PAPER_SPACE-4" />
    <marker
       id="DistanceX-8"
       orient="auto"
       refX="0.0"
       refY="0.0"
       style="overflow:visible">
      <path
         d="M 3,-3 L -3,3 M 0,-5 L  0,5"
         style="stroke:#000000; stroke-width:0.5"
         id="path826" />
    </marker>
    <pattern
       id="Hatch-46"
       patternUnits="userSpaceOnUse"
       width="8"
       height="8"
       x="0"
       y="0">
      <path
         d="M8 4 l-4,4"
         stroke="#000000"
         stroke-width="0.25"
         linecap="square"
         id="path829" />
      <path
         d="M6 2 l-4,4"
         stroke="#000000"
         stroke-width="0.25"
         linecap="square"
         id="path831" />
      <path
         d="M4 0 l-4,4"
         stroke="#000000"
         stroke-width="0.25"
         linecap="square"
         id="path833" />
    </pattern>
    <symbol
       id="*MODEL_SPACE-5" />
    <symbol
       id="*PAPER_SPACE-9" />
  </defs>
  <g
     id="g5373"
     transform="matrix(-1,0,0,1,-18.020813,-21.223238)">
    <path
       id="path4213"
       style="fill:#ff00ff;stroke-width:0.281742"
       d="m 313.54102,461.86948 a 9.3180195,9.3180195 0 0 0 -9.31802,9.31802 9.3180195,9.3180195 0 0 0 9.31802,9.31802 9.3180195,9.3180195 0 0 0 9.31802,-9.31802 9.3180195,9.3180195 0 0 0 -9.31802,-9.31802 z m 0,6.59395 a 2.7239987,2.7239987 0 0 1 2.72406,2.72407 2.7239987,2.7239987 0 0 1 -2.72406,2.72407 2.7239987,2.7239987 0 0 1 -2.72407,-2.72407 2.7239987,2.7239987 0 0 1 2.72407,-2.72407 z" />
    <path
       id="path4213-8"
       style="fill:#ff00ff;stroke-width:0.281742"
       d="m 414.39316,461.86936 a 9.3180195,9.3180195 0 0 0 -9.31802,9.31802 9.3180195,9.3180195 0 0 0 9.31802,9.31802 9.3180195,9.3180195 0 0 0 9.31802,-9.31802 9.3180195,9.3180195 0 0 0 -9.31802,-9.31802 z m 0,6.59395 a 2.7239987,2.7239987 0 0 1 2.72406,2.72407 2.7239987,2.7239987 0 0 1 -2.72406,2.72407 2.7239987,2.7239987 0 0 1 -2.72407,-2.72407 2.7239987,2.7239987 0 0 1 2.72407,-2.72407 z" />
    <path
       id="path4213-0"
       style="fill:#ff00ff;stroke-width:0.281742"
       d="m 515.24561,461.86936 a 9.3180195,9.3180195 0 0 0 -9.31802,9.31802 9.3180195,9.3180195 0 0 0 9.31802,9.31802 9.3180195,9.3180195 0 0 0 9.31802,-9.31802 9.3180195,9.3180195 0 0 0 -9.31802,-9.31802 z m 0,6.59395 a 2.7239987,2.7239987 0 0 1 2.72406,2.72407 2.7239987,2.7239987 0 0 1 -2.72406,2.72407 2.7239987,2.7239987 0 0 1 -2.72407,-2.72407 2.7239987,2.7239987 0 0 1 2.72407,-2.72407 z" />
    <rect
       style="fill:none;stroke:#000000;stroke-width:0.403518;stroke-miterlimit:4;stroke-dasharray:none;stroke-opacity:1"
       id="rect924-0"
       width="359.02954"
       height="453.51776"
       x="-593.90796"
       y="314.91675"
       transform="scale(-1,1)" />
    <path
       id="path0"
       style="fill:#ff00ff;stroke-width:0.316801"
       d="m 413.33984,558.63477 c -0.8772,0.30881 -5.93637,0.0451 -8.33789,1.28125 -2.78538,1.05279 -1.74088,0.9167 -4.23047,1.89257 0.13673,0.50406 -2.17428,1.35557 -2.63281,2.36133 -0.74879,1.52489 -2.58893,2.70013 -2.27734,4.55469 -1.77013,1.66272 -1.2508,3.02897 -1.78125,3.76758 -0.11253,1.17293 0.87705,0.84115 0.46289,1.68554 0.52643,0.0883 0.0867,1.6863 1.04101,1.88672 -0.0581,4.69443 -0.71848,9.99402 -0.87695,14.86914 -0.95764,2.33626 -1.06578,5.52455 -2.19531,5.98633 -0.53826,1.40251 -2.04398,2.58722 -3.31055,4.16992 -1.77485,1.31842 -1.93569,2.99837 -2.58594,4.51563 -1.79906,0.91471 -2.95781,6.68535 -1.625,12.8418 1.72121,5.70848 2.21292,11.85247 5.60743,16.94726 1.3384,2.864 5.1106,2.47104 5.3457,7.38086 0.61947,3.38635 2.18835,7.76701 2.99609,7.45313 0.4878,2.50628 2.06555,2.14986 3.09961,3.5996 0.7654,1.42856 2.11218,5.20381 2.45703,2.28126 0.60333,-1.93318 1.24875,1.41008 1.96485,0.0156 2.2845,-1.30153 0.24903,3.96332 0.40429,5.29883 -0.7091,2.90438 -1.23015,5.30154 -4.22265,5.45703 -2.03966,1.2909 -6.01699,2.59866 -6.0918,6.45508 -3.72512,4.17128 -5.50628,10.73463 -5.86719,16.30664 -0.20846,8.85791 5.29998,17.41113 13.32032,21.30469 10.2245,5.36949 23.99651,2.16937 30.88086,-9.33399 5.14891,-8.16128 3.73783,-17.81928 -0.85352,-26.03711 1.02783,-5.15482 -4.86061,-5.98639 -5.20313,-10.38476 -0.0368,-2.46637 -1.20777,-5.44896 0.4668,-7.54688 1.35773,-1.09657 1.06123,0.8622 2.67774,0.43945 3.32101,1.44933 5.73945,6.09434 9.26172,8.06446 3.15309,1.84792 7.61157,3.09738 10.93164,1.0664 2.56801,-3.89161 9.0295,0.93237 13.13867,-1.34179 2.3866,-4.13473 -6.61771,-8.08337 -8.98633,-11.8086 -3.15972,-2.9248 -6.86828,-6.55238 -7.54883,-10.5625 -2.80874,-1.50347 1.36281,-4.11069 -0.99609,-7.43164 -0.81052,-3.8639 -1.19473,-9.95273 -0.92188,-9.40039 -2.14975,-5.06822 -3.19614,-10.67734 -6.63672,-15.13476 -3.48346,-5.24165 -5.48537,-11.91307 -11.26757,-15.24414 -3.89139,-4.60575 -8.5676,-8.86131 -10.71289,-14.63086 -0.81829,-3.46643 0.66053,-6.48681 2.25585,-9.50586 0.85214,-0.64866 0.48262,-2.82999 1.93555,-3.375 0.005,-1.05491 0.83641,-1.86858 2.34961,-2.54102 1.50682,-0.65009 4.48202,-1.98987 6.5625,-2.51953 3.57477,-0.91008 3.11661,-0.81333 -0.85742,-1.81055 -3.97403,-0.99722 -6.79595,-0.20382 -9.40625,-1.06836 -1.44637,-0.28973 -1.50007,-0.65677 -2.82227,-1.01757 -1.58411,-0.67423 -3.20874,-1.07719 -4.91211,-1.1875 z m -2.21484,5.53515 c 3.73145,0.20481 2.7052,4.02169 -0.57422,3 -2.43128,-0.38686 -1.32937,-2.79665 0.57422,-3 z m 0.24609,89.90235 c 1.45718,2.05892 2.70448,6.8305 5.99805,3.75 -0.30301,-1.84224 2.2118,-2.72438 2.87891,-1.0918 1.39409,0.56552 1.84433,3.55153 3.71093,4.86523 2.68938,0.44739 2.19024,2.11771 0.83204,3.94727 -1.70471,1.87659 -4.97289,0.86317 -6.8379,0.38476 -2.34208,-0.24094 -4.43637,-0.0483 -6.65624,0.27149 -1.91895,-3.36471 -2.47621,-7.1872 -1.50782,-11.05078 -0.30149,-2.48986 2.03406,0.85488 1.58203,-1.07617 z m 3.04297,33.04112 c 1.50143,9e-5 2.71855,1.21721 2.71864,2.71864 -9e-5,1.50143 -1.21721,2.71855 -2.71864,2.71864 -1.50142,-10e-5 -2.71854,-1.21722 -2.71863,-2.71864 9e-5,-1.50142 1.21721,-2.71854 2.71863,-2.71864 z"
       sodipodi:nodetypes="ccccccccccccccccccccccccccccccccccccccccccsscccccccccccccccccccc" />
    <circle
       style="fill:none;fill-opacity:1;stroke:none;stroke-width:0.377953;stroke-miterlimit:4;stroke-dasharray:none;stroke-opacity:1"
       id="path1798-6-8"
       cx="-414.39316"
       cy="690.36389"
       r="1.8184221"
       transform="scale(-1,1)" />
    <path
       d="m 320.97581,421.17153 c -0.49397,0.22221 -0.68405,-0.39901 -0.38164,-0.79727 1.64155,-2.16186 4.75944,-9.32896 2.20878,-13.98541 -3.55084,-6.48234 -9.16565,-8.21824 -9.16565,-8.21824 -3.33579,1.70048 -8.20833,5.88305 -8.96205,8.95677 -1.20139,4.89934 0.15271,9.64358 4.14022,13.66725 0.35423,0.35744 -0.22046,0.86617 -0.7112,0.65368 -3.80928,-1.64885 -9.83705,-5.30283 -10.31911,-11.88453 -0.17775,-2.01117 0.0888,-4.82685 1.42174,-8.37997 1.71384,-4.50326 3.82076,-6.60456 5.03982,-7.50695 0.36465,-0.26996 0.93174,-0.0307 0.90183,0.37848 -0.35523,4.85901 1.80507,6.09205 3.0347,3.31322 0.49107,-1.10991 0.77747,-3.02963 0.77747,-5.36747 0,-3.89209 1.33449,-7.89864 4.27656,-11.15439 0.76508,-0.84666 1.6603,-1.6378 2.6874,-2.31246 0.37184,-0.2443 0.91084,10e-4 0.87679,0.39854 -0.22591,2.6385 -0.0212,10.20027 7.81886,19.2342 7.10864,8.37997 4.35406,14.81574 3.37662,16.55885 -1.86877,3.3393 -4.47544,5.30035 -7.02114,6.4457 z"
       id="path9841"
       style="fill:#ff00ff;stroke:none;stroke-width:0.0760101" />
    <path
       d="m 314.09658,414.524 c 0.89346,0 1.66066,-0.32049 2.3016,-0.96144 0.62151,-0.64097 0.93229,-1.40815 0.93229,-2.30158 0,-0.89345 -0.31077,-1.65095 -0.93229,-2.27248 -0.64094,-0.62154 -1.40814,-0.9323 -2.3016,-0.9323 -0.91288,0 -1.6898,0.31076 -2.33072,0.9323 -0.64096,0.62153 -0.96143,1.37903 -0.96143,2.27248 0,0.89343 0.32047,1.66061 0.96143,2.30158 0.64093,0.64095 1.41784,0.96144 2.33072,0.96144 z"
       style="font-family:'Yu Gothic UI';-inkscape-font-specification:'Yu Gothic UI';fill:#ff00ff;stroke:none;stroke-width:0.999997"
       id="path36056" />
    <path
       d="m 424.23106,397.63651 c -0.19423,-0.15534 -0.42729,-0.2914 -0.69922,-0.40789 -0.23308,-0.0971 -0.5147,-0.18444 -0.84489,-0.2623 -0.34961,-0.0971 -0.74777,-0.14551 -1.1945,-0.14551 -0.66037,0 -1.24305,0.12624 -1.74804,0.37875 -0.52442,0.23319 -0.96143,0.55355 -1.31104,0.96143 -0.36903,0.40785 -0.65066,0.88373 -0.84488,1.42757 -0.19423,0.52441 -0.29133,1.06825 -0.29133,1.63151 0,0.67978 0.13595,1.30133 0.40787,1.86459 0.25251,0.54384 0.5924,1.00997 1.0197,1.39843 0.4273,0.38846 0.91287,0.68949 1.4567,0.90315 0.54384,0.19427 1.1071,0.2914 1.68978,0.2914 0.87402,0 1.75776,-0.21354 2.65121,-0.64093 0.89344,-0.42727 1.7092,-1.05853 2.44726,-1.89373 0.71864,-0.83516 1.31104,-1.86459 1.77718,-3.08822 0.46615,-1.24304 0.69922,-2.6609 0.69922,-4.25355 0,-2.1171 -0.35932,-3.96227 -1.07796,-5.5355 -0.73806,-1.57323 -1.71891,-2.86484 -2.94255,-3.87485 -1.24305,-1.02939 -2.67063,-1.79659 -4.28271,-2.30157 -1.61209,-0.50499 -3.29215,-0.75748 -5.0402,-0.75748 -2.01997,0 -3.86512,0.31075 -5.53548,0.93229 -1.68978,0.6021 -3.13677,1.51497 -4.34098,2.73859 -1.22364,1.2042 -2.16564,2.71919 -2.82601,4.54492 -0.6798,1.82574 -1.01969,3.96223 -1.01969,6.40952 0,2.389 0.2719,4.55463 0.81575,6.49689 0.52442,1.94226 1.25277,3.69033 2.18506,5.24413 0.93229,1.55384 2.02967,2.92317 3.29215,4.10793 1.24306,1.18477 2.57351,2.2142 3.99137,3.08822 1.41786,0.87401 2.88428,1.61208 4.39925,2.2142 1.51498,0.58269 3.01053,1.04882 4.48666,1.39842 1.47613,0.34961 2.89399,0.60212 4.25358,0.75749 1.34017,0.15534 2.55409,0.2332 3.64176,0.2332 v -4.02051 c -0.79633,0 -1.71891,-0.0389 -2.76774,-0.11641 -1.06825,-0.0971 -2.19477,-0.27175 -3.37956,-0.52441 -1.18478,-0.25247 -2.39871,-0.5924 -3.64176,-1.01968 -1.24306,-0.42731 -2.45698,-0.98086 -3.64176,-1.66064 -1.18479,-0.67983 -2.3016,-1.49556 -3.35043,-2.44729 -1.04882,-0.95172 -1.9714,-2.07821 -2.76774,-3.37954 -0.79633,-1.30133 -1.41786,-2.77746 -1.86458,-4.42839 -0.46615,-1.67037 -0.69922,-3.55435 -0.69922,-5.65202 0,-2.0394 0.2428,-3.75829 0.72836,-5.15671 0.46614,-1.39847 1.10709,-2.52499 1.92285,-3.37958 0.79633,-0.85459 1.72862,-1.46642 2.79687,-1.83545 1.04883,-0.36889 2.15592,-0.55355 3.32129,-0.55355 1.04883,0 2.07823,0.14551 3.08822,0.43702 1.00998,0.2914 1.91313,0.76721 2.70947,1.42757 0.77691,0.66039 1.40815,1.53441 1.89372,2.62208 0.46614,1.08768 0.69921,2.41814 0.69921,3.99137 0,0.27213 -0.01,0.52441 -0.0291,0.7575 -0.0193,0.21354 -0.0485,0.39817 -0.0874,0.55355 -0.0389,0.19426 -0.0874,0.36926 -0.14567,0.5244 z m -27.61912,-0.72835 c 0.89345,0 1.66065,-0.32051 2.30159,-0.96144 0.6215,-0.64097 0.93228,-1.40814 0.93228,-2.30158 0,-0.89344 -0.31075,-1.65094 -0.93228,-2.27248 -0.64094,-0.62154 -1.40814,-0.9323 -2.30159,-0.9323 -0.91286,0 -1.68978,0.31068 -2.33072,0.9323 -0.64097,0.62154 -0.96143,1.37904 -0.96143,2.27248 0,0.89344 0.3205,1.66061 0.96143,2.30158 0.64094,0.64097 1.41786,0.96144 2.33072,0.96144 z m 0,12.93554 c 0.89345,0 1.66065,-0.3205 2.30159,-0.96143 0.6215,-0.64097 0.93228,-1.40814 0.93228,-2.30158 0,-0.89345 -0.31075,-1.66065 -0.93228,-2.30162 -0.64094,-0.66036 -1.40814,-0.99054 -2.30159,-0.99054 -0.91286,0 -1.68978,0.33033 -2.33072,0.99054 -0.64097,0.64097 -0.96143,1.40817 -0.96143,2.30162 0,0.89344 0.3205,1.66061 0.96143,2.30158 0.64094,0.64097 1.41786,0.96143 2.33072,0.96143 z"
       style="font-size:15.7868px;line-height:1.25;font-family:'Yu Gothic UI';-inkscape-font-specification:'Yu Gothic UI';fill:#ff00ff;stroke:none;stroke-width:1.49167"
       id="path36010" />
    <path
       d="m 498.34874,421.00204 v 0.58269 h 34.43651 v -0.58269 l -16.86864,-31.2909 h -0.43702 z m 6.55517,-3.26302 10.69222,-19.66639 h 0.17481 l 10.63395,19.66639 z m 10.80094,-32.92067 c 0.89346,0 1.66066,-0.3205 2.3016,-0.96143 0.62152,-0.64094 0.93229,-1.40814 0.93229,-2.30158 0,-0.89345 -0.31075,-1.65095 -0.93229,-2.27249 -0.64094,-0.62152 -1.40814,-0.93228 -2.3016,-0.93228 -0.91288,0 -1.68979,0.31076 -2.33072,0.93228 -0.64096,0.62154 -0.96143,1.37904 -0.96143,2.27249 0,0.89344 0.32047,1.66064 0.96143,2.30158 0.64093,0.64097 1.41784,0.96143 2.33072,0.96143 z"
       style="font-size:15.7868px;line-height:1.25;font-family:Corbel;-inkscape-font-specification:Corbel;fill:#ff00ff;stroke:none;stroke-width:1.49167"
       id="path37616" />
  </g>
  <g
     id="g5252"
     transform="translate(-887.58846,-71.654798)" />
  <path
     id="path4745"
     style="fill:#000000;stroke-width:1.663"
     d="m 403.59023,693.00528 a -10.213683,10.213683 0 0 1 10.21484,10.21289 -10.213683,10.213683 0 0 1 -10.21484,10.21485 -10.213683,10.213683 0 0 1 -10.21289,-10.21485 -10.213683,10.213683 0 0 1 10.21289,-10.21289 z m 0,7.37891 a -2.8346457,2.8346457 0 0 0 -2.83398,2.83398 -2.8346457,2.8346457 0 0 0 2.83398,2.83594 -2.8346457,2.8346457 0 0 0 2.83594,-2.83594 -2.8346457,2.8346457 0 0 0 -2.83594,-2.83398 z M 583.09666,328.48134 V 782.00087 H 224.06736 V 328.48134 Z m -280.82617,63.43555 c -0.89346,0 -1.6618,0.31012 -2.30274,0.93164 -0.62154,0.62154 -0.93164,1.37803 -0.93164,2.27148 0,0.89344 0.31012,1.6618 0.93164,2.30274 0.64094,0.64093 1.40928,0.96093 2.30274,0.96093 0.91288,0 1.68915,-0.31996 2.33008,-0.96093 0.64096,-0.64094 0.96093,-1.4093 0.96093,-2.30274 0,-0.89345 -0.31997,-1.64994 -0.96093,-2.27148 -0.64093,-0.62152 -1.4172,-0.93164 -2.33008,-0.93164 z m 199.48047,0.0859 c -0.30687,-0.0154 -0.60367,0.19794 -0.57813,0.4961 0.22591,2.6385 0.0217,10.20044 -7.81836,19.23437 -7.10864,8.37997 -4.35439,14.81549 -3.37695,16.5586 1.86877,3.3393 4.47578,5.29996 7.02148,6.44531 0.49397,0.22221 0.68523,-0.3986 0.38282,-0.79688 -1.64155,-2.16185 -4.75965,-9.32987 -2.20899,-13.98632 3.55084,-6.48234 9.16406,-8.21875 9.16406,-8.21875 3.33579,1.70048 8.20917,5.88331 8.96289,8.95703 1.20139,4.89934 -0.15311,9.6443 -4.14062,13.66797 -0.35423,0.35744 0.2202,0.86678 0.71094,0.65429 3.80928,-1.64885 9.83825,-5.30306 10.32031,-11.88476 0.17775,-2.01117 -0.0889,-4.82774 -1.42188,-8.38086 -1.71384,-4.50326 -3.82195,-6.60347 -5.04101,-7.50586 -0.36465,-0.26996 -0.9303,-0.0322 -0.90039,0.37695 0.35523,4.85901 -1.80553,6.09329 -3.03516,3.31446 -0.49107,-1.10991 -0.77734,-3.02935 -0.77734,-5.36719 0,-3.89209 -1.33528,-7.89855 -4.27735,-11.1543 -0.76508,-0.84666 -1.6604,-1.63784 -2.6875,-2.3125 -0.093,-0.0611 -0.19653,-0.0924 -0.29882,-0.0977 z m -99.87891,4.89454 c -1.74805,0 -3.42697,0.25282 -5.03906,0.75781 -1.61208,0.50498 -3.04016,1.27139 -4.28321,2.30078 -1.22364,1.01001 -2.20529,2.30177 -2.94336,3.875 -0.71863,1.57323 -1.07812,3.41806 -1.07812,5.53516 0,1.59265 0.23307,3.01086 0.69922,4.2539 0.46614,1.22363 1.0587,2.25273 1.77734,3.08789 0.73806,0.8352 1.55383,1.46726 2.44727,1.89453 0.89345,0.42739 1.77832,0.64063 2.65234,0.64063 0.58268,0 1.14564,-0.0967 1.68945,-0.29102 0.54384,-0.21366 1.02974,-0.51583 1.45704,-0.90429 0.4273,-0.38846 0.76702,-0.8546 1.01953,-1.39844 0.27192,-0.56326 0.4082,-1.1835 0.4082,-1.86328 0,-0.56326 -0.0987,-1.1084 -0.29297,-1.63281 -0.19422,-0.54384 -0.47472,-1.01989 -0.84375,-1.42774 -0.34961,-0.40788 -0.7861,-0.72775 -1.31055,-0.96094 -0.50499,-0.25251 -1.08767,-0.3789 -1.74804,-0.3789 -0.44673,0 -0.8457,0.0494 -1.19531,0.14648 -0.33019,0.0779 -0.61263,0.16462 -0.84571,0.26172 -0.27193,0.11649 -0.50499,0.25286 -0.69922,0.4082 -0.0583,-0.15514 -0.10563,-0.32917 -0.14453,-0.52343 -0.0389,-0.15538 -0.0686,-0.34115 -0.0879,-0.55469 -0.0191,-0.23309 -0.0293,-0.48568 -0.0293,-0.75781 0,-1.57323 0.23308,-2.90256 0.69922,-3.99024 0.48557,-1.08767 1.11757,-1.9626 1.89454,-2.62305 0.79633,-0.66034 1.699,-1.13633 2.70898,-1.42773 1.00999,-0.29151 2.03906,-0.43555 3.08789,-0.43555 1.16537,0 2.27344,0.18385 3.32227,0.55274 1.06825,0.36903 2.00054,0.98135 2.79687,1.83594 0.81576,0.85459 1.45574,1.98043 1.92188,3.3789 0.48556,1.39842 0.72851,3.11685 0.72851,5.15625 0,2.09767 -0.23307,3.98198 -0.69922,5.65235 -0.44672,1.65093 -1.0689,3.12835 -1.86523,4.42968 -0.79634,1.30133 -1.71876,2.42719 -2.76758,3.37891 -1.04883,0.95173 -2.16482,1.76738 -3.34961,2.44727 -1.18478,0.67977 -2.39952,1.23284 -3.64258,1.66015 -1.24305,0.42728 -2.45584,0.76706 -3.64062,1.01953 -1.18479,0.25266 -2.31261,0.42829 -3.38086,0.52539 -1.04883,0.0775 -1.97125,0.11524 -2.76758,0.11524 v 4.02148 c 1.08767,0 2.30241,-0.079 3.64258,-0.23437 1.35959,-0.15537 2.77777,-0.40625 4.2539,-0.75586 1.47613,-0.3496 2.97135,-0.81575 4.48633,-1.39844 1.51497,-0.60212 2.98058,-1.34083 4.39844,-2.21484 1.41786,-0.87402 2.74913,-1.90312 3.99219,-3.08789 1.26248,-1.18476 2.36068,-2.55359 3.29297,-4.10743 0.93229,-1.5538 1.65917,-3.30188 2.18359,-5.24414 0.54385,-1.94226 0.81641,-4.10904 0.81641,-6.49804 0,-2.44729 -0.33975,-4.58442 -1.01953,-6.41016 -0.66038,-1.82573 -1.60254,-3.34072 -2.82618,-4.54492 -1.20421,-1.22362 -2.65201,-2.13618 -4.34179,-2.73828 -1.67036,-0.62154 -3.51519,-0.93164 -5.53516,-0.93164 z m -99.37695,6.3789 h -0.4375 l -16.86719,31.29102 v 0.58203 h 34.43555 v -0.58203 z m 118.86718,0.73047 c -0.89345,0 -1.65984,0.3101 -2.30078,0.93164 -0.62153,0.62154 -0.93164,1.37805 -0.93164,2.27149 0,0.89344 0.31014,1.66176 0.93164,2.30273 0.64094,0.64093 1.40733,0.96094 2.30078,0.96094 0.91286,0 1.6911,-0.31997 2.33204,-0.96094 0.64093,-0.64097 0.96093,-1.40929 0.96093,-2.30273 0,-0.89344 -0.31996,-1.64995 -0.96093,-2.27149 -0.64094,-0.62162 -1.41918,-0.93164 -2.33204,-0.93164 z m -118.98242,7.63086 10.69141,19.66602 h -21.50195 l 10.63476,-19.66602 z m 118.98242,5.2168 c -0.89345,0 -1.65984,0.32987 -2.30078,0.99023 -0.62153,0.64097 -0.93164,1.40733 -0.93164,2.30078 0,0.89344 0.31014,1.66177 0.93164,2.30274 0.64094,0.64093 1.40733,0.9609 2.30078,0.96094 0.91286,-10e-6 1.6911,-0.31997 2.33204,-0.96094 0.64093,-0.64097 0.96093,-1.4093 0.96093,-2.30274 0,-0.89345 -0.31996,-1.65981 -0.96093,-2.30078 -0.64094,-0.66021 -1.41918,-0.99023 -2.33204,-0.99023 z m 82.51563,4.76758 c -0.89346,0 -1.65984,0.3101 -2.30078,0.93164 -0.62152,0.62153 -0.93164,1.37998 -0.93164,2.27343 0,0.89343 0.31013,1.65982 0.93164,2.30078 0.64094,0.64095 1.40732,0.96094 2.30078,0.96094 0.91288,0 1.6911,-0.31999 2.33203,-0.96094 0.64096,-0.64096 0.96094,-1.40735 0.96094,-2.30078 0,-0.89345 -0.31998,-1.6519 -0.96094,-2.27343 -0.64092,-0.62154 -1.41915,-0.93164 -2.33203,-0.93164 z m 0.55664,60.3125 c -1.5565,5e-5 -2.8183,1.26184 -2.81836,2.81835 4e-5,1.55652 1.26184,2.81831 2.81836,2.81836 1.55652,-5e-5 2.81832,-1.26184 2.81836,-2.81836 -6e-5,-1.55651 -1.26186,-2.8183 -2.81836,-2.81835 z m -100.85352,0 c -1.55651,6e-5 -2.8183,1.26184 -2.81835,2.81835 3e-5,1.55652 1.26184,2.8183 2.81835,2.81836 1.55652,-5e-5 2.81831,-1.26184 2.81836,-2.81836 -6e-5,-1.55651 -1.26186,-2.8183 -2.81836,-2.81835 z m -100.85156,0 c -1.5565,5e-5 -2.8183,1.26184 -2.81836,2.81835 4e-5,1.55652 1.26184,2.81831 2.81836,2.81836 1.55652,-5e-5 2.81832,-1.26184 2.81836,-2.81836 -6e-5,-1.55651 -1.26186,-2.8183 -2.81836,-2.81835 z m 101.90625,90.26562 c -1.70337,0.11031 -3.328,0.51327 -4.91211,1.1875 -1.3222,0.3608 -1.37589,0.72785 -2.82226,1.01758 -2.6103,0.86454 -6.81149,-0.26874 -10.16797,1.07812 -3.13671,1.38869 -3.12525,1.22259 -1.11914,1.77735 2.0061,0.55476 5.78222,1.3714 6.91406,2.33398 1.5132,0.67244 3.01453,1.69704 3.01953,2.75196 1.45293,0.54501 1.08536,2.72438 1.9375,3.37304 1.59532,3.01905 3.07414,6.03943 2.25586,9.50586 -2.14529,5.76955 -6.8215,10.02511 -10.71289,14.63086 -5.7822,3.33107 -7.78412,10.00249 -11.26758,15.24414 -3.44058,4.45742 -4.48697,10.06655 -6.63672,15.13477 0.27285,-0.55234 -0.11335,5.53649 -0.92382,9.40039 -2.35891,3.32095 1.81459,5.92817 -0.99415,7.43164 -0.68055,4.01012 -4.39106,7.6377 -7.55078,10.5625 -2.36862,3.72523 -11.3729,7.67386 -8.98633,11.80859 4.10918,2.27416 10.57262,-2.54981 13.14063,1.3418 3.32007,2.03098 7.77855,0.78151 10.93164,-1.06641 3.52226,-1.97012 5.93876,-6.61512 9.25977,-8.06445 1.61651,0.42275 1.32,-1.53602 2.67773,-0.43945 1.67457,2.09792 0.5036,5.0805 0.4668,7.54687 -0.34251,4.39837 -6.23096,5.22995 -5.20313,10.38477 -4.59135,8.21783 -5.29539,18.76059 -0.14648,26.92187 5.84458,10.82008 20.98725,14.04115 31.25,7.84961 9.0875,-4.8135 13.34261,-15.92947 11.18945,-25.73437 -0.91494,-5.55599 -3.8742,-10.13576 -6.23047,-14.82618 -2.68166,-1.64488 -4.18855,-3.21413 -7.13281,-3.57031 -0.8963,-1.59361 -1.81513,-4.43454 -2.05664,-6.64453 -0.70735,-1.60357 -0.31385,-5.46964 1.00586,-3.06055 1.12423,-0.95521 1.37961,-1.39671 2.04883,0.36914 0.29879,1.38932 1.71312,-3.10139 2.69726,-3.81445 1.56913,-0.25315 2.42924,-2.65759 3.00391,-4.00586 1.53839,0.7122 2.19004,-7.24007 3.45117,-9.70117 4.03245,-2.19824 6.43385,-6.85855 7.99024,-12.71484 0.43527,-4.01803 2.33097,-7.69612 2.47265,-11.72657 1.35431,-3.31322 -1.89249,-10.04885 -3.28711,-12.13281 -1.13491,-1.75988 -2.97853,-3.3282 -4.21875,-4.77539 -0.2367,-1.16598 -1.22463,-1.4649 -1.34961,-2.28125 -2.24624,-5.15298 -1.24007,-10.7193 -2.16797,-16.12109 -0.67566,-2.47131 0.10514,-3.64305 0.72657,-4.69727 0.32467,-0.45841 -0.16371,-1.60419 0.61328,-1.46094 0.25134,-1.2108 -0.33359,-1.2099 -0.30469,-2.29296 -1.17276,-1.43873 -1.26585,-4.33368 -2.94727,-5.91407 -0.54489,-1.14128 -1.66933,-2.35353 -3.26171,-3.02343 0.16441,-0.37434 -2.84978,-1.67765 -4.31446,-2.30274 -2.40152,-1.23617 -7.46069,-0.97244 -8.33789,-1.28125 z m 2.21485,5.53516 c 1.90359,0.20335 3.00354,2.61314 0.57226,3 -3.27942,1.02169 -4.30371,-2.79519 -0.57226,-3 z m -0.2461,89.90234 c -0.45203,1.93105 1.88352,-1.41369 1.58203,1.07617 0.96839,3.86358 0.41113,7.68607 -1.50781,11.05078 -2.21988,-0.3198 -4.31417,-0.51242 -6.65625,-0.27148 -1.865,0.47841 -5.13318,1.49182 -6.83789,-0.38477 -1.3582,-1.82956 -1.8593,-3.49987 0.83008,-3.94726 1.8666,-1.3137 2.3188,-4.29972 3.71289,-4.86524 0.66711,-1.63258 3.18194,-0.75044 2.8789,1.0918 3.29357,3.0805 4.54087,-1.69108 5.99805,-3.75 z" />
</svg>
