999
"DXF R12 Output" (www.mydxf.blogspot.com)
 0 
SECTION
 2 
HEADER
 9 
$ACADVER
 1 
AC1009
 9 
$EXTMIN
 10 
 0 
 20 
 0 
 9 
$EXTMAX
 10 
 8.5 
 20 
 11 
 0 
ENDSEC
 0 
SECTION
 2 
ENTITIES
0
LINE
8
Layer 1
10
0.846666
20
317.647000
11
-0.846666
21
315.953000
0
LINE
8
Layer 1
10
0.000000
20
318.211000
11
0.000000
21
315.389000
0
LINE
8
Layer 1
10
2.257780
20
315.671000
11
1.128890
21
314.542110
0
LINE
8
Layer 1
10
1.693330
20
316.236000
11
0.564440
21
315.107110
0
LINE
8
Layer 1
10
1.128890
20
316.800000
11
0.000000
21
315.671110
0
LINE
8
Layer 1
10
0.846666
20
317.647000
11
-0.846666
21
315.953000
0
LINE
8
Layer 1
10
0.000000
20
318.211000
11
0.000000
21
315.389000
0
LINE
8
Layer 1
10
2.257780
20
315.671000
11
1.128890
21
314.542110
0
LINE
8
Layer 1
10
1.693330
20
316.236000
11
0.564440
21
315.107110
0
LINE
8
Layer 1
10
1.128890
20
316.800000
11
0.000000
21
315.671110
0
LINE
8
Layer 1
10
0.846666
20
317.647000
11
-0.846666
21
315.953000
0
LINE
8
Layer 1
10
0.000000
20
318.211000
11
0.000000
21
315.389000
0
LINE
8
Layer 1
10
2.257780
20
315.671000
11
1.128890
21
314.542110
0
LINE
8
Layer 1
10
1.693330
20
316.236000
11
0.564440
21
315.107110
0
LINE
8
Layer 1
10
1.128890
20
316.800000
11
0.000000
21
315.671110
0
LINE
8
Layer 1
10
26.399700
20
287.594000
11
26.451912
21
287.624457
0
LINE
8
Layer 1
10
26.451912
20
287.624457
11
26.515001
21
287.644044
0
LINE
8
Layer 1
10
26.515001
20
287.644044
11
26.604195
21
287.654909
0
LINE
8
Layer 1
10
26.604195
20
287.654909
11
26.734724
21
287.626628
0
LINE
8
Layer 1
10
26.734724
20
287.626628
11
26.832621
21
287.554836
0
LINE
8
Layer 1
10
26.832621
20
287.554836
11
26.895710
21
287.448238
0
LINE
8
Layer 1
10
26.895710
20
287.448238
11
26.917463
21
287.326411
0
LINE
8
Layer 1
10
26.917463
20
287.326411
11
26.887007
21
287.187180
0
LINE
8
Layer 1
10
26.887007
20
287.187180
11
26.810865
21
287.082758
0
LINE
8
Layer 1
10
26.810865
20
287.082758
11
26.702091
21
287.015318
0
LINE
8
Layer 1
10
26.702091
20
287.015318
11
26.575913
21
286.993559
0
LINE
8
Layer 1
10
26.575913
20
286.993559
11
26.377944
21
287.041418
0
LINE
8
Layer 1
10
26.377944
20
287.041418
11
26.195204
21
287.182825
0
LINE
8
Layer 1
10
26.195204
20
287.182825
11
26.062500
21
287.413426
0
LINE
8
Layer 1
10
26.062500
20
287.413426
11
26.010288
21
287.731044
0
LINE
8
Layer 1
10
26.010288
20
287.731044
11
26.090781
21
288.144386
0
LINE
8
Layer 1
10
26.090781
20
288.144386
11
26.310504
21
288.433726
0
LINE
8
Layer 1
10
26.310504
20
288.433726
11
26.630300
21
288.605587
0
LINE
8
Layer 1
10
26.630300
20
288.605587
11
27.006658
21
288.662149
0
LINE
8
Layer 1
10
27.006658
20
288.662149
11
27.419999
21
288.592534
0
LINE
8
Layer 1
10
27.419999
20
288.592534
11
27.744146
21
288.388040
0
LINE
8
Layer 1
10
27.744146
20
288.388040
11
27.955167
21
288.048665
0
LINE
8
Layer 1
10
27.955167
20
288.048665
11
28.031309
21
287.570059
0
LINE
8
Layer 1
10
28.031309
20
287.570059
11
27.970395
21
287.084928
0
LINE
8
Layer 1
10
27.970395
20
287.084928
11
27.807234
21
286.693342
0
LINE
8
Layer 1
10
27.807234
20
286.693342
11
27.561405
21
286.386598
0
LINE
8
Layer 1
10
27.561405
20
286.386598
11
27.263364
21
286.155997
0
LINE
8
Layer 1
10
27.263364
20
286.155997
11
26.934867
21
285.990660
0
LINE
8
Layer 1
10
26.934867
20
285.990660
11
26.599843
21
285.886238
0
LINE
8
Layer 1
10
26.599843
20
285.886238
11
26.282223
21
285.829675
0
LINE
8
Layer 1
10
26.282223
20
285.829675
11
26.010288
21
285.812262
0
LINE
8
Layer 1
10
26.010288
20
285.812262
11
26.010300
21
286.113000
0
LINE
8
Layer 1
10
26.010300
20
286.113000
11
26.216971
21
286.121692
0
LINE
8
Layer 1
10
26.216971
20
286.121692
11
26.469327
21
286.160851
0
LINE
8
Layer 1
10
26.469327
20
286.160851
11
26.741262
21
286.236991
0
LINE
8
Layer 1
10
26.741262
20
286.236991
11
27.013197
21
286.360994
0
LINE
8
Layer 1
10
27.013197
20
286.360994
11
27.263377
21
286.543736
0
LINE
8
Layer 1
10
27.263377
20
286.543736
11
27.470048
21
286.796090
0
LINE
8
Layer 1
10
27.470048
20
286.796090
11
27.609279
21
287.126764
0
LINE
8
Layer 1
10
27.609279
20
287.126764
11
27.661491
21
287.548807
0
LINE
8
Layer 1
10
27.661491
20
287.548807
11
27.607104
21
287.933865
0
LINE
8
Layer 1
10
27.607104
20
287.933865
11
27.463522
21
288.186222
0
LINE
8
Layer 1
10
27.463522
20
288.186222
11
27.254676
21
288.323277
0
LINE
8
Layer 1
10
27.254676
20
288.323277
11
27.006671
21
288.364612
0
LINE
8
Layer 1
10
27.006671
20
288.364612
11
26.776070
21
288.331978
0
LINE
8
Layer 1
10
26.776070
20
288.331978
11
26.573750
21
288.225380
0
LINE
8
Layer 1
10
26.573750
20
288.225380
11
26.432344
21
288.029586
0
LINE
8
Layer 1
10
26.432344
20
288.029586
11
26.380132
21
287.731545
0
LINE
8
Layer 1
10
26.380132
20
287.731545
11
26.382305
21
287.674982
0
LINE
8
Layer 1
10
26.382305
20
287.674982
11
26.388830
21
287.633648
0
LINE
8
Layer 1
10
26.388830
20
287.633648
11
26.399707
21
287.594490
0
LINE
8
Layer 1
10
26.399707
20
287.594490
11
26.399700
21
287.594000
0
LINE
8
Layer 1
10
28.462050
20
287.648387
11
28.290188
21
287.720179
0
LINE
8
Layer 1
10
28.290188
20
287.720179
11
28.220573
21
287.892041
0
LINE
8
Layer 1
10
28.220573
20
287.892041
11
28.290188
21
288.061730
0
LINE
8
Layer 1
10
28.290188
20
288.061730
11
28.462050
21
288.131345
0
LINE
8
Layer 1
10
28.462050
20
288.131345
11
28.636088
21
288.061730
0
LINE
8
Layer 1
10
28.636088
20
288.061730
11
28.707880
21
287.892041
0
LINE
8
Layer 1
10
28.707880
20
287.892041
11
28.636088
21
287.720179
0
LINE
8
Layer 1
10
28.636088
20
287.720179
11
28.462050
21
287.648387
0
LINE
8
Layer 1
10
28.462050
20
287.648387
11
28.462050
21
287.648387
0
LINE
8
Layer 1
10
28.462050
20
286.682474
11
28.290188
21
286.754266
0
LINE
8
Layer 1
10
28.290188
20
286.754266
11
28.220573
21
286.926128
0
LINE
8
Layer 1
10
28.220573
20
286.926128
11
28.290188
21
287.097993
0
LINE
8
Layer 1
10
28.290188
20
287.097993
11
28.462050
21
287.171957
0
LINE
8
Layer 1
10
28.462050
20
287.171957
11
28.636088
21
287.097993
0
LINE
8
Layer 1
10
28.636088
20
287.097993
11
28.707880
21
286.926128
0
LINE
8
Layer 1
10
28.707880
20
286.926128
11
28.636088
21
286.754266
0
LINE
8
Layer 1
10
28.636088
20
286.754266
11
28.462050
21
286.682474
0
LINE
8
Layer 1
10
28.462050
20
286.682474
11
28.462050
21
286.682474
0
LINE
8
Layer 1
10
25.754900
20
282.345000
11
25.906143
21
281.780555
0
LINE
8
Layer 1
10
25.906143
20
281.780555
11
26.319345
21
281.367353
0
LINE
8
Layer 1
10
26.319345
20
281.367353
11
26.883790
21
281.216110
0
LINE
8
Layer 1
10
26.883790
20
281.216110
11
27.448235
21
281.367353
0
LINE
8
Layer 1
10
27.448235
20
281.367353
11
27.861437
21
281.780555
0
LINE
8
Layer 1
10
27.861437
20
281.780555
11
28.012680
21
282.345000
0
LINE
8
Layer 1
10
28.012680
20
282.345000
11
27.861437
21
282.909445
0
LINE
8
Layer 1
10
27.861437
20
282.909445
11
27.448235
21
283.322647
0
LINE
8
Layer 1
10
27.448235
20
283.322647
11
26.883790
21
283.473890
0
LINE
8
Layer 1
10
26.883790
20
283.473890
11
26.319345
21
283.322647
0
LINE
8
Layer 1
10
26.319345
20
283.322647
11
25.906143
21
282.909445
0
LINE
8
Layer 1
10
25.906143
20
282.909445
11
25.754900
21
282.345000
0
LINE
8
Layer 1
10
25.754900
20
282.345000
11
25.754900
21
282.345000
0
LINE
8
Layer 1
10
19.459700
20
282.345000
11
19.610943
21
281.780555
0
LINE
8
Layer 1
10
19.610943
20
281.780555
11
20.024145
21
281.367353
0
LINE
8
Layer 1
10
20.024145
20
281.367353
11
20.588590
21
281.216110
0
LINE
8
Layer 1
10
20.588590
20
281.216110
11
21.153035
21
281.367353
0
LINE
8
Layer 1
10
21.153035
20
281.367353
11
21.566237
21
281.780555
0
LINE
8
Layer 1
10
21.566237
20
281.780555
11
21.717480
21
282.345000
0
LINE
8
Layer 1
10
21.717480
20
282.345000
11
21.566237
21
282.909445
0
LINE
8
Layer 1
10
21.566237
20
282.909445
11
21.153035
21
283.322647
0
LINE
8
Layer 1
10
21.153035
20
283.322647
11
20.588590
21
283.473890
0
LINE
8
Layer 1
10
20.588590
20
283.473890
11
20.024145
21
283.322647
0
LINE
8
Layer 1
10
20.024145
20
283.322647
11
19.610943
21
282.909445
0
LINE
8
Layer 1
10
19.610943
20
282.909445
11
19.459700
21
282.345000
0
LINE
8
Layer 1
10
19.459700
20
282.345000
11
19.459700
21
282.345000
0
LINE
8
Layer 1
10
32.050200
20
282.345000
11
32.201443
21
281.780555
0
LINE
8
Layer 1
10
32.201443
20
281.780555
11
32.614645
21
281.367353
0
LINE
8
Layer 1
10
32.614645
20
281.367353
11
33.179090
21
281.216110
0
LINE
8
Layer 1
10
33.179090
20
281.216110
11
33.743535
21
281.367353
0
LINE
8
Layer 1
10
33.743535
20
281.367353
11
34.156737
21
281.780555
0
LINE
8
Layer 1
10
34.156737
20
281.780555
11
34.307980
21
282.345000
0
LINE
8
Layer 1
10
34.307980
20
282.345000
11
34.156737
21
282.909445
0
LINE
8
Layer 1
10
34.156737
20
282.909445
11
33.743535
21
283.322647
0
LINE
8
Layer 1
10
33.743535
20
283.322647
11
33.179090
21
283.473890
0
LINE
8
Layer 1
10
33.179090
20
283.473890
11
32.614645
21
283.322647
0
LINE
8
Layer 1
10
32.614645
20
283.322647
11
32.201443
21
282.909445
0
LINE
8
Layer 1
10
32.201443
20
282.909445
11
32.050200
21
282.345000
0
LINE
8
Layer 1
10
32.050200
20
282.345000
11
32.050200
21
282.345000
0
LINE
8
Layer 1
10
37.130200
20
280.510000
11
37.012044
21
279.915991
0
LINE
8
Layer 1
10
37.012044
20
279.915991
11
36.675565
21
279.412415
0
LINE
8
Layer 1
10
36.675565
20
279.412415
11
36.171989
21
279.075936
0
LINE
8
Layer 1
10
36.171989
20
279.075936
11
35.577980
21
278.957780
0
LINE
8
Layer 1
10
35.577980
20
278.957780
11
18.189700
21
278.958000
0
LINE
8
Layer 1
10
18.189700
20
278.958000
11
17.595691
21
279.076156
0
LINE
8
Layer 1
10
17.595691
20
279.076156
11
17.092115
21
279.412635
0
LINE
8
Layer 1
10
17.092115
20
279.412635
11
16.755636
21
279.916211
0
LINE
8
Layer 1
10
16.755636
20
279.916211
11
16.637480
21
280.510220
0
LINE
8
Layer 1
10
16.637480
20
280.510220
11
16.637500
21
290.681000
0
LINE
8
Layer 1
10
16.637500
20
290.681000
11
16.759481
21
291.285194
0
LINE
8
Layer 1
10
16.759481
20
291.285194
11
17.092135
21
291.778585
0
LINE
8
Layer 1
10
17.092135
20
291.778585
11
17.585526
21
292.111239
0
LINE
8
Layer 1
10
17.585526
20
292.111239
11
18.189720
21
292.233220
0
LINE
8
Layer 1
10
18.189720
20
292.233220
11
35.578000
21
292.233000
0
LINE
8
Layer 1
10
35.578000
20
292.233000
11
36.172009
21
292.114844
0
LINE
8
Layer 1
10
36.172009
20
292.114844
11
36.675585
21
291.778365
0
LINE
8
Layer 1
10
36.675585
20
291.778365
11
37.012064
21
291.274789
0
LINE
8
Layer 1
10
37.012064
20
291.274789
11
37.130220
21
290.680780
0
LINE
8
Layer 1
10
37.130220
20
290.680780
11
37.130200
21
280.510000
0
LINE
8
Layer 1
10
21.896900
20
285.617000
11
21.896900
21
285.573000
0
LINE
8
Layer 1
10
21.896900
20
285.573000
11
19.325500
21
285.573000
0
LINE
8
Layer 1
10
19.325500
20
285.573000
11
19.325500
21
285.617000
0
LINE
8
Layer 1
10
19.325500
20
285.617000
11
20.585100
21
287.953530
0
LINE
8
Layer 1
10
20.585100
20
287.953530
11
20.617700
21
287.953000
0
LINE
8
Layer 1
10
20.617700
20
287.953000
11
21.896900
21
285.617000
0
LINE
8
Layer 1
10
21.407417
20
285.860654
11
20.609016
21
287.329164
0
LINE
8
Layer 1
10
20.609016
20
287.329164
11
20.596000
21
287.329000
0
LINE
8
Layer 1
10
20.596000
20
287.329000
11
19.801950
21
285.860490
0
LINE
8
Layer 1
10
19.801950
20
285.860490
11
21.407417
21
285.860654
0
LINE
8
Layer 1
10
20.600898
20
288.318884
11
20.429035
21
288.390676
0
LINE
8
Layer 1
10
20.429035
20
288.390676
11
20.359420
21
288.562538
0
LINE
8
Layer 1
10
20.359420
20
288.562538
11
20.429035
21
288.732227
0
LINE
8
Layer 1
10
20.429035
20
288.732227
11
20.600898
21
288.801841
0
LINE
8
Layer 1
10
20.600898
20
288.801841
11
20.774936
21
288.732227
0
LINE
8
Layer 1
10
20.774936
20
288.732227
11
20.846727
21
288.562538
0
LINE
8
Layer 1
10
20.846727
20
288.562538
11
20.774936
21
288.390676
0
LINE
8
Layer 1
10
20.774936
20
288.390676
11
20.600898
21
288.318884
0
LINE
8
Layer 1
10
20.600898
20
288.318884
11
20.600898
21
288.318884
0
LINE
8
Layer 1
10
60.965600
20
144.307000
11
61.548362
21
144.121835
0
LINE
8
Layer 1
10
61.548362
20
144.121835
11
62.026274
21
144.205387
0
LINE
8
Layer 1
10
62.026274
20
144.205387
11
62.391784
21
144.507217
0
LINE
8
Layer 1
10
62.391784
20
144.507217
11
62.637344
21
144.976884
0
LINE
8
Layer 1
10
62.637344
20
144.976884
11
62.738405
21
146.217964
0
LINE
8
Layer 1
10
62.738405
20
146.217964
11
62.578805
21
146.888495
0
LINE
8
Layer 1
10
62.578805
20
146.888495
11
62.269050
21
147.525100
0
LINE
8
Layer 1
10
62.269050
20
147.525100
11
59.977865
21
151.685120
0
LINE
8
Layer 1
10
59.977865
20
151.685120
11
57.499925
21
157.383657
0
LINE
8
Layer 1
10
57.499925
20
157.383657
11
55.121206
21
164.265202
0
LINE
8
Layer 1
10
55.121206
20
164.265202
11
54.058423
21
168.038506
0
LINE
8
Layer 1
10
54.058423
20
168.038506
11
53.127685
21
171.974245
0
LINE
8
Layer 1
10
53.127685
20
171.974245
11
52.364741
21
176.027981
0
LINE
8
Layer 1
10
52.364741
20
176.027981
11
51.805337
21
180.155276
0
LINE
8
Layer 1
10
51.805337
20
180.155276
11
51.485220
21
184.311690
0
LINE
8
Layer 1
10
51.485220
20
184.311690
11
51.440138
21
188.452786
0
LINE
8
Layer 1
10
51.440138
20
188.452786
11
51.705836
21
192.534123
0
LINE
8
Layer 1
10
51.705836
20
192.534123
11
52.318063
21
196.511264
0
LINE
8
Layer 1
10
52.318063
20
196.511264
11
53.312566
21
200.339769
0
LINE
8
Layer 1
10
53.312566
20
200.339769
11
54.725090
21
203.975200
0
LINE
8
Layer 1
10
54.725090
20
203.975200
11
57.075260
21
208.659726
0
LINE
8
Layer 1
10
57.075260
20
208.659726
11
59.552231
21
212.912997
0
LINE
8
Layer 1
10
59.552231
20
212.912997
11
62.117584
21
216.752818
0
LINE
8
Layer 1
10
62.117584
20
216.752818
11
64.732902
21
220.196991
0
LINE
8
Layer 1
10
64.732902
20
220.196991
11
67.359768
21
223.263319
0
LINE
8
Layer 1
10
67.359768
20
223.263319
11
69.959763
21
225.969607
0
LINE
8
Layer 1
10
69.959763
20
225.969607
11
72.494471
21
228.333658
0
LINE
8
Layer 1
10
72.494471
20
228.333658
11
74.925474
21
230.373275
0
LINE
8
Layer 1
10
74.925474
20
230.373275
11
79.322693
21
233.550421
0
LINE
8
Layer 1
10
79.322693
20
233.550421
11
82.844081
21
235.643472
0
LINE
8
Layer 1
10
82.844081
20
235.643472
11
85.182297
21
236.794856
0
LINE
8
Layer 1
10
85.182297
20
236.794856
11
86.030000
21
237.147000
0
LINE
8
Layer 1
10
86.030000
20
237.147000
11
90.510789
21
234.131787
0
LINE
8
Layer 1
10
90.510789
20
234.131787
11
95.257272
21
230.347181
0
LINE
8
Layer 1
10
95.257272
20
230.347181
11
100.043088
21
225.963038
0
LINE
8
Layer 1
10
100.043088
20
225.963038
11
104.641875
21
221.149214
0
LINE
8
Layer 1
10
104.641875
20
221.149214
11
108.827271
21
216.075562
0
LINE
8
Layer 1
10
108.827271
20
216.075562
11
110.694210
21
213.494381
0
LINE
8
Layer 1
10
110.694210
20
213.494381
11
112.372916
21
210.911940
0
LINE
8
Layer 1
10
112.372916
20
210.911940
11
113.835093
21
208.349469
0
LINE
8
Layer 1
10
113.835093
20
208.349469
11
115.052446
21
205.828200
0
LINE
8
Layer 1
10
115.052446
20
205.828200
11
115.996680
21
203.369367
0
LINE
8
Layer 1
10
115.996680
20
203.369367
11
116.639500
21
200.994200
0
LINE
8
Layer 1
10
116.639500
20
200.994200
11
117.306520
21
197.294187
0
LINE
8
Layer 1
10
117.306520
20
197.294187
11
117.768585
21
193.612189
0
LINE
8
Layer 1
10
117.768585
20
193.612189
11
118.025302
21
189.951550
0
LINE
8
Layer 1
10
118.025302
20
189.951550
11
118.076284
21
186.315614
0
LINE
8
Layer 1
10
118.076284
20
186.315614
11
117.921139
21
182.707724
0
LINE
8
Layer 1
10
117.921139
20
182.707724
11
117.559478
21
179.131222
0
LINE
8
Layer 1
10
117.559478
20
179.131222
11
116.990911
21
175.589454
0
LINE
8
Layer 1
10
116.990911
20
175.589454
11
116.215048
21
172.085762
0
LINE
8
Layer 1
10
116.215048
20
172.085762
11
115.231499
21
168.623491
0
LINE
8
Layer 1
10
115.231499
20
168.623491
11
114.039875
21
165.205982
0
LINE
8
Layer 1
10
114.039875
20
165.205982
11
112.639784
21
161.836581
0
LINE
8
Layer 1
10
112.639784
20
161.836581
11
111.030838
21
158.518630
0
LINE
8
Layer 1
10
111.030838
20
158.518630
11
109.212647
21
155.255473
0
LINE
8
Layer 1
10
109.212647
20
155.255473
11
107.184820
21
152.050453
0
LINE
8
Layer 1
10
107.184820
20
152.050453
11
104.946968
21
148.906914
0
LINE
8
Layer 1
10
104.946968
20
148.906914
11
102.498700
21
145.828200
0
LINE
8
Layer 1
10
102.498700
20
145.828200
11
102.186968
21
145.265419
0
LINE
8
Layer 1
10
102.186968
20
145.265419
11
102.132135
21
144.686660
0
LINE
8
Layer 1
10
102.132135
20
144.686660
11
102.293660
21
144.133194
0
LINE
8
Layer 1
10
102.293660
20
144.133194
11
102.631004
21
143.646290
0
LINE
8
Layer 1
10
102.631004
20
143.646290
11
103.103628
21
143.267219
0
LINE
8
Layer 1
10
103.103628
20
143.267219
11
103.670991
21
143.037252
0
LINE
8
Layer 1
10
103.670991
20
143.037252
11
104.292555
21
142.997659
0
LINE
8
Layer 1
10
104.292555
20
142.997659
11
104.927780
21
143.189710
0
LINE
8
Layer 1
10
104.927780
20
143.189710
11
110.110068
21
146.072121
0
LINE
8
Layer 1
10
110.110068
20
146.072121
11
115.691957
21
149.756927
0
LINE
8
Layer 1
10
115.691957
20
149.756927
11
118.535639
21
151.913867
0
LINE
8
Layer 1
10
118.535639
20
151.913867
11
121.362685
21
154.287772
0
LINE
8
Layer 1
10
121.362685
20
154.287772
11
124.134252
21
156.884096
0
LINE
8
Layer 1
10
124.134252
20
156.884096
11
126.811492
21
159.708295
0
LINE
8
Layer 1
10
126.811492
20
159.708295
11
129.355563
21
162.765824
0
LINE
8
Layer 1
10
129.355563
20
162.765824
11
131.727617
21
166.062139
0
LINE
8
Layer 1
10
131.727617
20
166.062139
11
133.888810
21
169.602694
0
LINE
8
Layer 1
10
133.888810
20
169.602694
11
135.800297
21
173.392945
0
LINE
8
Layer 1
10
135.800297
20
173.392945
11
137.423233
21
177.438347
0
LINE
8
Layer 1
10
137.423233
20
177.438347
11
138.718772
21
181.744355
0
LINE
8
Layer 1
10
138.718772
20
181.744355
11
139.648069
21
186.316424
0
LINE
8
Layer 1
10
139.648069
20
186.316424
11
140.172280
21
191.160010
0
LINE
8
Layer 1
10
140.172280
20
191.160010
11
140.324645
21
194.355882
0
LINE
8
Layer 1
10
140.324645
20
194.355882
11
140.309846
21
197.853012
0
LINE
8
Layer 1
10
140.309846
20
197.853012
11
140.102986
21
201.648228
0
LINE
8
Layer 1
10
140.102986
20
201.648228
11
139.679168
21
205.738359
0
LINE
8
Layer 1
10
139.679168
20
205.738359
11
139.013495
21
210.120234
0
LINE
8
Layer 1
10
139.013495
20
210.120234
11
138.081069
21
214.790681
0
LINE
8
Layer 1
10
138.081069
20
214.790681
11
136.856993
21
219.746531
0
LINE
8
Layer 1
10
136.856993
20
219.746531
11
135.316370
21
224.984610
0
LINE
8
Layer 1
10
135.316370
20
224.984610
11
133.066894
21
231.355932
0
LINE
8
Layer 1
10
133.066894
20
231.355932
11
130.742823
21
236.875235
0
LINE
8
Layer 1
10
130.742823
20
236.875235
11
128.395429
21
241.599426
0
LINE
8
Layer 1
10
128.395429
20
241.599426
11
126.075981
21
245.585410
0
LINE
8
Layer 1
10
126.075981
20
245.585410
11
123.835751
21
248.890094
0
LINE
8
Layer 1
10
123.835751
20
248.890094
11
121.726009
21
251.570385
0
LINE
8
Layer 1
10
121.726009
20
251.570385
11
119.798025
21
253.683188
0
LINE
8
Layer 1
10
119.798025
20
253.683188
11
118.103070
21
255.285410
0
LINE
8
Layer 1
10
118.103070
20
255.285410
11
117.608948
21
255.600360
0
LINE
8
Layer 1
10
117.608948
20
255.600360
11
117.082002
21
255.738663
0
LINE
8
Layer 1
10
117.082002
20
255.738663
11
116.554229
21
255.716371
0
LINE
8
Layer 1
10
116.554229
20
255.716371
11
116.057627
21
255.549534
0
LINE
8
Layer 1
10
116.057627
20
255.549534
11
115.624196
21
255.254202
0
LINE
8
Layer 1
10
115.624196
20
255.254202
11
115.285932
21
254.846426
0
LINE
8
Layer 1
10
115.285932
20
254.846426
11
115.074834
21
254.342255
0
LINE
8
Layer 1
10
115.074834
20
254.342255
11
115.022900
21
253.757740
0
LINE
8
Layer 1
10
115.022900
20
253.757740
11
115.152578
21
250.252251
0
LINE
8
Layer 1
10
115.152578
20
250.252251
11
115.098130
21
247.092068
0
LINE
8
Layer 1
10
115.098130
20
247.092068
11
114.876798
21
244.279473
0
LINE
8
Layer 1
10
114.876798
20
244.279473
11
114.505824
21
241.816746
0
LINE
8
Layer 1
10
114.505824
20
241.816746
11
114.002449
21
239.706171
0
LINE
8
Layer 1
10
114.002449
20
239.706171
11
113.383915
21
237.950027
0
LINE
8
Layer 1
10
113.383915
20
237.950027
11
112.667463
21
236.550598
0
LINE
8
Layer 1
10
112.667463
20
236.550598
11
111.870336
21
235.510165
0
LINE
8
Layer 1
10
111.870336
20
235.510165
11
111.009775
21
234.831009
0
LINE
8
Layer 1
10
111.009775
20
234.831009
11
110.103022
21
234.515412
0
LINE
8
Layer 1
10
110.103022
20
234.515412
11
109.167318
21
234.565655
0
LINE
8
Layer 1
10
109.167318
20
234.565655
11
108.219905
21
234.984021
0
LINE
8
Layer 1
10
108.219905
20
234.984021
11
107.278026
21
235.772791
0
LINE
8
Layer 1
10
107.278026
20
235.772791
11
106.358920
21
236.934246
0
LINE
8
Layer 1
10
106.358920
20
236.934246
11
105.479831
21
238.470669
0
LINE
8
Layer 1
10
105.479831
20
238.470669
11
104.658000
21
240.384340
0
LINE
8
Layer 1
10
104.658000
20
240.384340
11
103.535499
21
244.332514
0
LINE
8
Layer 1
10
103.535499
20
244.332514
11
102.701316
21
249.358236
0
LINE
8
Layer 1
10
102.701316
20
249.358236
11
102.181618
21
255.313285
0
LINE
8
Layer 1
10
102.181618
20
255.313285
11
102.002570
21
262.049440
0
LINE
8
Layer 1
10
102.002570
20
262.049440
11
101.787097
21
267.955487
0
LINE
8
Layer 1
10
101.787097
20
267.955487
11
101.133392
21
273.863920
0
LINE
8
Layer 1
10
101.133392
20
273.863920
11
100.030523
21
279.733809
0
LINE
8
Layer 1
10
100.030523
20
279.733809
11
98.467561
21
285.524227
0
LINE
8
Layer 1
10
98.467561
20
285.524227
11
96.433575
21
291.194248
0
LINE
8
Layer 1
10
96.433575
20
291.194248
11
93.917635
21
296.702942
0
LINE
8
Layer 1
10
93.917635
20
296.702942
11
90.908810
21
302.009382
0
LINE
8
Layer 1
10
90.908810
20
302.009382
11
87.396170
21
307.072640
0
LINE
8
Layer 1
10
87.396170
20
307.072640
11
85.352915
21
309.589850
0
LINE
8
Layer 1
10
85.352915
20
309.589850
11
83.142414
21
311.999956
0
LINE
8
Layer 1
10
83.142414
20
311.999956
11
80.764114
21
314.279886
0
LINE
8
Layer 1
10
80.764114
20
314.279886
11
78.217460
21
316.406570
0
LINE
8
Layer 1
10
78.217460
20
316.406570
11
77.719385
21
316.686334
0
LINE
8
Layer 1
10
77.719385
20
316.686334
11
77.197413
21
316.796724
0
LINE
8
Layer 1
10
77.197413
20
316.796724
11
76.200279
21
316.573363
0
LINE
8
Layer 1
10
76.200279
20
316.573363
11
75.463070
21
315.864437
0
LINE
8
Layer 1
10
75.463070
20
315.864437
11
75.266005
21
315.367873
0
LINE
8
Layer 1
10
75.266005
20
315.367873
11
75.222800
21
314.797900
0
LINE
8
Layer 1
10
75.222800
20
314.797900
11
75.395149
21
309.899885
0
LINE
8
Layer 1
10
75.395149
20
309.899885
11
75.141251
21
303.302095
0
LINE
8
Layer 1
10
75.141251
20
303.302095
11
74.764343
21
299.416798
0
LINE
8
Layer 1
10
74.764343
20
299.416798
11
74.172733
21
295.167773
0
LINE
8
Layer 1
10
74.172733
20
295.167773
11
73.330375
21
290.575426
0
LINE
8
Layer 1
10
73.330375
20
290.575426
11
72.201222
21
285.660162
0
LINE
8
Layer 1
10
72.201222
20
285.660162
11
70.749228
21
280.442387
0
LINE
8
Layer 1
10
70.749228
20
280.442387
11
68.938347
21
274.942506
0
LINE
8
Layer 1
10
68.938347
20
274.942506
11
66.732530
21
269.180925
0
LINE
8
Layer 1
10
66.732530
20
269.180925
11
64.095733
21
263.178048
0
LINE
8
Layer 1
10
64.095733
20
263.178048
11
60.991908
21
256.954282
0
LINE
8
Layer 1
10
60.991908
20
256.954282
11
57.385008
21
250.530032
0
LINE
8
Layer 1
10
57.385008
20
250.530032
11
53.238988
21
243.925703
0
LINE
8
Layer 1
10
53.238988
20
243.925703
11
48.517800
21
237.161700
0
LINE
8
Layer 1
10
48.517800
20
237.161700
11
44.350500
21
230.914259
0
LINE
8
Layer 1
10
44.350500
20
230.914259
11
40.914513
21
224.866994
0
LINE
8
Layer 1
10
40.914513
20
224.866994
11
38.151600
21
219.036157
0
LINE
8
Layer 1
10
38.151600
20
219.036157
11
36.003523
21
213.437997
0
LINE
8
Layer 1
10
36.003523
20
213.437997
11
34.412045
21
208.088766
0
LINE
8
Layer 1
10
34.412045
20
208.088766
11
33.318925
21
203.004714
0
LINE
8
Layer 1
10
33.318925
20
203.004714
11
32.665927
21
198.202092
0
LINE
8
Layer 1
10
32.665927
20
198.202092
11
32.394813
21
193.697150
0
LINE
8
Layer 1
10
32.394813
20
193.697150
11
32.447343
21
189.506140
0
LINE
8
Layer 1
10
32.447343
20
189.506140
11
32.765279
21
185.645311
0
LINE
8
Layer 1
10
32.765279
20
185.645311
11
33.290385
21
182.130916
0
LINE
8
Layer 1
10
33.290385
20
182.130916
11
33.964420
21
178.979203
0
LINE
8
Layer 1
10
33.964420
20
178.979203
11
34.729148
21
176.206425
0
LINE
8
Layer 1
10
34.729148
20
176.206425
11
35.526329
21
173.828831
0
LINE
8
Layer 1
10
35.526329
20
173.828831
11
36.985100
21
170.324200
0
LINE
8
Layer 1
10
36.985100
20
170.324200
11
39.491431
21
165.526060
0
LINE
8
Layer 1
10
39.491431
20
165.526060
11
42.202060
21
161.222852
0
LINE
8
Layer 1
10
42.202060
20
161.222852
11
45.085011
21
157.387964
0
LINE
8
Layer 1
10
45.085011
20
157.387964
11
48.108311
21
153.994787
0
LINE
8
Layer 1
10
48.108311
20
153.994787
11
51.239985
21
151.016713
0
LINE
8
Layer 1
10
51.239985
20
151.016713
11
54.448057
21
148.427130
0
LINE
8
Layer 1
10
54.448057
20
148.427130
11
57.700554
21
146.199429
0
LINE
8
Layer 1
10
57.700554
20
146.199429
11
60.965500
21
144.307000
0
LINE
8
Layer 1
10
60.965500
20
144.307000
11
60.965600
21
144.307000
0
LINE
8
Layer 1
10
84.461300
20
171.139000
11
82.253488
21
171.381547
0
LINE
8
Layer 1
10
82.253488
20
171.381547
11
80.207380
21
172.109186
0
LINE
8
Layer 1
10
80.207380
20
172.109186
11
78.322979
21
173.321912
0
LINE
8
Layer 1
10
78.322979
20
173.321912
11
76.600290
21
175.019720
0
LINE
8
Layer 1
10
76.600290
20
175.019720
11
75.207219
21
177.055620
0
LINE
8
Layer 1
10
75.207219
20
177.055620
11
74.212155
21
179.282585
0
LINE
8
Layer 1
10
74.212155
20
179.282585
11
73.615108
21
181.700620
0
LINE
8
Layer 1
10
73.615108
20
181.700620
11
73.416090
21
184.309730
0
LINE
8
Layer 1
10
73.416090
20
184.309730
11
73.615108
21
186.911556
0
LINE
8
Layer 1
10
73.615108
20
186.911556
11
74.212155
21
189.307594
0
LINE
8
Layer 1
10
74.212155
20
189.307594
11
75.207219
21
191.497837
0
LINE
8
Layer 1
10
75.207219
20
191.497837
11
76.600290
21
193.482280
0
LINE
8
Layer 1
10
76.600290
20
193.482280
11
78.322979
21
195.128629
0
LINE
8
Layer 1
10
78.322979
20
195.128629
11
80.207380
21
196.304584
0
LINE
8
Layer 1
10
80.207380
20
196.304584
11
82.253488
21
197.010152
0
LINE
8
Layer 1
10
82.253488
20
197.010152
11
84.461300
21
197.245340
0
LINE
8
Layer 1
10
84.461300
20
197.245340
11
86.712651
21
197.010151
0
LINE
8
Layer 1
10
86.712651
20
197.010151
11
88.789852
21
196.304580
0
LINE
8
Layer 1
10
88.789852
20
196.304580
11
90.692900
21
195.128624
0
LINE
8
Layer 1
10
90.692900
20
195.128624
11
92.421790
21
193.482280
0
LINE
8
Layer 1
10
92.421790
20
193.482280
11
93.858426
21
191.497833
0
LINE
8
Layer 1
10
93.858426
20
191.497833
11
94.884584
21
189.307590
0
LINE
8
Layer 1
10
94.884584
20
189.307590
11
95.500272
21
186.911554
0
LINE
8
Layer 1
10
95.500272
20
186.911554
11
95.705500
21
184.309730
0
LINE
8
Layer 1
10
95.705500
20
184.309730
11
95.500272
21
181.700618
0
LINE
8
Layer 1
10
95.500272
20
181.700618
11
94.884584
21
179.282581
0
LINE
8
Layer 1
10
94.884584
20
179.282581
11
93.858426
21
177.055616
0
LINE
8
Layer 1
10
93.858426
20
177.055616
11
92.421790
21
175.019720
0
LINE
8
Layer 1
10
92.421790
20
175.019720
11
90.692900
21
173.321912
0
LINE
8
Layer 1
10
90.692900
20
173.321912
11
88.789852
21
172.109186
0
LINE
8
Layer 1
10
88.789852
20
172.109186
11
86.712651
21
171.381547
0
LINE
8
Layer 1
10
86.712651
20
171.381547
11
84.461300
21
171.139000
0
LINE
8
Layer 1
10
84.461300
20
171.139000
11
84.461300
21
171.139000
0
LINE
8
Layer 1
10
35.438100
20
12.247400
11
34.288227
21
12.361168
0
LINE
8
Layer 1
10
34.288227
20
12.361168
11
33.193026
21
12.693973
0
LINE
8
Layer 1
10
33.193026
20
12.693973
11
32.183274
21
13.233068
0
LINE
8
Layer 1
10
32.183274
20
13.233068
11
31.289745
21
13.965705
0
LINE
8
Layer 1
10
31.289745
20
13.965705
11
30.557108
21
14.859234
0
LINE
8
Layer 1
10
30.557108
20
14.859234
11
30.018013
21
15.868986
0
LINE
8
Layer 1
10
30.018013
20
15.868986
11
29.685208
21
16.964187
0
LINE
8
Layer 1
10
29.685208
20
16.964187
11
29.571440
21
18.114060
0
LINE
8
Layer 1
10
29.571440
20
18.114060
11
29.571400
21
73.540100
0
LINE
8
Layer 1
10
29.571400
20
73.540100
11
29.690590
21
74.722437
0
LINE
8
Layer 1
10
29.690590
20
74.722437
11
30.032431
21
75.823669
0
LINE
8
Layer 1
10
30.032431
20
75.823669
11
30.573333
21
76.820205
0
LINE
8
Layer 1
10
30.573333
20
76.820205
11
31.289705
21
77.688455
0
LINE
8
Layer 1
10
31.289705
20
77.688455
11
32.157955
21
78.404827
0
LINE
8
Layer 1
10
32.157955
20
78.404827
11
33.154491
21
78.945729
0
LINE
8
Layer 1
10
33.154491
20
78.945729
11
34.255723
21
79.287570
0
LINE
8
Layer 1
10
34.255723
20
79.287570
11
35.438060
21
79.406760
0
LINE
8
Layer 1
10
35.438060
20
79.406760
11
101.157000
21
79.406800
0
LINE
8
Layer 1
10
101.157000
20
79.406800
11
102.306873
21
79.293032
0
LINE
8
Layer 1
10
102.306873
20
79.293032
11
103.402074
21
78.960227
0
LINE
8
Layer 1
10
103.402074
20
78.960227
11
104.411826
21
78.421132
0
LINE
8
Layer 1
10
104.411826
20
78.421132
11
105.305355
21
77.688495
0
LINE
8
Layer 1
10
105.305355
20
77.688495
11
106.037992
21
76.794966
0
LINE
8
Layer 1
10
106.037992
20
76.794966
11
106.577087
21
75.785214
0
LINE
8
Layer 1
10
106.577087
20
75.785214
11
106.909892
21
74.690013
0
LINE
8
Layer 1
10
106.909892
20
74.690013
11
107.023660
21
73.540140
0
LINE
8
Layer 1
10
107.023660
20
73.540140
11
107.024000
21
18.114000
0
LINE
8
Layer 1
10
107.024000
20
18.114000
11
106.904810
21
16.931663
0
LINE
8
Layer 1
10
106.904810
20
16.931663
11
106.562969
21
15.830431
0
LINE
8
Layer 1
10
106.562969
20
15.830431
11
106.022067
21
14.833895
0
LINE
8
Layer 1
10
106.022067
20
14.833895
11
105.305695
21
13.965645
0
LINE
8
Layer 1
10
105.305695
20
13.965645
11
104.437445
21
13.249273
0
LINE
8
Layer 1
10
104.437445
20
13.249273
11
103.440909
21
12.708371
0
LINE
8
Layer 1
10
103.440909
20
12.708371
11
102.339677
21
12.366530
0
LINE
8
Layer 1
10
102.339677
20
12.366530
11
101.157340
21
12.247340
0
LINE
8
Layer 1
10
101.157340
20
12.247340
11
35.438100
21
12.247400
0
LINE
8
Layer 1
10
61.897800
20
32.514000
11
62.119344
21
30.844130
0
LINE
8
Layer 1
10
62.119344
20
30.844130
11
62.755245
21
29.314005
0
LINE
8
Layer 1
10
62.755245
20
29.314005
11
63.762424
21
27.998239
0
LINE
8
Layer 1
10
63.762424
20
27.998239
11
65.097805
21
26.971446
0
LINE
8
Layer 1
10
65.097805
20
26.971446
11
66.654725
21
26.328369
0
LINE
8
Layer 1
10
66.654725
20
26.328369
11
68.297800
21
26.114010
0
LINE
8
Layer 1
10
68.297800
20
26.114010
11
69.940875
21
26.328369
0
LINE
8
Layer 1
10
69.940875
20
26.328369
11
71.497795
21
26.971446
0
LINE
8
Layer 1
10
71.497795
20
26.971446
11
72.833176
21
27.998239
0
LINE
8
Layer 1
10
72.833176
20
27.998239
11
73.840354
21
29.314005
0
LINE
8
Layer 1
10
73.840354
20
29.314005
11
74.476251
21
30.844130
0
LINE
8
Layer 1
10
74.476251
20
30.844130
11
74.697790
21
32.514000
0
LINE
8
Layer 1
10
74.697790
20
32.514000
11
74.476248
21
34.183870
0
LINE
8
Layer 1
10
74.476248
20
34.183870
11
73.840350
21
35.713995
0
LINE
8
Layer 1
10
73.840350
20
35.713995
11
72.833171
21
37.029761
0
LINE
8
Layer 1
10
72.833171
20
37.029761
11
71.497790
21
38.056554
0
LINE
8
Layer 1
10
71.497790
20
38.056554
11
69.940870
21
38.699631
0
LINE
8
Layer 1
10
69.940870
20
38.699631
11
68.297795
21
38.913990
0
LINE
8
Layer 1
10
68.297795
20
38.913990
11
66.654720
21
38.699631
0
LINE
8
Layer 1
10
66.654720
20
38.699631
11
65.097800
21
38.056554
0
LINE
8
Layer 1
10
65.097800
20
38.056554
11
63.762419
21
37.029761
0
LINE
8
Layer 1
10
63.762419
20
37.029761
11
62.755241
21
35.713995
0
LINE
8
Layer 1
10
62.755241
20
35.713995
11
62.119344
21
34.183870
0
LINE
8
Layer 1
10
62.119344
20
34.183870
11
61.897805
21
32.514000
0
LINE
8
Layer 1
10
61.897805
20
32.514000
11
61.897800
21
32.514000
0
LINE
8
Layer 1
10
35.438100
20
12.247400
11
34.288227
21
12.361168
0
LINE
8
Layer 1
10
34.288227
20
12.361168
11
33.193026
21
12.693973
0
LINE
8
Layer 1
10
33.193026
20
12.693973
11
32.183274
21
13.233068
0
LINE
8
Layer 1
10
32.183274
20
13.233068
11
31.289745
21
13.965705
0
LINE
8
Layer 1
10
31.289745
20
13.965705
11
30.557108
21
14.859234
0
LINE
8
Layer 1
10
30.557108
20
14.859234
11
30.018013
21
15.868986
0
LINE
8
Layer 1
10
30.018013
20
15.868986
11
29.685208
21
16.964187
0
LINE
8
Layer 1
10
29.685208
20
16.964187
11
29.571440
21
18.114060
0
LINE
8
Layer 1
10
29.571440
20
18.114060
11
29.571400
21
73.540100
0
LINE
8
Layer 1
10
29.571400
20
73.540100
11
29.690590
21
74.722437
0
LINE
8
Layer 1
10
29.690590
20
74.722437
11
30.032431
21
75.823669
0
LINE
8
Layer 1
10
30.032431
20
75.823669
11
30.573333
21
76.820205
0
LINE
8
Layer 1
10
30.573333
20
76.820205
11
31.289705
21
77.688455
0
LINE
8
Layer 1
10
31.289705
20
77.688455
11
32.157955
21
78.404827
0
LINE
8
Layer 1
10
32.157955
20
78.404827
11
33.154491
21
78.945729
0
LINE
8
Layer 1
10
33.154491
20
78.945729
11
34.255723
21
79.287570
0
LINE
8
Layer 1
10
34.255723
20
79.287570
11
35.438060
21
79.406760
0
LINE
8
Layer 1
10
35.438060
20
79.406760
11
101.157000
21
79.406800
0
LINE
8
Layer 1
10
101.157000
20
79.406800
11
102.306873
21
79.293032
0
LINE
8
Layer 1
10
102.306873
20
79.293032
11
103.402074
21
78.960227
0
LINE
8
Layer 1
10
103.402074
20
78.960227
11
104.411826
21
78.421132
0
LINE
8
Layer 1
10
104.411826
20
78.421132
11
105.305355
21
77.688495
0
LINE
8
Layer 1
10
105.305355
20
77.688495
11
106.037992
21
76.794966
0
LINE
8
Layer 1
10
106.037992
20
76.794966
11
106.577087
21
75.785214
0
LINE
8
Layer 1
10
106.577087
20
75.785214
11
106.909892
21
74.690013
0
LINE
8
Layer 1
10
106.909892
20
74.690013
11
107.023660
21
73.540140
0
LINE
8
Layer 1
10
107.023660
20
73.540140
11
107.024000
21
18.114000
0
LINE
8
Layer 1
10
107.024000
20
18.114000
11
106.904810
21
16.931663
0
LINE
8
Layer 1
10
106.904810
20
16.931663
11
106.562969
21
15.830431
0
LINE
8
Layer 1
10
106.562969
20
15.830431
11
106.022067
21
14.833895
0
LINE
8
Layer 1
10
106.022067
20
14.833895
11
105.305695
21
13.965645
0
LINE
8
Layer 1
10
105.305695
20
13.965645
11
104.437445
21
13.249273
0
LINE
8
Layer 1
10
104.437445
20
13.249273
11
103.440909
21
12.708371
0
LINE
8
Layer 1
10
103.440909
20
12.708371
11
102.339677
21
12.366530
0
LINE
8
Layer 1
10
102.339677
20
12.366530
11
101.157340
21
12.247340
0
LINE
8
Layer 1
10
101.157340
20
12.247340
11
35.438100
21
12.247400
0
LINE
8
Layer 1
10
61.897800
20
32.514000
11
62.119344
21
30.844130
0
LINE
8
Layer 1
10
62.119344
20
30.844130
11
62.755245
21
29.314005
0
LINE
8
Layer 1
10
62.755245
20
29.314005
11
63.762424
21
27.998239
0
LINE
8
Layer 1
10
63.762424
20
27.998239
11
65.097805
21
26.971446
0
LINE
8
Layer 1
10
65.097805
20
26.971446
11
66.654725
21
26.328369
0
LINE
8
Layer 1
10
66.654725
20
26.328369
11
68.297800
21
26.114010
0
LINE
8
Layer 1
10
68.297800
20
26.114010
11
69.940875
21
26.328369
0
LINE
8
Layer 1
10
69.940875
20
26.328369
11
71.497795
21
26.971446
0
LINE
8
Layer 1
10
71.497795
20
26.971446
11
72.833176
21
27.998239
0
LINE
8
Layer 1
10
72.833176
20
27.998239
11
73.840354
21
29.314005
0
LINE
8
Layer 1
10
73.840354
20
29.314005
11
74.476251
21
30.844130
0
LINE
8
Layer 1
10
74.476251
20
30.844130
11
74.697790
21
32.514000
0
LINE
8
Layer 1
10
74.697790
20
32.514000
11
74.476248
21
34.183870
0
LINE
8
Layer 1
10
74.476248
20
34.183870
11
73.840350
21
35.713995
0
LINE
8
Layer 1
10
73.840350
20
35.713995
11
72.833171
21
37.029761
0
LINE
8
Layer 1
10
72.833171
20
37.029761
11
71.497790
21
38.056554
0
LINE
8
Layer 1
10
71.497790
20
38.056554
11
69.940870
21
38.699631
0
LINE
8
Layer 1
10
69.940870
20
38.699631
11
68.297795
21
38.913990
0
LINE
8
Layer 1
10
68.297795
20
38.913990
11
66.654720
21
38.699631
0
LINE
8
Layer 1
10
66.654720
20
38.699631
11
65.097800
21
38.056554
0
LINE
8
Layer 1
10
65.097800
20
38.056554
11
63.762419
21
37.029761
0
LINE
8
Layer 1
10
63.762419
20
37.029761
11
62.755241
21
35.713995
0
LINE
8
Layer 1
10
62.755241
20
35.713995
11
62.119344
21
34.183870
0
LINE
8
Layer 1
10
62.119344
20
34.183870
11
61.897805
21
32.514000
0
LINE
8
Layer 1
10
61.897805
20
32.514000
11
61.897800
21
32.514000
0
LINE
8
Layer 1
10
68.422100
20
66.949600
11
68.339807
21
66.943476
0
LINE
8
Layer 1
10
68.339807
20
66.943476
11
68.279313
21
66.933034
0
LINE
8
Layer 1
10
68.279313
20
66.933034
11
68.259162
21
66.925668
0
LINE
8
Layer 1
10
68.259162
20
66.925668
11
68.226757
21
66.920108
0
LINE
8
Layer 1
10
68.226757
20
66.920108
11
67.978726
21
66.857455
0
LINE
8
Layer 1
10
67.978726
20
66.857455
11
67.835941
21
66.835187
0
LINE
8
Layer 1
10
67.835941
20
66.835187
11
67.798400
21
66.816137
0
LINE
8
Layer 1
10
67.798400
20
66.816137
11
67.465429
21
66.690918
0
LINE
8
Layer 1
10
67.465429
20
66.690918
11
67.390349
21
66.662329
0
LINE
8
Layer 1
10
67.390349
20
66.662329
11
67.308305
21
66.620560
0
LINE
8
Layer 1
10
67.308305
20
66.620560
11
67.183004
21
66.599676
0
LINE
8
Layer 1
10
67.183004
20
66.599676
11
67.160877
21
66.620560
0
LINE
8
Layer 1
10
67.160877
20
66.620560
11
67.150351
21
66.601934
0
LINE
8
Layer 1
10
67.150351
20
66.601934
11
67.063003
21
66.570525
0
LINE
8
Layer 1
10
67.063003
20
66.570525
11
67.078666
21
66.549725
0
LINE
8
Layer 1
10
67.078666
20
66.549725
11
67.085637
21
66.516990
0
LINE
8
Layer 1
10
67.085637
20
66.516990
11
67.028208
21
66.490123
0
LINE
8
Layer 1
10
67.028208
20
66.490123
11
67.003852
21
66.490123
0
LINE
8
Layer 1
10
67.003852
20
66.490123
11
66.911698
21
66.474460
0
LINE
8
Layer 1
10
66.911698
20
66.474460
11
66.867942
21
66.432691
0
LINE
8
Layer 1
10
66.867942
20
66.432691
11
66.859504
21
66.453575
0
LINE
8
Layer 1
10
66.859504
20
66.453575
11
66.839861
21
66.474459
0
LINE
8
Layer 1
10
66.839861
20
66.474459
11
66.807293
21
66.443136
0
LINE
8
Layer 1
10
66.807293
20
66.443136
11
66.737765
21
66.411809
0
LINE
8
Layer 1
10
66.737765
20
66.411809
11
66.652491
21
66.396174
0
LINE
8
Layer 1
10
66.652491
20
66.396174
11
66.525533
21
66.372721
0
LINE
8
Layer 1
10
66.525533
20
66.372721
11
66.452440
21
66.349918
0
LINE
8
Layer 1
10
66.452440
20
66.349918
11
66.483767
21
66.341733
0
LINE
8
Layer 1
10
66.483767
20
66.341733
11
66.515091
21
66.331884
0
LINE
8
Layer 1
10
66.515091
20
66.331884
11
66.374214
21
66.318281
0
LINE
8
Layer 1
10
66.374214
20
66.318281
11
66.152452
21
66.305016
0
LINE
8
Layer 1
10
66.152452
20
66.305016
11
65.975025
21
66.306145
0
LINE
8
Layer 1
10
65.975025
20
66.306145
11
65.683820
21
66.336972
0
LINE
8
Layer 1
10
65.683820
20
66.336972
11
65.481780
21
66.352720
0
LINE
8
Layer 1
10
65.481780
20
66.352720
11
64.187590
21
66.265706
0
LINE
8
Layer 1
10
64.187590
20
66.265706
11
64.041489
21
66.232971
0
LINE
8
Layer 1
10
64.041489
20
66.232971
11
63.924229
21
66.201729
0
LINE
8
Layer 1
10
63.924229
20
66.201729
11
63.877242
21
66.196846
0
LINE
8
Layer 1
10
63.877242
20
66.196846
11
63.864062
21
66.187646
0
LINE
8
Layer 1
10
63.864062
20
66.187646
11
63.743985
21
66.128060
0
LINE
8
Layer 1
10
63.743985
20
66.128060
11
63.613545
21
66.077097
0
LINE
8
Layer 1
10
63.613545
20
66.077097
11
63.579901
21
66.054886
0
LINE
8
Layer 1
10
63.579901
20
66.054886
11
63.212787
21
65.660340
0
LINE
8
Layer 1
10
63.212787
20
65.660340
11
63.263172
21
65.684216
0
LINE
8
Layer 1
10
63.263172
20
65.684216
11
63.895389
21
65.536707
0
LINE
8
Layer 1
10
63.895389
20
65.536707
11
64.187590
21
65.441409
0
LINE
8
Layer 1
10
64.187590
20
65.441409
11
64.479873
21
65.347183
0
LINE
8
Layer 1
10
64.479873
20
65.347183
11
64.625974
21
65.303346
0
LINE
8
Layer 1
10
64.625974
20
65.303346
11
64.782514
21
65.249399
0
LINE
8
Layer 1
10
64.782514
20
65.249399
11
64.886851
21
65.222052
0
LINE
8
Layer 1
10
64.886851
20
65.222052
11
64.999305
21
65.190313
0
LINE
8
Layer 1
10
64.999305
20
65.190313
11
65.169437
21
65.127000
0
LINE
8
Layer 1
10
65.169437
20
65.127000
11
65.334681
21
65.043716
0
LINE
8
Layer 1
10
65.334681
20
65.043716
11
65.438931
21
64.992419
0
LINE
8
Layer 1
10
65.438931
20
64.992419
11
65.499677
21
64.961426
0
LINE
8
Layer 1
10
65.499677
20
64.961426
11
65.539704
21
64.941275
0
LINE
8
Layer 1
10
65.539704
20
64.941275
11
65.606413
21
64.909618
0
LINE
8
Layer 1
10
65.606413
20
64.909618
11
65.688540
21
64.866274
0
LINE
8
Layer 1
10
65.688540
20
64.866274
11
65.804556
21
64.803709
0
LINE
8
Layer 1
10
65.804556
20
64.803709
11
65.923064
21
64.741888
0
LINE
8
Layer 1
10
65.923064
20
64.741888
11
66.002698
21
64.708574
0
LINE
8
Layer 1
10
66.002698
20
64.708574
11
66.068168
21
64.687521
0
LINE
8
Layer 1
10
66.068168
20
64.687521
11
66.086061
21
64.655119
0
LINE
8
Layer 1
10
66.086061
20
64.655119
11
66.106381
21
64.623546
0
LINE
8
Layer 1
10
66.106381
20
64.623546
11
66.152293
21
64.607206
0
LINE
8
Layer 1
10
66.152293
20
64.607206
11
66.190579
21
64.587789
0
LINE
8
Layer 1
10
66.190579
20
64.587789
11
66.221737
21
64.466634
0
LINE
8
Layer 1
10
66.221737
20
64.466634
11
66.243693
21
64.418320
0
LINE
8
Layer 1
10
66.243693
20
64.418320
11
66.285459
21
64.383765
0
LINE
8
Layer 1
10
66.285459
20
64.383765
11
66.374215
21
64.291859
0
LINE
8
Layer 1
10
66.374215
20
64.291859
11
66.455924
21
64.253655
0
LINE
8
Layer 1
10
66.455924
20
64.253655
11
66.473479
21
64.219927
0
LINE
8
Layer 1
10
66.473479
20
64.219927
11
66.501334
21
64.119738
0
LINE
8
Layer 1
10
66.501334
20
64.119738
11
66.524476
21
64.054271
0
LINE
8
Layer 1
10
66.524476
20
64.054271
11
66.567151
21
64.010681
0
LINE
8
Layer 1
10
66.567151
20
64.010681
11
66.580500
21
63.953249
0
LINE
8
Layer 1
10
66.580500
20
63.953249
11
66.601864
21
63.893999
0
LINE
8
Layer 1
10
66.601864
20
63.893999
11
66.630953
21
63.815437
0
LINE
8
Layer 1
10
66.630953
20
63.815437
11
66.656212
21
63.751130
0
LINE
8
Layer 1
10
66.656212
20
63.751130
11
66.674443
21
63.689476
0
LINE
8
Layer 1
10
66.674443
20
63.689476
11
66.681809
21
63.624503
0
LINE
8
Layer 1
10
66.681809
20
63.624503
11
66.713384
21
63.572876
0
LINE
8
Layer 1
10
66.713384
20
63.572876
11
66.765511
21
63.508321
0
LINE
8
Layer 1
10
66.765511
20
63.508321
11
66.804787
21
63.436470
0
LINE
8
Layer 1
10
66.804787
20
63.436470
11
66.858322
21
63.354182
0
LINE
8
Layer 1
10
66.858322
20
63.354182
11
66.932987
21
63.193330
0
LINE
8
Layer 1
10
66.932987
20
63.193330
11
67.006331
21
63.068444
0
LINE
8
Layer 1
10
67.006331
20
63.068444
11
67.038484
21
62.997838
0
LINE
8
Layer 1
10
67.038484
20
62.997838
11
67.057816
21
62.934775
0
LINE
8
Layer 1
10
67.057816
20
62.934775
11
67.096930
21
62.850081
0
LINE
8
Layer 1
10
67.096930
20
62.850081
11
67.126845
21
62.781052
0
LINE
8
Layer 1
10
67.126845
20
62.781052
11
67.150298
21
62.718235
0
LINE
8
Layer 1
10
67.150298
20
62.718235
11
67.183033
21
62.664700
0
LINE
8
Layer 1
10
67.183033
20
62.664700
11
67.213281
21
62.580008
0
LINE
8
Layer 1
10
67.213281
20
62.580008
11
67.230920
21
62.501364
0
LINE
8
Layer 1
10
67.230920
20
62.501364
11
67.242435
21
62.495889
0
LINE
8
Layer 1
10
67.242435
20
62.495889
11
67.266565
21
62.479323
0
LINE
8
Layer 1
10
67.266565
20
62.479323
11
67.295239
21
62.431091
0
LINE
8
Layer 1
10
67.295239
20
62.431091
11
67.370152
21
61.976050
0
LINE
8
Layer 1
10
67.370152
20
61.976050
11
67.410512
21
61.772520
0
LINE
8
Layer 1
10
67.410512
20
61.772520
11
67.437041
21
61.798597
0
LINE
8
Layer 1
10
67.437041
20
61.798597
11
67.448810
21
61.785982
0
LINE
8
Layer 1
10
67.448810
20
61.785982
11
67.454934
21
61.724079
0
LINE
8
Layer 1
10
67.454934
20
61.724079
11
67.453523
21
61.662422
0
LINE
8
Layer 1
10
67.453523
20
61.662422
11
67.456994
21
61.548060
0
LINE
8
Layer 1
10
67.456994
20
61.548060
11
67.350503
21
60.807529
0
LINE
8
Layer 1
10
67.350503
20
60.807529
11
67.317353
21
60.702700
0
LINE
8
Layer 1
10
67.317353
20
60.702700
11
67.199596
21
60.431298
0
LINE
8
Layer 1
10
67.199596
20
60.431298
11
66.848972
21
59.898940
0
LINE
8
Layer 1
10
66.848972
20
59.898940
11
66.758063
21
59.750020
0
LINE
8
Layer 1
10
66.758063
20
59.750020
11
66.684555
21
59.640634
0
LINE
8
Layer 1
10
66.684555
20
59.640634
11
66.339900
21
59.141174
0
LINE
8
Layer 1
10
66.339900
20
59.141174
11
66.254461
21
59.023166
0
LINE
8
Layer 1
10
66.254461
20
59.023166
11
66.197113
21
58.935573
0
LINE
8
Layer 1
10
66.197113
20
58.935573
11
66.115983
21
58.824028
0
LINE
8
Layer 1
10
66.115983
20
58.824028
11
65.502331
21
58.157253
0
LINE
8
Layer 1
10
65.502331
20
58.157253
11
65.074386
21
57.707846
0
LINE
8
Layer 1
10
65.074386
20
57.707846
11
64.949418
21
57.559592
0
LINE
8
Layer 1
10
64.949418
20
57.559592
11
64.726082
21
57.278332
0
LINE
8
Layer 1
10
64.726082
20
57.278332
11
64.592580
21
57.122783
0
LINE
8
Layer 1
10
64.592580
20
57.122783
11
64.549072
21
57.095916
0
LINE
8
Layer 1
10
64.549072
20
57.095916
11
64.253721
21
56.905478
0
LINE
8
Layer 1
10
64.253721
20
56.905478
11
63.379355
21
56.026969
0
LINE
8
Layer 1
10
63.379355
20
56.026969
11
63.306514
21
55.932913
0
LINE
8
Layer 1
10
63.306514
20
55.932913
11
62.992353
21
55.481682
0
LINE
8
Layer 1
10
62.992353
20
55.481682
11
62.942216
21
55.411075
0
LINE
8
Layer 1
10
62.942216
20
55.411075
11
62.891662
21
55.345193
0
LINE
8
Layer 1
10
62.891662
20
55.345193
11
62.838627
21
55.256440
0
LINE
8
Layer 1
10
62.838627
20
55.256440
11
62.685567
21
54.993576
0
LINE
8
Layer 1
10
62.685567
20
54.993576
11
62.619685
21
54.868360
0
LINE
8
Layer 1
10
62.619685
20
54.868360
11
62.578497
21
54.774383
0
LINE
8
Layer 1
10
62.578497
20
54.774383
11
62.514438
21
54.634167
0
LINE
8
Layer 1
10
62.514438
20
54.634167
11
62.405960
21
54.435858
0
LINE
8
Layer 1
10
62.405960
20
54.435858
11
62.256961
21
54.148130
0
LINE
8
Layer 1
10
62.256961
20
54.148130
11
62.113595
21
53.876816
0
LINE
8
Layer 1
10
62.113595
20
53.876816
11
62.035530
21
53.757233
0
LINE
8
Layer 1
10
62.035530
20
53.757233
11
61.983985
21
53.673783
0
LINE
8
Layer 1
10
61.983985
20
53.673783
11
61.944042
21
53.594972
0
LINE
8
Layer 1
10
61.944042
20
53.594972
11
61.750457
21
53.310063
0
LINE
8
Layer 1
10
61.750457
20
53.310063
11
61.645374
21
53.135373
0
LINE
8
Layer 1
10
61.645374
20
53.135373
11
61.400823
21
52.740082
0
LINE
8
Layer 1
10
61.400823
20
52.740082
11
61.385188
21
52.718125
0
LINE
8
Layer 1
10
61.385188
20
52.718125
11
61.296435
21
52.602688
0
LINE
8
Layer 1
10
61.296435
20
52.602688
11
61.176440
21
52.413992
0
LINE
8
Layer 1
10
61.176440
20
52.413992
11
61.129035
21
52.315545
0
LINE
8
Layer 1
10
61.129035
20
52.315545
11
61.087766
21
52.238225
0
LINE
8
Layer 1
10
61.087766
20
52.238225
11
61.046415
21
52.147482
0
LINE
8
Layer 1
10
61.046415
20
52.147482
11
61.006802
21
52.053507
0
LINE
8
Layer 1
10
61.006802
20
52.053507
11
60.953019
21
51.930526
0
LINE
8
Layer 1
10
60.953019
20
51.930526
11
60.920781
21
51.852049
0
LINE
8
Layer 1
10
60.920781
20
51.852049
11
60.680791
21
51.361457
0
LINE
8
Layer 1
10
60.680791
20
51.361457
11
60.636123
21
51.268143
0
LINE
8
Layer 1
10
60.636123
20
51.268143
11
60.607958
21
51.184614
0
LINE
8
Layer 1
10
60.607958
20
51.184614
11
60.419922
21
50.578664
0
LINE
8
Layer 1
10
60.419922
20
50.578664
11
60.231892
21
49.979264
0
LINE
8
Layer 1
10
60.231892
20
49.979264
11
60.203630
21
49.883630
0
LINE
8
Layer 1
10
60.203630
20
49.883630
11
60.149931
21
49.723108
0
LINE
8
Layer 1
10
60.149931
20
49.723108
11
60.107999
21
49.597892
0
LINE
8
Layer 1
10
60.107999
20
49.597892
11
60.076921
21
49.515684
0
LINE
8
Layer 1
10
60.076921
20
49.515684
11
59.992728
21
49.348699
0
LINE
8
Layer 1
10
59.992728
20
49.348699
11
59.909275
21
49.176329
0
LINE
8
Layer 1
10
59.909275
20
49.176329
11
59.866183
21
49.085834
0
LINE
8
Layer 1
10
59.866183
20
49.085834
11
59.731272
21
48.842443
0
LINE
8
Layer 1
10
59.731272
20
48.842443
11
59.928503
21
49.080946
0
LINE
8
Layer 1
10
59.928503
20
49.080946
11
60.014854
21
49.154039
0
LINE
8
Layer 1
10
60.014854
20
49.154039
11
59.951538
21
48.658305
0
LINE
8
Layer 1
10
59.951538
20
48.658305
11
59.913833
21
48.324256
0
LINE
8
Layer 1
10
59.913833
20
48.324256
11
59.868090
21
48.063381
0
LINE
8
Layer 1
10
59.868090
20
48.063381
11
59.837178
21
47.875681
0
LINE
8
Layer 1
10
59.837178
20
47.875681
11
59.826906
21
47.767864
0
LINE
8
Layer 1
10
59.826906
20
47.767864
11
59.813810
21
47.696513
0
LINE
8
Layer 1
10
59.813810
20
47.696513
11
59.742707
21
47.280586
0
LINE
8
Layer 1
10
59.742707
20
47.280586
11
59.709642
21
47.009182
0
LINE
8
Layer 1
10
59.709642
20
47.009182
11
59.667792
21
46.716981
0
LINE
8
Layer 1
10
59.667792
20
46.716981
11
59.628512
21
46.383677
0
LINE
8
Layer 1
10
59.628512
20
46.383677
11
59.565280
21
46.007280
0
LINE
8
Layer 1
10
59.565280
20
46.007280
11
59.501140
21
45.813196
0
LINE
8
Layer 1
10
59.501140
20
45.813196
11
59.468238
21
45.714996
0
LINE
8
Layer 1
10
59.468238
20
45.714996
11
59.451171
21
45.478307
0
LINE
8
Layer 1
10
59.451171
20
45.478307
11
59.626356
21
45.440445
0
LINE
8
Layer 1
10
59.626356
20
45.440445
11
59.709973
21
45.282991
0
LINE
8
Layer 1
10
59.709973
20
45.282991
11
59.741712
21
44.917370
0
LINE
8
Layer 1
10
59.741712
20
44.917370
11
59.553845
21
44.813614
0
LINE
8
Layer 1
10
59.553845
20
44.813614
11
59.407289
21
44.773087
0
LINE
8
Layer 1
10
59.407289
20
44.773087
11
59.465091
21
44.684585
0
LINE
8
Layer 1
10
59.465091
20
44.684585
11
59.376254
21
44.410367
0
LINE
8
Layer 1
10
59.376254
20
44.410367
11
59.260732
21
44.264266
0
LINE
8
Layer 1
10
59.260732
20
44.264266
11
59.102369
21
44.062892
0
LINE
8
Layer 1
10
59.102369
20
44.062892
11
58.925605
21
43.710860
0
LINE
8
Layer 1
10
58.925605
20
43.710860
11
58.866600
21
43.546528
0
LINE
8
Layer 1
10
58.866600
20
43.546528
11
58.812487
21
43.403743
0
LINE
8
Layer 1
10
58.812487
20
43.403743
11
58.405427
21
42.977622
0
LINE
8
Layer 1
10
58.405427
20
42.977622
11
57.998370
21
42.551752
0
LINE
8
Layer 1
10
57.998370
20
42.551752
11
57.981042
21
42.531686
0
LINE
8
Layer 1
10
57.981042
20
42.531686
11
57.692820
21
42.257550
0
LINE
8
Layer 1
10
57.692820
20
42.257550
11
57.432939
21
42.009852
0
LINE
8
Layer 1
10
57.432939
20
42.009852
11
57.151180
21
41.748893
0
LINE
8
Layer 1
10
57.151180
20
41.748893
11
56.725640
21
41.341833
0
LINE
8
Layer 1
10
56.725640
20
41.341833
11
55.952707
21
40.565257
0
LINE
8
Layer 1
10
55.952707
20
40.565257
11
55.927843
21
40.548663
0
LINE
8
Layer 1
10
55.927843
20
40.548663
11
55.724316
21
40.362617
0
LINE
8
Layer 1
10
55.724316
20
40.362617
11
55.368220
21
40.025503
0
LINE
8
Layer 1
10
55.368220
20
40.025503
11
54.936922
21
39.589282
0
LINE
8
Layer 1
10
54.936922
20
39.589282
11
54.821610
21
39.224227
0
LINE
8
Layer 1
10
54.821610
20
39.224227
11
54.874780
21
38.980994
0
LINE
8
Layer 1
10
54.874780
20
38.980994
11
55.081903
21
38.920923
0
LINE
8
Layer 1
10
55.081903
20
38.920923
11
55.333083
21
38.903199
0
LINE
8
Layer 1
10
55.333083
20
38.903199
11
55.482997
21
38.858284
0
LINE
8
Layer 1
10
55.482997
20
38.858284
11
55.704925
21
38.799861
0
LINE
8
Layer 1
10
55.704925
20
38.799861
11
55.831716
21
38.796531
0
LINE
8
Layer 1
10
55.831716
20
38.796531
11
56.641524
21
38.800764
0
LINE
8
Layer 1
10
56.641524
20
38.800764
11
56.850275
21
38.800846
0
LINE
8
Layer 1
10
56.850275
20
38.800846
11
57.027700
21
38.837306
0
LINE
8
Layer 1
10
57.027700
20
38.837306
11
57.278217
21
38.888606
0
LINE
8
Layer 1
10
57.278217
20
38.888606
11
57.497408
21
38.941308
0
LINE
8
Layer 1
10
57.497408
20
38.941308
11
57.768728
21
39.027162
0
LINE
8
Layer 1
10
57.768728
20
39.027162
11
57.884083
21
39.002299
0
LINE
8
Layer 1
10
57.884083
20
39.002299
11
58.019744
21
38.971223
0
LINE
8
Layer 1
10
58.019744
20
38.971223
11
58.157971
21
38.937743
0
LINE
8
Layer 1
10
58.157971
20
38.937743
11
58.297688
21
38.915561
0
LINE
8
Layer 1
10
58.297688
20
38.915561
11
58.446605
21
38.721641
0
LINE
8
Layer 1
10
58.446605
20
38.721641
11
58.633148
21
38.482147
0
LINE
8
Layer 1
10
58.633148
20
38.482147
11
58.698866
21
38.451153
0
LINE
8
Layer 1
10
58.698866
20
38.451153
11
58.927254
21
38.367618
0
LINE
8
Layer 1
10
58.927254
20
38.367618
11
58.970265
21
38.352378
0
LINE
8
Layer 1
10
58.970265
20
38.352378
11
59.122498
21
38.333836
0
LINE
8
Layer 1
10
59.122498
20
38.333836
11
59.264453
21
38.309960
0
LINE
8
Layer 1
10
59.264453
20
38.309960
11
59.331331
21
38.305416
0
LINE
8
Layer 1
10
59.331331
20
38.305416
11
59.643254
21
38.316931
0
LINE
8
Layer 1
10
59.643254
20
38.316931
11
59.925098
21
38.329941
0
LINE
8
Layer 1
10
59.925098
20
38.329941
11
59.960565
21
38.347665
0
LINE
8
Layer 1
10
59.960565
20
38.347665
11
60.075342
21
38.366292
0
LINE
8
Layer 1
10
60.075342
20
38.366292
11
60.221443
21
38.390732
0
LINE
8
Layer 1
10
60.221443
20
38.390732
11
60.336299
21
38.410798
0
LINE
8
Layer 1
10
60.336299
20
38.410798
11
60.529471
21
38.463006
0
LINE
8
Layer 1
10
60.529471
20
38.463006
11
60.679466
21
38.502949
0
LINE
8
Layer 1
10
60.679466
20
38.502949
11
60.825649
21
38.566760
0
LINE
8
Layer 1
10
60.825649
20
38.566760
11
60.960148
21
38.619216
0
LINE
8
Layer 1
10
60.960148
20
38.619216
11
61.027853
21
38.645491
0
LINE
8
Layer 1
10
61.027853
20
38.645491
11
61.156967
21
38.719907
0
LINE
8
Layer 1
10
61.156967
20
38.719907
11
62.262207
21
39.594603
0
LINE
8
Layer 1
10
62.262207
20
39.594603
11
62.787606
21
40.099862
0
LINE
8
Layer 1
10
62.787606
20
40.099862
11
63.130356
21
40.437309
0
LINE
8
Layer 1
10
63.130356
20
40.437309
11
63.266099
21
40.590375
0
LINE
8
Layer 1
10
63.266099
20
40.590375
11
63.385597
21
40.728684
0
LINE
8
Layer 1
10
63.385597
20
40.728684
11
63.484462
21
40.818019
0
LINE
8
Layer 1
10
63.484462
20
40.818019
11
63.526476
21
40.857135
0
LINE
8
Layer 1
10
63.526476
20
40.857135
11
63.581586
21
40.945225
0
LINE
8
Layer 1
10
63.581586
20
40.945225
11
63.662883
21
40.988566
0
LINE
8
Layer 1
10
63.662883
20
40.988566
11
63.717908
21
40.997597
0
LINE
8
Layer 1
10
63.717908
20
40.997597
11
63.759592
21
40.976543
0
LINE
8
Layer 1
10
63.759592
20
40.976543
11
63.801358
21
40.958820
0
LINE
8
Layer 1
10
63.801358
20
40.958820
11
63.910996
21
40.931952
0
LINE
8
Layer 1
10
63.910996
20
40.931952
11
64.014004
21
40.982422
0
LINE
8
Layer 1
10
64.014004
20
40.982422
11
64.071267
21
40.971331
0
LINE
8
Layer 1
10
64.071267
20
40.971331
11
64.059837
21
41.049644
0
LINE
8
Layer 1
10
64.059837
20
41.049644
11
64.132596
21
41.018321
0
LINE
8
Layer 1
10
64.132596
20
41.018321
11
64.229927
21
40.949901
0
LINE
8
Layer 1
10
64.229927
20
40.949901
11
64.281513
21
41.044765
0
LINE
8
Layer 1
10
64.281513
20
41.044765
11
64.301974
21
41.132443
0
LINE
8
Layer 1
10
64.301974
20
41.132443
11
64.288061
21
41.183906
0
LINE
8
Layer 1
10
64.288061
20
41.183906
11
64.277139
21
41.220617
0
LINE
8
Layer 1
10
64.277139
20
41.220617
11
64.329514
21
41.219771
0
LINE
8
Layer 1
10
64.329514
20
41.219771
11
64.375423
21
41.211219
0
LINE
8
Layer 1
10
64.375423
20
41.211219
11
64.379797
21
41.191238
0
LINE
8
Layer 1
10
64.379797
20
41.191238
11
64.407822
21
41.142843
0
LINE
8
Layer 1
10
64.407822
20
41.142843
11
64.448510
21
41.113839
0
LINE
8
Layer 1
10
64.448510
20
41.113839
11
64.501878
21
41.073396
0
LINE
8
Layer 1
10
64.501878
20
41.073396
11
64.542402
21
41.028317
0
LINE
8
Layer 1
10
64.542402
20
41.028317
11
64.562638
21
41.007517
0
LINE
8
Layer 1
10
64.562638
20
41.007517
11
64.608216
21
40.944867
0
LINE
8
Layer 1
10
64.608216
20
40.944867
11
64.662414
21
40.882301
0
LINE
8
Layer 1
10
64.662414
20
40.882301
11
64.679658
21
40.852797
0
LINE
8
Layer 1
10
64.679658
20
40.852797
11
64.678529
21
40.808960
0
LINE
8
Layer 1
10
64.678529
20
40.808960
11
64.689621
21
40.762720
0
LINE
8
Layer 1
10
64.689621
20
40.762720
11
64.696817
21
40.707444
0
LINE
8
Layer 1
10
64.696817
20
40.707444
11
64.711069
21
40.180722
0
LINE
8
Layer 1
10
64.711069
20
40.180722
11
64.678165
21
40.127351
0
LINE
8
Layer 1
10
64.678165
20
40.127351
11
64.698965
21
40.099496
0
LINE
8
Layer 1
10
64.698965
20
40.099496
11
64.719849
21
40.090296
0
LINE
8
Layer 1
10
64.719849
20
40.090296
11
64.703198
21
40.068169
0
LINE
8
Layer 1
10
64.703198
20
40.068169
11
64.687535
21
39.786407
0
LINE
8
Layer 1
10
64.687535
20
39.786407
11
64.709407
21
39.504233
0
LINE
8
Layer 1
10
64.709407
20
39.504233
11
64.704779
21
39.487723
0
LINE
8
Layer 1
10
64.704779
20
39.487723
11
64.665832
21
39.315768
0
LINE
8
Layer 1
10
64.665832
20
39.315768
11
64.623566
21
39.099561
0
LINE
8
Layer 1
10
64.623566
20
39.099561
11
64.594647
21
38.989675
0
LINE
8
Layer 1
10
64.594647
20
38.989675
11
64.521967
21
38.832384
0
LINE
8
Layer 1
10
64.521967
20
38.832384
11
64.489234
21
38.654959
0
LINE
8
Layer 1
10
64.489234
20
38.654959
11
64.380180
21
38.309783
0
LINE
8
Layer 1
10
64.380180
20
38.309783
11
64.166454
21
38.168592
0
LINE
8
Layer 1
10
64.166454
20
38.168592
11
64.114579
21
38.137269
0
LINE
8
Layer 1
10
64.114579
20
38.137269
11
64.093695
21
38.106027
0
LINE
8
Layer 1
10
64.093695
20
38.106027
11
64.072810
21
38.079328
0
LINE
8
Layer 1
10
64.072810
20
38.079328
11
63.939638
21
37.967704
0
LINE
8
Layer 1
10
63.939638
20
37.967704
11
63.928293
21
37.958504
0
LINE
8
Layer 1
10
63.928293
20
37.958504
11
63.854041
21
37.891214
0
LINE
8
Layer 1
10
63.854041
20
37.891214
11
63.716726
21
37.798645
0
LINE
8
Layer 1
10
63.716726
20
37.798645
11
63.585792
21
37.705004
0
LINE
8
Layer 1
10
63.585792
20
37.705004
11
63.566544
21
37.668456
0
LINE
8
Layer 1
10
63.566544
20
37.668456
11
63.563722
21
37.625863
0
LINE
8
Layer 1
10
63.563722
20
37.625863
11
63.496516
21
37.531059
0
LINE
8
Layer 1
10
63.496516
20
37.531059
11
63.435441
21
37.321399
0
LINE
8
Layer 1
10
63.435441
20
37.321399
11
63.422910
21
37.254354
0
LINE
8
Layer 1
10
63.422910
20
37.254354
11
63.419185
21
37.200823
0
LINE
8
Layer 1
10
63.419185
20
37.200823
11
63.400727
21
37.163530
0
LINE
8
Layer 1
10
63.400727
20
37.163530
11
63.336417
21
36.895360
0
LINE
8
Layer 1
10
63.336417
20
36.895360
11
63.292247
21
36.823594
0
LINE
8
Layer 1
10
63.292247
20
36.823594
11
63.280817
21
36.781331
0
LINE
8
Layer 1
10
63.280817
20
36.781331
11
63.258183
21
36.794934
0
LINE
8
Layer 1
10
63.258183
20
36.794934
11
63.237637
21
36.790955
0
LINE
8
Layer 1
10
63.237637
20
36.790955
11
63.217401
21
36.811754
0
LINE
8
Layer 1
10
63.217401
20
36.811754
11
63.268283
21
36.914929
0
LINE
8
Layer 1
10
63.268283
20
36.914929
11
63.323308
21
36.938636
0
LINE
8
Layer 1
10
63.323308
20
36.938636
11
63.334907
21
37.092032
0
LINE
8
Layer 1
10
63.334907
20
37.092032
11
63.280128
21
37.113481
0
LINE
8
Layer 1
10
63.280128
20
37.113481
11
63.185409
21
37.104026
0
LINE
8
Layer 1
10
63.185409
20
37.104026
11
63.151514
21
37.062260
0
LINE
8
Layer 1
10
63.151514
20
37.062260
11
63.142709
21
37.043013
0
LINE
8
Layer 1
10
63.142709
20
37.043013
11
63.039286
21
36.874374
0
LINE
8
Layer 1
10
63.039286
20
36.874374
11
62.990227
21
36.811721
0
LINE
8
Layer 1
10
62.990227
20
36.811721
11
62.930808
21
36.749488
0
LINE
8
Layer 1
10
62.930808
20
36.749488
11
62.917289
21
36.765151
0
LINE
8
Layer 1
10
62.917289
20
36.765151
11
62.962786
21
36.895258
0
LINE
8
Layer 1
10
62.962786
20
36.895258
11
63.037866
21
37.110308
0
LINE
8
Layer 1
10
63.037866
20
37.110308
11
63.086614
21
37.215313
0
LINE
8
Layer 1
10
63.086614
20
37.215313
11
63.020622
21
37.183147
0
LINE
8
Layer 1
10
63.020622
20
37.183147
11
62.940818
21
37.028264
0
LINE
8
Layer 1
10
62.940818
20
37.028264
11
62.752288
21
36.745345
0
LINE
8
Layer 1
10
62.752288
20
36.745345
11
62.694859
21
36.706065
0
LINE
8
Layer 1
10
62.694859
20
36.706065
11
62.632211
21
36.623857
0
LINE
8
Layer 1
10
62.632211
20
36.623857
11
62.582085
21
36.538593
0
LINE
8
Layer 1
10
62.582085
20
36.538593
11
62.741849
21
36.491681
0
LINE
8
Layer 1
10
62.741849
20
36.491681
11
63.096946
21
36.493374
0
LINE
8
Layer 1
10
63.096946
20
36.493374
11
63.114416
21
36.540364
0
LINE
8
Layer 1
10
63.114416
20
36.540364
11
63.171597
21
36.581964
0
LINE
8
Layer 1
10
63.171597
20
36.581964
11
63.248006
21
36.629532
0
LINE
8
Layer 1
10
63.248006
20
36.629532
11
63.317697
21
36.652900
0
LINE
8
Layer 1
10
63.317697
20
36.652900
11
63.367171
21
36.648695
0
LINE
8
Layer 1
10
63.367171
20
36.648695
11
63.418386
21
36.638507
0
LINE
8
Layer 1
10
63.418386
20
36.638507
11
63.409185
21
36.564917
0
LINE
8
Layer 1
10
63.409185
20
36.564917
11
63.351841
21
36.561756
0
LINE
8
Layer 1
10
63.351841
20
36.561756
11
63.321095
21
36.541690
0
LINE
8
Layer 1
10
63.321095
20
36.541690
11
63.303767
21
36.506802
0
LINE
8
Layer 1
10
63.303767
20
36.506802
11
63.290333
21
36.471584
0
LINE
8
Layer 1
10
63.290333
20
36.471584
11
63.339643
21
36.430645
0
LINE
8
Layer 1
10
63.339643
20
36.430645
11
63.396573
21
36.405865
0
LINE
8
Layer 1
10
63.396573
20
36.405865
11
63.440992
21
36.388622
0
LINE
8
Layer 1
10
63.440992
20
36.388622
11
63.456740
21
36.373382
0
LINE
8
Layer 1
10
63.456740
20
36.373382
11
63.476890
21
36.359694
0
LINE
8
Layer 1
10
63.476890
20
36.359694
11
63.543105
21
36.350070
0
LINE
8
Layer 1
10
63.543105
20
36.350070
11
63.655229
21
36.337285
0
LINE
8
Layer 1
10
63.655229
20
36.337285
11
63.738595
21
36.321650
0
LINE
8
Layer 1
10
63.738595
20
36.321650
11
64.302198
21
36.256265
0
LINE
8
Layer 1
10
64.302198
20
36.256265
11
64.813590
21
36.217731
0
LINE
8
Layer 1
10
64.813590
20
36.217731
11
66.232990
21
36.157318
0
LINE
8
Layer 1
10
66.232990
20
36.157318
11
66.497511
21
36.200577
0
LINE
8
Layer 1
10
66.497511
20
36.200577
11
66.860734
21
36.215309
0
LINE
8
Layer 1
10
66.860734
20
36.215309
11
67.141000
21
36.269671
0
LINE
8
Layer 1
10
67.141000
20
36.269671
11
67.078268
21
36.317984
0
LINE
8
Layer 1
10
67.078268
20
36.317984
11
67.015535
21
36.305369
0
LINE
8
Layer 1
10
67.015535
20
36.305369
11
67.026881
21
36.395779
0
LINE
8
Layer 1
10
67.026881
20
36.395779
11
67.137679
21
36.463732
0
LINE
8
Layer 1
10
67.137679
20
36.463732
11
67.213006
21
36.390891
0
LINE
8
Layer 1
10
67.213006
20
36.390891
11
67.220711
21
36.352438
0
LINE
8
Layer 1
10
67.220711
20
36.352438
11
67.253694
21
36.399425
0
LINE
8
Layer 1
10
67.253694
20
36.399425
11
67.288746
21
36.409388
0
LINE
8
Layer 1
10
67.288746
20
36.409388
11
67.294645
21
36.325937
0
LINE
8
Layer 1
10
67.294645
20
36.325937
11
67.293516
21
36.211739
0
LINE
8
Layer 1
10
67.293516
20
36.211739
11
67.338680
21
36.233104
0
LINE
8
Layer 1
10
67.338680
20
36.233104
11
67.443015
21
36.352772
0
LINE
8
Layer 1
10
67.443015
20
36.352772
11
67.585270
21
36.477212
0
LINE
8
Layer 1
10
67.585270
20
36.477212
11
67.521241
21
36.529618
0
LINE
8
Layer 1
10
67.521241
20
36.529618
11
67.479145
21
36.639419
0
LINE
8
Layer 1
10
67.479145
20
36.639419
11
67.511547
21
36.749057
0
LINE
8
Layer 1
10
67.511547
20
36.749057
11
67.600300
21
36.838473
0
LINE
8
Layer 1
10
67.600300
20
36.838473
11
67.626406
21
36.868637
0
LINE
8
Layer 1
10
67.626406
20
36.868637
11
67.645879
21
36.823227
0
LINE
8
Layer 1
10
67.645879
20
36.823227
11
67.677206
21
36.759002
0
LINE
8
Layer 1
10
67.677206
20
36.759002
11
67.678617
21
36.716985
0
LINE
8
Layer 1
10
67.678617
20
36.716985
11
67.642072
21
36.672484
0
LINE
8
Layer 1
10
67.642072
20
36.672484
11
67.621187
21
36.655071
0
LINE
8
Layer 1
10
67.621187
20
36.655071
11
67.600303
21
36.645871
0
LINE
8
Layer 1
10
67.600303
20
36.645871
11
67.631627
21
36.623744
0
LINE
8
Layer 1
10
67.631627
20
36.623744
11
67.662951
21
36.580404
0
LINE
8
Layer 1
10
67.662951
20
36.580404
11
67.816011
21
36.399582
0
LINE
8
Layer 1
10
67.816011
20
36.399582
11
67.913386
21
36.414822
0
LINE
8
Layer 1
10
67.913386
20
36.414822
11
67.868222
21
36.442846
0
LINE
8
Layer 1
10
67.868222
20
36.442846
11
67.846857
21
36.483370
0
LINE
8
Layer 1
10
67.846857
20
36.483370
11
67.846773
21
36.535909
0
LINE
8
Layer 1
10
67.846773
20
36.535909
11
67.846609
21
36.638754
0
LINE
8
Layer 1
10
67.846609
20
36.638754
11
67.873053
21
36.738610
0
LINE
8
Layer 1
10
67.873053
20
36.738610
11
67.895321
21
36.796039
0
LINE
8
Layer 1
10
67.895321
20
36.796039
11
67.873110
21
36.832505
0
LINE
8
Layer 1
10
67.873110
20
36.832505
11
67.788169
21
36.935510
0
LINE
8
Layer 1
10
67.788169
20
36.935510
11
67.925069
21
36.927156
0
LINE
8
Layer 1
10
67.925069
20
36.927156
11
67.996917
21
36.896160
0
LINE
8
Layer 1
10
67.996917
20
36.896160
11
67.996917
21
36.916056
0
LINE
8
Layer 1
10
67.996917
20
36.916056
11
67.986475
21
36.939029
0
LINE
8
Layer 1
10
67.986475
20
36.939029
11
68.059568
21
36.957261
0
LINE
8
Layer 1
10
68.059568
20
36.957261
11
68.188927
21
36.902070
0
LINE
8
Layer 1
10
68.188927
20
36.902070
11
68.344891
21
36.815636
0
LINE
8
Layer 1
10
68.344891
20
36.815636
11
68.419722
21
36.667215
0
LINE
8
Layer 1
10
68.419722
20
36.667215
11
68.286383
21
36.631497
0
LINE
8
Layer 1
10
68.286383
20
36.631497
11
68.208981
21
36.590643
0
LINE
8
Layer 1
10
68.208981
20
36.590643
11
68.083020
21
36.597529
0
LINE
8
Layer 1
10
68.083020
20
36.597529
11
68.027414
21
36.439496
0
LINE
8
Layer 1
10
68.027414
20
36.439496
11
68.337099
21
36.394580
0
LINE
8
Layer 1
10
68.337099
20
36.394580
11
68.497870
21
36.351736
0
LINE
8
Layer 1
10
68.497870
20
36.351736
11
68.602286
21
36.342028
0
LINE
8
Layer 1
10
68.602286
20
36.342028
11
68.664851
21
36.343721
0
LINE
8
Layer 1
10
68.664851
20
36.343721
11
68.836227
21
36.382755
0
LINE
8
Layer 1
10
68.836227
20
36.382755
11
68.913712
21
36.435872
0
LINE
8
Layer 1
10
68.913712
20
36.435872
11
69.015227
21
36.536975
0
LINE
8
Layer 1
10
69.015227
20
36.536975
11
69.121300
21
36.613381
0
LINE
8
Layer 1
10
69.121300
20
36.613381
11
69.248974
21
36.536881
0
LINE
8
Layer 1
10
69.248974
20
36.536881
11
69.225553
21
36.400405
0
LINE
8
Layer 1
10
69.225553
20
36.400405
11
69.216242
21
36.256428
0
LINE
8
Layer 1
10
69.216242
20
36.256428
11
69.325329
21
36.258447
0
LINE
8
Layer 1
10
69.325329
20
36.258447
11
69.398340
21
36.289771
0
LINE
8
Layer 1
10
69.398340
20
36.289771
11
69.480379
21
36.311389
0
LINE
8
Layer 1
10
69.480379
20
36.311389
11
69.484359
21
36.271531
0
LINE
8
Layer 1
10
69.484359
20
36.271531
11
69.567724
21
36.214184
0
LINE
8
Layer 1
10
69.567724
20
36.214184
11
69.843350
21
36.301198
0
LINE
8
Layer 1
10
69.843350
20
36.301198
11
69.890464
21
36.370125
0
LINE
8
Layer 1
10
69.890464
20
36.370125
11
69.900035
21
36.289768
0
LINE
8
Layer 1
10
69.900035
20
36.289768
11
69.909912
21
36.205073
0
LINE
8
Layer 1
10
69.909912
20
36.205073
11
70.005540
21
36.195704
0
LINE
8
Layer 1
10
70.005540
20
36.195704
11
70.083273
21
36.187519
0
LINE
8
Layer 1
10
70.083273
20
36.187519
11
70.075314
21
36.270473
0
LINE
8
Layer 1
10
70.075314
20
36.270473
11
70.091485
21
36.350443
0
LINE
8
Layer 1
10
70.091485
20
36.350443
11
70.167810
21
36.374714
0
LINE
8
Layer 1
10
70.167810
20
36.374714
11
70.126128
21
36.383745
0
LINE
8
Layer 1
10
70.126128
20
36.383745
11
70.084362
21
36.393849
0
LINE
8
Layer 1
10
70.084362
20
36.393849
11
69.873870
21
36.434621
0
LINE
8
Layer 1
10
69.873870
20
36.434621
11
69.754123
21
36.461884
0
LINE
8
Layer 1
10
69.754123
20
36.461884
11
69.828788
21
36.512354
0
LINE
8
Layer 1
10
69.828788
20
36.512354
11
69.882901
21
36.493445
0
LINE
8
Layer 1
10
69.882901
20
36.493445
11
69.891424
21
36.485007
0
LINE
8
Layer 1
10
69.891424
20
36.485007
11
69.927557
21
36.580471
0
LINE
8
Layer 1
10
69.927557
20
36.580471
11
70.023685
21
36.674778
0
LINE
8
Layer 1
10
70.023685
20
36.674778
11
70.030571
21
36.614366
0
LINE
8
Layer 1
10
70.030571
20
36.614366
11
70.070929
21
36.571358
0
LINE
8
Layer 1
10
70.070929
20
36.571358
11
70.188686
21
36.599781
0
LINE
8
Layer 1
10
70.188686
20
36.599781
11
70.264262
21
36.679173
0
LINE
8
Layer 1
10
70.264262
20
36.679173
11
70.233435
21
36.758807
0
LINE
8
Layer 1
10
70.233435
20
36.758807
11
70.266170
21
36.754094
0
LINE
8
Layer 1
10
70.266170
20
36.754094
11
70.329317
21
36.770096
0
LINE
8
Layer 1
10
70.329317
20
36.770096
11
70.376967
21
36.759993
0
LINE
8
Layer 1
10
70.376967
20
36.759993
11
70.374992
21
36.698666
0
LINE
8
Layer 1
10
70.374992
20
36.698666
11
70.374825
21
36.654083
0
LINE
8
Layer 1
10
70.374825
20
36.654083
11
70.384449
21
36.619776
0
LINE
8
Layer 1
10
70.384449
20
36.619776
11
70.434998
21
36.610830
0
LINE
8
Layer 1
10
70.434998
20
36.610830
11
70.431272
21
36.501607
0
LINE
8
Layer 1
10
70.431272
20
36.501607
11
70.342686
21
36.443929
0
LINE
8
Layer 1
10
70.342686
20
36.443929
11
70.272494
21
36.388653
0
LINE
8
Layer 1
10
70.272494
20
36.388653
11
70.293040
21
36.394213
0
LINE
8
Layer 1
10
70.293040
20
36.394213
11
70.322211
21
36.321702
0
LINE
8
Layer 1
10
70.322211
20
36.321702
11
70.386933
21
36.259381
0
LINE
8
Layer 1
10
70.386933
20
36.259381
11
70.460022
21
36.224741
0
LINE
8
Layer 1
10
70.460022
20
36.224741
11
70.585241
21
36.237667
0
LINE
8
Layer 1
10
70.585241
20
36.237667
11
70.555411
21
36.335288
0
LINE
8
Layer 1
10
70.555411
20
36.335288
11
70.541807
21
36.433157
0
LINE
8
Layer 1
10
70.541807
20
36.433157
11
70.548863
21
36.507909
0
LINE
8
Layer 1
10
70.548863
20
36.507909
11
70.606123
21
36.525886
0
LINE
8
Layer 1
10
70.606123
20
36.525886
11
70.644909
21
36.435886
0
LINE
8
Layer 1
10
70.644909
20
36.435886
11
70.644062
21
36.350697
0
LINE
8
Layer 1
10
70.644062
20
36.350697
11
70.702158
21
36.193824
0
LINE
8
Layer 1
10
70.702158
20
36.193824
11
70.785441
21
36.219083
0
LINE
8
Layer 1
10
70.785441
20
36.219083
11
70.835660
21
36.268887
0
LINE
8
Layer 1
10
70.835660
20
36.268887
11
70.913889
21
36.321095
0
LINE
8
Layer 1
10
70.913889
20
36.321095
11
70.942896
21
36.354990
0
LINE
8
Layer 1
10
70.942896
20
36.354990
11
70.918286
21
36.403552
0
LINE
8
Layer 1
10
70.918286
20
36.403552
11
70.972896
21
36.422037
0
LINE
8
Layer 1
10
70.972896
20
36.422037
11
70.977045
21
36.494881
0
LINE
8
Layer 1
10
70.977045
20
36.494881
11
70.977045
21
36.561426
0
LINE
8
Layer 1
10
70.977045
20
36.561426
11
71.002642
21
36.653081
0
LINE
8
Layer 1
10
71.002642
20
36.653081
11
71.204927
21
36.895146
0
LINE
8
Layer 1
10
71.204927
20
36.895146
11
71.289455
21
36.945943
0
LINE
8
Layer 1
10
71.289455
20
36.945943
11
71.405886
21
37.010831
0
LINE
8
Layer 1
10
71.405886
20
37.010831
11
71.461907
21
37.044063
0
LINE
8
Layer 1
10
71.461907
20
37.044063
11
71.511133
21
37.081934
0
LINE
8
Layer 1
10
71.511133
20
37.081934
11
71.573619
21
37.166629
0
LINE
8
Layer 1
10
71.573619
20
37.166629
11
71.641737
21
37.154099
0
LINE
8
Layer 1
10
71.641737
20
37.154099
11
71.646958
21
37.025567
0
LINE
8
Layer 1
10
71.646958
20
37.025567
11
71.735629
21
36.994243
0
LINE
8
Layer 1
10
71.735629
20
36.994243
11
71.767616
21
37.097912
0
LINE
8
Layer 1
10
71.767616
20
37.097912
11
71.879328
21
36.961508
0
LINE
8
Layer 1
10
71.879328
20
36.961508
11
71.905405
21
36.929854
0
LINE
8
Layer 1
10
71.905405
20
36.929854
11
71.830656
21
36.917662
0
LINE
8
Layer 1
10
71.830656
20
36.917662
11
71.738587
21
36.889891
0
LINE
8
Layer 1
10
71.738587
20
36.889891
11
71.534645
21
36.631421
0
LINE
8
Layer 1
10
71.534645
20
36.631421
11
71.430807
21
36.570343
0
LINE
8
Layer 1
10
71.430807
20
36.570343
11
71.375449
21
36.535621
0
LINE
8
Layer 1
10
71.375449
20
36.535621
11
71.299376
21
36.489046
0
LINE
8
Layer 1
10
71.299376
20
36.489046
11
71.187419
21
36.422089
0
LINE
8
Layer 1
10
71.187419
20
36.422089
11
71.065268
21
36.367227
0
LINE
8
Layer 1
10
71.065268
20
36.367227
11
71.013060
21
36.325876
0
LINE
8
Layer 1
10
71.013060
20
36.325876
11
71.121950
21
36.339790
0
LINE
8
Layer 1
10
71.121950
20
36.339790
11
71.441002
21
36.501469
0
LINE
8
Layer 1
10
71.441002
20
36.501469
11
71.561579
21
36.497659
0
LINE
8
Layer 1
10
71.561579
20
36.497659
11
71.774566
21
36.461001
0
LINE
8
Layer 1
10
71.774566
20
36.461001
11
71.873753
21
36.617076
0
LINE
8
Layer 1
10
71.873753
20
36.617076
11
71.929771
21
36.654617
0
LINE
8
Layer 1
10
71.929771
20
36.654617
11
72.016204
21
36.610034
0
LINE
8
Layer 1
10
72.016204
20
36.610034
11
72.113910
21
36.712958
0
LINE
8
Layer 1
10
72.113910
20
36.712958
11
72.166366
21
36.777099
0
LINE
8
Layer 1
10
72.166366
20
36.777099
11
72.213353
21
36.784634
0
LINE
8
Layer 1
10
72.213353
20
36.784634
11
72.423016
21
36.895101
0
LINE
8
Layer 1
10
72.423016
20
36.895101
11
72.458486
21
36.806348
0
LINE
8
Layer 1
10
72.458486
20
36.806348
11
72.473218
21
36.678312
0
LINE
8
Layer 1
10
72.473218
20
36.678312
11
72.461873
21
36.648642
0
LINE
8
Layer 1
10
72.461873
20
36.648642
11
72.425824
21
36.703670
0
LINE
8
Layer 1
10
72.425824
20
36.703670
11
72.325635
21
36.784800
0
LINE
8
Layer 1
10
72.325635
20
36.784800
11
72.325071
21
36.608784
0
LINE
8
Layer 1
10
72.325071
20
36.608784
11
72.295237
21
36.576134
0
LINE
8
Layer 1
10
72.295237
20
36.576134
11
72.272039
21
36.546134
0
LINE
8
Layer 1
10
72.272039
20
36.546134
11
72.336261
21
36.569417
0
LINE
8
Layer 1
10
72.336261
20
36.569417
11
72.401316
21
36.571110
0
LINE
8
Layer 1
10
72.401316
20
36.571110
11
72.522638
21
36.584036
0
LINE
8
Layer 1
10
72.522638
20
36.584036
11
72.605428
21
36.557761
0
LINE
8
Layer 1
10
72.605428
20
36.557761
11
72.765781
21
36.529087
0
LINE
8
Layer 1
10
72.765781
20
36.529087
11
72.933593
21
36.552145
0
LINE
8
Layer 1
10
72.933593
20
36.552145
11
73.166954
21
36.628551
0
LINE
8
Layer 1
10
73.166954
20
36.628551
11
73.403637
21
36.651100
0
LINE
8
Layer 1
10
73.403637
20
36.651100
11
73.662771
21
36.695342
0
LINE
8
Layer 1
10
73.662771
20
36.695342
11
73.621586
21
36.857362
0
LINE
8
Layer 1
10
73.621586
20
36.857362
11
73.484435
21
37.090726
0
LINE
8
Layer 1
10
73.484435
20
37.090726
11
73.283970
21
37.409527
0
LINE
8
Layer 1
10
73.283970
20
37.409527
11
73.161903
21
37.457926
0
LINE
8
Layer 1
10
73.161903
20
37.457926
11
72.829841
21
37.703885
0
LINE
8
Layer 1
10
72.829841
20
37.703885
11
72.780534
21
37.797859
0
LINE
8
Layer 1
10
72.780534
20
37.797859
11
72.696336
21
37.897469
0
LINE
8
Layer 1
10
72.696336
20
37.897469
11
72.456095
21
38.084924
0
LINE
8
Layer 1
10
72.456095
20
38.084924
11
72.225966
21
38.231600
0
LINE
8
Layer 1
10
72.225966
20
38.231600
11
72.071828
21
38.362373
0
LINE
8
Layer 1
10
72.071828
20
38.362373
11
71.889180
21
38.470185
0
LINE
8
Layer 1
10
71.889180
20
38.470185
11
71.809873
21
38.523971
0
LINE
8
Layer 1
10
71.809873
20
38.523971
11
71.765042
21
38.481872
0
LINE
8
Layer 1
10
71.765042
20
38.481872
11
71.665431
21
38.463725
0
LINE
8
Layer 1
10
71.665431
20
38.463725
11
71.633111
21
38.547175
0
LINE
8
Layer 1
10
71.633111
20
38.547175
11
71.524549
21
38.581900
0
LINE
8
Layer 1
10
71.524549
20
38.581900
11
71.498472
21
38.590169
0
LINE
8
Layer 1
10
71.498472
20
38.590169
11
71.347742
21
38.579675
0
LINE
8
Layer 1
10
71.347742
20
38.579675
11
71.253261
21
38.377441
0
LINE
8
Layer 1
10
71.253261
20
38.377441
11
71.230627
21
38.335342
0
LINE
8
Layer 1
10
71.230627
20
38.335342
11
71.216629
21
38.361306
0
LINE
8
Layer 1
10
71.216629
20
38.361306
11
71.084287
21
38.467546
0
LINE
8
Layer 1
10
71.084287
20
38.467546
11
71.041213
21
38.530058
0
LINE
8
Layer 1
10
71.041213
20
38.530058
11
71.192680
21
38.613316
0
LINE
8
Layer 1
10
71.192680
20
38.613316
11
71.295522
21
38.701570
0
LINE
8
Layer 1
10
71.295522
20
38.701570
11
71.352951
21
38.761652
0
LINE
8
Layer 1
10
71.352951
20
38.761652
11
71.375839
21
38.809799
0
LINE
8
Layer 1
10
71.375839
20
38.809799
11
71.302746
21
38.814512
0
LINE
8
Layer 1
10
71.302746
20
38.814512
11
71.137505
21
38.862659
0
LINE
8
Layer 1
10
71.137505
20
38.862659
11
70.940105
21
38.857213
0
LINE
8
Layer 1
10
70.940105
20
38.857213
11
70.830552
21
38.831530
0
LINE
8
Layer 1
10
70.830552
20
38.831530
11
70.755058
21
38.914320
0
LINE
8
Layer 1
10
70.755058
20
38.914320
11
70.762029
21
38.975890
0
LINE
8
Layer 1
10
70.762029
20
38.975890
11
70.742386
21
39.024288
0
LINE
8
Layer 1
10
70.742386
20
39.024288
11
70.702689
21
39.118180
0
LINE
8
Layer 1
10
70.702689
20
39.118180
11
70.653881
21
39.264281
0
LINE
8
Layer 1
10
70.653881
20
39.264281
11
70.603079
21
39.382371
0
LINE
8
Layer 1
10
70.603079
20
39.382371
11
70.564378
21
39.471458
0
LINE
8
Layer 1
10
70.564378
20
39.471458
11
70.512254
21
39.587889
0
LINE
8
Layer 1
10
70.512254
20
39.587889
11
70.460043
21
39.712690
0
LINE
8
Layer 1
10
70.460043
20
39.712690
11
70.441416
21
39.754871
0
LINE
8
Layer 1
10
70.441416
20
39.754871
11
70.395674
21
39.890369
0
LINE
8
Layer 1
10
70.395674
20
39.890369
11
70.374366
21
39.991136
0
LINE
8
Layer 1
10
70.374366
20
39.991136
11
70.368975
21
40.085194
0
LINE
8
Layer 1
10
70.368975
20
40.085194
11
70.397141
21
40.161764
0
LINE
8
Layer 1
10
70.397141
20
40.161764
11
70.376511
21
40.215384
0
LINE
8
Layer 1
10
70.376511
20
40.215384
11
70.350405
21
40.260215
0
LINE
8
Layer 1
10
70.350405
20
40.260215
11
70.320986
21
40.396125
0
LINE
8
Layer 1
10
70.320986
20
40.396125
11
70.292395
21
40.569322
0
LINE
8
Layer 1
10
70.292395
20
40.569322
11
70.275828
21
40.660479
0
LINE
8
Layer 1
10
70.275828
20
40.660479
11
70.266204
21
40.735976
0
LINE
8
Layer 1
10
70.266204
20
40.735976
11
70.254690
21
40.871634
0
LINE
8
Layer 1
10
70.254690
20
40.871634
11
70.246054
21
41.007377
0
LINE
8
Layer 1
10
70.246054
20
41.007377
11
70.230419
21
41.062402
0
LINE
8
Layer 1
10
70.230419
20
41.062402
11
70.199174
21
41.140716
0
LINE
8
Layer 1
10
70.199174
20
41.140716
11
70.190651
21
41.245381
0
LINE
8
Layer 1
10
70.190651
20
41.245381
11
70.190374
21
41.377393
0
LINE
8
Layer 1
10
70.190374
20
41.377393
11
70.179283
21
41.447251
0
LINE
8
Layer 1
10
70.179283
20
41.447251
11
70.161136
21
41.466584
0
LINE
8
Layer 1
10
70.161136
20
41.466584
11
70.126660
21
41.587906
0
LINE
8
Layer 1
10
70.126660
20
41.587906
11
70.132784
21
41.625529
0
LINE
8
Layer 1
10
70.132784
20
41.625529
11
70.176706
21
41.642518
0
LINE
8
Layer 1
10
70.176706
20
41.642518
11
70.258167
21
41.663488
0
LINE
8
Layer 1
10
70.258167
20
41.663488
11
70.355705
21
41.641785
0
LINE
8
Layer 1
10
70.355705
20
41.641785
11
70.392250
21
41.574328
0
LINE
8
Layer 1
10
70.392250
20
41.574328
11
70.450509
21
41.498337
0
LINE
8
Layer 1
10
70.450509
20
41.498337
11
70.511915
21
41.500312
0
LINE
8
Layer 1
10
70.511915
20
41.500312
11
70.538106
21
41.503953
0
LINE
8
Layer 1
10
70.538106
20
41.503953
11
70.542565
21
41.456966
0
LINE
8
Layer 1
10
70.542565
20
41.456966
11
70.549592
21
41.404094
0
LINE
8
Layer 1
10
70.549592
20
41.404094
11
70.624341
21
41.365808
0
LINE
8
Layer 1
10
70.624341
20
41.365808
11
70.688897
21
41.394646
0
LINE
8
Layer 1
10
70.688897
20
41.394646
11
70.700919
21
41.432850
0
LINE
8
Layer 1
10
70.700919
20
41.432850
11
70.718897
21
41.470143
0
LINE
8
Layer 1
10
70.718897
20
41.470143
11
70.739781
21
41.480839
0
LINE
8
Layer 1
10
70.739781
20
41.480839
11
70.763827
21
41.505110
0
LINE
8
Layer 1
10
70.763827
20
41.505110
11
70.793824
21
41.591628
0
LINE
8
Layer 1
10
70.793824
20
41.591628
11
70.835838
21
41.668198
0
LINE
8
Layer 1
10
70.835838
20
41.668198
11
70.856074
21
41.696307
0
LINE
8
Layer 1
10
70.856074
20
41.696307
11
70.864258
21
41.665062
0
LINE
8
Layer 1
10
70.864258
20
41.665062
11
70.885792
21
41.633739
0
LINE
8
Layer 1
10
70.885792
20
41.633739
11
70.921174
21
41.543244
0
LINE
8
Layer 1
10
70.921174
20
41.543244
11
70.959048
21
41.515078
0
LINE
8
Layer 1
10
70.959048
20
41.515078
11
70.988715
21
41.475133
0
LINE
8
Layer 1
10
70.988715
20
41.475133
11
70.998593
21
41.445880
0
LINE
8
Layer 1
10
70.998593
20
41.445880
11
71.008866
21
41.404114
0
LINE
8
Layer 1
10
71.008866
20
41.404114
11
71.042761
21
41.362348
0
LINE
8
Layer 1
10
71.042761
20
41.362348
11
71.091487
21
41.273426
0
LINE
8
Layer 1
10
71.091487
20
41.273426
11
71.058009
21
41.184921
0
LINE
8
Layer 1
10
71.058009
20
41.184921
11
71.078555
21
41.169286
0
LINE
8
Layer 1
10
71.078555
20
41.169286
11
71.141536
21
41.185288
0
LINE
8
Layer 1
10
71.141536
20
41.185288
11
71.168403
21
41.178486
0
LINE
8
Layer 1
10
71.168403
20
41.178486
11
71.231220
21
41.283151
0
LINE
8
Layer 1
10
71.231220
20
41.283151
11
71.275222
21
41.351356
0
LINE
8
Layer 1
10
71.275222
20
41.351356
11
71.295034
21
41.372240
0
LINE
8
Layer 1
10
71.295034
20
41.372240
11
71.378566
21
41.565827
0
LINE
8
Layer 1
10
71.378566
20
41.565827
11
71.462098
21
41.748388
0
LINE
8
Layer 1
10
71.462098
20
41.748388
11
71.522592
21
41.836811
0
LINE
8
Layer 1
10
71.522592
20
41.836811
11
71.562456
21
41.909904
0
LINE
8
Layer 1
10
71.562456
20
41.909904
11
71.631236
21
42.072080
0
LINE
8
Layer 1
10
71.631236
20
42.072080
11
71.660573
21
42.135560
0
LINE
8
Layer 1
10
71.660573
20
42.135560
11
71.717006
21
42.185530
0
LINE
8
Layer 1
10
71.717006
20
42.185530
11
71.747258
21
42.191909
0
LINE
8
Layer 1
10
71.747258
20
42.191909
11
71.796810
21
42.271134
0
LINE
8
Layer 1
10
71.796810
20
42.271134
11
71.858634
21
42.357816
0
LINE
8
Layer 1
10
71.858634
20
42.357816
11
71.907941
21
42.338258
0
LINE
8
Layer 1
10
71.907941
20
42.338258
11
71.920302
21
42.291271
0
LINE
8
Layer 1
10
71.920302
20
42.291271
11
71.953283
21
42.338258
0
LINE
8
Layer 1
10
71.953283
20
42.338258
11
72.071291
21
42.363206
0
LINE
8
Layer 1
10
72.071291
20
42.363206
11
72.172143
21
42.448979
0
LINE
8
Layer 1
10
72.172143
20
42.448979
11
72.212419
21
42.531348
0
LINE
8
Layer 1
10
72.212419
20
42.531348
11
72.310206
21
42.755596
0
LINE
8
Layer 1
10
72.310206
20
42.755596
11
72.414704
21
43.032301
0
LINE
8
Layer 1
10
72.414704
20
43.032301
11
72.422747
21
42.980423
0
LINE
8
Layer 1
10
72.422747
20
42.980423
11
72.426642
21
42.928796
0
LINE
8
Layer 1
10
72.426642
20
42.928796
11
72.506115
21
43.060808
0
LINE
8
Layer 1
10
72.506115
20
43.060808
11
72.582603
21
43.318866
0
LINE
8
Layer 1
10
72.582603
20
43.318866
11
72.603149
21
43.227127
0
LINE
8
Layer 1
10
72.603149
20
43.227127
11
72.625360
21
43.121220
0
LINE
8
Layer 1
10
72.625360
20
43.121220
11
72.637270
21
43.067852
0
LINE
8
Layer 1
10
72.637270
20
43.067852
11
72.755112
21
43.293260
0
LINE
8
Layer 1
10
72.755112
20
43.293260
11
72.860688
21
43.554217
0
LINE
8
Layer 1
10
72.860688
20
43.554217
11
72.878496
21
43.627228
0
LINE
8
Layer 1
10
72.878496
20
43.627228
11
72.905025
21
43.726093
0
LINE
8
Layer 1
10
72.905025
20
43.726093
11
72.994856
21
44.095527
0
LINE
8
Layer 1
10
72.994856
20
44.095527
11
73.048139
21
44.271958
0
LINE
8
Layer 1
10
73.048139
20
44.271958
11
73.069363
21
44.350190
0
LINE
8
Layer 1
10
73.069363
20
44.350190
11
73.092985
21
44.466039
0
LINE
8
Layer 1
10
73.092985
20
44.466039
11
73.225824
21
44.963179
0
LINE
8
Layer 1
10
73.225824
20
44.963179
11
73.299331
21
45.245020
0
LINE
8
Layer 1
10
73.299331
20
45.245020
11
73.364056
21
45.495455
0
LINE
8
Layer 1
10
73.364056
20
45.495455
11
73.414771
21
45.644790
0
LINE
8
Layer 1
10
73.414771
20
45.644790
11
73.445102
21
45.761224
0
LINE
8
Layer 1
10
73.445102
20
45.761224
11
73.581260
21
45.920914
0
LINE
8
Layer 1
10
73.581260
20
45.920914
11
73.799954
21
46.120383
0
LINE
8
Layer 1
10
73.799954
20
46.120383
11
73.874121
21
46.212619
0
LINE
8
Layer 1
10
73.874121
20
46.212619
11
73.933374
21
46.330379
0
LINE
8
Layer 1
10
73.933374
20
46.330379
11
74.032321
21
46.455344
0
LINE
8
Layer 1
10
74.032321
20
46.455344
11
74.103836
21
46.340403
0
LINE
8
Layer 1
10
74.103836
20
46.340403
11
74.204120
21
46.211860
0
LINE
8
Layer 1
10
74.204120
20
46.211860
11
74.347972
21
46.418632
0
LINE
8
Layer 1
10
74.347972
20
46.418632
11
74.624431
21
46.894060
0
LINE
8
Layer 1
10
74.624431
20
46.894060
11
74.850666
21
47.290681
0
LINE
8
Layer 1
10
74.850666
20
47.290681
11
74.980688
21
47.513439
0
LINE
8
Layer 1
10
74.980688
20
47.513439
11
75.102509
21
47.855362
0
LINE
8
Layer 1
10
75.102509
20
47.855362
11
75.283828
21
48.304024
0
LINE
8
Layer 1
10
75.283828
20
48.304024
11
75.504678
21
48.885523
0
LINE
8
Layer 1
10
75.504678
20
48.885523
11
75.575781
21
49.182531
0
LINE
8
Layer 1
10
75.575781
20
49.182531
11
75.669507
21
49.526941
0
LINE
8
Layer 1
10
75.669507
20
49.526941
11
75.732239
21
49.847734
0
LINE
8
Layer 1
10
75.732239
20
49.847734
11
75.761825
21
50.113418
0
LINE
8
Layer 1
10
75.761825
20
50.113418
11
75.832264
21
50.447385
0
LINE
8
Layer 1
10
75.832264
20
50.447385
11
75.924746
21
50.808285
0
LINE
8
Layer 1
10
75.924746
20
50.808285
11
76.053778
21
51.236145
0
LINE
8
Layer 1
10
76.053778
20
51.236145
11
76.160596
21
51.496771
0
LINE
8
Layer 1
10
76.160596
20
51.496771
11
76.200953
21
52.004271
0
LINE
8
Layer 1
10
76.200953
20
52.004271
11
76.280591
21
52.600442
0
LINE
8
Layer 1
10
76.280591
20
52.600442
11
76.291851
21
53.229343
0
LINE
8
Layer 1
10
76.291851
20
53.229343
11
76.280506
21
53.392433
0
LINE
8
Layer 1
10
76.280506
20
53.392433
11
76.251751
21
53.517649
0
LINE
8
Layer 1
10
76.251751
20
53.517649
11
76.210730
21
53.681899
0
LINE
8
Layer 1
10
76.210730
20
53.681899
11
76.162834
21
53.817555
0
LINE
8
Layer 1
10
76.162834
20
53.817555
11
76.087833
21
54.053905
0
LINE
8
Layer 1
10
76.087833
20
54.053905
11
76.009852
21
54.350165
0
LINE
8
Layer 1
10
76.009852
20
54.350165
11
75.979686
21
54.510521
0
LINE
8
Layer 1
10
75.979686
20
54.510521
11
75.971247
21
54.544246
0
LINE
8
Layer 1
10
75.971247
20
54.544246
11
75.950024
21
54.590655
0
LINE
8
Layer 1
10
75.950024
20
54.590655
11
75.897816
21
54.692419
0
LINE
8
Layer 1
10
75.897816
20
54.692419
11
75.845608
21
54.790291
0
LINE
8
Layer 1
10
75.845608
20
54.790291
11
75.749147
21
54.882854
0
LINE
8
Layer 1
10
75.749147
20
54.882854
11
75.780225
21
54.799407
0
LINE
8
Layer 1
10
75.780225
20
54.799407
11
75.823978
21
54.728716
0
LINE
8
Layer 1
10
75.823978
20
54.728716
11
75.770280
21
54.682062
0
LINE
8
Layer 1
10
75.770280
20
54.682062
11
75.747307
21
54.600353
0
LINE
8
Layer 1
10
75.747307
20
54.600353
11
75.793631
21
54.513090
0
LINE
8
Layer 1
10
75.793631
20
54.513090
11
75.746477
21
54.532140
0
LINE
8
Layer 1
10
75.746477
20
54.532140
11
75.630374
21
54.863373
0
LINE
8
Layer 1
10
75.630374
20
54.863373
11
75.530849
21
54.990497
0
LINE
8
Layer 1
10
75.530849
20
54.990497
11
75.499358
21
54.977656
0
LINE
8
Layer 1
10
75.499358
20
54.977656
11
75.505736
21
55.018840
0
LINE
8
Layer 1
10
75.505736
20
55.018840
11
75.538553
21
55.118453
0
LINE
8
Layer 1
10
75.538553
20
55.118453
11
75.539964
21
55.165440
0
LINE
8
Layer 1
10
75.539964
20
55.165440
11
75.490906
21
55.181076
0
LINE
8
Layer 1
10
75.490906
20
55.181076
11
75.473408
21
55.222842
0
LINE
8
Layer 1
10
75.473408
20
55.222842
11
75.428408
21
55.306043
0
LINE
8
Layer 1
10
75.428408
20
55.306043
11
75.362444
21
55.424048
0
LINE
8
Layer 1
10
75.362444
20
55.424048
11
75.323909
21
55.484379
0
LINE
8
Layer 1
10
75.323909
20
55.484379
11
75.292585
21
55.535924
0
LINE
8
Layer 1
10
75.292585
20
55.535924
11
75.261259
21
55.606863
0
LINE
8
Layer 1
10
75.261259
20
55.606863
11
75.224796
21
55.685838
0
LINE
8
Layer 1
10
75.224796
20
55.685838
11
75.139108
21
55.773928
0
LINE
8
Layer 1
10
75.139108
20
55.773928
11
75.039912
21
55.828125
0
LINE
8
Layer 1
10
75.039912
20
55.828125
11
74.989939
21
55.867490
0
LINE
8
Layer 1
10
74.989939
20
55.867490
11
74.953397
21
55.916382
0
LINE
8
Layer 1
10
74.953397
20
55.916382
11
74.886519
21
55.986655
0
LINE
8
Layer 1
10
74.886519
20
55.986655
11
74.719037
21
56.147426
0
LINE
8
Layer 1
10
74.719037
20
56.147426
11
74.667244
21
56.199883
0
LINE
8
Layer 1
10
74.667244
20
56.199883
11
74.613046
21
56.298912
0
LINE
8
Layer 1
10
74.613046
20
56.298912
11
74.572442
21
56.359575
0
LINE
8
Layer 1
10
74.572442
20
56.359575
11
74.411920
21
56.517027
0
LINE
8
Layer 1
10
74.411920
20
56.517027
11
74.363358
21
56.628324
0
LINE
8
Layer 1
10
74.363358
20
56.628324
11
74.344647
21
56.644411
0
LINE
8
Layer 1
10
74.344647
20
56.644411
11
74.259371
21
56.672921
0
LINE
8
Layer 1
10
74.259371
20
56.672921
11
74.228050
21
56.704911
0
LINE
8
Layer 1
10
74.228050
20
56.704911
11
74.196723
21
56.738473
0
LINE
8
Layer 1
10
74.196723
20
56.738473
11
74.233268
21
56.759273
0
LINE
8
Layer 1
10
74.233268
20
56.759273
11
74.233268
21
56.775021
0
LINE
8
Layer 1
10
74.233268
20
56.775021
11
74.196723
21
56.825403
0
LINE
8
Layer 1
10
74.196723
20
56.825403
11
74.123631
21
56.958330
0
LINE
8
Layer 1
10
74.123631
20
56.958330
11
74.050623
21
57.085369
0
LINE
8
Layer 1
10
74.050623
20
57.085369
11
74.029004
21
57.101540
0
LINE
8
Layer 1
10
74.029004
20
57.101540
11
74.029851
21
57.059774
0
LINE
8
Layer 1
10
74.029851
20
57.059774
11
73.988088
21
57.049332
0
LINE
8
Layer 1
10
73.988088
20
57.049332
11
73.988935
21
57.112812
0
LINE
8
Layer 1
10
73.988935
20
57.112812
11
73.991475
21
57.169163
0
LINE
8
Layer 1
10
73.991475
20
57.169163
11
73.967288
21
57.157903
0
LINE
8
Layer 1
10
73.967288
20
57.157903
11
73.935962
21
57.122433
0
LINE
8
Layer 1
10
73.935962
20
57.122433
11
73.929668
21
57.169008
0
LINE
8
Layer 1
10
73.929668
20
57.169008
11
73.905877
21
57.269860
0
LINE
8
Layer 1
10
73.905877
20
57.269860
11
73.847124
21
57.445046
0
LINE
8
Layer 1
10
73.847124
20
57.445046
11
73.808341
21
57.609463
0
LINE
8
Layer 1
10
73.808341
20
57.609463
11
73.779168
21
57.756475
0
LINE
8
Layer 1
10
73.779168
20
57.756475
11
73.697459
21
58.079834
0
LINE
8
Layer 1
10
73.697459
20
58.079834
11
73.641604
21
58.245908
0
LINE
8
Layer 1
10
73.641604
20
58.245908
11
73.580528
21
58.430213
0
LINE
8
Layer 1
10
73.580528
20
58.430213
11
73.549783
21
58.524103
0
LINE
8
Layer 1
10
73.549783
20
58.524103
11
73.509262
21
58.658850
0
LINE
8
Layer 1
10
73.509262
20
58.658850
11
73.479761
21
58.878043
0
LINE
8
Layer 1
10
73.479761
20
58.878043
11
73.485659
21
59.261983
0
LINE
8
Layer 1
10
73.485659
20
59.261983
11
73.482753
21
59.606390
0
LINE
8
Layer 1
10
73.482753
20
59.606390
11
73.476854
21
60.232643
0
LINE
8
Layer 1
10
73.476854
20
60.232643
11
73.456788
21
60.493600
0
LINE
8
Layer 1
10
73.456788
20
60.493600
11
73.415685
21
60.939858
0
LINE
8
Layer 1
10
73.415685
20
60.939858
11
73.362232
21
61.297196
0
LINE
8
Layer 1
10
73.362232
20
61.297196
11
73.312265
21
61.693811
0
LINE
8
Layer 1
10
73.312265
20
61.693811
11
73.305153
21
62.340949
0
LINE
8
Layer 1
10
73.305153
20
62.340949
11
73.299339
21
62.372270
0
LINE
8
Layer 1
10
73.299339
20
62.372270
11
73.286329
21
62.406165
0
LINE
8
Layer 1
10
73.286329
20
62.406165
11
73.320224
21
62.413954
0
LINE
8
Layer 1
10
73.320224
20
62.413954
11
73.398453
21
62.422477
0
LINE
8
Layer 1
10
73.398453
20
62.422477
11
73.419337
21
62.447002
0
LINE
8
Layer 1
10
73.419337
20
62.447002
11
73.414144
21
62.537085
0
LINE
8
Layer 1
10
73.414144
20
62.537085
11
73.476129
21
62.550180
0
LINE
8
Layer 1
10
73.476129
20
62.550180
11
73.473871
21
62.586727
0
LINE
8
Layer 1
10
73.473871
20
62.586727
11
73.461171
21
62.627997
0
LINE
8
Layer 1
10
73.461171
20
62.627997
11
73.471105
21
62.679460
0
LINE
8
Layer 1
10
73.471105
20
62.679460
11
73.494163
21
62.710369
0
LINE
8
Layer 1
10
73.494163
20
62.710369
11
73.528882
21
62.715590
0
LINE
8
Layer 1
10
73.528882
20
62.715590
11
73.504272
21
62.742288
0
LINE
8
Layer 1
10
73.504272
20
62.742288
11
73.495072
21
62.775350
0
LINE
8
Layer 1
10
73.495072
20
62.775350
11
73.551011
21
62.778596
0
LINE
8
Layer 1
10
73.551011
20
62.778596
11
73.523663
21
62.844808
0
LINE
8
Layer 1
10
73.523663
20
62.844808
11
73.485336
21
62.920500
0
LINE
8
Layer 1
10
73.485336
20
62.920500
11
73.592444
21
62.907374
0
LINE
8
Layer 1
10
73.592444
20
62.907374
11
73.601898
21
62.942510
0
LINE
8
Layer 1
10
73.601898
20
62.942510
11
73.586235
21
63.010297
0
LINE
8
Layer 1
10
73.586235
20
63.010297
11
73.575793
21
63.034427
0
LINE
8
Layer 1
10
73.575793
20
63.034427
11
73.585812
21
63.086390
0
LINE
8
Layer 1
10
73.585812
20
63.086390
11
73.604523
21
63.103549
0
LINE
8
Layer 1
10
73.604523
20
63.103549
11
73.575271
21
63.158661
0
LINE
8
Layer 1
10
73.575271
20
63.158661
11
73.643472
21
63.123440
0
LINE
8
Layer 1
10
73.643472
20
63.123440
11
73.689381
21
63.097645
0
LINE
8
Layer 1
10
73.689381
20
63.097645
11
73.706936
21
63.134190
0
LINE
8
Layer 1
10
73.706936
20
63.134190
11
73.737514
21
63.155074
0
LINE
8
Layer 1
10
73.737514
20
63.155074
11
73.715388
21
63.175874
0
LINE
8
Layer 1
10
73.715388
20
63.175874
11
73.698737
21
63.212419
0
LINE
8
Layer 1
10
73.698737
20
63.212419
11
73.679941
21
63.293219
0
LINE
8
Layer 1
10
73.679941
20
63.293219
11
73.713503
21
63.347993
0
LINE
8
Layer 1
10
73.713503
20
63.347993
11
73.720389
21
63.369047
0
LINE
8
Layer 1
10
73.720389
20
63.369047
11
73.662960
21
63.391596
0
LINE
8
Layer 1
10
73.662960
20
63.391596
11
73.633208
21
63.403280
0
LINE
8
Layer 1
10
73.633208
20
63.403280
11
73.653443
21
63.426422
0
LINE
8
Layer 1
10
73.653443
20
63.426422
11
73.661628
21
63.457749
0
LINE
8
Layer 1
10
73.661628
20
63.457749
11
73.608838
21
63.489073
0
LINE
8
Layer 1
10
73.608838
20
63.489073
11
73.582055
21
63.511622
0
LINE
8
Layer 1
10
73.582055
20
63.511622
11
73.645866
21
63.521641
0
LINE
8
Layer 1
10
73.645866
20
63.521641
11
73.640729
21
63.621914
0
LINE
8
Layer 1
10
73.640729
20
63.621914
11
73.658283
21
63.705613
0
LINE
8
Layer 1
10
73.658283
20
63.705613
11
73.674934
21
63.716055
0
LINE
8
Layer 1
10
73.674934
20
63.716055
11
73.635155
21
63.749368
0
LINE
8
Layer 1
10
73.635155
20
63.749368
11
73.564303
21
63.839448
0
LINE
8
Layer 1
10
73.564303
20
63.839448
11
73.486819
21
63.958698
0
LINE
8
Layer 1
10
73.486819
20
63.958698
11
73.247489
21
64.333438
0
LINE
8
Layer 1
10
73.247489
20
64.333438
11
73.193207
21
64.470175
0
LINE
8
Layer 1
10
73.193207
20
64.470175
11
73.199839
21
64.512108
0
LINE
8
Layer 1
10
73.199839
20
64.512108
11
73.252129
21
64.544095
0
LINE
8
Layer 1
10
73.252129
20
64.544095
11
73.239119
21
64.651579
0
LINE
8
Layer 1
10
73.239119
20
64.651579
11
73.185832
21
64.770332
0
LINE
8
Layer 1
10
73.185832
20
64.770332
11
73.131059
21
64.877565
0
LINE
8
Layer 1
10
73.131059
20
64.877565
11
73.087300
21
64.920327
0
LINE
8
Layer 1
10
73.087300
20
64.920327
11
73.082079
21
64.975518
0
LINE
8
Layer 1
10
73.082079
20
64.975518
11
72.865457
21
65.162640
0
LINE
8
Layer 1
10
72.865457
20
65.162640
11
72.845645
21
65.185444
0
LINE
8
Layer 1
10
72.845645
20
65.185444
11
72.838364
21
65.244363
0
LINE
8
Layer 1
10
72.838364
20
65.244363
11
72.819399
21
65.244200
0
LINE
8
Layer 1
10
72.819399
20
65.244200
11
72.805654
21
65.228028
0
LINE
8
Layer 1
10
72.805654
20
65.228028
11
72.818665
21
65.273274
0
LINE
8
Layer 1
10
72.818665
20
65.273274
11
72.821656
21
65.305095
0
LINE
8
Layer 1
10
72.821656
20
65.305095
11
72.798034
21
65.331200
0
LINE
8
Layer 1
10
72.798034
20
65.331200
11
72.724944
21
65.428076
0
LINE
8
Layer 1
10
72.724944
20
65.428076
11
72.652103
21
65.524951
0
LINE
8
Layer 1
10
72.652103
20
65.524951
11
72.620776
21
65.563153
0
LINE
8
Layer 1
10
72.620776
20
65.563153
11
72.625997
21
65.624725
0
LINE
8
Layer 1
10
72.625997
20
65.624725
11
72.593844
21
65.636635
0
LINE
8
Layer 1
10
72.593844
20
65.636635
11
72.472189
21
65.736575
0
LINE
8
Layer 1
10
72.472189
20
65.736575
11
72.379789
21
65.803039
0
LINE
8
Layer 1
10
72.379789
20
65.803039
11
72.194324
21
65.912180
0
LINE
8
Layer 1
10
72.194324
20
65.912180
11
72.110959
21
65.973089
0
LINE
8
Layer 1
10
72.110959
20
65.973089
11
72.088494
21
65.993889
0
LINE
8
Layer 1
10
72.088494
20
65.993889
11
72.036286
21
66.014773
0
LINE
8
Layer 1
10
72.036286
20
66.014773
11
72.031065
21
66.057866
0
LINE
8
Layer 1
10
72.031065
20
66.057866
11
72.078055
21
66.059277
0
LINE
8
Layer 1
10
72.078055
20
66.059277
11
72.029160
21
66.078835
0
LINE
8
Layer 1
10
72.029160
20
66.078835
11
71.962781
21
66.087640
0
LINE
8
Layer 1
10
71.962781
20
66.087640
11
71.932202
21
66.098082
0
LINE
8
Layer 1
10
71.932202
20
66.098082
11
71.941177
21
66.119305
0
LINE
8
Layer 1
10
71.941177
20
66.119305
11
71.963303
21
66.142843
0
LINE
8
Layer 1
10
71.963303
20
66.142843
11
71.881179
21
66.153285
0
LINE
8
Layer 1
10
71.881179
20
66.153285
11
71.679969
21
66.232674
0
LINE
8
Layer 1
10
71.679969
20
66.232674
11
71.653271
21
66.283310
0
LINE
8
Layer 1
10
71.653271
20
66.283310
11
71.577195
21
66.328059
0
LINE
8
Layer 1
10
71.577195
20
66.328059
11
71.495816
21
66.399162
0
LINE
8
Layer 1
10
71.495816
20
66.399162
11
71.363555
21
66.444989
0
LINE
8
Layer 1
10
71.363555
20
66.444989
11
71.407229
21
66.412669
0
LINE
8
Layer 1
10
71.407229
20
66.412669
11
71.462336
21
66.369080
0
LINE
8
Layer 1
10
71.462336
20
66.369080
11
71.481753
21
66.358469
0
LINE
8
Layer 1
10
71.481753
20
66.358469
11
71.515648
21
66.347039
0
LINE
8
Layer 1
10
71.515648
20
66.347039
11
71.459711
21
66.338600
0
LINE
8
Layer 1
10
71.459711
20
66.338600
11
71.326206
21
66.428513
0
LINE
8
Layer 1
10
71.326206
20
66.428513
11
71.209524
21
66.483211
0
LINE
8
Layer 1
10
71.209524
20
66.483211
11
71.178116
21
66.504180
0
LINE
8
Layer 1
10
71.178116
20
66.504180
11
71.128312
21
66.536833
0
LINE
8
Layer 1
10
71.128312
20
66.536833
11
71.079002
21
66.568072
0
LINE
8
Layer 1
10
71.079002
20
66.568072
11
70.998205
21
66.599399
0
LINE
8
Layer 1
10
70.998205
20
66.599399
11
70.856662
21
66.638100
0
LINE
8
Layer 1
10
70.856662
20
66.638100
11
70.676088
21
66.702407
0
LINE
8
Layer 1
10
70.676088
20
66.702407
11
70.531892
21
66.768122
0
LINE
8
Layer 1
10
70.531892
20
66.768122
11
70.374855
21
66.808150
0
LINE
8
Layer 1
10
70.374855
20
66.808150
11
70.241183
21
66.829034
0
LINE
8
Layer 1
10
70.241183
20
66.829034
11
70.077678
21
66.819156
0
LINE
8
Layer 1
10
70.077678
20
66.819156
11
70.036330
21
66.815911
0
LINE
8
Layer 1
10
70.036330
20
66.815911
11
69.966469
21
66.845663
0
LINE
8
Layer 1
10
69.966469
20
66.845663
11
69.802800
21
66.871458
0
LINE
8
Layer 1
10
69.802800
20
66.871458
11
69.562807
21
66.911649
0
LINE
8
Layer 1
10
69.562807
20
66.911649
11
69.390604
21
66.943554
0
LINE
8
Layer 1
10
69.390604
20
66.943554
11
69.354056
21
66.935595
0
LINE
8
Layer 1
10
69.354056
20
66.935595
11
69.280966
21
66.912538
0
LINE
8
Layer 1
10
69.280966
20
66.912538
11
69.207873
21
66.929951
0
LINE
8
Layer 1
10
69.207873
20
66.929951
11
68.699298
21
66.913385
0
LINE
8
Layer 1
10
68.699298
20
66.913385
11
68.548858
21
66.904036
0
LINE
8
Layer 1
10
68.548858
20
66.904036
11
68.592147
21
66.946695
0
LINE
8
Layer 1
10
68.592147
20
66.946695
11
68.675598
21
66.973309
0
LINE
8
Layer 1
10
68.675598
20
66.973309
11
68.553695
21
66.968991
0
LINE
8
Layer 1
10
68.553695
20
66.968991
11
68.422182
21
66.949348
0
LINE
8
Layer 1
10
71.471062
20
66.294505
11
71.475289
21
66.250222
0
LINE
8
Layer 1
10
71.475289
20
66.250222
11
71.316179
21
66.260198
0
LINE
8
Layer 1
10
71.316179
20
66.260198
11
71.347505
21
66.288195
0
LINE
8
Layer 1
10
71.347505
20
66.288195
11
71.434517
21
66.304197
0
LINE
8
Layer 1
10
71.434517
20
66.304197
11
71.471062
21
66.294488
0
LINE
8
Layer 1
10
71.733681
20
66.249409
11
71.836686
21
66.181867
0
LINE
8
Layer 1
10
71.836686
20
66.181867
11
71.858897
21
66.202752
0
LINE
8
Layer 1
10
71.858897
20
66.202752
11
71.821359
21
66.223636
0
LINE
8
Layer 1
10
71.821359
20
66.223636
11
71.758705
21
66.248726
0
LINE
8
Layer 1
10
71.758705
20
66.248726
11
71.733672
21
66.249290
0
LINE
8
Layer 1
10
65.200082
20
66.160867
11
65.790536
21
66.064491
0
LINE
8
Layer 1
10
65.790536
20
66.064491
11
65.947161
21
65.990984
0
LINE
8
Layer 1
10
65.947161
20
65.990984
11
66.050748
21
65.932976
0
LINE
8
Layer 1
10
66.050748
20
65.932976
11
66.073975
21
65.877037
0
LINE
8
Layer 1
10
66.073975
20
65.877037
11
66.029804
21
65.820271
0
LINE
8
Layer 1
10
66.029804
20
65.820271
11
66.003925
21
65.813074
0
LINE
8
Layer 1
10
66.003925
20
65.813074
11
66.066575
21
65.712634
0
LINE
8
Layer 1
10
66.066575
20
65.712634
11
66.252785
21
65.539268
0
LINE
8
Layer 1
10
66.252785
20
65.539268
11
66.321817
21
65.498992
0
LINE
8
Layer 1
10
66.321817
20
65.498992
11
66.139420
21
65.482256
0
LINE
8
Layer 1
10
66.139420
20
65.482256
11
65.721918
21
65.602751
0
LINE
8
Layer 1
10
65.721918
20
65.602751
11
65.387951
21
65.690923
0
LINE
8
Layer 1
10
65.387951
20
65.690923
11
65.012215
21
65.785563
0
LINE
8
Layer 1
10
65.012215
20
65.785563
11
63.648745
21
65.840173
0
LINE
8
Layer 1
10
63.648745
20
65.840173
11
63.485293
21
65.889213
0
LINE
8
Layer 1
10
63.485293
20
65.889213
11
63.864126
21
66.068730
0
LINE
8
Layer 1
10
63.864126
20
66.068730
11
65.200076
21
66.160881
0
LINE
8
Layer 1
10
66.703016
20
65.910448
11
66.671692
21
65.889564
0
LINE
8
Layer 1
10
66.671692
20
65.889564
11
66.640365
21
65.910448
0
LINE
8
Layer 1
10
66.640365
20
65.910448
11
66.671692
21
65.931333
0
LINE
8
Layer 1
10
66.671692
20
65.931333
11
66.703016
21
65.910448
0
LINE
8
Layer 1
10
64.189306
20
65.804539
11
65.055301
21
65.721174
0
LINE
8
Layer 1
10
65.055301
20
65.721174
11
65.266869
21
65.672445
0
LINE
8
Layer 1
10
65.266869
20
65.672445
11
65.351894
21
65.643024
0
LINE
8
Layer 1
10
65.351894
20
65.643024
11
65.425565
21
65.627868
0
LINE
8
Layer 1
10
65.425565
20
65.627868
11
65.482661
21
65.616946
0
LINE
8
Layer 1
10
65.482661
20
65.616946
11
65.544482
21
65.597388
0
LINE
8
Layer 1
10
65.544482
20
65.597388
11
65.607135
21
65.576504
0
LINE
8
Layer 1
10
65.607135
20
65.576504
11
65.660501
21
65.555620
0
LINE
8
Layer 1
10
65.660501
20
65.555620
11
65.701028
21
65.539053
0
LINE
8
Layer 1
10
65.701028
20
65.539053
11
65.815802
21
65.483447
0
LINE
8
Layer 1
10
65.815802
20
65.483447
11
65.930658
21
65.428258
0
LINE
8
Layer 1
10
65.930658
20
65.428258
11
66.029771
21
65.398340
0
LINE
8
Layer 1
10
66.029771
20
65.398340
11
66.213828
21
65.344805
0
LINE
8
Layer 1
10
66.213828
20
65.344805
11
66.325452
21
65.305111
0
LINE
8
Layer 1
10
66.325452
20
65.305111
11
66.418018
21
65.276355
0
LINE
8
Layer 1
10
66.418018
20
65.276355
11
66.588153
21
65.210640
0
LINE
8
Layer 1
10
66.588153
20
65.210640
11
66.746022
21
65.136387
0
LINE
8
Layer 1
10
66.746022
20
65.136387
11
66.855823
21
65.085009
0
LINE
8
Layer 1
10
66.855823
20
65.085009
11
66.912756
21
65.023930
0
LINE
8
Layer 1
10
66.912756
20
65.023930
11
66.800550
21
65.053019
0
LINE
8
Layer 1
10
66.800550
20
65.053019
11
66.638953
21
65.107050
0
LINE
8
Layer 1
10
66.638953
20
65.107050
11
66.547298
21
65.136636
0
LINE
8
Layer 1
10
66.547298
20
65.136636
11
66.108084
21
65.298315
0
LINE
8
Layer 1
10
66.108084
20
65.298315
11
65.967453
21
65.349281
0
LINE
8
Layer 1
10
65.967453
20
65.349281
11
65.892704
21
65.367738
0
LINE
8
Layer 1
10
65.892704
20
65.367738
11
65.839833
21
65.381991
0
LINE
8
Layer 1
10
65.839833
20
65.381991
11
65.600670
21
65.450937
0
LINE
8
Layer 1
10
65.600670
20
65.450937
11
65.543573
21
65.470665
0
LINE
8
Layer 1
10
65.543573
20
65.470665
11
65.534373
21
65.503233
0
LINE
8
Layer 1
10
65.534373
20
65.503233
11
65.513178
21
65.496206
0
LINE
8
Layer 1
10
65.513178
20
65.496206
11
65.466767
21
65.488162
0
LINE
8
Layer 1
10
65.466767
20
65.488162
11
65.447378
21
65.509301
0
LINE
8
Layer 1
10
65.447378
20
65.509301
11
64.795852
21
65.691368
0
LINE
8
Layer 1
10
64.795852
20
65.691368
11
64.628867
21
65.719477
0
LINE
8
Layer 1
10
64.628867
20
65.719477
11
64.333764
21
65.753203
0
LINE
8
Layer 1
10
64.333764
20
65.753203
11
64.072889
21
65.773523
0
LINE
8
Layer 1
10
64.072889
20
65.773523
11
63.951649
21
65.783542
0
LINE
8
Layer 1
10
63.951649
20
65.783542
11
63.895631
21
65.806514
0
LINE
8
Layer 1
10
63.895631
20
65.806514
11
63.924550
21
65.817944
0
LINE
8
Layer 1
10
63.924550
20
65.817944
11
64.189322
21
65.804595
0
LINE
8
Layer 1
10
66.609962
20
65.762996
11
66.566869
21
65.730343
0
LINE
8
Layer 1
10
66.566869
20
65.730343
11
66.546408
21
65.764238
0
LINE
8
Layer 1
10
66.546408
20
65.764238
11
66.609970
21
65.762827
0
LINE
8
Layer 1
10
66.703033
20
65.680703
11
66.661264
21
65.659818
0
LINE
8
Layer 1
10
66.661264
20
65.659818
11
66.619501
21
65.680703
0
LINE
8
Layer 1
10
66.619501
20
65.680703
11
66.661264
21
65.701587
0
LINE
8
Layer 1
10
66.661264
20
65.701587
11
66.703033
21
65.680703
0
LINE
8
Layer 1
10
69.374023
20
65.554242
11
69.459296
21
65.526076
0
LINE
8
Layer 1
10
69.459296
20
65.526076
11
69.792352
21
65.102777
0
LINE
8
Layer 1
10
69.792352
20
65.102777
11
69.813886
21
65.075345
0
LINE
8
Layer 1
10
69.813886
20
65.075345
11
69.799380
21
64.953690
0
LINE
8
Layer 1
10
69.799380
20
64.953690
11
69.682283
21
64.826402
0
LINE
8
Layer 1
10
69.682283
20
64.826402
11
69.604220
21
64.772867
0
LINE
8
Layer 1
10
69.604220
20
64.772867
11
69.538172
21
64.742455
0
LINE
8
Layer 1
10
69.538172
20
64.742455
11
69.416602
21
64.724393
0
LINE
8
Layer 1
10
69.416602
20
64.724393
11
69.540989
21
64.845799
0
LINE
8
Layer 1
10
69.540989
20
64.845799
11
69.613415
21
64.913586
0
LINE
8
Layer 1
10
69.613415
20
64.913586
11
69.652201
21
64.981454
0
LINE
8
Layer 1
10
69.652201
20
64.981454
11
69.606622
21
64.934467
0
LINE
8
Layer 1
10
69.606622
20
64.934467
11
69.535852
21
64.887813
0
LINE
8
Layer 1
10
69.535852
20
64.887813
11
69.534441
21
64.903477
0
LINE
8
Layer 1
10
69.534441
20
64.903477
11
69.564853
21
65.123579
0
LINE
8
Layer 1
10
69.564853
20
65.123579
11
69.541740
21
65.189263
0
LINE
8
Layer 1
10
69.541740
20
65.189263
11
69.520934
21
65.086452
0
LINE
8
Layer 1
10
69.520934
20
65.086452
11
69.438915
21
64.876526
0
LINE
8
Layer 1
10
69.438915
20
64.876526
11
69.246590
21
64.772654
0
LINE
8
Layer 1
10
69.246590
20
64.772654
11
69.024557
21
64.791394
0
LINE
8
Layer 1
10
69.024557
20
64.791394
11
68.853411
21
64.949301
0
LINE
8
Layer 1
10
68.853411
20
64.949301
11
68.904948
21
65.320758
0
LINE
8
Layer 1
10
68.904948
20
65.320758
11
69.276383
21
65.423900
0
LINE
8
Layer 1
10
69.276383
20
65.423900
11
69.505604
21
65.254846
0
LINE
8
Layer 1
10
69.505604
20
65.254846
11
69.556486
21
65.254680
0
LINE
8
Layer 1
10
69.556486
20
65.254680
11
69.647643
21
65.160954
0
LINE
8
Layer 1
10
69.647643
20
65.160954
11
69.690236
21
65.079078
0
LINE
8
Layer 1
10
69.690236
20
65.079078
11
69.584660
21
65.327608
0
LINE
8
Layer 1
10
69.584660
20
65.327608
11
69.512649
21
65.421498
0
LINE
8
Layer 1
10
69.512649
20
65.421498
11
69.476764
21
65.425054
0
LINE
8
Layer 1
10
69.476764
20
65.425054
11
69.416518
21
65.427594
0
LINE
8
Layer 1
10
69.416518
20
65.427594
11
69.249866
21
65.505163
0
LINE
8
Layer 1
10
69.249866
20
65.505163
11
69.103432
21
65.473918
0
LINE
8
Layer 1
10
69.103432
20
65.473918
11
68.858633
21
65.310167
0
LINE
8
Layer 1
10
68.858633
20
65.310167
11
68.799132
21
65.263180
0
LINE
8
Layer 1
10
68.799132
20
65.263180
11
68.739465
21
65.156774
0
LINE
8
Layer 1
10
68.739465
20
65.156774
11
68.709053
21
65.103820
0
LINE
8
Layer 1
10
68.709053
20
65.103820
11
68.690341
21
64.991863
0
LINE
8
Layer 1
10
68.690341
20
64.991863
11
68.831302
21
64.869875
0
LINE
8
Layer 1
10
68.831302
20
64.869875
11
69.093006
21
64.719961
0
LINE
8
Layer 1
10
69.093006
20
64.719961
11
69.254770
21
64.733226
0
LINE
8
Layer 1
10
69.254770
20
64.733226
11
69.390822
21
64.722065
0
LINE
8
Layer 1
10
69.390822
20
64.722065
11
69.338302
21
64.688392
0
LINE
8
Layer 1
10
69.338302
20
64.688392
11
69.187477
21
64.655163
0
LINE
8
Layer 1
10
69.187477
20
64.655163
11
69.087288
21
64.654034
0
LINE
8
Layer 1
10
69.087288
20
64.654034
11
69.044944
21
64.664900
0
LINE
8
Layer 1
10
69.044944
20
64.664900
11
68.852931
21
64.741554
0
LINE
8
Layer 1
10
68.852931
20
64.741554
11
68.824091
21
64.762100
0
LINE
8
Layer 1
10
68.824091
20
64.762100
11
68.761525
21
64.813312
0
LINE
8
Layer 1
10
68.761525
20
64.813312
11
68.581614
21
64.918888
0
LINE
8
Layer 1
10
68.581614
20
64.918888
11
68.539845
21
64.923516
0
LINE
8
Layer 1
10
68.539845
20
64.923516
11
68.498082
21
64.984510
0
LINE
8
Layer 1
10
68.498082
20
64.984510
11
68.539845
21
65.023045
0
LINE
8
Layer 1
10
68.539845
20
65.023045
11
68.581614
21
65.072933
0
LINE
8
Layer 1
10
68.581614
20
65.072933
11
68.633822
21
65.158703
0
LINE
8
Layer 1
10
68.633822
20
65.158703
11
68.685946
21
65.252429
0
LINE
8
Layer 1
10
68.685946
20
65.252429
11
68.753817
21
65.360909
0
LINE
8
Layer 1
10
68.753817
20
65.360909
11
68.853427
21
65.471374
0
LINE
8
Layer 1
10
68.853427
20
65.471374
11
69.373935
21
65.554079
0
LINE
8
Layer 1
10
66.614355
20
65.403999
11
66.556178
21
65.370686
0
LINE
8
Layer 1
10
66.556178
20
65.370686
11
66.534306
21
65.396679
0
LINE
8
Layer 1
10
66.534306
20
65.396679
11
66.614361
21
65.403960
0
LINE
8
Layer 1
10
66.837364
20
65.327639
11
66.885593
21
65.318184
0
LINE
8
Layer 1
10
66.885593
20
65.318184
11
66.961835
21
65.298457
0
LINE
8
Layer 1
10
66.961835
20
65.298457
11
66.919821
21
65.230422
0
LINE
8
Layer 1
10
66.919821
20
65.230422
11
66.869933
21
65.220967
0
LINE
8
Layer 1
10
66.869933
20
65.220967
11
66.825350
21
65.222943
0
LINE
8
Layer 1
10
66.825350
20
65.222943
11
66.809687
21
65.267113
0
LINE
8
Layer 1
10
66.809687
20
65.267113
11
66.776540
21
65.273745
0
LINE
8
Layer 1
10
66.776540
20
65.273745
11
66.753651
21
65.303331
0
LINE
8
Layer 1
10
66.753651
20
65.303331
11
66.837353
21
65.327771
0
LINE
8
Layer 1
10
73.528803
20
62.974501
11
73.486455
21
62.967305
0
LINE
8
Layer 1
10
73.486455
20
62.967305
11
73.455795
21
63.008907
0
LINE
8
Layer 1
10
73.455795
20
63.008907
11
73.528803
21
62.974512
0
LINE
8
Layer 1
10
75.574463
20
55.173762
11
75.652441
21
55.043322
0
LINE
8
Layer 1
10
75.652441
20
55.043322
11
75.592776
21
55.180970
0
LINE
8
Layer 1
10
75.592776
20
55.180970
11
75.574460
21
55.173774
0
LINE
8
Layer 1
10
69.181340
20
41.935774
11
69.180411
21
41.841748
0
LINE
8
Layer 1
10
69.180411
20
41.841748
11
69.271171
21
41.868732
0
LINE
8
Layer 1
10
69.271171
20
41.868732
11
69.385282
21
41.922518
0
LINE
8
Layer 1
10
69.385282
20
41.922518
11
69.459950
21
41.959063
0
LINE
8
Layer 1
10
69.459950
20
41.959063
11
69.508345
21
41.959063
0
LINE
8
Layer 1
10
69.508345
20
41.959063
11
69.584091
21
41.800615
0
LINE
8
Layer 1
10
69.584091
20
41.800615
11
69.604411
21
41.726196
0
LINE
8
Layer 1
10
69.604411
20
41.726196
11
69.623658
21
41.615895
0
LINE
8
Layer 1
10
69.623658
20
41.615895
11
69.653822
21
41.424134
0
LINE
8
Layer 1
10
69.653822
20
41.424134
11
69.701890
21
40.882163
0
LINE
8
Layer 1
10
69.701890
20
40.882163
11
69.712812
21
40.720399
0
LINE
8
Layer 1
10
69.712812
20
40.720399
11
69.732963
21
40.589880
0
LINE
8
Layer 1
10
69.732963
20
40.589880
11
69.740075
21
40.568995
0
LINE
8
Layer 1
10
69.740075
20
40.568995
11
69.725907
21
40.281930
0
LINE
8
Layer 1
10
69.725907
20
40.281930
11
69.706575
21
39.981443
0
LINE
8
Layer 1
10
69.706575
20
39.981443
11
69.682530
21
39.853162
0
LINE
8
Layer 1
10
69.682530
20
39.853162
11
69.588223
21
39.663718
0
LINE
8
Layer 1
10
69.588223
20
39.663718
11
69.500048
21
39.545464
0
LINE
8
Layer 1
10
69.500048
20
39.545464
11
69.439387
21
39.445854
0
LINE
8
Layer 1
10
69.439387
20
39.445854
11
69.364141
21
39.278372
0
LINE
8
Layer 1
10
69.364141
20
39.278372
11
69.320634
21
39.132271
0
LINE
8
Layer 1
10
69.320634
20
39.132271
11
69.291463
21
39.029263
0
LINE
8
Layer 1
10
69.291463
20
39.029263
11
69.210194
21
38.835855
0
LINE
8
Layer 1
10
69.210194
20
38.835855
11
69.019895
21
38.878689
0
LINE
8
Layer 1
10
69.019895
20
38.878689
11
68.724713
21
38.932802
0
LINE
8
Layer 1
10
68.724713
20
38.932802
11
68.606123
21
38.898659
0
LINE
8
Layer 1
10
68.606123
20
38.898659
11
68.523339
21
38.895188
0
LINE
8
Layer 1
10
68.523339
20
38.895188
11
68.392072
21
38.900747
0
LINE
8
Layer 1
10
68.392072
20
38.900747
11
68.296026
21
38.911923
0
LINE
8
Layer 1
10
68.296026
20
38.911923
11
68.266935
21
38.893466
0
LINE
8
Layer 1
10
68.266935
20
38.893466
11
68.226744
21
38.921807
0
LINE
8
Layer 1
10
68.226744
20
38.921807
11
68.194672
21
38.927282
0
LINE
8
Layer 1
10
68.194672
20
38.927282
11
68.074677
21
38.938147
0
LINE
8
Layer 1
10
68.074677
20
38.938147
11
67.902722
21
38.967815
0
LINE
8
Layer 1
10
67.902722
20
38.967815
11
67.794078
21
38.989517
0
LINE
8
Layer 1
10
67.794078
20
38.989517
11
67.600493
21
38.941204
0
LINE
8
Layer 1
10
67.600493
20
38.941204
11
67.468814
21
38.906733
0
LINE
8
Layer 1
10
67.468814
20
38.906733
11
67.202549
21
38.887486
0
LINE
8
Layer 1
10
67.202549
20
38.887486
11
66.974243
21
38.745280
0
LINE
8
Layer 1
10
66.974243
20
38.745280
11
66.937777
21
38.728121
0
LINE
8
Layer 1
10
66.937777
20
38.728121
11
66.897174
21
38.720021
0
LINE
8
Layer 1
10
66.897174
20
38.720021
11
66.929430
21
38.800582
0
LINE
8
Layer 1
10
66.929430
20
38.800582
11
66.705743
21
38.809604
0
LINE
8
Layer 1
10
66.705743
20
38.809604
11
66.430862
21
38.826848
0
LINE
8
Layer 1
10
66.430862
20
38.826848
11
66.029686
21
38.779282
0
LINE
8
Layer 1
10
66.029686
20
38.779282
11
65.826156
21
38.761220
0
LINE
8
Layer 1
10
65.826156
20
38.761220
11
65.764172
21
38.837377
0
LINE
8
Layer 1
10
65.764172
20
38.837377
11
65.768800
21
38.857105
0
LINE
8
Layer 1
10
65.768800
20
38.857105
11
65.742694
21
38.896633
0
LINE
8
Layer 1
10
65.742694
20
38.896633
11
65.711371
21
38.961769
0
LINE
8
Layer 1
10
65.711371
20
38.961769
11
65.680044
21
39.007348
0
LINE
8
Layer 1
10
65.680044
20
39.007348
11
65.606457
21
39.123285
0
LINE
8
Layer 1
10
65.606457
20
39.123285
11
65.559552
21
39.238389
0
LINE
8
Layer 1
10
65.559552
20
39.238389
11
65.561528
21
39.267309
0
LINE
8
Layer 1
10
65.561528
20
39.267309
11
65.426950
21
39.428080
0
LINE
8
Layer 1
10
65.426950
20
39.428080
11
65.420571
21
39.522802
0
LINE
8
Layer 1
10
65.420571
20
39.522802
11
65.388006
21
39.628711
0
LINE
8
Layer 1
10
65.388006
20
39.628711
11
65.345743
21
39.713733
0
LINE
8
Layer 1
10
65.345743
20
39.713733
11
65.335301
21
39.768097
0
LINE
8
Layer 1
10
65.335301
20
39.768097
11
65.367121
21
39.820554
0
LINE
8
Layer 1
10
65.367121
20
39.820554
11
65.408890
21
39.838447
0
LINE
8
Layer 1
10
65.408890
20
39.838447
11
65.450572
21
39.840422
0
LINE
8
Layer 1
10
65.450572
20
39.840422
11
65.485296
21
39.835963
0
LINE
8
Layer 1
10
65.485296
20
39.835963
11
65.528804
21
39.833423
0
LINE
8
Layer 1
10
65.528804
20
39.833423
11
65.588053
21
39.859529
0
LINE
8
Layer 1
10
65.588053
20
39.859529
11
65.638438
21
39.878325
0
LINE
8
Layer 1
10
65.638438
20
39.878325
11
65.739956
21
39.933598
0
LINE
8
Layer 1
10
65.739956
20
39.933598
11
66.432997
21
40.750120
0
LINE
8
Layer 1
10
66.432997
20
40.750120
11
66.547444
21
40.945776
0
LINE
8
Layer 1
10
66.547444
20
40.945776
11
66.577775
21
40.998314
0
LINE
8
Layer 1
10
66.577775
20
40.998314
11
66.621034
21
41.039420
0
LINE
8
Layer 1
10
66.621034
20
41.039420
11
66.654014
21
41.080026
0
LINE
8
Layer 1
10
66.654014
20
41.080026
11
66.667109
21
41.130329
0
LINE
8
Layer 1
10
66.667109
20
41.130329
11
66.665416
21
41.153697
0
LINE
8
Layer 1
10
66.665416
20
41.153697
11
66.640383
21
41.185024
0
LINE
8
Layer 1
10
66.640383
20
41.185024
11
66.661267
21
41.216348
0
LINE
8
Layer 1
10
66.661267
20
41.216348
11
66.682152
21
41.195463
0
LINE
8
Layer 1
10
66.682152
20
41.195463
11
66.703939
21
41.174579
0
LINE
8
Layer 1
10
66.703939
20
41.174579
11
66.719574
21
41.211127
0
LINE
8
Layer 1
10
66.719574
20
41.211127
11
66.760347
21
41.241121
0
LINE
8
Layer 1
10
66.760347
20
41.241121
11
66.807334
21
41.256813
0
LINE
8
Layer 1
10
66.807334
20
41.256813
11
66.851671
21
41.278995
0
LINE
8
Layer 1
10
66.851671
20
41.278995
11
66.868322
21
41.312224
0
LINE
8
Layer 1
10
66.868322
20
41.312224
11
66.883647
21
41.380099
0
LINE
8
Layer 1
10
66.883647
20
41.380099
11
66.939338
21
41.451202
0
LINE
8
Layer 1
10
66.939338
20
41.451202
11
66.995190
21
41.487744
0
LINE
8
Layer 1
10
66.995190
20
41.487744
11
67.050299
21
41.518988
0
LINE
8
Layer 1
10
67.050299
20
41.518988
11
67.114524
21
41.550315
0
LINE
8
Layer 1
10
67.114524
20
41.550315
11
67.154634
21
41.518988
0
LINE
8
Layer 1
10
67.154634
20
41.518988
11
67.251261
21
41.511622
0
LINE
8
Layer 1
10
67.251261
20
41.511622
11
67.303718
21
41.511622
0
LINE
8
Layer 1
10
67.303718
20
41.511622
11
67.372583
21
41.519666
0
LINE
8
Layer 1
10
67.372583
20
41.519666
11
67.433576
21
41.518819
0
LINE
8
Layer 1
10
67.433576
20
41.518819
11
67.487026
21
41.462135
0
LINE
8
Layer 1
10
67.487026
20
41.462135
11
67.528296
21
41.389045
0
LINE
8
Layer 1
10
67.528296
20
41.389045
11
67.547769
21
41.328218
0
LINE
8
Layer 1
10
67.547769
20
41.328218
11
67.569472
21
41.299877
0
LINE
8
Layer 1
10
67.569472
20
41.299877
11
67.591598
21
41.219325
0
LINE
8
Layer 1
10
67.591598
20
41.219325
11
67.600968
21
41.112422
0
LINE
8
Layer 1
10
67.600968
20
41.112422
11
67.599839
21
41.069911
0
LINE
8
Layer 1
10
67.599839
20
41.069911
11
67.621457
21
41.026900
0
LINE
8
Layer 1
10
67.621457
20
41.026900
11
67.641100
21
40.996073
0
LINE
8
Layer 1
10
67.641100
20
40.996073
11
67.830875
21
40.913617
0
LINE
8
Layer 1
10
67.830875
20
40.913617
11
67.978881
21
40.808455
0
LINE
8
Layer 1
10
67.978881
20
40.808455
11
68.046253
21
40.781277
0
LINE
8
Layer 1
10
68.046253
20
40.781277
11
68.279205
21
40.777890
0
LINE
8
Layer 1
10
68.279205
20
40.777890
11
68.356604
21
40.819408
0
LINE
8
Layer 1
10
68.356604
20
40.819408
11
68.612009
21
40.946287
0
LINE
8
Layer 1
10
68.612009
20
40.946287
11
68.624455
21
40.965534
0
LINE
8
Layer 1
10
68.624455
20
40.965534
11
68.636732
21
40.996861
0
LINE
8
Layer 1
10
68.636732
20
40.996861
11
68.650166
21
41.028351
0
LINE
8
Layer 1
10
68.650166
20
41.028351
11
68.769580
21
41.207517
0
LINE
8
Layer 1
10
68.769580
20
41.207517
11
68.797746
21
41.289725
0
LINE
8
Layer 1
10
68.797746
20
41.289725
11
68.864951
21
41.520848
0
LINE
8
Layer 1
10
68.864951
20
41.520848
11
68.922629
21
41.675319
0
LINE
8
Layer 1
10
68.922629
20
41.675319
11
68.967714
21
41.764736
0
LINE
8
Layer 1
10
68.967714
20
41.764736
11
68.995710
21
41.798382
0
LINE
8
Layer 1
10
68.995710
20
41.798382
11
69.027037
21
41.831778
0
LINE
8
Layer 1
10
69.027037
20
41.831778
11
69.190291
21
42.007546
0
LINE
8
Layer 1
10
69.190291
20
42.007546
11
69.181401
21
41.935697
0
LINE
8
Layer 1
10
70.935181
20
41.368699
11
70.898966
21
41.334559
0
LINE
8
Layer 1
10
70.898966
20
41.334559
11
70.946783
21
41.258399
0
LINE
8
Layer 1
10
70.946783
20
41.258399
11
70.977362
21
41.380632
0
LINE
8
Layer 1
10
70.977362
20
41.380632
11
70.935181
21
41.368722
0
LINE
8
Layer 1
10
65.098041
20
41.096079
11
65.107326
21
41.021578
0
LINE
8
Layer 1
10
65.107326
20
41.021578
11
65.135751
21
40.896280
0
LINE
8
Layer 1
10
65.135751
20
40.896280
11
65.167905
21
40.725567
0
LINE
8
Layer 1
10
65.167905
20
40.725567
11
65.203457
21
40.172406
0
LINE
8
Layer 1
10
65.203457
20
40.172406
11
65.276298
21
39.766342
0
LINE
8
Layer 1
10
65.276298
20
39.766342
11
65.315993
21
39.630602
0
LINE
8
Layer 1
10
65.315993
20
39.630602
11
65.392150
21
39.334918
0
LINE
8
Layer 1
10
65.392150
20
39.334918
11
65.462344
21
39.257101
0
LINE
8
Layer 1
10
65.462344
20
39.257101
11
65.514716
21
39.217824
0
LINE
8
Layer 1
10
65.514716
20
39.217824
11
65.553417
21
39.100891
0
LINE
8
Layer 1
10
65.553417
20
39.100891
11
65.541987
21
39.014376
0
LINE
8
Layer 1
10
65.541987
20
39.014376
11
65.515882
21
38.976338
0
LINE
8
Layer 1
10
65.515882
20
38.976338
11
65.655184
21
38.806040
0
LINE
8
Layer 1
10
65.655184
20
38.806040
11
65.682447
21
38.723004
0
LINE
8
Layer 1
10
65.682447
20
38.723004
11
65.840980
21
38.532318
0
LINE
8
Layer 1
10
65.840980
20
38.532318
11
65.808163
21
38.460719
0
LINE
8
Layer 1
10
65.808163
20
38.460719
11
65.763659
21
38.418953
0
LINE
8
Layer 1
10
65.763659
20
38.418953
11
65.781298
21
38.377187
0
LINE
8
Layer 1
10
65.781298
20
38.377187
11
65.700997
21
38.219896
0
LINE
8
Layer 1
10
65.700997
20
38.219896
11
65.603538
21
38.203075
0
LINE
8
Layer 1
10
65.603538
20
38.203075
11
65.544703
21
38.230169
0
LINE
8
Layer 1
10
65.544703
20
38.230169
11
65.449069
21
38.272846
0
LINE
8
Layer 1
10
65.449069
20
38.272846
11
65.387912
21
38.345854
0
LINE
8
Layer 1
10
65.387912
20
38.345854
11
65.342251
21
38.438008
0
LINE
8
Layer 1
10
65.342251
20
38.438008
11
65.243138
21
38.490628
0
LINE
8
Layer 1
10
65.243138
20
38.490628
11
65.147092
21
38.527176
0
LINE
8
Layer 1
10
65.147092
20
38.527176
11
64.987150
21
38.632449
0
LINE
8
Layer 1
10
64.987150
20
38.632449
11
65.097452
21
38.714546
0
LINE
8
Layer 1
10
65.097452
20
38.714546
11
65.331064
21
38.700717
0
LINE
8
Layer 1
10
65.331064
20
38.700717
11
65.461750
21
38.709918
0
LINE
8
Layer 1
10
65.461750
20
38.709918
11
65.241812
21
38.758564
0
LINE
8
Layer 1
10
65.241812
20
38.758564
11
65.149909
21
38.798756
0
LINE
8
Layer 1
10
65.149909
20
38.798756
11
65.094715
21
38.825454
0
LINE
8
Layer 1
10
65.094715
20
38.825454
11
65.066210
21
38.867883
0
LINE
8
Layer 1
10
65.066210
20
38.867883
11
65.032649
21
38.919925
0
LINE
8
Layer 1
10
65.032649
20
38.919925
11
65.012187
21
38.938326
0
LINE
8
Layer 1
10
65.012187
20
38.938326
11
65.186383
21
38.991945
0
LINE
8
Layer 1
10
65.186383
20
38.991945
11
65.241823
21
39.011249
0
LINE
8
Layer 1
10
65.241823
20
39.011249
11
65.094726
21
39.049453
0
LINE
8
Layer 1
10
65.094726
20
39.049453
11
65.033072
21
39.091053
0
LINE
8
Layer 1
10
65.033072
20
39.091053
11
65.000007
21
39.142683
0
LINE
8
Layer 1
10
65.000007
20
39.142683
11
64.994786
21
39.173013
0
LINE
8
Layer 1
10
64.994786
20
39.173013
11
64.991314
21
39.192345
0
LINE
8
Layer 1
10
64.991314
20
39.192345
11
65.009207
21
39.213625
0
LINE
8
Layer 1
10
65.009207
20
39.213625
11
65.000656
21
39.380198
0
LINE
8
Layer 1
10
65.000656
20
39.380198
11
64.978614
21
39.495054
0
LINE
8
Layer 1
10
64.978614
20
39.495054
11
64.973393
21
39.598392
0
LINE
8
Layer 1
10
64.973393
20
39.598392
11
64.975087
21
39.695104
0
LINE
8
Layer 1
10
64.975087
20
39.695104
11
64.972829
21
39.852225
0
LINE
8
Layer 1
10
64.972829
20
39.852225
11
64.951945
21
40.372154
0
LINE
8
Layer 1
10
64.951945
20
40.372154
11
64.967749
21
40.644879
0
LINE
8
Layer 1
10
64.967749
20
40.644879
11
65.038355
21
41.085667
0
LINE
8
Layer 1
10
65.038355
20
41.085667
11
65.098104
21
41.096109
0
LINE
8
Layer 1
10
70.034524
20
41.052435
11
70.080434
21
41.036094
0
LINE
8
Layer 1
10
70.080434
20
41.036094
11
70.156094
21
40.842425
0
LINE
8
Layer 1
10
70.156094
20
40.842425
11
70.191316
21
40.669144
0
LINE
8
Layer 1
10
70.191316
20
40.669144
11
70.207967
21
40.583538
0
LINE
8
Layer 1
10
70.207967
20
40.583538
11
70.252383
21
40.308078
0
LINE
8
Layer 1
10
70.252383
20
40.308078
11
70.324313
21
39.974111
0
LINE
8
Layer 1
10
70.324313
20
39.974111
11
70.378841
21
39.806048
0
LINE
8
Layer 1
10
70.378841
20
39.806048
11
70.409919
21
39.696495
0
LINE
8
Layer 1
10
70.409919
20
39.696495
11
70.442157
21
39.608817
0
LINE
8
Layer 1
10
70.442157
20
39.608817
11
70.460389
21
39.556609
0
LINE
8
Layer 1
10
70.460389
20
39.556609
11
70.502155
21
39.462634
0
LINE
8
Layer 1
10
70.502155
20
39.462634
11
70.532737
21
39.420953
0
LINE
8
Layer 1
10
70.532737
20
39.420953
11
70.542614
21
39.381504
0
LINE
8
Layer 1
10
70.542614
20
39.381504
11
70.568635
21
39.278414
0
LINE
8
Layer 1
10
70.568635
20
39.278414
11
70.610816
21
39.204991
0
LINE
8
Layer 1
10
70.610816
20
39.204991
11
70.648273
21
39.150460
0
LINE
8
Layer 1
10
70.648273
20
39.150460
11
70.681834
21
39.040743
0
LINE
8
Layer 1
10
70.681834
20
39.040743
11
70.704977
21
38.897211
0
LINE
8
Layer 1
10
70.704977
20
38.897211
11
70.725353
21
38.774396
0
LINE
8
Layer 1
10
70.725353
20
38.774396
11
70.745419
21
38.701555
0
LINE
8
Layer 1
10
70.745419
20
38.701555
11
70.832600
21
38.649346
0
LINE
8
Layer 1
10
70.832600
20
38.649346
11
70.815272
21
38.679922
0
LINE
8
Layer 1
10
70.815272
20
38.679922
11
70.801104
21
38.710422
0
LINE
8
Layer 1
10
70.801104
20
38.710422
11
70.872952
21
38.643462
0
LINE
8
Layer 1
10
70.872952
20
38.643462
11
70.883564
21
38.579900
0
LINE
8
Layer 1
10
70.883564
20
38.579900
11
70.846604
21
38.519403
0
LINE
8
Layer 1
10
70.846604
20
38.519403
11
70.773514
21
38.557444
0
LINE
8
Layer 1
10
70.773514
20
38.557444
11
70.656335
21
38.575675
0
LINE
8
Layer 1
10
70.656335
20
38.575675
11
70.551337
21
38.595995
0
LINE
8
Layer 1
10
70.551337
20
38.595995
11
70.543237
21
38.627737
0
LINE
8
Layer 1
10
70.543237
20
38.627737
11
70.523087
21
38.659060
0
LINE
8
Layer 1
10
70.523087
20
38.659060
11
70.466487
21
38.648618
0
LINE
8
Layer 1
10
70.466487
20
38.648618
11
70.418667
21
38.657819
0
LINE
8
Layer 1
10
70.418667
20
38.657819
11
70.363312
21
38.700000
0
LINE
8
Layer 1
10
70.363312
20
38.700000
11
70.377734
21
38.648042
0
LINE
8
Layer 1
10
70.377734
20
38.648042
11
70.383717
21
38.603209
0
LINE
8
Layer 1
10
70.383717
20
38.603209
11
70.348084
21
38.518102
0
LINE
8
Layer 1
10
70.348084
20
38.518102
11
70.300270
21
38.460754
0
LINE
8
Layer 1
10
70.300270
20
38.460754
11
70.298859
21
38.424209
0
LINE
8
Layer 1
10
70.298859
20
38.424209
11
70.254440
21
38.314569
0
LINE
8
Layer 1
10
70.254440
20
38.314569
11
70.251533
21
38.262449
0
LINE
8
Layer 1
10
70.251533
20
38.262449
11
70.209764
21
38.189356
0
LINE
8
Layer 1
10
70.209764
20
38.189356
11
70.147116
21
38.158029
0
LINE
8
Layer 1
10
70.147116
20
38.158029
11
70.124990
21
38.126705
0
LINE
8
Layer 1
10
70.124990
20
38.126705
11
70.108819
21
38.163250
0
LINE
8
Layer 1
10
70.108819
20
38.163250
11
70.102525
21
38.220680
0
LINE
8
Layer 1
10
70.102525
20
38.220680
11
70.116862
21
38.356338
0
LINE
8
Layer 1
10
70.116862
20
38.356338
11
70.170900
21
38.356300
0
LINE
8
Layer 1
10
70.170900
20
38.356300
11
70.127726
21
38.416961
0
LINE
8
Layer 1
10
70.127726
20
38.416961
11
70.115872
21
38.523285
0
LINE
8
Layer 1
10
70.115872
20
38.523285
11
70.147114
21
38.545750
0
LINE
8
Layer 1
10
70.147114
20
38.545750
11
70.202139
21
38.524865
0
LINE
8
Layer 1
10
70.202139
20
38.524865
11
70.246310
21
38.533417
0
LINE
8
Layer 1
10
70.246310
20
38.533417
11
70.188880
21
38.605186
0
LINE
8
Layer 1
10
70.188880
20
38.605186
11
70.162775
21
38.616870
0
LINE
8
Layer 1
10
70.162775
20
38.616870
11
70.106754
21
38.626324
0
LINE
8
Layer 1
10
70.106754
20
38.626324
11
70.224596
21
38.705547
0
LINE
8
Layer 1
10
70.224596
20
38.705547
11
70.299097
21
38.844524
0
LINE
8
Layer 1
10
70.299097
20
38.844524
11
70.290291
21
38.931536
0
LINE
8
Layer 1
10
70.290291
20
38.931536
11
70.189191
21
38.972308
0
LINE
8
Layer 1
10
70.189191
20
38.972308
11
70.087094
21
38.956645
0
LINE
8
Layer 1
10
70.087094
20
38.956645
11
70.077725
21
39.027251
0
LINE
8
Layer 1
10
70.077725
20
39.027251
11
70.080716
21
39.043761
0
LINE
8
Layer 1
10
70.080716
20
39.043761
11
70.053284
21
39.129864
0
LINE
8
Layer 1
10
70.053284
20
39.129864
11
70.030481
21
39.226243
0
LINE
8
Layer 1
10
70.030481
20
39.226243
11
70.085836
21
39.295689
0
LINE
8
Layer 1
10
70.085836
20
39.295689
11
70.138874
21
39.320130
0
LINE
8
Layer 1
10
70.138874
20
39.320130
11
70.117735
21
39.330657
0
LINE
8
Layer 1
10
70.117735
20
39.330657
11
70.027074
21
39.429688
0
LINE
8
Layer 1
10
70.027074
20
39.429688
11
70.027074
21
39.453960
0
LINE
8
Layer 1
10
70.027074
20
39.453960
11
70.068840
21
39.516277
0
LINE
8
Layer 1
10
70.068840
20
39.516277
11
70.136712
21
39.531432
0
LINE
8
Layer 1
10
70.136712
20
39.531432
11
70.063619
21
39.556211
0
LINE
8
Layer 1
10
70.063619
20
39.556211
11
70.011992
21
39.727424
0
LINE
8
Layer 1
10
70.011992
20
39.727424
11
70.027910
21
39.825375
0
LINE
8
Layer 1
10
70.027910
20
39.825375
11
70.010101
21
40.000149
0
LINE
8
Layer 1
10
70.010101
20
40.000149
11
69.995765
21
40.130668
0
LINE
8
Layer 1
10
69.995765
20
40.130668
11
69.980073
21
40.163239
0
LINE
8
Layer 1
10
69.980073
20
40.163239
11
69.956874
21
40.181386
0
LINE
8
Layer 1
10
69.956874
20
40.181386
11
69.942538
21
40.348286
0
LINE
8
Layer 1
10
69.942538
20
40.348286
11
69.936724
21
40.538724
0
LINE
8
Layer 1
10
69.936724
20
40.538724
11
69.939264
21
40.995754
0
LINE
8
Layer 1
10
69.939264
20
40.995754
11
69.958991
21
41.037602
0
LINE
8
Layer 1
10
69.958991
20
41.037602
11
69.936103
21
41.028232
0
LINE
8
Layer 1
10
69.936103
20
41.028232
11
69.925999
21
41.035203
0
LINE
8
Layer 1
10
69.925999
20
41.035203
11
69.938445
21
41.091885
0
LINE
8
Layer 1
10
69.938445
20
41.091885
11
70.034409
21
41.052441
0
LINE
8
Layer 1
10
65.408749
20
39.193821
11
65.444797
21
39.171469
0
LINE
8
Layer 1
10
65.444797
20
39.171469
11
65.428316
21
39.223514
0
LINE
8
Layer 1
10
65.428316
20
39.223514
11
65.408758
21
39.193847
0
LINE
8
Layer 1
10
69.738978
20
38.754882
11
69.687929
21
38.669527
0
LINE
8
Layer 1
10
69.687929
20
38.669527
11
69.639616
21
38.698282
0
LINE
8
Layer 1
10
69.639616
20
38.698282
11
69.738978
21
38.754882
0
LINE
8
Layer 1
10
71.059518
20
38.716432
11
71.095399
21
38.664554
0
LINE
8
Layer 1
10
71.095399
20
38.664554
11
71.055211
21
38.597427
0
LINE
8
Layer 1
10
71.055211
20
38.597427
11
70.948887
21
38.616252
0
LINE
8
Layer 1
10
70.948887
20
38.616252
11
70.978191
21
38.742826
0
LINE
8
Layer 1
10
70.978191
20
38.742826
11
71.059518
21
38.716444
0
LINE
8
Layer 1
10
64.832968
20
38.641195
11
64.782495
21
38.623556
0
LINE
8
Layer 1
10
64.782495
20
38.623556
11
64.839016
21
38.682560
0
LINE
8
Layer 1
10
64.839016
20
38.682560
11
64.832948
21
38.641206
0
LINE
8
Layer 1
10
69.572138
20
38.645270
11
69.583484
21
38.507374
0
LINE
8
Layer 1
10
69.583484
20
38.507374
11
69.541799
21
38.440417
0
LINE
8
Layer 1
10
69.541799
20
38.440417
11
69.509234
21
38.411989
0
LINE
8
Layer 1
10
69.509234
20
38.411989
11
69.465063
21
38.380004
0
LINE
8
Layer 1
10
69.465063
20
38.380004
11
69.446606
21
38.335501
0
LINE
8
Layer 1
10
69.446606
20
38.335501
11
69.265950
21
38.449366
0
LINE
8
Layer 1
10
69.265950
20
38.449366
11
69.229484
21
38.473806
0
LINE
8
Layer 1
10
69.229484
20
38.473806
11
69.211676
21
38.509358
0
LINE
8
Layer 1
10
69.211676
20
38.509358
11
69.365066
21
38.545406
0
LINE
8
Layer 1
10
69.365066
20
38.545406
11
69.376496
21
38.511926
0
LINE
8
Layer 1
10
69.376496
20
38.511926
11
69.389760
21
38.572008
0
LINE
8
Layer 1
10
69.389760
20
38.572008
11
69.572157
21
38.645265
0
LINE
8
Layer 1
10
66.867437
20
38.504637
11
66.959340
21
38.476951
0
LINE
8
Layer 1
10
66.959340
20
38.476951
11
66.976753
21
38.453667
0
LINE
8
Layer 1
10
66.976753
20
38.453667
11
66.923467
21
38.438766
0
LINE
8
Layer 1
10
66.923467
20
38.438766
11
66.856095
21
38.447797
0
LINE
8
Layer 1
10
66.856095
20
38.447797
11
66.802642
21
38.532656
0
LINE
8
Layer 1
10
66.802642
20
38.532656
11
66.867449
21
38.504659
0
LINE
8
Layer 1
10
65.180949
20
38.457839
11
65.281056
21
38.243288
0
LINE
8
Layer 1
10
65.281056
20
38.243288
11
65.270359
21
38.162157
0
LINE
8
Layer 1
10
65.270359
20
38.162157
11
65.317598
21
38.067023
0
LINE
8
Layer 1
10
65.317598
20
38.067023
11
65.331427
21
37.996747
0
LINE
8
Layer 1
10
65.331427
20
37.996747
11
65.250048
21
38.039176
0
LINE
8
Layer 1
10
65.250048
20
38.039176
11
65.111240
21
38.103732
0
LINE
8
Layer 1
10
65.111240
20
38.103732
11
65.053892
21
38.177321
0
LINE
8
Layer 1
10
65.053892
20
38.177321
11
65.031286
21
38.242706
0
LINE
8
Layer 1
10
65.031286
20
38.242706
11
64.969384
21
38.348282
0
LINE
8
Layer 1
10
64.969384
20
38.348282
11
64.908472
21
38.439937
0
LINE
8
Layer 1
10
64.908472
20
38.439937
11
64.886854
21
38.474162
0
LINE
8
Layer 1
10
64.886854
20
38.474162
11
65.180960
21
38.457821
0
LINE
8
Layer 1
10
66.527270
20
38.326969
11
66.439843
21
38.220729
0
LINE
8
Layer 1
10
66.439843
20
38.220729
11
66.395672
21
38.279730
0
LINE
8
Layer 1
10
66.395672
20
38.279730
11
66.435779
21
38.374619
0
LINE
8
Layer 1
10
66.435779
20
38.374619
11
66.519127
21
38.427988
0
LINE
8
Layer 1
10
66.519127
20
38.427988
11
66.527270
21
38.326969
0
LINE
8
Layer 1
10
71.408330
20
38.448124
11
71.441395
21
38.405694
0
LINE
8
Layer 1
10
71.441395
20
38.405694
11
71.472637
21
38.363928
0
LINE
8
Layer 1
10
71.472637
20
38.363928
11
71.480341
21
38.239872
0
LINE
8
Layer 1
10
71.480341
20
38.239872
11
71.437579
21
38.259515
0
LINE
8
Layer 1
10
71.437579
20
38.259515
11
71.386943
21
38.293822
0
LINE
8
Layer 1
10
71.386943
20
38.293822
11
71.368316
21
38.314622
0
LINE
8
Layer 1
10
71.368316
20
38.314622
11
71.345202
21
38.335506
0
LINE
8
Layer 1
10
71.345202
20
38.335506
11
71.322935
21
38.349279
0
LINE
8
Layer 1
10
71.322935
20
38.349279
11
71.312069
21
38.392617
0
LINE
8
Layer 1
10
71.312069
20
38.392617
11
71.408366
21
38.448141
0
LINE
8
Layer 1
10
71.011999
20
38.358806
11
70.891338
21
38.329636
0
LINE
8
Layer 1
10
70.891338
20
38.329636
11
70.965258
21
38.376956
0
LINE
8
Layer 1
10
70.965258
20
38.376956
11
71.011999
21
38.358809
0
LINE
8
Layer 1
10
67.287469
20
38.301795
11
67.266585
21
38.283394
0
LINE
8
Layer 1
10
67.266585
20
38.283394
11
67.245701
21
38.327564
0
LINE
8
Layer 1
10
67.245701
20
38.327564
11
67.266585
21
38.345965
0
LINE
8
Layer 1
10
67.266585
20
38.345965
11
67.287469
21
38.301795
0
LINE
8
Layer 1
10
64.680859
20
38.100255
11
64.658818
21
38.139038
0
LINE
8
Layer 1
10
64.658818
20
38.139038
11
64.695447
21
38.148153
0
LINE
8
Layer 1
10
64.695447
20
38.148153
11
64.680857
21
38.100255
0
LINE
8
Layer 1
10
69.061717
20
38.040091
11
68.993848
21
38.042997
0
LINE
8
Layer 1
10
68.993848
20
38.042997
11
69.022603
21
38.114016
0
LINE
8
Layer 1
10
69.022603
20
38.114016
11
69.061717
21
38.040096
0
LINE
8
Layer 1
10
64.593757
20
38.043342
11
64.621612
21
38.001576
0
LINE
8
Layer 1
10
64.621612
20
38.001576
11
64.595252
21
37.959807
0
LINE
8
Layer 1
10
64.595252
20
37.959807
11
64.521084
21
38.042430
0
LINE
8
Layer 1
10
64.521084
20
38.042430
11
64.511122
21
38.064218
0
LINE
8
Layer 1
10
64.511122
20
38.064218
11
64.500849
21
38.085271
0
LINE
8
Layer 1
10
64.500849
20
38.085271
11
64.545268
21
38.074829
0
LINE
8
Layer 1
10
64.545268
20
38.074829
11
64.593745
21
38.043339
0
LINE
8
Layer 1
10
66.139365
20
38.085105
11
66.117578
21
38.064220
0
LINE
8
Layer 1
10
66.117578
20
38.064220
11
66.101915
21
38.027842
0
LINE
8
Layer 1
10
66.101915
20
38.027842
11
65.945956
21
38.015481
0
LINE
8
Layer 1
10
65.945956
20
38.015481
11
66.003797
21
38.054760
0
LINE
8
Layer 1
10
66.003797
20
38.054760
11
66.055842
21
38.077479
0
LINE
8
Layer 1
10
66.055842
20
38.077479
11
66.097608
21
38.105987
0
LINE
8
Layer 1
10
66.097608
20
38.105987
11
66.139374
21
38.085102
0
LINE
8
Layer 1
10
66.300224
20
38.056349
11
66.222824
21
38.060724
0
LINE
8
Layer 1
10
66.222824
20
38.060724
11
66.265420
21
38.090891
0
LINE
8
Layer 1
10
66.265420
20
38.090891
11
66.300224
21
38.056335
0
LINE
8
Layer 1
10
64.415754
20
37.989869
11
64.454455
21
37.937249
0
LINE
8
Layer 1
10
64.454455
20
37.937249
11
64.402743
21
37.885122
0
LINE
8
Layer 1
10
64.402743
20
37.885122
11
64.325756
21
38.024345
0
LINE
8
Layer 1
10
64.325756
20
38.024345
11
64.415754
21
37.989869
0
LINE
8
Layer 1
10
65.168714
20
38.022438
11
65.106063
21
38.022438
0
LINE
8
Layer 1
10
65.106063
20
38.022438
11
65.164734
21
38.041855
0
LINE
8
Layer 1
10
65.164734
20
38.041855
11
65.168714
21
38.022438
0
LINE
8
Layer 1
10
69.896714
20
37.932192
11
69.843842
21
37.980505
0
LINE
8
Layer 1
10
69.843842
20
37.980505
11
69.862384
21
38.004042
0
LINE
8
Layer 1
10
69.862384
20
38.004042
11
69.896694
21
37.932192
0
LINE
8
Layer 1
10
65.298134
20
37.940715
11
65.372305
21
37.944440
0
LINE
8
Layer 1
10
65.372305
20
37.944440
11
65.404791
21
37.951806
0
LINE
8
Layer 1
10
65.404791
20
37.951806
11
65.408770
21
37.897278
0
LINE
8
Layer 1
10
65.408770
20
37.897278
11
65.387886
21
37.813828
0
LINE
8
Layer 1
10
65.387886
20
37.813828
11
65.367905
21
37.781756
0
LINE
8
Layer 1
10
65.367905
20
37.781756
11
65.359720
21
37.824764
0
LINE
8
Layer 1
10
65.359720
20
37.824764
11
65.317043
21
37.855427
0
LINE
8
Layer 1
10
65.317043
20
37.855427
11
65.262594
21
37.834543
0
LINE
8
Layer 1
10
65.262594
20
37.834543
11
65.207984
21
37.813658
0
LINE
8
Layer 1
10
65.207984
20
37.813658
11
65.163398
21
37.865867
0
LINE
8
Layer 1
10
65.163398
20
37.865867
11
65.150134
21
37.920146
0
LINE
8
Layer 1
10
65.150134
20
37.920146
11
65.179138
21
37.938886
0
LINE
8
Layer 1
10
65.179138
20
37.938886
11
65.231428
21
37.957682
0
LINE
8
Layer 1
10
65.231428
20
37.957682
11
65.298137
21
37.940692
0
LINE
8
Layer 1
10
64.248167
20
37.871079
11
64.302946
21
37.731029
0
LINE
8
Layer 1
10
64.302946
20
37.731029
11
64.156264
21
37.829976
0
LINE
8
Layer 1
10
64.156264
20
37.829976
11
64.114583
21
37.870252
0
LINE
8
Layer 1
10
64.114583
20
37.870252
11
64.136286
21
37.918069
0
LINE
8
Layer 1
10
64.136286
20
37.918069
11
64.248159
21
37.871079
0
LINE
8
Layer 1
10
72.272669
20
37.862387
11
72.213749
21
37.853694
0
LINE
8
Layer 1
10
72.213749
20
37.853694
11
72.246566
21
37.897201
0
LINE
8
Layer 1
10
72.246566
20
37.897201
11
72.272671
21
37.862395
0
LINE
8
Layer 1
10
64.026081
20
37.747539
11
63.978846
21
37.730803
0
LINE
8
Layer 1
10
63.978846
20
37.730803
11
63.989288
21
37.751038
0
LINE
8
Layer 1
10
63.989288
20
37.751038
11
63.985309
21
37.771584
0
LINE
8
Layer 1
10
63.985309
20
37.771584
11
63.938076
21
37.836140
0
LINE
8
Layer 1
10
63.938076
20
37.836140
11
64.002132
21
37.811445
0
LINE
8
Layer 1
10
64.002132
20
37.811445
11
64.026093
21
37.747553
0
LINE
8
Layer 1
10
65.513123
20
37.792799
11
65.481796
21
37.771915
0
LINE
8
Layer 1
10
65.481796
20
37.771915
11
65.450472
21
37.792799
0
LINE
8
Layer 1
10
65.450472
20
37.792799
11
65.481796
21
37.813683
0
LINE
8
Layer 1
10
65.481796
20
37.813683
11
65.513123
21
37.792799
0
LINE
8
Layer 1
10
72.137693
20
37.645454
11
72.229429
21
37.499271
0
LINE
8
Layer 1
10
72.229429
20
37.499271
11
72.265974
21
37.399745
0
LINE
8
Layer 1
10
72.265974
20
37.399745
11
72.255447
21
37.342313
0
LINE
8
Layer 1
10
72.255447
20
37.342313
11
72.165364
21
37.356565
0
LINE
8
Layer 1
10
72.165364
20
37.356565
11
72.131306
21
37.386396
0
LINE
8
Layer 1
10
72.131306
20
37.386396
11
72.120694
21
37.352998
0
LINE
8
Layer 1
10
72.120694
20
37.352998
11
72.089701
21
37.333581
0
LINE
8
Layer 1
10
72.089701
20
37.333581
11
72.093934
21
37.545566
0
LINE
8
Layer 1
10
72.093934
20
37.545566
11
72.138768
21
37.580203
0
LINE
8
Layer 1
10
72.138768
20
37.580203
11
72.071890
21
37.642690
0
LINE
8
Layer 1
10
72.071890
20
37.642690
11
72.049002
21
37.726386
0
LINE
8
Layer 1
10
72.049002
20
37.726386
11
72.137673
21
37.645425
0
LINE
8
Layer 1
10
63.894393
20
37.664136
11
63.907911
21
37.506682
0
LINE
8
Layer 1
10
63.907911
20
37.506682
11
63.841200
21
37.590132
0
LINE
8
Layer 1
10
63.841200
20
37.590132
11
63.821867
21
37.647480
0
LINE
8
Layer 1
10
63.821867
20
37.647480
11
63.894382
21
37.664131
0
LINE
8
Layer 1
10
63.363099
20
37.573555
11
63.344472
21
37.542313
0
LINE
8
Layer 1
10
63.344472
20
37.542313
11
63.314887
21
37.513721
0
LINE
8
Layer 1
10
63.314887
20
37.513721
11
63.354169
21
37.508528
0
LINE
8
Layer 1
10
63.354169
20
37.508528
11
63.383918
21
37.604907
0
LINE
8
Layer 1
10
63.383918
20
37.604907
11
63.363118
21
37.573580
0
LINE
8
Layer 1
10
71.825428
20
37.464690
11
71.872994
21
37.428890
0
LINE
8
Layer 1
10
71.872994
20
37.428890
11
71.832554
21
37.360355
0
LINE
8
Layer 1
10
71.832554
20
37.360355
11
71.768084
21
37.288671
0
LINE
8
Layer 1
10
71.768084
20
37.288671
11
71.723168
21
37.282857
0
LINE
8
Layer 1
10
71.723168
20
37.282857
11
71.679742
21
37.266121
0
LINE
8
Layer 1
10
71.679742
20
37.266121
11
71.383979
21
37.323136
0
LINE
8
Layer 1
10
71.383979
20
37.323136
11
71.338845
21
37.419535
0
LINE
8
Layer 1
10
71.338845
20
37.419535
11
71.474886
21
37.432525
0
LINE
8
Layer 1
10
71.474886
20
37.432525
11
71.647089
21
37.459308
0
LINE
8
Layer 1
10
71.647089
20
37.459308
11
71.825428
21
37.464698
0
LINE
8
Layer 1
10
71.086554
20
37.425997
11
71.053904
21
37.404943
0
LINE
8
Layer 1
10
71.053904
20
37.404943
11
71.034261
21
37.458642
0
LINE
8
Layer 1
10
71.034261
20
37.458642
11
71.086551
21
37.425991
0
LINE
8
Layer 1
10
69.588921
20
37.370055
11
69.589003
21
37.276163
0
LINE
8
Layer 1
10
69.589003
20
37.276163
11
69.541849
21
37.290584
0
LINE
8
Layer 1
10
69.541849
20
37.290584
11
69.522856
21
37.342792
0
LINE
8
Layer 1
10
69.522856
20
37.342792
11
69.552277
21
37.437927
0
LINE
8
Layer 1
10
69.552277
20
37.437927
11
69.588904
21
37.370058
0
LINE
8
Layer 1
10
63.279564
20
37.350585
11
63.081337
21
37.104211
0
LINE
8
Layer 1
10
63.081337
20
37.104211
11
63.141586
21
37.114088
0
LINE
8
Layer 1
10
63.141586
20
37.114088
11
63.216914
21
37.194389
0
LINE
8
Layer 1
10
63.216914
20
37.194389
11
63.304755
21
37.306677
0
LINE
8
Layer 1
10
63.304755
20
37.306677
11
63.370598
21
37.390729
0
LINE
8
Layer 1
10
63.370598
20
37.390729
11
63.279581
21
37.350599
0
LINE
8
Layer 1
10
69.331521
20
37.345886
11
69.368151
21
37.241551
0
LINE
8
Layer 1
10
69.368151
20
37.241551
11
69.398399
21
37.166635
0
LINE
8
Layer 1
10
69.398399
20
37.166635
11
69.416546
21
37.135723
0
LINE
8
Layer 1
10
69.416546
20
37.135723
11
69.469914
21
37.091389
0
LINE
8
Layer 1
10
69.469914
20
37.091389
11
69.516902
21
37.024762
0
LINE
8
Layer 1
10
69.516902
20
37.024762
11
69.447625
21
37.004611
0
LINE
8
Layer 1
10
69.447625
20
37.004611
11
69.328869
21
37.033034
0
LINE
8
Layer 1
10
69.328869
20
37.033034
11
69.269783
21
37.098749
0
LINE
8
Layer 1
10
69.269783
20
37.098749
11
69.258268
21
37.286616
0
LINE
8
Layer 1
10
69.258268
20
37.286616
11
69.331524
21
37.345872
0
LINE
8
Layer 1
10
64.218924
20
37.295317
11
64.163400
21
37.252806
0
LINE
8
Layer 1
10
64.163400
20
37.252806
11
64.177144
21
37.333604
0
LINE
8
Layer 1
10
64.177144
20
37.333604
11
64.218913
21
37.295317
0
LINE
8
Layer 1
10
68.322563
20
37.260514
11
68.341105
21
37.208303
0
LINE
8
Layer 1
10
68.341105
20
37.208303
11
68.372844
21
37.105216
0
LINE
8
Layer 1
10
68.372844
20
37.105216
11
68.313676
21
37.031544
0
LINE
8
Layer 1
10
68.313676
20
37.031544
11
68.260720
21
37.083089
0
LINE
8
Layer 1
10
68.260720
20
37.083089
11
68.226912
21
37.175159
0
LINE
8
Layer 1
10
68.226912
20
37.175159
11
68.266689
21
37.169430
0
LINE
8
Layer 1
10
68.266689
20
37.169430
11
68.296934
21
37.161979
0
LINE
8
Layer 1
10
68.296934
20
37.161979
11
68.227657
21
37.219326
0
LINE
8
Layer 1
10
68.227657
20
37.219326
11
68.205870
21
37.247097
0
LINE
8
Layer 1
10
68.205870
20
37.247097
11
68.296861
21
37.311074
0
LINE
8
Layer 1
10
68.296861
20
37.311074
11
68.322543
21
37.260522
0
LINE
8
Layer 1
10
69.819513
20
37.255301
11
69.813446
21
37.179971
0
LINE
8
Layer 1
10
69.813446
20
37.179971
11
69.763227
21
37.279914
0
LINE
8
Layer 1
10
69.763227
20
37.279914
11
69.819494
21
37.255304
0
LINE
8
Layer 1
10
68.118174
20
37.266819
11
68.101353
21
37.087735
0
LINE
8
Layer 1
10
68.101353
20
37.087735
11
67.997100
21
37.054670
0
LINE
8
Layer 1
10
67.997100
20
37.054670
11
67.950113
21
37.103313
0
LINE
8
Layer 1
10
67.950113
20
37.103313
11
67.963293
21
37.123549
0
LINE
8
Layer 1
10
67.963293
20
37.123549
11
68.012270
21
37.208323
0
LINE
8
Layer 1
10
68.012270
20
37.208323
11
68.118179
21
37.266833
0
LINE
8
Layer 1
10
72.485029
20
37.272731
11
72.496882
21
37.222679
0
LINE
8
Layer 1
10
72.496882
20
37.222679
11
72.345394
21
37.104007
0
LINE
8
Layer 1
10
72.345394
20
37.104007
11
72.295342
21
37.164420
0
LINE
8
Layer 1
10
72.295342
20
37.164420
11
72.357662
21
37.181974
0
LINE
8
Layer 1
10
72.357662
20
37.181974
11
72.401582
21
37.217277
0
LINE
8
Layer 1
10
72.401582
20
37.217277
11
72.415411
21
37.277938
0
LINE
8
Layer 1
10
72.415411
20
37.277938
11
72.485021
21
37.272745
0
LINE
8
Layer 1
10
71.316051
20
37.206118
11
71.244781
21
37.205271
0
LINE
8
Layer 1
10
71.244781
20
37.205271
11
71.245628
21
37.235184
0
LINE
8
Layer 1
10
71.245628
20
37.235184
11
71.316068
21
37.205932
0
LINE
8
Layer 1
10
67.269838
20
37.148005
11
67.406738
21
37.035384
0
LINE
8
Layer 1
10
67.406738
20
37.035384
11
67.421978
21
37.014500
0
LINE
8
Layer 1
10
67.421978
20
37.014500
11
67.371841
21
36.993136
0
LINE
8
Layer 1
10
67.371841
20
36.993136
11
67.319799
21
36.980351
0
LINE
8
Layer 1
10
67.319799
20
36.980351
11
67.252591
21
37.016814
0
LINE
8
Layer 1
10
67.252591
20
37.016814
11
67.207842
21
37.120734
0
LINE
8
Layer 1
10
67.207842
20
37.120734
11
67.175606
21
37.198136
0
LINE
8
Layer 1
10
67.175606
20
37.198136
11
67.269829
21
37.148000
0
LINE
8
Layer 1
10
64.251609
20
37.072754
11
64.170891
21
36.968501
0
LINE
8
Layer 1
10
64.170891
20
36.968501
11
64.091832
21
36.985095
0
LINE
8
Layer 1
10
64.091832
20
36.985095
11
64.114551
21
37.045426
0
LINE
8
Layer 1
10
64.114551
20
37.045426
11
64.132867
21
37.082964
0
LINE
8
Layer 1
10
64.132867
20
37.082964
11
64.177698
21
37.146941
0
LINE
8
Layer 1
10
64.177698
20
37.146941
11
64.236910
21
37.186397
0
LINE
8
Layer 1
10
64.236910
20
37.186397
11
64.251620
21
37.072773
0
LINE
8
Layer 1
10
69.880590
20
37.067298
11
69.890468
21
37.041221
0
LINE
8
Layer 1
10
69.890468
20
37.041221
11
69.846216
21
37.028521
0
LINE
8
Layer 1
10
69.846216
20
37.028521
11
69.813151
21
37.077249
0
LINE
8
Layer 1
10
69.813151
20
37.077249
11
69.851934
21
37.131778
0
LINE
8
Layer 1
10
69.851934
20
37.131778
11
69.880607
21
37.067304
0
LINE
8
Layer 1
10
72.234537
20
37.135176
11
72.213738
21
37.103849
0
LINE
8
Layer 1
10
72.213738
20
37.103849
11
72.192853
21
37.135176
0
LINE
8
Layer 1
10
72.192853
20
37.135176
11
72.213738
21
37.166499
0
LINE
8
Layer 1
10
72.213738
20
37.166499
11
72.234537
21
37.135176
0
LINE
8
Layer 1
10
64.068987
20
37.035977
11
64.053917
21
36.978630
0
LINE
8
Layer 1
10
64.053917
20
36.978630
11
64.044378
21
36.947309
0
LINE
8
Layer 1
10
64.044378
20
36.947309
11
63.964489
21
36.971919
0
LINE
8
Layer 1
10
63.964489
20
36.971919
11
63.941290
21
37.066723
0
LINE
8
Layer 1
10
63.941290
20
37.066723
11
64.068993
21
37.035977
0
LINE
8
Layer 1
10
69.765663
20
37.068961
11
69.730860
21
37.055696
0
LINE
8
Layer 1
10
69.730860
20
37.055696
11
69.687931
21
37.086938
0
LINE
8
Layer 1
10
69.687931
20
37.086938
11
69.765663
21
37.068961
0
LINE
8
Layer 1
10
67.047183
20
36.984269
11
67.174555
21
36.917639
0
LINE
8
Layer 1
10
67.174555
20
36.917639
11
67.203892
21
36.907620
0
LINE
8
Layer 1
10
67.203892
20
36.907620
11
67.065911
21
36.863116
0
LINE
8
Layer 1
10
67.065911
20
36.863116
11
66.992985
21
36.850501
0
LINE
8
Layer 1
10
66.992985
20
36.850501
11
66.941937
21
36.816112
0
LINE
8
Layer 1
10
66.941937
20
36.816112
11
66.955455
21
37.033234
0
LINE
8
Layer 1
10
66.955455
20
37.033234
11
67.047194
21
36.984258
0
LINE
8
Layer 1
10
70.334994
20
37.029503
11
70.351730
21
37.007264
0
LINE
8
Layer 1
10
70.351730
20
37.007264
11
70.393084
21
36.978178
0
LINE
8
Layer 1
10
70.393084
20
36.978178
11
70.396076
21
36.925389
0
LINE
8
Layer 1
10
70.396076
20
36.925389
11
70.285281
21
37.045057
0
LINE
8
Layer 1
10
70.285281
20
37.045057
11
70.335003
21
37.029478
0
LINE
8
Layer 1
10
66.640313
20
37.020278
11
66.586944
21
36.999393
0
LINE
8
Layer 1
10
66.586944
20
36.999393
11
66.546420
21
37.020278
0
LINE
8
Layer 1
10
66.546420
20
37.020278
11
66.599788
21
37.041162
0
LINE
8
Layer 1
10
66.599788
20
37.041162
11
66.640313
21
37.020278
0
LINE
8
Layer 1
10
67.538547
20
36.948348
11
67.480869
21
36.963334
0
LINE
8
Layer 1
10
67.480869
20
36.963334
11
67.546748
21
37.019852
0
LINE
8
Layer 1
10
67.546748
20
37.019852
11
67.538564
21
36.948336
0
LINE
8
Layer 1
10
72.338994
20
37.000627
11
72.288194
21
36.955460
0
LINE
8
Layer 1
10
72.288194
20
36.955460
11
72.320347
21
37.041151
0
LINE
8
Layer 1
10
72.320347
20
37.041151
11
72.338974
21
37.000627
0
LINE
8
Layer 1
10
63.893654
20
36.986798
11
63.926719
21
36.955471
0
LINE
8
Layer 1
10
63.926719
20
36.955471
11
63.843184
21
36.968171
0
LINE
8
Layer 1
10
63.843184
20
36.968171
11
63.893654
21
36.986798
0
LINE
8
Layer 1
10
68.490474
20
36.967381
11
68.550308
21
36.935309
0
LINE
8
Layer 1
10
68.550308
20
36.935309
11
68.468432
21
36.941292
0
LINE
8
Layer 1
10
68.468432
20
36.941292
11
68.377938
21
36.973364
0
LINE
8
Layer 1
10
68.377938
20
36.973364
11
68.490474
21
36.967381
0
LINE
8
Layer 1
10
69.754744
20
36.974352
11
69.704607
21
36.974352
0
LINE
8
Layer 1
10
69.704607
20
36.974352
11
69.729697
21
36.999385
0
LINE
8
Layer 1
10
69.729697
20
36.999385
11
69.754730
21
36.974352
0
LINE
8
Layer 1
10
66.765510
20
36.949488
11
66.681063
21
36.906065
0
LINE
8
Layer 1
10
66.681063
20
36.906065
11
66.674770
21
36.947916
0
LINE
8
Layer 1
10
66.674770
20
36.947916
11
66.765515
21
36.949609
0
LINE
8
Layer 1
10
67.671450
20
36.924435
11
67.631177
21
36.895183
0
LINE
8
Layer 1
10
67.631177
20
36.895183
11
67.579632
21
36.934962
0
LINE
8
Layer 1
10
67.579632
20
36.934962
11
67.671450
21
36.924435
0
LINE
8
Layer 1
10
72.055540
20
36.904623
11
72.056105
21
36.830701
0
LINE
8
Layer 1
10
72.056105
20
36.830701
11
72.063471
21
36.784710
0
LINE
8
Layer 1
10
72.063471
20
36.784710
11
72.039115
21
36.629657
0
LINE
8
Layer 1
10
72.039115
20
36.629657
11
71.986244
21
36.698440
0
LINE
8
Layer 1
10
71.986244
20
36.698440
11
71.939256
21
36.766475
0
LINE
8
Layer 1
10
71.939256
20
36.766475
11
71.954412
21
36.891942
0
LINE
8
Layer 1
10
71.954412
20
36.891942
11
72.055679
21
36.904642
0
LINE
8
Layer 1
10
70.763479
20
36.916072
11
70.800439
21
36.840905
0
LINE
8
Layer 1
10
70.800439
20
36.840905
11
70.817259
21
36.747845
0
LINE
8
Layer 1
10
70.817259
20
36.747845
11
70.817823
21
36.702930
0
LINE
8
Layer 1
10
70.817823
20
36.702930
11
70.779785
21
36.701801
0
LINE
8
Layer 1
10
70.779785
20
36.701801
11
70.729812
21
36.706034
0
LINE
8
Layer 1
10
70.729812
20
36.706034
11
70.674539
21
36.784430
0
LINE
8
Layer 1
10
70.674539
20
36.784430
11
70.700645
21
36.832410
0
LINE
8
Layer 1
10
70.700645
20
36.832410
11
70.674539
21
36.880476
0
LINE
8
Layer 1
10
70.674539
20
36.880476
11
70.681426
21
36.928625
0
LINE
8
Layer 1
10
70.681426
20
36.928625
11
70.763634
21
36.915925
0
LINE
8
Layer 1
10
64.207014
20
36.882364
11
64.208707
21
36.811509
0
LINE
8
Layer 1
10
64.208707
20
36.811509
11
64.177381
21
36.789467
0
LINE
8
Layer 1
10
64.177381
20
36.789467
11
64.157992
21
36.779364
0
LINE
8
Layer 1
10
64.157992
20
36.779364
11
64.123186
21
36.766579
0
LINE
8
Layer 1
10
64.123186
20
36.766579
11
64.091114
21
36.787125
0
LINE
8
Layer 1
10
64.091114
20
36.787125
11
64.206969
21
36.882344
0
LINE
8
Layer 1
10
69.687439
20
36.837592
11
69.729950
21
36.851929
0
LINE
8
Layer 1
10
69.729950
20
36.851929
11
69.640037
21
36.775523
0
LINE
8
Layer 1
10
69.640037
20
36.775523
11
69.613593
21
36.845548
0
LINE
8
Layer 1
10
69.613593
20
36.845548
11
69.635804
21
36.892535
0
LINE
8
Layer 1
10
69.635804
20
36.892535
11
69.661232
21
36.846792
0
LINE
8
Layer 1
10
69.661232
20
36.846792
11
69.687422
21
36.837592
0
LINE
8
Layer 1
10
66.710302
20
36.807843
11
66.665223
21
36.789781
0
LINE
8
Layer 1
10
66.665223
20
36.789781
11
66.727791
21
36.861380
0
LINE
8
Layer 1
10
66.727791
20
36.861380
11
66.710293
21
36.807846
0
LINE
8
Layer 1
10
68.039123
20
36.858894
11
67.959950
21
36.822430
0
LINE
8
Layer 1
10
67.959950
20
36.822430
11
68.078237
21
36.792927
0
LINE
8
Layer 1
10
68.078237
20
36.792927
11
68.185225
21
36.802128
0
LINE
8
Layer 1
10
68.185225
20
36.802128
11
68.039124
21
36.858894
0
LINE
8
Layer 1
10
63.865934
20
36.802625
11
63.869490
21
36.761025
0
LINE
8
Layer 1
10
63.869490
20
36.761025
11
63.832942
21
36.717600
0
LINE
8
Layer 1
10
63.832942
20
36.717600
11
63.881089
21
36.758454
0
LINE
8
Layer 1
10
63.881089
20
36.758454
11
63.969512
21
36.774033
0
LINE
8
Layer 1
10
63.969512
20
36.774033
11
64.040118
21
36.748943
0
LINE
8
Layer 1
10
64.040118
20
36.748943
11
64.138983
21
36.686290
0
LINE
8
Layer 1
10
64.138983
20
36.686290
11
64.224257
21
36.623642
0
LINE
8
Layer 1
10
64.224257
20
36.623642
11
64.259890
21
36.574084
0
LINE
8
Layer 1
10
64.259890
20
36.574084
11
64.333147
21
36.534886
0
LINE
8
Layer 1
10
64.333147
20
36.534886
11
64.423393
21
36.514510
0
LINE
8
Layer 1
10
64.423393
20
36.514510
11
64.526650
21
36.454761
0
LINE
8
Layer 1
10
64.526650
20
36.454761
11
64.607532
21
36.358052
0
LINE
8
Layer 1
10
64.607532
20
36.358052
11
64.556235
21
36.371486
0
LINE
8
Layer 1
10
64.556235
20
36.371486
11
64.465159
21
36.394120
0
LINE
8
Layer 1
10
64.465159
20
36.394120
11
64.381875
21
36.434314
0
LINE
8
Layer 1
10
64.381875
20
36.434314
11
64.306796
21
36.463815
0
LINE
8
Layer 1
10
64.306796
20
36.463815
11
64.158294
21
36.559367
0
LINE
8
Layer 1
10
64.158294
20
36.559367
11
64.014759
21
36.667675
0
LINE
8
Layer 1
10
64.014759
20
36.667675
11
63.821177
21
36.632541
0
LINE
8
Layer 1
10
63.821177
20
36.632541
11
63.767143
21
36.624751
0
LINE
8
Layer 1
10
63.767143
20
36.624751
11
63.614083
21
36.561771
0
LINE
8
Layer 1
10
63.614083
20
36.561771
11
63.637281
21
36.501607
0
LINE
8
Layer 1
10
63.637281
20
36.501607
11
63.655908
21
36.467379
0
LINE
8
Layer 1
10
63.655908
20
36.467379
11
63.600138
21
36.488828
0
LINE
8
Layer 1
10
63.600138
20
36.488828
11
63.592857
21
36.602860
0
LINE
8
Layer 1
10
63.592857
20
36.602860
11
63.613741
21
36.630630
0
LINE
8
Layer 1
10
63.613741
20
36.630630
11
63.660728
21
36.683998
0
LINE
8
Layer 1
10
63.660728
20
36.683998
11
63.759842
21
36.779799
0
LINE
8
Layer 1
10
63.759842
20
36.779799
11
63.818928
21
36.808221
0
LINE
8
Layer 1
10
63.818928
20
36.808221
11
63.865915
21
36.802662
0
LINE
8
Layer 1
10
66.891015
20
36.790752
11
66.859691
21
36.769867
0
LINE
8
Layer 1
10
66.859691
20
36.769867
11
66.828367
21
36.790752
0
LINE
8
Layer 1
10
66.828367
20
36.790752
11
66.859691
21
36.811552
0
LINE
8
Layer 1
10
66.859691
20
36.811552
11
66.891015
21
36.790752
0
LINE
8
Layer 1
10
68.845765
20
36.738295
11
68.833488
21
36.677301
0
LINE
8
Layer 1
10
68.833488
20
36.677301
11
68.843281
21
36.628821
0
LINE
8
Layer 1
10
68.843281
20
36.628821
11
68.845539
21
36.533190
0
LINE
8
Layer 1
10
68.845539
20
36.533190
11
68.761092
21
36.508919
0
LINE
8
Layer 1
10
68.761092
20
36.508919
11
68.717836
21
36.561127
0
LINE
8
Layer 1
10
68.717836
20
36.561127
11
68.655849
21
36.693221
0
LINE
8
Layer 1
10
68.655849
20
36.693221
11
68.716510
21
36.733413
0
LINE
8
Layer 1
10
68.716510
20
36.733413
11
68.778912
21
36.747016
0
LINE
8
Layer 1
10
68.778912
20
36.747016
11
68.845790
21
36.738323
0
LINE
8
Layer 1
10
68.592287
20
36.728135
11
68.548035
21
36.707251
0
LINE
8
Layer 1
10
68.548035
20
36.707251
11
68.529662
21
36.728135
0
LINE
8
Layer 1
10
68.529662
20
36.728135
11
68.573914
21
36.749019
0
LINE
8
Layer 1
10
68.573914
20
36.749019
11
68.592287
21
36.728135
0
LINE
8
Layer 1
10
66.406997
20
36.687695
11
66.388766
21
36.669379
0
LINE
8
Layer 1
10
66.388766
20
36.669379
11
66.352221
21
36.705924
0
LINE
8
Layer 1
10
66.352221
20
36.705924
11
66.370452
21
36.724240
0
LINE
8
Layer 1
10
66.370452
20
36.724240
11
66.407000
21
36.687695
0
LINE
8
Layer 1
10
70.865760
20
36.616511
11
70.773606
21
36.609709
0
LINE
8
Layer 1
10
70.773606
20
36.609709
11
70.906445
21
36.707826
0
LINE
8
Layer 1
10
70.906445
20
36.707826
11
70.865760
21
36.616505
0
LINE
8
Layer 1
10
66.160460
20
36.665482
11
66.141466
21
36.644597
0
LINE
8
Layer 1
10
66.141466
20
36.644597
11
66.133508
21
36.602913
0
LINE
8
Layer 1
10
66.133508
20
36.602913
11
66.121062
21
36.561147
0
LINE
8
Layer 1
10
66.121062
20
36.561147
11
66.110450
21
36.653383
0
LINE
8
Layer 1
10
66.110450
20
36.653383
11
66.160423
21
36.665490
0
LINE
8
Layer 1
10
68.978433
20
36.634164
11
68.936664
21
36.602922
0
LINE
8
Layer 1
10
68.936664
20
36.602922
11
68.908809
21
36.651565
0
LINE
8
Layer 1
10
68.908809
20
36.651565
11
68.978422
21
36.634152
0
LINE
8
Layer 1
10
70.560832
20
36.628931
11
70.523127
21
36.592468
0
LINE
8
Layer 1
10
70.523127
20
36.592468
11
70.485335
21
36.628931
0
LINE
8
Layer 1
10
70.485335
20
36.628931
11
70.523127
21
36.665479
0
LINE
8
Layer 1
10
70.523127
20
36.665479
11
70.560832
21
36.628931
0
LINE
8
Layer 1
10
66.950002
20
36.600850
11
66.904341
21
36.559993
0
LINE
8
Layer 1
10
66.904341
20
36.559993
11
66.863154
21
36.630684
0
LINE
8
Layer 1
10
66.863154
20
36.630684
11
66.950002
21
36.600850
0
LINE
8
Layer 1
10
63.914872
20
36.596137
11
63.917694
21
36.500918
0
LINE
8
Layer 1
10
63.917694
20
36.500918
11
63.798529
21
36.498378
0
LINE
8
Layer 1
10
63.798529
20
36.498378
11
63.914878
21
36.596002
0
LINE
8
Layer 1
10
71.692018
20
36.592361
11
71.671134
21
36.561037
0
LINE
8
Layer 1
10
71.671134
20
36.561037
11
71.650334
21
36.592361
0
LINE
8
Layer 1
10
71.650334
20
36.592361
11
71.671134
21
36.623606
0
LINE
8
Layer 1
10
71.671134
20
36.623606
11
71.692018
21
36.592361
0
LINE
8
Layer 1
10
70.857101
20
36.487945
11
70.810114
21
36.457284
0
LINE
8
Layer 1
10
70.810114
20
36.457284
11
70.803651
21
36.488608
0
LINE
8
Layer 1
10
70.803651
20
36.488608
11
70.857104
21
36.487761
 0 
ENDSEC
 0 
EOF