<?xml version="1.0" encoding="UTF-8" standalone="no"?>
<!-- Created with Inkscape (http://www.inkscape.org/) -->

<svg
   width="210mm"
   height="297mm"
   viewBox="0 0 210 297"
   version="1.1"
   id="svg5"
   inkscape:version="1.1.1 (3bf5ae0d25, 2021-09-20)"
   sodipodi:docname="top_panel.svg"
   xmlns:inkscape="http://www.inkscape.org/namespaces/inkscape"
   xmlns:sodipodi="http://sodipodi.sourceforge.net/DTD/sodipodi-0.dtd"
   xmlns="http://www.w3.org/2000/svg"
   xmlns:svg="http://www.w3.org/2000/svg">
  <sodipodi:namedview
     id="namedview7"
     pagecolor="#ffffff"
     bordercolor="#666666"
     borderopacity="1.0"
     inkscape:pageshadow="2"
     inkscape:pageopacity="0.0"
     inkscape:pagecheckerboard="0"
     inkscape:document-units="mm"
     showgrid="false"
     inkscape:zoom="2.1997092"
     inkscape:cx="260.33661"
     inkscape:cy="457.9725"
     inkscape:window-width="2560"
     inkscape:window-height="1377"
     inkscape:window-x="-8"
     inkscape:window-y="-8"
     inkscape:window-maximized="1"
     inkscape:current-layer="layer1" />
  <defs
     id="defs2">
    <marker
       id="DistanceX"
       orient="auto"
       refX="0.0"
       refY="0.0"
       style="overflow:visible">
      <path
         d="M 3,-3 L -3,3 M 0,-5 L  0,5"
         style="stroke:#000000; stroke-width:0.5"
         id="path826" />
    </marker>
    <pattern
       id="Hatch"
       patternUnits="userSpaceOnUse"
       width="8"
       height="8"
       x="0"
       y="0">
      <path
         d="M8 4 l-4,4"
         stroke="#000000"
         stroke-width="0.25"
         linecap="square"
         id="path829" />
      <path
         d="M6 2 l-4,4"
         stroke="#000000"
         stroke-width="0.25"
         linecap="square"
         id="path831" />
      <path
         d="M4 0 l-4,4"
         stroke="#000000"
         stroke-width="0.25"
         linecap="square"
         id="path833" />
    </pattern>
    <symbol
       id="*MODEL_SPACE" />
    <symbol
       id="*PAPER_SPACE" />
  </defs>
  <g
     inkscape:label="Layer 1"
     inkscape:groupmode="layer"
     id="layer1">
    <g
       aria-label="ð„¢"
       id="text11111"
       style="font-size:15.7868px;line-height:1.25;stroke-width:0.39467"
       transform="translate(-0.88770931,-0.85911355)">
      <path
         d="m 93.542492,103.48478 c 0.05139,-0.0411 0.113054,-0.0771 0.185002,-0.10792 0.06167,-0.0257 0.136181,-0.0488 0.223544,-0.0694 0.0925,-0.0257 0.197849,-0.0385 0.316044,-0.0385 0.174723,0 0.328891,0.0334 0.462504,0.10021 0.138751,0.0617 0.254377,0.14646 0.346878,0.25438 0.09764,0.10791 0.172154,0.23382 0.223543,0.37771 0.05139,0.13875 0.07708,0.28264 0.07708,0.43167 0,0.17986 -0.03597,0.34431 -0.107917,0.49334 -0.06681,0.14389 -0.156737,0.26722 -0.269794,0.37 -0.113057,0.10278 -0.24153,0.18243 -0.38542,0.23896 -0.14389,0.0514 -0.292919,0.0771 -0.447087,0.0771 -0.231252,0 -0.465074,-0.0565 -0.701465,-0.16958 -0.236391,-0.11305 -0.452226,-0.28007 -0.647505,-0.50105 -0.190141,-0.22097 -0.346878,-0.49334 -0.470212,-0.81709 -0.123335,-0.32889 -0.185002,-0.70403 -0.185002,-1.12542 0,-0.56015 0.09507,-1.04835 0.285211,-1.4646 0.195279,-0.41625 0.454795,-0.75799 0.778548,-1.02522 0.328892,-0.27236 0.706604,-0.47535 1.133135,-0.608958 0.426531,-0.133612 0.871049,-0.200418 1.333553,-0.200418 0.534449,0 1.022647,0.08222 1.464595,0.246669 0.447087,0.159307 0.829938,0.400837 1.148552,0.724587 0.323753,0.31861 0.572991,0.71945 0.747714,1.20251 0.179863,0.48306 0.269794,1.04834 0.269794,1.69585 0,0.63209 -0.07194,1.20508 -0.215835,1.71897 -0.138751,0.51389 -0.331461,0.9764 -0.57813,1.38751 -0.246669,0.41112 -0.537018,0.77342 -0.871049,1.08689 -0.328891,0.31347 -0.680908,0.58584 -1.05605,0.81709 -0.375142,0.23125 -0.763131,0.42653 -1.163968,0.58584 -0.400837,0.15417 -0.796535,0.2775 -1.187094,0.37 -0.390559,0.0925 -0.765701,0.15931 -1.125426,0.20042 -0.354587,0.0411 -0.67577,0.0617 -0.96355,0.0617 v -1.06376 c 0.210696,0 0.454795,-0.0103 0.732298,-0.0308 0.282641,-0.0257 0.580699,-0.0719 0.894174,-0.13875 0.313475,-0.0668 0.634659,-0.15674 0.96355,-0.26979 0.328892,-0.11306 0.650075,-0.25952 0.96355,-0.43938 0.313475,-0.17987 0.608963,-0.3957 0.886466,-0.64751 0.277502,-0.25181 0.521601,-0.54986 0.732298,-0.89417 0.210696,-0.34431 0.375142,-0.73487 0.493337,-1.17168 0.123335,-0.44195 0.185002,-0.94042 0.185002,-1.49543 0,-0.53959 -0.06424,-0.99438 -0.19271,-1.36438 -0.123335,-0.37001 -0.29292,-0.66807 -0.508755,-0.89418 -0.210696,-0.22611 -0.457365,-0.38799 -0.740006,-0.48563 -0.277502,-0.0976 -0.570421,-0.14646 -0.878757,-0.14646 -0.277503,0 -0.549866,0.0385 -0.817091,0.11563 -0.267224,0.0771 -0.506184,0.20299 -0.716881,0.37771 -0.205557,0.17473 -0.372573,0.40598 -0.501046,0.69376 -0.123334,0.28778 -0.185001,0.6398 -0.185001,1.05605 0,0.072 0.0026,0.13875 0.0077,0.20042 0.0051,0.0565 0.01284,0.10535 0.02312,0.14646 0.01028,0.0514 0.02313,0.0977 0.03854,0.13875 z m 7.307558,-0.19271 c -0.23639,0 -0.43938,-0.0848 -0.60896,-0.25438 -0.16444,-0.16959 -0.246668,-0.37257 -0.246668,-0.60896 0,-0.23639 0.08222,-0.43681 0.246668,-0.60126 0.16958,-0.16445 0.37257,-0.24667 0.60896,-0.24667 0.24153,0 0.44709,0.0822 0.61667,0.24667 0.16959,0.16445 0.25438,0.36487 0.25438,0.60126 0,0.23639 -0.0848,0.43937 -0.25438,0.60896 -0.16958,0.16959 -0.37514,0.25438 -0.61667,0.25438 z m 0,3.42253 c -0.23639,0 -0.43938,-0.0848 -0.60896,-0.25438 -0.16444,-0.16959 -0.246668,-0.37257 -0.246668,-0.60896 0,-0.23639 0.08222,-0.43938 0.246668,-0.60897 0.16958,-0.17472 0.37257,-0.26208 0.60896,-0.26208 0.24153,0 0.44709,0.0874 0.61667,0.26208 0.16959,0.16959 0.25438,0.37258 0.25438,0.60897 0,0.23639 -0.0848,0.43937 -0.25438,0.60896 -0.16958,0.16959 -0.37514,0.25438 -0.61667,0.25438 z"
         style="font-family:'Yu Gothic UI';-inkscape-font-specification:'Yu Gothic UI'"
         id="path36010"
         sodipodi:nodetypes="cccscccscscssccsccsscccscscscsccccssssscscccssccsccccscscsssssscscscsss" />
    </g>
    <path
       d="m 91.257732,122.08601 a 3.9999999,3.9999999 0 1 0 7.999997,0 3.9999999,3.9999999 0 1 0 -7.999997,0 z"
       style="fill:none;stroke:#000000;stroke-width:0.264583"
       id="path840" />
    <path
       d="m 68.95173,122.08601 a 4.0000002,4.0000002 0 1 0 8,0 4.0000002,4.0000002 0 1 0 -8,0 z"
       style="fill:none;stroke:#000000;stroke-width:0.264583"
       id="path842" />
    <path
       d="m 113.56373,122.08601 a 4,4 0 1 0 8,0 4,4 0 1 0 -8,0 z"
       style="fill:none;stroke:#000000;stroke-width:0.264583"
       id="path844" />
    <path
       d="m 131.56373,128.58601 a 5.5,5.5 0 0 1 -5.5,5.5 h -61.612 a 5.5,5.5 0 0 1 -5.499999,-5.5 V 92.548015 a 5.5,5.5 0 0 1 5.499999,-5.5 h 61.612 a 5.5,5.5 0 0 1 5.5,5.5 z"
       style="fill:none;stroke:#000000;stroke-width:0.264583"
       id="path846" />
    <g
       aria-label="â§Š"
       id="text8569"
       style="font-size:15.7868px;line-height:1.25;stroke-width:0.39467"
       transform="translate(-0.16516805,-1.6839937)">
      <path
         d="m 77.58751,110.49179 v 0.15417 h -9.111327 v -0.15417 l 4.463163,-8.27905 h 0.115626 z m -1.734389,-0.86334 -2.828983,-5.2034 h -0.04625 l -2.813566,5.2034 z m -2.857748,-8.71026 c -0.236394,0 -0.439383,-0.0848 -0.608965,-0.25438 -0.164444,-0.16958 -0.246668,-0.37257 -0.246668,-0.60896 0,-0.236392 0.08222,-0.436812 0.246668,-0.601262 0.169582,-0.164443 0.372571,-0.246665 0.608965,-0.246665 0.241533,0 0.447091,0.08222 0.61667,0.246665 0.169587,0.16445 0.254378,0.36487 0.254378,0.601262 0,0.23639 -0.08479,0.43938 -0.254378,0.60896 -0.169579,0.16959 -0.375137,0.25438 -0.61667,0.25438 z"
         style="font-family:Corbel;-inkscape-font-specification:Corbel"
         id="path37616"
         sodipodi:nodetypes="ccccccccccccscscsssss" />
    </g>
    <g
       id="g9897"
       transform="matrix(0.02186273,0,0,0.01849964,110.87375,97.545754)">
      <g
         id="g9843">
	<path
   d="m 216.02,611.195 c 5.978,3.178 8.27853,-5.70673 4.61853,-11.40273 -19.866,-30.919 -57.59886,-133.42348 -26.7306,-200.02033 C 236.88037,307.0609 304.83088,282.234 304.83088,282.234 c 40.36991,24.32031 99.33748,84.13979 108.45905,128.10042 14.53925,70.0707 -1.84809,137.92319 -50.10512,195.47009 -4.28689,5.11215 2.668,12.388 8.607,9.349 46.1,-23.582 119.04819,-75.84151 124.88219,-169.97351 2.151,-28.764 -1.075,-69.034 -17.206,-119.851 -20.741,-64.406 -46.239,-94.459 -60.992,-107.365 -4.413,-3.861 -11.276,-0.439 -10.914,5.413 4.299,69.494 -21.845,87.129 -36.726,47.386 -5.943,-15.874 -9.409,-43.33 -9.409,-76.766 0,-55.665 -16.15,-112.967 -51.755,-159.531 -9.259,-12.109 -20.093,-23.424 -32.523,-33.073 -4.5,-3.494 -11.023,0.018 -10.611,5.7 2.734,37.736 0.257,145.885 -94.624,275.089 -86.029,119.851 -52.693,211.896 -40.864,236.826 22.616,47.759 54.162,75.806 84.97,92.187 z"
   id="path9841"
   sodipodi:nodetypes="ssscsscccsssssscccs" />
<path
   d="m 299.27268,516.12142 c -10.8126,0 -20.0973,-4.5836 -27.854,-13.7506 -7.5216,-9.1671 -11.2826,-20.1395 -11.2826,-32.9174 0,-12.7782 3.761,-23.612 11.2826,-32.5012 7.7567,-8.8892 17.0414,-13.3337 27.854,-13.3337 11.0477,0 20.4499,4.4445 28.2065,13.3337 7.7569,8.8892 11.6352,19.723 11.6352,32.5012 0,12.7779 -3.8783,23.7503 -11.6352,32.9174 -7.7566,9.167 -17.1588,13.7506 -28.2065,13.7506 z"
   style="font-family:'Yu Gothic UI';-inkscape-font-specification:'Yu Gothic UI';stroke-width:13.1561"
   id="path36056" />

</g>
      <g
         id="g9845">
</g>
      <g
         id="g9847">
</g>
      <g
         id="g9849">
</g>
      <g
         id="g9851">
</g>
      <g
         id="g9853">
</g>
      <g
         id="g9855">
</g>
      <g
         id="g9857">
</g>
      <g
         id="g9859">
</g>
      <g
         id="g9861">
</g>
      <g
         id="g9863">
</g>
      <g
         id="g9865">
</g>
      <g
         id="g9867">
</g>
      <g
         id="g9869">
</g>
      <g
         id="g9871">
</g>
      <g
         id="g9873">
</g>
    </g>
  </g>
</svg>
